<?xml version="1.0" encoding="UTF-8"?>
<!-- Generated by Pixelmator Pro 3.5.7 -->
<svg width="900" height="600" viewBox="0 0 900 600" xmlns="http://www.w3.org/2000/svg">
    <path id="Path" fill="#ffffff" stroke="none" d="M -0 0 L 900 0 L 900 600 L -0 600 Z"/>
    <path id="path1" fill="#000000" stroke="none" d="M -0 0 L 900 0 L 900 300 L -0 300 Z"/>
    <g id="Group">
        <g id="b">
            <path id="a" fill="#fcd116" stroke="none" d="M 254.347824 234.782623 L 450 197.334808 L 450 272.230438 Z"/>
            <g id="g1">
                <path id="path2" fill="#fcd116" stroke="none" d="M 269.240967 159.90976 L 464.330658 200.185333 L 435.669342 269.379883 Z"/>
            </g>
            <g id="g2">
                <path id="path3" fill="#fcd116" stroke="none" d="M 311.653015 96.435638 L 476.479584 208.303009 L 423.520416 261.262207 Z"/>
            </g>
        </g>
        <g id="g3">
            <g id="g4">
                <path id="path4" fill="#fcd116" stroke="none" d="M 375.127136 54.02356 L 484.59726 220.451935 L 415.40274 249.113281 Z"/>
                <g id="g5">
                    <path id="path5" fill="#fcd116" stroke="none" d="M 450 39.130432 L 487.447815 234.782623 L 412.552185 234.782623 Z"/>
                </g>
                <g id="g6">
                    <path id="path6" fill="#fcd116" stroke="none" d="M 524.872864 54.02356 L 484.59726 249.113281 L 415.40274 220.451935 Z"/>
                </g>
            </g>
        </g>
        <g id="g7">
            <g id="g8">
                <path id="path7" fill="#fcd116" stroke="none" d="M 588.346985 96.435638 L 476.479584 261.262207 L 423.520416 208.303009 Z"/>
                <g id="g9">
                    <path id="path8" fill="#fcd116" stroke="none" d="M 630.759033 159.90976 L 464.330658 269.379883 L 435.669342 200.185333 Z"/>
                </g>
                <g id="g10">
                    <path id="path9" fill="#fcd116" stroke="none" d="M 645.652161 234.782623 L 450 272.230438 L 450 197.334808 Z"/>
                </g>
            </g>
        </g>
    </g>
    <path id="path10" fill="#0072c6" stroke="none" d="M -0 234.782623 L 900 234.782623 L 900 365.217407 L -0 365.217407 Z"/>
    <path id="path11" fill="#ce1126" stroke="none" d="M -0 0 L -0 600 L 900 600 L 900 0 L 450 600 Z"/>
</svg>
