<?xml version="1.0" encoding="UTF-8"?>
<!-- Generated by Pixelmator Pro 3.5.7 -->
<svg width="840" height="600" viewBox="0 0 840 600" xmlns="http://www.w3.org/2000/svg">
    <path id="Path" fill="#ff0000" stroke="none" d="M 840 0 L 0 0 L 0 600 L 840 600 Z"/>
    <path id="path1" fill="#000000" fill-rule="evenodd" stroke="none" d="M 442.72287 453.380554 C 437.451416 448.810303 431.061432 439.554871 431.151428 430.633728 C 431.622864 423.981415 436.185425 420.116577 439.133148 428.237122 C 443.300598 437.200256 452.238861 452.022003 464.556 443.327148 C 469.937164 439.377441 469.853119 433.562561 462.474884 434.229431 C 453.363434 433.605408 447.766266 428.59198 443.688873 415.684265 C 442.947418 408.585449 445.900269 408.762878 450.020569 413.329712 C 455.317688 419.40686 465.858856 428.59198 477.488586 423.669434 C 483.951416 420.960876 485.775421 415.372314 476.011688 413.996582 C 466.76828 414.131165 459.22287 408.138855 451.711731 398.998291 C 447.59317 393.941132 453.667694 388.835999 457.31485 393.140564 C 460.567688 395.934875 465.123413 401.082855 469.027679 401.792572 C 473.542297 402.678833 479.13858 402.238281 485.339142 398.955444 C 492.023132 393.36084 489.852844 389.324585 481.739136 388.395416 C 475.449402 388.707428 472.023407 391.098022 463.910583 385.686829 C 449.327179 375.829712 437.733429 362.659729 435.922272 346.817993 C 434.732574 336.39856 440.334869 333.243439 444.992584 334.442596 C 457.661133 337.701416 465.948853 361.375732 474.71402 374.381165 C 477.58374 378.129425 480.220306 378.190277 482.085419 377.034851 C 485.60141 374.020264 488.409393 371.542297 491.925446 368.171997 C 491.925446 368.171997 517.712585 372.805725 531.755127 377.382874 L 516.119141 382.939697 C 510.198853 379.670593 503.053711 383.195129 503.053711 388.866882 C 497.451416 392.74115 497.902283 397.283142 500.319427 401.666565 C 501.056549 398.614258 501.685699 394.649994 506.111145 394.122864 C 512.427429 396.735413 519.786865 393.006836 519.786865 388.073975 L 538.23175 380.82428 L 556.866028 391.373993 C 556.866028 398.505432 563.622864 400.764832 570.653137 398.839722 C 573.966003 400.896851 576.096008 404.466003 577.218018 408.282837 C 579.292297 402.778259 578.859436 398.891998 575.610901 396.191132 C 577.475159 389.07428 567.502258 382.230865 559.781982 386.788269 L 546.376282 379.091156 L 569.32196 378.448303 C 571.985107 383.162598 581.610901 383.422272 584.418884 378.448303 C 586.818848 377.790863 588.846863 377.372559 593.526001 380.85083 C 592.051697 375.22287 589.182007 372.816864 584.877441 372.816864 C 581.606567 367.021698 569.76947 367.048279 568.060303 373.572845 L 544.162292 374.237122 L 558.34198 364.141724 C 563.634827 367.266846 571.062012 363.792847 572.549133 358.115997 C 574.659424 355.607147 577.261719 354.428589 582.383972 356.130859 C 579.743958 351.455139 576.023987 350.059723 569.305725 353.233704 C 563.177124 348.589722 555.099426 354.221985 556.325134 358.897705 L 537.459412 371.733429 C 523.765686 367.64743 498.965118 361.284851 498.965118 361.284851 C 501.917999 358.178589 504.913696 355.292572 507.86142 352.143433 C 508.925995 350.298859 507.299133 348.150848 505.038849 347.70343 C 482.910858 343.136566 470.241425 334.216278 462.56485 311.543976 C 459.354034 302.048584 466.296021 299.211426 468.681427 305.019409 C 471.981445 313.097137 475.622589 321.92569 485.558563 328.762299 C 488.985413 331.158844 499.186249 329.201996 493.152832 323.478851 C 486.904266 318.330841 484.214569 316.117706 481.135712 303.601715 C 481.135712 297.260559 487.598572 294.417419 491.203705 300.495422 C 495.060852 312.962555 495.455139 318.330841 502.438263 326.363983 C 507.729431 332.442871 514.629456 336.52713 518.05542 336.435425 C 524.220032 336.349701 530.42572 329.689728 522.180847 324.854584 C 510.0737 320.018585 505.649139 313.409149 503.867126 307.104858 C 501.917999 296.105133 504.04715 290.779724 510.683136 296.190857 C 520.094543 306.884583 538.060303 326.80545 547.47168 336.080566 C 558.01886 344.158295 570.119995 344.420593 579.751709 336.215149 C 585.264893 329.868835 583.308838 323.039154 574.676575 324.50058 C 555.197144 326.144592 540.446594 316.47171 524.261963 290.33313 C 521.09314 284.432587 520.224854 275.957977 527.214844 282.262299 C 535.280579 293.1763 547.040588 302.451416 557.977722 306.444 C 568.954285 310.38858 578.0177 308.209717 581.532898 304.757141 C 585.769714 300.521149 584.655457 289.849701 577.32428 292.422852 C 571.291748 294.552002 562.789734 295.083435 553.941467 291.666016 C 545.086304 288.204865 535.890015 280.752014 526.127136 268.107422 C 522.784241 260.965698 523.872864 254.930573 530.640015 258.610291 C 546.651428 272.191711 567.30426 283.191437 577.844543 276.582001 C 585.612 271.745148 585.743164 259.320831 575.895447 260.121429 C 556.063721 262.824005 548.560303 258.43457 529.511169 241.620026 C 525.17572 238.37915 525.475708 230.167694 532.374023 235.40744 C 548.385437 245.747131 570.25116 249.781708 578.84314 244.371429 C 586.568604 239.534576 585.437988 224.755707 572.422302 229.990265 C 562.007141 236.336578 550.509399 236.159149 527.471985 219.699432 C 521.660583 214.863434 525.995178 208.559143 530.766907 211.267731 C 549.295715 221.827728 576.284546 226.351715 583.309753 204.878571 C 586.042297 196.672272 581.098267 191.87915 573.851135 197.558563 C 557.928833 212.288544 539.878235 205.055145 529.774292 197.644318 C 526.880554 195.938568 521.571411 187.30545 530.897156 188.90744 C 555.023132 194.410309 578.885193 189.617157 583.225708 172.533417 C 585.743164 166.987701 580.791443 157.180298 571.986023 165.391724 C 560.404297 176.838013 548.123108 177.234833 532.679993 177.149139 C 524.823425 175.505127 524.740295 166.853119 531.33429 165.569153 C 543.525391 165.831421 555.543396 160.506012 565.176025 155.094818 C 574.592529 149.683685 582.401184 142.095428 584.876587 131.579163 C 586.393677 122.174561 577.325134 112.190613 571.859985 122.174561 C 563.788269 136.769989 545.911682 150.52713 526.03717 153.010254 C 525.002563 151.27887 522.395996 146.840546 519.18512 148.087708 C 513.349731 150.350555 506.396576 153.377991 499.237701 156.77829 C 483.805725 164.105988 477.374573 167.637421 479.227722 180.298309 C 481.162292 193.50943 470.976868 201.858002 462.56485 199.552277 C 455.227722 197.577454 451.180298 190.949982 452.495148 179.454865 C 453.548584 170.29541 462.743988 159.216003 473.105988 153.406281 C 479.814026 149.652008 489.941986 147.598297 502.133148 144.889679 C 509.552582 143.428284 513.331726 140.542297 513.762878 137.521729 C 513.762878 137.521729 508.691162 141.233124 500.573151 140.675995 C 496.734833 140.401703 494.163422 138.713165 493.194855 136.990295 C 496.017426 136.415985 501.135437 137.082001 505.733124 137.082001 C 511.848846 137.033142 526.049133 135.663422 529.816284 127.053436 C 530.988037 121.374023 527.256042 120.353119 523.783691 123.990875 C 520.052612 127.922546 518.515686 131.456543 511.029419 132.776581 C 506.474579 133.578003 501.917999 134.508026 496.058563 133.089417 C 499.358582 129.169708 504.60257 125.159119 509.075165 125.89798 C 510.546021 126.143127 512.50116 127.500824 514.067139 129.940277 C 515.023743 123.727722 513.325745 116.714569 496.709991 119.643402 C 496.973969 114.941986 487.077454 112.899445 481.135712 112.99115 C 477.75174 113.076843 470.851746 115.076569 465.864838 117.467133 C 457.967133 119.912567 450.158569 121.685974 440.956268 122.352844 C 446.296295 126.919708 447.294861 127.188812 452.627136 131.046844 C 444.561462 134.061462 438.312836 140.274017 435.492004 144.358246 C 435.492004 144.358246 444.908569 144.095123 447.294861 145.158844 C 437.441132 148.038879 433.015717 149.76944 427.809418 155.094818 C 429.632568 155.40683 432.364288 155.938263 433.536865 156.384827 C 434.756561 156.825439 434.439423 157.625977 433.45285 158.378601 C 431.330566 159.998566 422.560272 170.184875 420.000854 172.624298 C 417.441437 170.184875 408.671143 159.998566 406.548859 158.378601 C 405.562286 157.625977 405.245148 156.825439 406.464874 156.384827 C 407.636566 155.939148 410.369141 155.40683 412.192291 155.094818 C 406.985138 149.76944 402.560577 148.038879 392.706848 145.158844 C 395.09314 144.095123 404.509735 144.358246 404.509735 144.358246 C 401.687164 140.274017 395.439423 134.061462 387.373718 131.046844 C 392.706848 127.188812 393.705414 126.919708 399.044586 122.35202 C 389.84314 121.685974 382.034576 119.912567 374.136017 117.466278 C 369.149994 115.076569 362.25 113.076843 358.865997 112.99115 C 352.923431 112.899445 343.02771 114.941986 343.291718 119.642578 C 326.675995 116.714569 324.977997 123.727722 325.93457 129.940277 C 327.50058 127.500824 329.455719 126.143127 330.926575 125.898865 C 335.399139 125.159119 340.642273 129.169708 343.943146 133.089417 C 338.08371 134.508026 333.52713 133.578003 328.971405 132.777405 C 321.485992 131.457428 319.949127 127.922546 316.217163 123.991699 C 312.744843 120.353119 309.013702 121.374023 310.185425 127.05426 C 313.952576 135.663422 328.151123 137.033142 334.268585 137.082001 C 338.866272 137.082001 343.984283 136.415131 346.806854 136.990295 C 345.838287 138.714844 343.266846 140.401703 339.428558 140.675995 C 331.309723 141.233124 326.238861 137.521729 326.238861 137.521729 C 326.669983 140.542297 330.447418 143.42746 337.868561 144.889679 C 350.059723 147.598297 360.187714 149.652832 366.895721 153.407135 C 377.257721 159.216003 386.453156 170.29541 387.505707 179.454865 C 388.820557 190.949127 384.773163 197.577454 377.436859 199.552277 C 369.024841 201.858002 358.839417 193.50943 360.774017 180.298309 C 362.627136 167.637421 356.196014 164.105988 340.764008 156.77829 C 333.605133 153.377991 326.652008 150.349731 320.816589 148.086853 C 317.605713 146.840546 314.999146 151.279694 313.964569 153.010254 C 294.089996 150.52713 276.213409 136.769989 268.141724 122.174561 C 262.676575 112.190613 253.607147 122.174561 255.125137 131.579163 C 257.600555 142.096283 265.409149 149.683685 274.825714 155.094818 C 284.458282 160.506012 296.476288 165.831421 308.667419 165.569153 C 315.261414 166.853119 315.178284 175.505127 307.321716 177.149139 C 291.877716 177.234833 279.597412 176.838013 268.015717 165.391724 C 259.209442 157.180298 254.258575 166.987701 256.776001 172.533417 C 261.116547 189.616272 284.978577 194.410309 309.103729 188.90744 C 318.429443 187.304565 313.121155 195.939423 310.226563 197.645142 C 300.123444 205.055145 282.072845 212.288544 266.150574 197.559418 C 258.904266 191.87915 253.958572 196.672272 256.691986 204.878571 C 263.717163 226.351715 290.706024 221.827728 309.234833 211.267731 C 314.006561 208.559143 318.341156 214.863434 312.529724 219.699432 C 289.492279 236.159149 277.995422 236.336578 267.579437 229.990265 C 254.563705 224.755707 253.433136 239.534576 261.158569 244.371429 C 269.749725 249.782562 291.615417 245.747131 307.626862 235.40744 C 314.526855 230.167694 314.825134 238.37915 310.489716 241.620026 C 291.441437 258.43457 283.937988 262.824005 264.106293 260.121429 C 254.257721 259.320831 254.389709 271.744293 262.157135 276.582001 C 272.697418 283.190582 293.348572 272.191711 309.360016 258.611145 C 316.128845 254.930573 317.216583 260.965698 313.874573 268.107422 C 304.111725 280.752014 294.914551 288.204865 286.060272 291.666016 C 277.212006 295.083435 268.709991 294.552002 262.677429 292.423737 C 255.346283 289.849701 254.23201 300.521149 258.467987 304.757141 C 261.984833 308.209717 271.047424 310.38858 282.024841 306.444 C 292.960266 302.451416 304.72113 293.175415 312.786865 282.262299 C 319.776001 275.957977 318.908569 284.432587 315.739716 290.33313 C 299.555145 316.47171 284.80545 326.144592 265.325134 324.50058 C 256.691986 323.039154 254.736847 329.868835 260.249146 336.215149 C 269.881714 344.420593 281.98288 344.158295 292.529144 336.080566 C 301.940582 326.80545 319.906281 306.884583 329.317719 296.190857 C 335.954559 290.779724 338.08371 296.105133 336.134583 307.104858 C 334.351715 313.409149 329.928864 320.018585 317.820831 324.854584 C 309.575134 329.691437 315.780853 336.348877 321.946289 336.43457 C 325.372284 336.52713 332.272278 332.442871 337.563446 326.364868 C 344.54657 318.330841 344.941711 312.962555 348.798004 300.495422 C 352.403137 294.417419 358.865997 297.260559 358.865997 303.600861 C 355.78714 316.117706 353.096588 318.330841 346.848877 323.477997 C 340.814575 329.201996 351.016296 331.15802 354.442291 328.762299 C 364.37915 321.92569 368.019409 313.097137 371.319427 305.019409 C 373.705719 299.211426 380.647705 302.048584 377.436859 311.543976 C 369.760284 334.215424 357.090851 343.136566 334.96286 347.704285 C 332.702576 348.149994 331.075714 350.298859 332.139435 352.143433 C 335.088013 355.292572 338.08371 358.177704 341.036591 361.284851 C 341.036591 361.284851 316.235138 367.64743 302.541412 371.733429 L 283.67569 358.897705 C 284.901428 354.221985 276.824585 348.589722 270.69516 353.231995 C 263.975983 350.059723 260.256866 351.455139 257.616852 356.130859 C 262.739136 354.428589 265.341431 355.607147 267.451721 358.115143 C 268.938843 363.792847 276.365997 367.266846 281.658844 364.140869 L 295.838562 374.237976 L 271.941437 373.572845 C 270.231415 367.049133 258.394287 367.021698 255.122574 372.816864 C 250.819702 372.816864 247.948288 375.22287 246.474014 380.85083 C 251.154007 377.372559 253.182861 377.790863 255.581985 378.448303 C 258.389984 383.422272 268.015717 383.162598 270.677979 378.448303 L 293.624573 379.091156 L 280.218842 386.788269 C 272.498566 382.230865 262.525726 389.07428 264.389984 396.191132 C 261.141449 398.891113 260.707703 402.778259 262.782837 408.282837 C 263.903992 404.466003 266.034851 400.896851 269.348572 398.838867 C 276.377136 400.764832 283.134857 398.506287 283.134857 391.373138 L 301.769135 380.82428 L 320.214874 388.073975 C 320.214874 393.006836 327.573425 396.735413 333.889709 394.122864 C 338.315125 394.649994 338.944275 398.614258 339.681427 401.66571 C 342.098572 397.283142 342.549408 392.74115 336.947144 388.866882 C 336.947144 383.195129 329.802002 379.669708 323.881714 382.939697 L 308.245697 377.382874 C 322.288269 372.805725 348.076263 368.172852 348.076263 368.172852 C 351.591431 371.541443 354.399445 374.020264 357.91629 377.035706 C 359.781433 378.190277 362.417999 378.129425 365.28772 374.381165 C 374.052856 361.375732 382.339691 337.701416 395.009125 334.442596 C 399.66687 333.242554 405.269135 336.39856 404.079437 346.817993 C 402.267426 362.659729 390.673737 375.830566 376.09198 385.686829 C 367.978302 391.098022 364.552277 388.707428 358.262573 388.395416 C 350.148834 389.324585 347.978577 393.36084 354.662567 398.955444 C 360.863129 402.238281 366.459442 402.678833 370.973999 401.792572 C 374.878296 401.082855 379.43399 395.934875 382.686859 393.140564 C 386.333984 388.835999 392.408569 393.941132 388.289154 398.998291 C 380.77887 408.138855 373.233429 414.131165 363.989136 413.996582 C 354.226288 415.372314 356.050293 420.960876 362.513153 423.669434 C 374.142853 428.59198 384.683136 419.407715 389.98114 413.329712 C 394.100555 408.762878 397.054291 408.585449 396.312836 415.684265 C 392.234558 428.59198 386.638275 433.605408 377.526855 434.229431 C 370.14856 433.562561 370.064575 439.377441 375.445709 443.327148 C 387.762878 452.022003 396.701141 437.200256 400.868561 428.237122 C 403.816284 420.117432 408.377136 423.981415 408.850281 430.633728 C 408.940277 439.554871 402.550293 448.810303 397.27887 453.380554 C 392.009125 457.952576 420 487.011414 420 487.011414 C 420 487.011414 447.991699 457.950867 442.721985 453.3797 Z M 480.234009 124.289154 C 475.877136 124.289154 473.185699 125.81485 473.185699 127.66626 C 473.185699 129.546844 475.877136 131.079437 480.234009 131.079437 C 484.565125 131.079437 487.315704 129.40802 487.315704 127.524841 C 487.315704 125.673431 484.564301 124.288269 480.234009 124.288269 Z M 359.767731 124.289154 C 364.124573 124.289154 366.81601 125.81485 366.81601 127.66626 C 366.81601 129.546844 364.124573 131.079437 359.767731 131.079437 C 355.436554 131.079437 352.686005 129.40802 352.686005 127.524841 C 352.686005 125.673431 355.437439 124.288269 359.767731 124.288269 Z"/>
</svg>
