<?xml version="1.0" encoding="UTF-8"?>
<!-- Generated by Pixelmator Pro 3.5.7 -->
<svg width="900" height="600" viewBox="0 0 900 600" xmlns="http://www.w3.org/2000/svg">
    <path id="Path" fill="#3a7dce" stroke="none" d="M 0 0 L 900 0 L 900 600 L 0 600 Z"/>
    <path id="path1" fill="#ffffff" stroke="none" d="M 221.727814 288.555237 C 216.825012 278.747192 216.825012 278.747192 216.825012 268.940338 C 214.372986 268.940338 213.913315 269.401245 212.49556 269.01532 C 211.07782 268.633087 210.541946 278.058868 205.943939 276.218964 C 205.178223 275.299591 209.239105 268.481873 204.833466 265.647583 C 203.415726 264.724579 205.178223 259.132263 204.564911 256.680237 C 204.564911 256.680237 198.97258 259.590729 194.758072 249.325409 C 192.688309 246.642334 189.854034 251.776215 189.854034 251.776215 C 189.854034 251.776215 191.079437 254.917725 188.858475 255.684662 C 185.716934 253.385071 183.417343 254.591125 179.433868 251.431458 C 175.449188 248.270569 180.277023 244.651215 172.691116 241.96936 C 177.595154 229.710449 177.595154 232.161255 189.854034 227.258484 C 182.497986 222.354431 182.497986 222.354431 177.595154 214.998383 C 170.23912 212.546387 167.787094 210.095581 160.431046 205.191528 C 150.624191 192.931427 145.720154 168.413696 145.720154 151.250793 C 151.927017 145.503632 160.431046 170.865723 172.691116 178.220551 L 189.854034 185.57663 C 199.660873 190.480621 202.1129 195.383453 209.468948 200.287476 L 231.535889 207.643524 C 241.342743 214.998383 246.246765 224.806458 253.602829 227.258484 C 261.570953 227.258484 263.106049 222.668945 265.660889 222.383484 C 280.075409 221.644379 287.431458 219.787476 290.304443 215.458069 C 293.214935 212.010468 300.1875 217.450409 319.802399 210.095581 L 317.351593 200.287476 C 317.351593 200.287476 322.561707 195.996765 329.610474 197.83548 C 329.419373 193.353607 328.958466 181.400818 335.902008 176.008057 C 331.685059 171.58429 334.514526 168.413696 334.514526 168.413696 C 334.514526 168.413696 338.422974 164.658844 338.881439 162.666534 C 336.814117 151.862915 340.675415 151.695984 341.541534 148.516907 C 342.406464 145.339111 338.206482 146.427826 339.390717 142.046356 C 340.572601 137.663727 347.675781 136.623413 348.626617 133.013733 C 349.581055 129.404022 346.601593 127.59314 346.773376 126.731873 C 348.306061 123.284271 347.004425 115.162476 346.773376 112.019745 C 359.95282 108.495972 364.243561 97.769745 368.840302 102.212921 C 371.292328 87.502014 373.744354 82.597961 388.455231 82.597961 C 390.525024 78.077454 383.090302 74.246399 386.003235 72.789917 C 390.907257 72.177795 394.660889 72.483826 400.410492 79.916138 C 402.225006 82.271362 402.554047 76.468506 404.392761 75.855225 C 406.231445 75.241943 410.632263 75.2323 411.286713 72.330261 C 411.978638 69.342346 412.974182 65.435059 415.426208 60.531067 C 417.494751 56.546387 419.103638 62.063721 420.942352 69.878235 C 431.287506 70.261719 454.656036 72.561279 464.462891 75.241943 C 471.818939 77.158081 476.722992 73.327026 483.771759 72.560059 C 488.981873 77.770142 493.885864 73.862915 496.643951 84.972595 C 500.537933 90.967743 506.910461 85.509644 508.290741 87.270935 C 516.489929 109.875031 544.686279 94.627014 546.831055 95.010468 C 550.43103 95.010468 554.829407 105.11734 557.663696 104.865723 C 562.270142 104.090332 560.966125 100.948792 564.989563 102.212921 C 563.915344 110.716949 572.88269 120.524994 572.88269 126.884277 C 572.88269 126.884277 575.064941 127.957275 577.087463 126.07019 C 579.107666 124.184265 580.965759 119.337097 582.765686 119.453217 C 587.056458 120.065308 588.794739 120.616913 593.739929 121.480652 C 607.034302 126.02301 613.80603 127.047577 618.970154 129.375 C 621.37262 133.770935 623.699951 136.022186 628.56897 135.200806 C 632.592346 137.903229 629.657715 141.442749 632.033508 141.672577 C 636.937439 139.220551 638.546387 136.538727 643.449219 138.990723 C 648.35321 141.442749 653.257263 146.346802 655.709229 151.250793 C 655.709229 153.701599 653.257263 163.509674 655.709229 178.220551 C 656.934631 183.124603 657.528625 187.012482 662.796753 195.42218 C 661.397156 204.061676 669.424561 218.599579 669.424561 222.278229 C 669.424561 227.18103 665.516113 229.710449 663.064087 234.613342 C 672.872192 241.96936 663.064087 254.22821 658.161316 261.584259 C 694.939087 268.940338 677.776184 283.651184 707.197998 276.295166 C 699.841919 293.458069 702.446411 292.080231 709.802429 309.243164 C 695.090271 319.051208 709.497559 322.037872 699.690735 334.296753 C 699.077393 335.06369 705.511719 344.947998 714.554016 344.947998 C 712.102051 364.562927 704.745972 357.206848 707.197998 386.629852 C 687.88916 386.247589 695.703613 408.620544 682.679077 406.244751 C 683.444763 420.266144 690.111267 421.492737 687.583008 435.666534 C 677.776184 438.118561 677.776184 438.118561 672.872192 445.474609 L 665.516113 443.022583 C 663.064087 455.281433 658.161316 457.733459 665.516113 469.993561 C 665.516113 469.993561 656.015381 470.299622 653.257263 469.993561 C 653.026245 474.208069 657.471802 475.357269 658.161316 479.800415 C 657.777832 481.562927 644.214966 489.301208 633.642334 489.60849 C 630.884277 495.661713 640.997192 502.098389 640.385071 505.162506 C 628.890747 507.383484 623.83429 521.4823 623.83429 521.4823 C 623.83429 521.4823 629.733887 523.858032 628.738342 526.386292 C 625.598022 524.08667 623.83429 523.934265 618.931458 523.934265 C 616.479431 524.547607 610.503662 523.784302 604.773376 533.454468 C 598.484314 535.529053 595.515747 534.779053 590.744751 541.087524 C 588.632629 535.07782 585.595154 541.144348 581.880249 543.475403 C 578.168945 545.810059 573.169373 551.612915 572.497986 551.366089 C 572.651611 549.67865 574.797546 543.549194 574.797546 543.549194 L 562.537537 546.001221 C 562.537537 546.001221 561.990723 546.054443 561.027832 546.152405 C 560.063721 546.247986 560.32135 538.995972 557.99762 539.258423 C 555.674988 539.523376 549.027832 548.379456 546.762085 548.656433 C 544.5 548.933472 543.783875 545.839111 541.833862 546.108887 C 539.885071 546.378662 536.08429 555.450012 534.704041 555.690735 C 533.323792 555.931458 527.848816 550.177002 523.156494 550.980225 C 499.019775 559.486694 495.1875 534.202026 491.433899 548.453247 C 486.377411 545.770203 487.253204 547.327026 482.114532 548.673401 C 478.836304 549.518982 478.537506 544.339111 475.622162 544.418945 C 469.789124 544.583435 470.095154 550.10083 466.914917 548.453247 C 464.311676 536.958862 448.601593 539.027405 447.07016 534.124573 C 445.824188 529.010071 453.875824 529.034241 456.480225 525.569763 C 458.471375 520.57019 454.400818 518.67218 462.480225 513.849243 C 473.010498 506.726624 466.957275 504.039917 468.803223 498.687073 C 472.105621 490.958496 472.125 489.071381 469.366943 482.252411 C 469.366943 482.252411 461.167725 460.185486 459.558868 460.185486 C 454.656036 458.807678 454.656036 468.30603 447.452423 470.912903 C 432.741547 475.815735 406.768555 458.499207 402.246765 458.499207 C 398.110901 458.576599 378.949615 463.036682 379.673004 453.482666 C 376.808472 462.77179 366.273407 455.664917 365.623779 455.664917 C 355.815704 455.664917 359.569336 463.250824 352.979034 462.943542 C 349.989929 461.947998 319.802399 460.185486 319.802399 460.185486 L 319.802399 465.089508 L 300.1875 455.281433 L 283.024597 450.378601 C 268.313721 445.474609 275.669739 433.214508 251.150803 440.570557 L 251.150803 425.85968 L 238.891922 425.85968 C 243.794754 396.436707 238.891922 411.148804 236.439926 384.177826 L 226.631851 386.629852 C 216.825012 373.374207 240.26976 375.902405 219.277008 367.014893 C 219.277008 367.014893 219.659286 352.379028 214.372986 357.206848 C 213.300003 357.82016 216.825012 364.562927 216.825012 364.562927 C 197.210068 362.110901 192.306061 357.206848 192.306061 337.591919 C 192.306061 337.591919 208.473389 339.89151 207.016937 337.591919 C 204.718536 333.91452 201.730652 310.00885 202.266541 308.399994 C 202.036697 305.181061 217.284668 297.060486 214.334274 289.319794 C 216.2117 288.630249 221.727814 288.555237 221.727814 288.555237"/>
    <g id="Group">
        <path id="path2" fill="none" stroke="#ffffff" stroke-width="3.024194" stroke-linejoin="round" d="M 720.377441 359.964935 C 719.661255 361.576233 719.78833 363.185089 720.528687 364.33429 C 721.858093 362.340729 720.735474 361.421356 720.377441 359.964935 Z M 144.570969 179.217346 C 144.570969 179.217346 140.816132 178.75766 141.659271 182.052826 C 142.885895 179.523407 144.494751 179.370972 144.570969 179.217346 Z M 145.414108 171.555237 C 143.345566 171.63266 140.816132 171.249176 141.659271 174.543152 C 142.885895 172.014923 145.337906 171.708862 145.414108 171.555237 Z M 159.541931 215.45929 C 159.541931 215.45929 162.76088 215.229431 161.917755 218.524597 C 160.691132 215.995148 159.619354 215.612885 159.541931 215.45929 Z"/>
    </g>
</svg>
