<?xml version="1.0" encoding="UTF-8"?>
<!-- Generated by Pixelmator Pro 3.5.7 -->
<svg width="960" height="600" viewBox="0 0 960 600" xmlns="http://www.w3.org/2000/svg">
    <path id="Path" fill="#74acdf" stroke="none" d="M 0 0 L 960 0 L 960 600 L 0 600 Z"/>
    <path id="path1" fill="#ffffff" stroke="none" d="M 0 200.003967 L 960 200.003967 L 960 400.007996 L 0 400.007996 Z"/>
    <g id="c">
        <path id="a" fill="#f6b40e" stroke="#85340a" stroke-width="1.3344" d="M 476.208008 301.571991 L 510.352814 375.962402 C 510.352814 375.962402 510.940796 377.384399 511.888794 376.993225 C 512.836792 376.60083 512.247559 375.178772 512.247559 375.178772 L 483.789581 298.43158 M 482.973602 327.37558 C 482.55722 338.689209 489.515991 344.911194 488.606384 355.014008 C 487.697998 365.118011 493.246796 370.829987 494.534393 374.75882 C 495.821991 378.687592 493.142395 381.037201 494.296814 381.596405 C 495.452423 382.155609 497.980804 379.052429 497.156403 373.46637 C 496.33197 367.880371 492.092407 366.221985 493.088409 353.882416 C 494.084412 341.542786 488.041199 338.668793 489.51239 327.412781"/>
        <g id="Group">
            <path id="path2" fill="#f6b40e" stroke="#85340a" stroke-width="1.3344" d="M 475.895081 300.00119 L 478.972778 381.795624 C 478.972778 381.795624 478.971832 383.334412 479.997406 383.335754 C 481.023407 383.33606 481.023193 381.796753 481.023193 381.796753 L 484.101349 300.00119 M 472.271057 326.429688 C 467.556854 336.722748 471.604858 345.134155 466.898315 354.119843 C 462.192444 363.107117 465.132965 370.50769 464.819092 374.630219 C 464.505188 378.752686 461.130402 379.89801 461.982941 380.856415 C 462.836578 381.815277 466.360077 379.915863 467.736084 374.439545 C 469.112061 368.963257 465.829865 365.808716 471.472229 354.789551 C 477.114563 343.770386 472.631165 338.802551 478.297882 328.966339"/>
        </g>
        <g id="g1">
            <path id="path3" fill="#f6b40e" stroke="#85340a" stroke-width="1.3344" d="M 476.207092 298.430206 L 447.749146 375.176208 C 447.749146 375.176208 447.159424 376.597473 448.106354 376.991211 C 449.054199 377.384094 449.643066 375.961914 449.643066 375.961914 L 483.788666 301.570618 M 462.745209 321.460114 C 454.450806 329.165619 454.971832 338.48584 447.184875 344.98642 C 439.397949 351.488708 439.282532 359.451263 437.414917 363.139832 C 435.547302 366.828369 431.991089 366.595032 432.411987 367.806732 C 432.83371 369.019287 436.815857 368.612854 440.182831 364.079956 C 443.549774 359.54715 441.724579 355.376648 451.154297 347.35553 C 460.583984 339.334381 458.343018 333.028961 467.342499 326.110046"/>
        </g>
        <g id="g2">
            <path id="path4" fill="#f6b40e" stroke="#85340a" stroke-width="1.3344" d="M 477.096527 297.098206 L 421.435394 357.111877 C 421.435394 357.111877 420.346649 358.19931 421.070862 358.925446 C 421.796204 359.651123 422.88446 358.562561 422.88446 358.562561 L 482.899231 302.900909 M 455.846191 313.223419 C 445.234467 317.168274 442.149109 325.978394 432.467224 329.004211 C 422.784698 332.031616 419.630981 339.343903 416.493927 342.036987 C 413.356964 344.730072 410.160767 343.153595 410.085907 344.434113 C 410.011475 345.715759 413.846039 346.864166 418.691376 343.964813 C 423.536682 341.065491 423.446411 336.513977 435.227844 332.712036 C 447.009338 328.910034 447.351929 322.22699 458.314117 319.278748"/>
        </g>
        <path id="b" fill="#85340a" stroke="none" d="M 485.171997 329.291992 C 485.715607 340.156799 491.876404 344.96759 490.666809 354.868805 C 493.322388 347.038818 486.91803 340.969177 487.282806 329.404785 M 478.104004 300.896393 L 501.488403 351.9888 L 481.893616 299.324402"/>
        <g id="g3">
            <path id="path5" fill="#85340a" stroke="none" d="M 473.568756 329.041504 C 469.913208 339.287292 473.764008 346.089539 468.857483 354.77417 C 474.307312 348.556458 470.713196 340.498016 475.475677 329.953491 M 477.905304 300.1026 L 479.957458 356.254639 L 482.007996 300.100464"/>
        </g>
        <g id="g4">
            <path id="path6" fill="#85340a" stroke="none" d="M 462.94458 324.36972 C 455.646393 332.436676 456.600983 340.194794 448.744476 346.340698 C 456.158905 342.681824 455.92218 333.861359 464.357361 325.942047 M 478.025513 299.293182 L 458.432953 351.956238 L 481.816711 300.861267"/>
        </g>
        <g id="g5">
            <path id="path7" fill="#85340a" stroke="none" d="M 454.916962 315.987885 C 445.08725 320.647858 443.000275 328.180725 433.389832 330.852234 C 441.640076 330.309235 444.796814 322.069641 455.620544 317.981171 M 478.446289 298.59137 L 440.191895 339.747955 L 481.348816 301.490906"/>
        </g>
    </g>
    <g id="g6">
        <g id="g7">
            <path id="path8" fill="#f6b40e" stroke="#85340a" stroke-width="1.3344" d="M 478.428009 296.208008 L 404.037598 330.352814 C 404.037598 330.352814 402.615601 330.940796 403.006775 331.888794 C 403.39917 332.836823 404.821228 332.247589 404.821228 332.247589 L 481.56842 303.789581 M 452.62442 302.973602 C 441.310791 302.55722 435.088806 309.515991 424.985992 308.606384 C 414.881989 307.697998 409.170013 313.246796 405.24118 314.534393 C 401.312408 315.821991 398.962799 313.142395 398.403595 314.296814 C 397.844391 315.452423 400.947571 317.980804 406.53363 317.156403 C 412.119629 316.33197 413.778015 312.092407 426.117584 313.088409 C 438.457214 314.084412 441.331207 308.041199 452.587219 309.51239"/>
            <g id="g8">
                <path id="path9" fill="#f6b40e" stroke="#85340a" stroke-width="1.3344" d="M 479.998779 295.895081 L 398.204376 298.972778 C 398.204376 298.972778 396.665619 298.971832 396.664246 299.997375 C 396.663971 301.023407 398.203247 301.023224 398.203247 301.023224 L 479.998779 304.101318 M 453.570313 292.271057 C 443.277252 287.556854 434.865845 291.604858 425.880188 286.898315 C 416.892883 282.192444 409.492279 285.132965 405.369812 284.819092 C 401.247314 284.505188 400.10199 281.130402 399.143585 281.982941 C 398.184753 282.836578 400.084137 286.360077 405.560455 287.736084 C 411.036743 289.112061 414.191315 285.829865 425.210419 291.472229 C 436.229584 297.114563 441.197449 292.631165 451.03363 298.297882"/>
            </g>
            <g id="g9">
                <path id="path10" fill="#f6b40e" stroke="#85340a" stroke-width="1.3344" d="M 481.569794 296.207092 L 404.823792 267.749146 C 404.823792 267.749146 403.402527 267.159424 403.008789 268.106354 C 402.615906 269.054199 404.038086 269.643066 404.038086 269.643066 L 478.429382 303.788666 M 458.539886 282.745209 C 450.834381 274.450806 441.51416 274.971832 435.01358 267.184875 C 428.511292 259.397949 420.548737 259.282532 416.860168 257.414917 C 413.171631 255.547302 413.404968 251.991089 412.193268 252.411987 C 410.980713 252.83371 411.387146 256.815857 415.920013 260.182831 C 420.45285 263.549774 424.623383 261.724579 432.64447 271.154297 C 440.665649 280.583984 446.971069 278.343018 453.889923 287.342499"/>
            </g>
            <g id="g10">
                <path id="path11" fill="#f6b40e" stroke="#85340a" stroke-width="1.3344" d="M 482.901794 297.096527 L 422.888123 241.435394 C 422.888123 241.435394 421.80069 240.346649 421.074585 241.070862 C 420.348877 241.796204 421.437439 242.88446 421.437439 242.88446 L 477.099091 302.899231 M 466.77655 275.846191 C 462.831726 265.234467 454.021606 262.149109 450.995758 252.467224 C 447.968384 242.784698 440.656097 239.630981 437.963013 236.493927 C 435.269928 233.356964 436.846405 230.160767 435.565857 230.085907 C 434.284241 230.011475 433.135834 233.846039 436.035217 238.691376 C 438.93454 243.536682 443.486023 243.446411 447.287994 255.227844 C 451.089996 267.009338 457.77301 267.351929 460.721252 278.314117"/>
            </g>
            <path id="path12" fill="#85340a" stroke="none" d="M 450.708008 305.171997 C 439.843201 305.715607 435.03241 311.876404 425.131195 310.666809 C 432.961182 313.322388 439.030823 306.91803 450.595215 307.282806 M 479.103577 298.104004 L 428.0112 321.488403 L 480.675598 301.893616"/>
            <g id="g11">
                <path id="path13" fill="#85340a" stroke="none" d="M 450.958496 293.568726 C 440.712708 289.913208 433.910461 293.764008 425.22583 288.857483 C 431.443542 294.307312 439.501984 290.713196 450.046509 295.475708 M 479.8974 297.905304 L 423.745361 299.957458 L 479.899506 302.007996"/>
            </g>
            <g id="g12">
                <path id="path14" fill="#85340a" stroke="none" d="M 455.63028 282.94458 C 447.563293 275.646393 439.805237 276.600983 433.659332 268.744476 C 437.318176 276.158905 446.138641 275.92218 454.057953 284.357361 M 480.706818 298.025513 L 428.043762 278.432953 L 479.138733 301.816711"/>
            </g>
            <g id="g13">
                <path id="path15" fill="#85340a" stroke="none" d="M 464.012146 274.916962 C 459.352142 265.08725 451.819305 263.000275 449.147797 253.389832 C 449.690735 261.640076 457.930359 264.796814 462.018829 275.620544 M 481.40863 298.446289 L 440.252045 260.191895 L 478.509094 301.348816"/>
            </g>
        </g>
    </g>
    <g id="g14">
        <g id="g15">
            <path id="path16" fill="#f6b40e" stroke="#85340a" stroke-width="1.3344" d="M 483.791992 298.428009 L 449.647186 224.037598 C 449.647186 224.037598 449.059204 222.615601 448.111206 223.006775 C 447.163177 223.39917 447.752411 224.821228 447.752411 224.821228 L 476.210419 301.56842 M 477.026398 272.62442 C 477.44278 261.310791 470.484009 255.088806 471.393616 244.985992 C 472.302002 234.881989 466.753204 229.170013 465.465607 225.24118 C 464.178009 221.312408 466.857605 218.962799 465.703186 218.403595 C 464.547577 217.844391 462.019196 220.947571 462.843597 226.53363 C 463.66803 232.119629 467.907593 233.778015 466.911591 246.117584 C 465.915588 258.457214 471.958801 261.331207 470.48761 272.587219"/>
            <g id="g16">
                <path id="path17" fill="#f6b40e" stroke="#85340a" stroke-width="1.3344" d="M 484.104919 299.99881 L 481.027222 218.204376 C 481.027222 218.204376 481.028168 216.665619 480.002594 216.664246 C 478.976593 216.663971 478.976807 218.203247 478.976807 218.203247 L 475.898651 299.99881 M 487.728943 273.570313 C 492.443146 263.277252 488.395142 254.865845 493.101685 245.880188 C 497.807556 236.892883 494.867035 229.492279 495.180908 225.369812 C 495.494812 221.247314 498.869598 220.10199 498.017059 219.143585 C 497.163422 218.184753 493.639923 220.084137 492.263916 225.560455 C 490.887939 231.036743 494.170135 234.191315 488.527771 245.210419 C 482.885437 256.229584 487.368835 261.197449 481.702118 271.03363"/>
            </g>
            <g id="g17">
                <path id="path18" fill="#f6b40e" stroke="#85340a" stroke-width="1.3344" d="M 483.792908 301.569794 L 512.250854 224.823792 C 512.250854 224.823792 512.840576 223.402527 511.893646 223.008789 C 510.945801 222.615906 510.356934 224.038086 510.356934 224.038086 L 476.211334 298.429382 M 497.254791 278.539886 C 505.549194 270.834381 505.028168 261.51416 512.815125 255.01358 C 520.602051 248.511292 520.717468 240.548737 522.585083 236.860168 C 524.452698 233.171631 528.008911 233.404968 527.588013 232.193268 C 527.16626 230.980713 523.184143 231.387146 519.817139 235.920013 C 516.450195 240.45285 518.275391 244.623383 508.845703 252.64447 C 499.416016 260.665649 501.656982 266.971069 492.657501 273.889923"/>
            </g>
            <g id="g18">
                <path id="path19" fill="#f6b40e" stroke="#85340a" stroke-width="1.3344" d="M 482.903473 302.901794 L 538.564575 242.888123 C 538.564575 242.888123 539.65332 241.80069 538.929138 241.074585 C 538.203796 240.348877 537.11554 241.437439 537.11554 241.437439 L 477.100769 297.099091 M 504.153809 286.77655 C 514.765564 282.831726 517.850891 274.021606 527.532776 270.995758 C 537.215271 267.968384 540.369019 260.656097 543.506042 257.963013 C 546.643005 255.269928 549.839233 256.846405 549.914124 255.565857 C 549.988525 254.284241 546.153931 253.135834 541.308594 256.035217 C 536.463318 258.93454 536.553589 263.486023 524.772156 267.287994 C 512.990662 271.089996 512.648071 277.77301 501.685883 280.721252"/>
            </g>
            <path id="path20" fill="#85340a" stroke="none" d="M 474.828003 270.708008 C 474.284393 259.843201 468.123596 255.03241 469.333191 245.131195 C 466.677612 252.961182 473.08197 259.030823 472.717194 270.595215 M 481.895996 299.103607 L 458.511597 248.0112 L 478.106384 300.675598"/>
            <g id="g19">
                <path id="path21" fill="#85340a" stroke="none" d="M 486.431244 270.958496 C 490.086792 260.712708 486.235992 253.910461 491.142517 245.22583 C 485.692688 251.443542 489.286804 259.501984 484.524323 270.046509 M 482.094696 299.8974 L 480.042542 243.745361 L 477.992004 299.899536"/>
            </g>
            <g id="g20">
                <path id="path22" fill="#85340a" stroke="none" d="M 497.05542 275.63028 C 504.353607 267.563293 503.399017 259.805237 511.255524 253.659332 C 503.841095 257.318176 504.07782 266.138641 495.642639 274.057953 M 481.974487 300.706818 L 501.567047 248.043762 L 478.183289 299.138733"/>
            </g>
            <g id="g21">
                <path id="path23" fill="#85340a" stroke="none" d="M 505.083038 284.012146 C 514.912781 279.352142 516.999695 271.819305 526.610168 269.147797 C 518.359924 269.690735 515.203186 277.930359 504.379456 282.018829 M 481.553711 301.40863 L 519.808105 260.252045 L 478.651184 298.509094"/>
            </g>
        </g>
    </g>
    <g id="g22">
        <g id="g23">
            <path id="path24" fill="#f6b40e" stroke="#85340a" stroke-width="1.3344" d="M 481.571991 303.791992 L 555.962402 269.647186 C 555.962402 269.647186 557.384399 269.059204 556.993225 268.111206 C 556.60083 267.163177 555.178772 267.752411 555.178772 267.752411 L 478.43158 296.210419 M 507.37558 297.026398 C 518.689209 297.44278 524.911194 290.484009 535.013977 291.393616 C 545.118042 292.302002 550.830017 286.753204 554.758789 285.465607 C 558.687622 284.178009 561.037231 286.857605 561.596436 285.703186 C 562.15564 284.547577 559.052429 282.019196 553.46637 282.843597 C 547.880371 283.66803 546.221985 287.907593 533.882385 286.911591 C 521.542786 285.915588 518.668823 291.958801 507.412781 290.48761"/>
            <g id="g24">
                <path id="path25" fill="#f6b40e" stroke="#85340a" stroke-width="1.3344" d="M 480.001221 304.104919 L 561.795654 301.027222 C 561.795654 301.027222 563.334351 301.028168 563.335754 300.002625 C 563.335999 298.976593 561.796753 298.976776 561.796753 298.976776 L 480.001221 295.898682 M 506.429688 307.728943 C 516.722778 312.443146 525.134155 308.395142 534.119812 313.101685 C 543.107117 317.807556 550.507751 314.867004 554.630188 315.180939 C 558.752686 315.494812 559.89801 318.869598 560.856384 318.017059 C 561.815247 317.163422 559.915894 313.639954 554.439575 312.263916 C 548.963257 310.887909 545.808716 314.170135 534.789612 308.527802 C 523.770386 302.885437 518.802551 307.368835 508.96637 301.702118"/>
            </g>
            <g id="g25">
                <path id="path26" fill="#f6b40e" stroke="#85340a" stroke-width="1.3344" d="M 478.430206 303.792908 L 555.176208 332.250854 C 555.176208 332.250854 556.597473 332.840576 556.991211 331.893646 C 557.384094 330.945831 555.961914 330.356934 555.961914 330.356934 L 481.570618 296.211334 M 501.460114 317.254822 C 509.165619 325.549164 518.48584 325.028198 524.986389 332.815125 C 531.488708 340.602081 539.451294 340.717468 543.139832 342.585083 C 546.828369 344.452698 546.595032 348.008881 547.806763 347.588013 C 549.019287 347.16629 548.612854 343.184143 544.080017 339.817169 C 539.547119 336.450226 535.376648 338.275421 527.35553 328.845703 C 519.334351 319.416016 513.028931 321.657013 506.110077 312.657501"/>
            </g>
            <g id="g26">
                <path id="path27" fill="#f6b40e" stroke="#85340a" stroke-width="1.3344" d="M 477.098206 302.903473 L 537.111877 358.564606 C 537.111877 358.564606 538.19928 359.65332 538.925415 358.929138 C 539.651123 358.203827 538.562561 357.11554 538.562561 357.11554 L 482.900909 297.100769 M 493.22345 324.153778 C 497.168274 334.765564 505.978394 337.850922 509.004242 347.532776 C 512.031616 357.215302 519.343933 360.369049 522.036987 363.506073 C 524.730042 366.643066 523.153625 369.839233 524.434143 369.914093 C 525.715759 369.988525 526.864136 366.153961 523.964783 361.308624 C 521.065491 356.463318 516.513977 356.553589 512.712036 344.772156 C 508.910004 332.990662 502.22699 332.648102 499.278748 321.685883"/>
            </g>
            <path id="path28" fill="#85340a" stroke="none" d="M 509.291992 294.828003 C 520.156799 294.284393 524.96759 288.123596 534.868774 289.333191 C 527.038818 286.677612 520.969177 293.08197 509.404785 292.717194 M 480.896423 301.895996 L 531.988831 278.511597 L 479.324402 298.106384"/>
            <g id="g27">
                <path id="path29" fill="#85340a" stroke="none" d="M 509.041504 306.431274 C 519.287292 310.086792 526.089539 306.235992 534.77417 311.142548 C 528.556458 305.692688 520.498047 309.286804 509.953491 304.524292 M 480.1026 302.094696 L 536.254639 300.042542 L 480.100494 297.992004"/>
            </g>
            <g id="g28">
                <path id="path30" fill="#85340a" stroke="none" d="M 504.36972 317.05542 C 512.436707 324.353607 520.194763 323.399017 526.340637 331.255524 C 522.681824 323.841095 513.861389 324.07782 505.942047 315.642609 M 479.293182 301.974487 L 531.956238 321.567047 L 480.861267 298.183289"/>
            </g>
            <g id="g29">
                <path id="path31" fill="#85340a" stroke="none" d="M 495.987854 325.083038 C 500.647858 334.912781 508.180695 336.999725 510.852203 346.610168 C 510.309265 338.359924 502.069641 335.203186 497.981171 324.379486 M 478.59137 301.553711 L 519.747925 339.808136 L 481.490906 298.651184"/>
            </g>
        </g>
    </g>
    <path id="path32" fill="#f6b40e" stroke="#85340a" stroke-width="1.8" d="M 513.333618 300 C 513.333618 318.409637 498.409637 333.333618 480 333.333618 C 461.590363 333.333618 446.666382 318.409637 446.666382 300 C 446.666382 281.590363 461.590363 266.666382 480 266.666382 C 498.409637 266.666382 513.333618 281.590363 513.333618 300 Z"/>
    <path id="h" fill="#843511" stroke="none" d="M 491.364014 292.872009 C 489.087585 292.872009 486.908386 293.858398 485.626801 295.90921 C 488.190002 298.216797 493.854004 298.467621 497.701202 295.646393 C 496.056152 293.895203 493.766571 292.892853 491.364014 292.872009 Z M 491.326782 293.397614 C 493.541992 293.356812 495.612 294.37439 495.901215 295.384796 C 493.337982 298.204803 489.24118 297.959991 486.676788 295.90921 C 487.798798 294.115204 489.603577 293.428802 491.326782 293.396393 Z"/>
    <g id="g30">
        <path id="path33" fill="#85340a" stroke="none" d="M 491.79599 291.287994 C 488.463623 291.287994 487.693207 292.058411 486.156006 293.339996 C 484.615204 294.621613 483.847198 294.364807 483.591614 294.621613 C 483.335999 294.879608 483.591614 295.646393 484.102814 295.389618 C 484.614014 295.132813 485.643616 294.621613 487.179596 293.339996 C 488.719177 292.056 490.255188 292.05719 491.7948 292.05719 C 496.409973 292.05719 498.974426 295.903198 499.486816 295.646393 C 499.998016 295.389618 496.922394 291.287994 491.7948 291.287994 Z"/>
    </g>
    <g id="g31">
        <path id="path34" fill="#85340a" stroke="none" d="M 501.023987 292.824005 C 495.126007 287.696411 487.692017 286.925964 483.587982 290.773193 C 482.583618 292.118408 481.940399 293.55719 481.676392 295.05719 C 481.1604 297.976807 482.072388 301.131592 484.359589 304.36438 C 484.101593 304.36319 483.587982 304.618805 483.332397 304.876801 C 481.29599 300.984009 480.576019 296.984406 481.244385 293.18158 C 481.422546 292.184692 481.691681 291.206177 482.048401 290.258423 C 487.688416 285.644379 495.380371 285.131989 501.020386 292.824005 Z"/>
    </g>
    <g id="g32">
        <path id="path35" fill="#85340a" stroke="none" d="M 493.590027 295.380005 C 493.590027 296.654449 492.556854 297.687592 491.28241 297.687592 C 490.007965 297.687592 488.974792 296.654449 488.974792 295.380005 C 488.974792 294.10553 490.007965 293.072418 491.28241 293.072418 C 492.556854 293.072418 493.590027 294.10553 493.590027 295.380005 Z"/>
    </g>
    <g id="g33">
        <path id="path36" fill="#85340a" stroke="none" d="M 497.951996 296.928009 C 493.592407 300.261597 489.234009 300.004791 486.669617 298.4664 C 484.106384 296.928009 484.106384 296.415588 484.617584 296.415588 C 485.130005 296.415588 485.641174 296.928009 487.694397 297.95282 C 489.746399 298.97998 492.821991 298.97998 497.949615 296.928009 Z"/>
    </g>
    <path id="path37" fill="#85340a" stroke="none" d="M 474.899994 304.608002 C 473.804413 304.808411 473.024414 305.780396 473.024414 306.895203 C 473.024414 308.169617 474.078003 309.182404 475.350006 309.182404 C 476.097595 309.186584 476.799194 308.822052 477.225586 308.208008 C 478.112396 308.875183 479.342407 308.945984 480 308.958008 C 480.10083 308.960419 480.231598 308.958008 480.299988 308.958008 C 480.957611 308.945984 482.187592 308.875183 483.075592 308.208008 C 483.507599 308.827179 484.197571 309.182404 484.950012 309.182404 C 486.221985 309.182404 487.275574 308.169617 487.275574 306.895203 C 487.275574 305.780396 486.495605 304.80719 485.399994 304.608002 C 486.015594 304.824005 486.412781 305.41922 486.412781 306.070801 C 486.413116 306.478577 486.251251 306.869781 485.962891 307.158112 C 485.674561 307.446472 485.283386 307.608337 484.87558 307.608002 C 484.059601 307.608002 483.385223 306.959991 483.337219 306.145203 C 483.087585 306.645599 482.096405 308.131195 480.149994 308.208008 C 478.203583 308.131195 477.213623 306.645599 476.962799 306.145203 C 476.914795 306.959991 476.242798 307.608002 475.425598 307.608002 C 475.017822 307.608337 474.626617 307.446472 474.338257 307.158112 C 474.049957 306.869781 473.888092 306.478577 473.888428 306.070801 C 473.888428 305.42041 474.284393 304.825195 474.899994 304.608002 Z M 477.40799 311.436005 C 474.842407 311.436005 473.8284 313.760406 471.520782 315.298798 C 472.802429 314.786377 473.812805 313.774811 475.608002 312.748779 C 477.403198 311.722809 478.934387 312.973206 479.958008 312.973206 L 479.995209 312.973206 C 481.018799 312.973206 482.551208 311.723999 484.345215 312.748779 C 486.141602 313.776001 487.187988 314.786377 488.470795 315.298798 C 486.162018 313.760406 485.110809 311.436005 482.545197 311.436005 C 482.033997 311.436005 481.02002 311.712006 479.995209 312.223206 L 479.958008 312.223206 C 478.934387 311.712006 477.92041 311.436005 477.40799 311.436005 Z"/>
    <path id="path38" fill="#85340a" stroke="none" d="M 476.544006 314.471985 C 475.531189 314.516388 474.192017 314.720398 472.268402 315.297577 C 476.885986 314.271606 477.904785 315.821991 479.956787 315.821991 L 479.992798 315.821991 C 482.0448 315.821991 483.064789 314.271606 487.681213 315.296417 C 482.552429 313.757996 481.53241 314.772003 479.993988 314.772003 L 479.956787 314.772003 C 478.994385 314.772003 478.232422 314.397583 476.544006 314.471985 Z"/>
    <path id="path39" fill="#85340a" stroke="none" d="M 472.5 315.264008 C 472.202423 315.267578 471.877197 315.27002 471.524414 315.301208 C 476.909973 315.814789 474.321594 318.901215 479.962799 318.901215 L 479.998779 318.901215 C 485.641174 318.901215 483.088806 315.814789 488.474426 315.301208 C 482.834412 314.790009 484.617584 318.114014 480 318.114014 L 479.962799 318.114014 C 475.633179 318.114014 476.96759 315.208801 472.498779 315.264008 Z M 484.619995 323.59201 C 484.618683 321.04364 482.553162 318.978119 480.004791 318.976807 C 477.455963 318.977448 475.38974 321.043182 475.388428 323.59201 C 475.896851 321.453766 477.806946 319.944397 480.004791 319.944 C 482.202698 319.943634 484.112793 321.45343 484.619995 323.59201 Z"/>
    <path id="e" fill="#85340a" stroke="none" d="M 459.276001 292.824005 C 465.173981 287.696411 472.608002 286.925964 476.712006 290.773193 C 477.71637 292.118408 478.359589 293.55719 478.623596 295.05719 C 479.139587 297.976807 478.2276 301.131592 475.940399 304.36438 C 476.198395 304.36319 476.712006 304.618805 476.96759 304.876801 C 479.004028 300.984009 479.723999 296.984406 479.055603 293.18158 C 478.877441 292.184692 478.608337 291.206177 478.251587 290.258423 C 472.611572 285.644379 464.919617 285.131989 459.279602 292.824005 Z"/>
    <path id="d" fill="#85340a" stroke="none" d="M 468.504028 291.287994 C 471.836395 291.287994 472.606781 292.058411 474.143982 293.339996 C 475.684784 294.621613 476.45282 294.364807 476.708374 294.621613 C 476.963989 294.879608 476.708374 295.646393 476.197205 295.389618 C 475.686005 295.132813 474.656403 294.621613 473.120392 293.339996 C 471.580811 292.056 470.0448 292.05719 468.505188 292.05719 C 463.890015 292.05719 461.325592 295.903198 460.813171 295.646393 C 460.302002 295.389618 463.377625 291.287994 468.505188 291.287994 Z"/>
    <g id="g34">
        <path id="path40" fill="#843511" stroke="none" d="M 468.346802 292.872009 C 466.070404 292.872009 463.891174 293.858398 462.609589 295.90921 C 465.172821 298.216797 470.836823 298.467621 474.684021 295.646393 C 473.03894 293.895203 470.749359 292.892853 468.346802 292.872009 Z M 468.309601 293.397614 C 470.524811 293.356812 472.594818 294.37439 472.884003 295.384796 C 470.320801 298.204803 466.223999 297.959991 463.659607 295.90921 C 464.781586 294.115204 466.586395 293.428802 468.309601 293.396393 Z"/>
    </g>
    <path id="f" fill="#85340a" stroke="none" d="M 470.955627 295.380005 C 470.955627 296.654449 469.922455 297.687592 468.64801 297.687592 C 467.373566 297.687592 466.340393 296.654449 466.340393 295.380005 C 466.340393 294.10553 467.373566 293.072418 468.64801 293.072418 C 469.922455 293.072418 470.955627 294.10553 470.955627 295.380005 Z"/>
    <path id="g" fill="#85340a" stroke="none" d="M 462.348022 296.928009 C 466.707611 300.261597 471.065979 300.004791 473.630371 298.4664 C 476.193604 296.928009 476.193604 296.415588 475.682404 296.415588 C 475.170013 296.415588 474.658813 296.928009 472.605621 297.95282 C 470.553589 298.97998 467.477997 298.97998 462.350403 296.928009 Z"/>
</svg>
