<?xml version="1.0" encoding="UTF-8"?>
<!-- Generated by Pixelmator Pro 3.5.7 -->
<svg width="1200" height="600" viewBox="0 0 1200 600" xmlns="http://www.w3.org/2000/svg">
    <path id="Path" fill="#012169" stroke="none" d="M 0 0 L 1200 0 L 1200 600 L 0 600 Z"/>
    <path id="path1" fill="#000000" stroke="#ffffff" stroke-width="60" d="M 0 0 L 600 300 M 600 0 L 0 300"/>
    <clipPath id="clipPath1">
        <path d="M -0 -0 L -0 150 L 700.000019 150 L 700.000019 300 L 600 300 Z M 600 -0 L 300 -0 L 300 350.00001 L -0 350.00001 L -0 300 Z"/>
    </clipPath>
    <path id="path2" fill="#000000" stroke="#e4002b" stroke-width="40" clip-path="url(#clipPath1)" d="M 0 0 L 600 300 M 600 0 L 0 300"/>
    <path id="path3" fill="#000000" stroke="#ffffff" stroke-width="100" d="M 300 0 L 300 350 M -0 150 L 700 150"/>
    <path id="path4" fill="#000000" stroke="#e4002b" stroke-width="60" d="M 300 0 L 300 350 M -0 150 L 700 150"/>
    <path id="path5" fill="#012169" stroke="none" d="M 0 300 L 600 300 L 600 0 L 800 0 L 800 400 L 0 400 Z"/>
    <g id="Group">
        <g id="g1">
            <g id="g2">
                <path id="path6" fill="#ffffff" stroke="none" d="M 300 360 L 317.355255 413.961243 L 370.364746 393.885986 L 338.997498 441.099243 L 387.743744 470.026733 L 331.273499 474.939484 L 339.049774 531.086975 L 300 490 L 260.9505 531.08728 L 268.726746 474.939758 L 212.2565 470.027008 L 261.002991 441.099243 L 229.635239 393.885986 L 282.644745 413.961243 Z"/>
            </g>
        </g>
        <g id="g3">
            <path id="path7" fill="#ffffff" stroke="none" d="M 900 457.142853 L 908.264404 482.838684 L 933.507019 473.279053 L 918.57019 495.761536 L 941.782715 509.53656 L 914.892151 511.875946 L 918.595093 538.612854 L 900 519.047607 L 881.405029 538.612976 L 885.107971 511.876068 L 858.217407 509.536682 L 881.429993 495.761536 L 866.492981 473.279053 L 891.735596 482.838684 Z"/>
        </g>
        <g id="g4">
            <path id="path8" fill="#ffffff" stroke="none" d="M 750 219.642853 L 758.264404 245.338684 L 783.507019 235.779053 L 768.57019 258.261536 L 791.782715 272.03656 L 764.892151 274.375977 L 768.595093 301.112854 L 750 281.547638 L 731.405029 301.112976 L 735.107971 274.376068 L 708.217407 272.036682 L 731.429993 258.261536 L 716.492981 235.779053 L 741.735596 245.338684 Z"/>
        </g>
        <g id="g5">
            <path id="path9" fill="#ffffff" stroke="none" d="M 900 57.142883 L 908.264404 82.838684 L 933.507019 73.279053 L 918.57019 95.761536 L 941.782715 109.53656 L 914.892151 111.875946 L 918.595093 138.612854 L 900 119.047607 L 881.405029 138.612976 L 885.107971 111.876068 L 858.217407 109.536652 L 881.429993 95.761536 L 866.492981 73.279053 L 891.735596 82.838684 Z"/>
        </g>
        <g id="g6">
            <path id="path10" fill="#ffffff" stroke="none" d="M 1033.333252 179.642853 L 1041.597778 205.338684 L 1066.840332 195.779053 L 1051.903564 218.261536 L 1075.116089 232.03653 L 1048.225464 234.375946 L 1051.928467 261.112854 L 1033.333252 241.547607 L 1014.738342 261.112976 L 1018.441284 234.376068 L 991.550659 232.036652 L 1014.763306 218.261536 L 999.826355 195.779053 L 1025.06897 205.338684 Z"/>
        </g>
        <g id="g7">
            <path id="path11" fill="#ffffff" stroke="none" d="M 960 300 L 966.530945 316.010956 L 983.776489 317.274506 L 970.567261 328.433563 L 974.694702 345.225464 L 960 336.111206 L 945.305359 345.225464 L 949.432739 328.433563 L 936.223572 317.274506 L 953.469055 316.010956 Z"/>
        </g>
    </g>
</svg>
