<?xml version="1.0" encoding="UTF-8"?>
<!-- Generated by Pixelmator Pro 3.5.7 -->
<svg width="1200" height="600" viewBox="0 0 1200 600" xmlns="http://www.w3.org/2000/svg">
    <path id="Path" fill="#002395" stroke="none" d="M 0 0 L 1200 0 L 1200 600 L 0 600 Z"/>
    <path id="path1" fill="#fecb00" stroke="none" d="M 317.999969 0 L 918 0 L 918 600 Z"/>
    <g id="b">
        <path id="a" fill="#ffffff" stroke="none" d="M 176.474991 39.375 L 210 -63.75 L 243.525009 39.375 L 155.774994 -24.375 L 264.224976 -24.375 Z"/>
        <g id="Group">
            <path id="path2" fill="#ffffff" stroke="none" d="M 251.474991 114.375 L 285 11.25 L 318.525024 114.375 L 230.774994 50.625 L 339.225006 50.625 Z"/>
        </g>
        <g id="g1">
            <path id="path3" fill="#ffffff" stroke="none" d="M 326.475006 189.375 L 360 86.25 L 393.525024 189.375 L 305.774994 125.625 L 414.225006 125.625 Z"/>
        </g>
    </g>
    <g id="g2">
        <g id="g3">
            <path id="path4" fill="#ffffff" stroke="none" d="M 401.475006 264.375 L 435 161.25 L 468.525024 264.375 L 380.774994 200.625 L 489.225006 200.625 Z"/>
            <g id="g4">
                <path id="path5" fill="#ffffff" stroke="none" d="M 476.474976 339.375 L 510 236.25 L 543.525024 339.375 L 455.774994 275.625 L 564.224976 275.625 Z"/>
            </g>
            <g id="g5">
                <path id="path6" fill="#ffffff" stroke="none" d="M 551.474976 414.375 L 585 311.25 L 618.525024 414.375 L 530.775024 350.625 L 639.224976 350.625 Z"/>
            </g>
        </g>
    </g>
    <g id="g6">
        <g id="g7">
            <path id="path7" fill="#ffffff" stroke="none" d="M 626.474976 489.375 L 660 386.25 L 693.525024 489.375 L 605.775024 425.625 L 714.224976 425.625 Z"/>
            <g id="g8">
                <path id="path8" fill="#ffffff" stroke="none" d="M 701.474976 564.375 L 735 461.25 L 768.524963 564.375 L 680.775024 500.625 L 789.225037 500.625 Z"/>
            </g>
            <g id="g9">
                <path id="path9" fill="#ffffff" stroke="none" d="M 776.475037 639.375 L 810 536.25 L 843.524963 639.375 L 755.775024 575.625 L 864.225037 575.625 Z"/>
            </g>
        </g>
    </g>
</svg>
