<?xml version="1.0" encoding="UTF-8"?>
<!-- Generated by Pixelmator Pro 3.5.7 -->
<svg width="1200" height="600" viewBox="0 0 1200 600" xmlns="http://www.w3.org/2000/svg">
    <path id="Path" fill="#c8102e" stroke="none" d="M 0 0 L 1200 0 L 1200 600 L 0 600 Z"/>
    <path id="path1" fill="#012169" stroke="none" d="M 0 0 L 600 0 L 600 300 L 0 300 Z"/>
    <path id="path2" fill="#ffffff" stroke="none" d="M 0 0 L 0 33.540039 L 532.919983 300 L 600 300 L 600 266.459991 L 67.080002 0 Z M 600 0 L 600 33.540039 L 67.080002 300 L 0 300 L 0 266.459991 L 532.919983 0 Z"/>
    <path id="path3" fill="#ffffff" stroke="none" d="M 249.999588 0 L 249.999588 300 L 350.000397 300 L 350.000397 0 Z M 0 99.999603 L 0 200.000397 L 600 200.000397 L 600 99.999603 Z"/>
    <g id="Group">
        <path id="path4" fill="#c8102e" stroke="none" d="M 0 120 L 0 180 L 600 180 L 600 120 Z M 270 0 L 270 300 L 330 300 L 330 0 Z M 0 300 L 200.000412 200.000397 L 244.719604 200.000397 L 44.720398 300 Z M 0 0 L 200.000412 99.999603 L 155.279999 99.999603 L 0 22.359619 Z M 355.280396 99.999603 L 555.279602 0 L 600 0 L 399.999603 99.999603 Z M 600 300 L 399.999603 200.000397 L 444.720001 200.000397 L 600 277.640411 Z"/>
    </g>
    <path id="path5" fill="#ffffff" stroke="none" d="M 1038.433228 127.996796 L 1038.433228 382.081207 C 1038.433228 449.949615 902.758789 472.000824 902.758789 472.000824 C 902.758789 472.000824 767.084412 449.949615 767.084412 382.081207 L 767.084412 127.996796 Z"/>
    <path id="path6" fill="#2f8f22" stroke="none" d="M 1038.433228 382.081207 C 1038.433228 449.949615 902.758789 472.000824 902.758789 472.000824 C 902.758789 472.000824 767.084412 449.949615 767.084412 382.081207 C 767.084412 382.081207 767.084412 376.615204 769.845642 373.507202 C 769.845642 373.507202 768.350403 384.795593 777.022766 393.333618 C 777.022766 393.333618 770.219971 381.289185 776.872803 369.452423 C 776.872803 369.452423 774.40564 384.68158 783.900024 393.427185 C 783.900024 393.427185 778.666748 380.986816 784.573181 367.114777 C 784.573181 367.114777 781.657166 389.807983 791.974792 394.33197 C 791.974792 394.33197 794.815186 381.289185 790.703979 372.92041 C 790.703979 372.92041 797.806763 375.78479 797.432373 394.708801 C 797.432373 394.708801 799.675171 391.918793 800.272766 378.2724 C 800.272766 378.2724 800.571594 393.878387 805.954834 397.497589 C 805.954834 397.497589 807.599976 395.914795 805.357178 388.827606 C 803.114441 381.740417 806.329163 379.252808 806.852417 379.402802 C 806.852417 379.402802 805.672791 387.243591 812.244019 393.124817 C 812.244019 393.124817 809.395142 380.835602 813.357544 379.177185 C 813.357544 379.177185 812.535583 389.581207 820.759216 391.918793 C 820.759216 391.918793 821.356812 388.903198 819.562805 385.510803 C 819.562805 385.510803 817.993225 381.487213 819.188354 378.40921 C 819.188354 378.40921 821.805603 387.847198 825.393616 389.431213 C 825.393616 389.431213 823.22522 383.89917 825.243591 378.40921 C 825.243591 378.40921 825.692444 386.264404 832.719604 389.505615 C 832.719604 389.505615 828.090027 383.425201 829.918823 376.7388 L 875.109619 378.950378 L 898.510742 380.066376 L 968.713196 375.105621 L 980.824829 364.701599 C 980.824829 364.701599 985.609192 371.336395 978.058838 381.815979 C 978.058838 381.815979 985.53479 380.458801 987.927612 368.773193 C 987.927612 368.773193 990.992432 375.256775 986.805603 382.419617 C 986.805603 382.419617 995.104858 374.126404 996.299988 364.701599 C 996.299988 364.701599 999.514832 373.823975 991.664429 383.62558 C 991.664429 383.62558 998.691589 381.287994 1001.683228 370.884003 C 1001.683228 370.884003 1004.075989 377.150391 997.271973 386.005188 C 997.271973 386.005188 1009.981201 379.252808 1009.608032 365.305176 C 1009.608032 365.305176 1014.915588 372.994812 1008.860352 383.549988 C 1008.860352 383.549988 1015.364441 377.744385 1015.963196 369.074402 C 1015.963196 369.074402 1019.552429 372.994812 1015.664429 383.775574 C 1015.664429 383.775574 1023.589233 376.311584 1024.785522 368.243988 C 1024.785522 368.243988 1026.505249 375.708008 1019.701172 385.131592 C 1019.701172 385.131592 1024.336792 384.001221 1028.747925 374.803192 C 1028.747925 374.803192 1029.944336 378.422394 1025.907593 385.05722 C 1025.907593 385.05722 1030.244385 384.303589 1033.15918 376.010406 C 1033.15918 376.010406 1033.682373 380.986816 1032.411621 385.435211 C 1032.411621 385.435211 1035.776367 383.248779 1036.524048 373.823975 C 1036.524048 373.823975 1038.403198 376.915222 1038.435547 380.759979 C 1038.465576 384.606018 1038.433228 382.081207 1038.433228 382.081207 Z"/>
    <g id="g1">
        <path id="path7" fill="#c8102e" stroke="#000000" stroke-width="0.9972" stroke-linejoin="round" d="M 968.566772 235.198792 C 968.566772 235.198792 963.852051 236.000397 957.796814 234.154785 C 951.741577 232.310364 949.293579 233.059204 947.414429 234.154785 C 947.414429 234.154785 949.872009 229.288818 943.891174 225.446411 C 943.891174 225.446411 945.835205 230.359192 943.143616 232.653595 C 943.143616 232.653595 941.947205 233.779175 940.526367 232.083618 C 940.526367 232.083618 938.433594 229.934387 936.228027 228.27597 C 936.228027 228.27597 941.312378 226.504791 940.377625 221.340027 C 939.44281 216.175201 936.676819 215.497192 935.18158 214.856384 C 935.18158 214.856384 935.704834 217.194 935.18158 218.776794 C 935.18158 218.776794 929.649597 215.685608 937.162781 211.312805 C 944.675964 206.940002 943.293579 204.376801 941.947205 202.152039 C 940.602051 199.928406 937.723145 197.477997 936.302429 196.610382 C 936.302429 196.610382 937.797607 198.947968 937.536011 200.946014 C 937.274414 202.944 933.872375 204.225586 934.545654 200.720398 C 935.218811 197.213989 934.508423 197.817627 934.432739 194.085602 C 934.432739 194.085602 941.124023 196.347595 943.741211 189.825592 C 943.741211 189.825592 946.319946 183.078003 937.872009 179.722778 C 937.872009 179.722778 939.927612 182.474426 938.918396 184.547974 C 938.918396 184.547974 937.12439 187.940399 934.993225 185.188812 C 932.862 182.437195 931.516785 181.90921 931.741211 178.666809 C 931.741211 178.666809 939.404358 179.722778 937.311646 171.391174 C 937.311646 171.391174 936.078003 176.9328 926.134766 169.468811 C 926.134766 169.468811 932.601624 162.834015 930.097168 157.480804 C 930.097168 157.480804 929.312378 155.030426 922.283997 156.463196 C 922.283997 156.463196 928.377625 152.618408 925.797607 149.338806 C 925.797607 149.338806 924.489624 147.152405 918.807556 150.016815 C 918.807556 150.016815 921.013184 146.209198 915.44281 142.100403 C 915.44281 142.100403 911.704834 144.061188 909.723633 145.869568 C 909.723633 145.869568 905.911255 141.044373 903.481201 139.122009 C 903.481201 139.122009 899.069946 140.818787 897.949219 145.869568 C 897.949219 145.869568 895.893616 143.419189 891.220825 142.288818 C 891.220825 142.288818 888.978027 146.436005 891.893982 150.053986 C 891.893982 150.053986 889.725586 149.978394 885.763184 148.244385 C 885.763184 148.244385 881.240417 146.095215 881.912415 149.978394 C 882.584412 153.861633 882.921631 154.727997 883.819214 156.537598 C 883.819214 156.537598 873.669556 154.180817 874.100403 159.665985 C 874.399231 163.473602 875.819946 166.753204 878.960388 169.504791 C 878.960388 169.504791 873.278381 176.93158 868.418396 171.351593 C 868.418396 171.351593 866.736023 173.161194 870.362427 177.910797 C 870.362427 177.910797 873.98877 181.906799 870.998352 184.4328 C 870.998352 184.4328 866.99884 187.63681 865.05481 181.417206 C 865.05481 181.417206 858.588013 187.863586 866.213989 192.801605 C 866.213989 192.801605 871.111206 195.591583 876.119995 191.293213 C 876.119995 191.293213 874.587585 203.65799 869.802002 201.283203 C 869.802002 201.283203 866.923157 199.172394 872.08197 196.646423 C 872.08197 196.646423 864.643188 195.704407 863.446777 202.904419 C 863.446777 202.904419 862.528809 208.633179 869.015991 210.708008 C 869.015991 210.708008 874.02478 212.517639 868.828796 216.400787 C 868.828796 216.400787 865.165222 219.190796 867.558044 223.336823 C 867.558044 223.336823 870.436829 227.89798 863.14679 228.350403 C 863.14679 228.350403 859.184387 228.313171 857.76355 227.785187 C 857.76355 227.785187 856.165222 230.757599 857.282349 234.153595 C 857.282349 234.153595 853.652405 231.448792 845.390381 234.441589 C 837.129578 237.435608 837.764404 235.324799 837.091187 236.229614 C 836.41803 237.134399 834.811218 240.187195 834.811218 240.187195 C 834.811218 240.187195 839.147949 245.464813 839.222412 245.35202 C 839.296814 245.239197 838.400391 251.383179 838.400391 251.383179 L 840.531616 252.400787 L 857.540405 244.824036 L 874.810791 235.824036 L 888.696045 236.674805 L 897.501648 238.77121 L 909.06842 239.613586 L 917.352051 235.19519 L 929.350769 235.19519 L 942.54834 241.77121 L 957.610779 250.757996 L 965.461243 252.134399 L 971.509216 251.811615 L 971.509216 239.612396 Z"/>
        <path id="path8" fill="#c8102e" stroke="#000000" stroke-width="0.9972" stroke-linejoin="round" d="M 831.568787 249.463196 C 831.568787 249.463196 838.148376 252.81842 840.895142 248.746796 C 840.895142 248.746796 844.484375 241.904419 836.605225 239.529602 C 836.605225 239.529602 840.895142 234.384003 836.296814 229.634399 C 836.296814 229.634399 833.886047 227.090393 829.680054 228.95639 C 829.680054 228.95639 827.941162 225.337219 823.847961 225.450012 C 823.847961 225.450012 820.26001 225.393616 819.026367 229.351196 C 819.026367 229.351196 814.09198 227.315979 811.343994 230.256012 C 811.343994 230.256012 806.802002 235.345215 813.138 239.360382 L 817.697998 239.775574 L 822.183594 237.702026 L 827.192444 239.134796 C 827.196045 239.133606 825.906006 244.204803 831.568787 249.463196 Z"/>
        <path id="path9" fill="#64b4d1" stroke="#000000" stroke-width="0.7476" d="M 978.430786 237.430817 C 986.356812 236.684387 989.155212 243.373199 989.155212 243.373199 C 993.30957 253.119568 984.487183 258.322784 984.487183 258.322784 C 985.1604 260.509216 985.234802 263.373596 985.234802 263.373596 C 997.645142 264.881989 995.475586 278.82959 995.475586 278.82959 L 991.365601 275.437195 C 984.188354 272.647186 976.786804 278.753967 971.479187 289.007996 C 966.171631 299.261993 968.713196 304.087219 969.609619 316.225189 C 970.507202 328.36319 990.243591 335.601593 990.243591 335.601593 C 990.243591 335.601593 980.897949 359.651978 974.842834 375.108002 C 968.787598 390.563995 956.151611 384.154785 952.489258 380.89917 C 948.825562 377.643616 947.909973 379.451996 946.05957 380.89917 C 944.209229 382.346405 954.358826 390.261597 935.891968 397.725586 C 917.425171 405.189575 914.210388 410.919617 911.14563 412.80481 C 908.080811 414.690002 895.296021 413.408386 894.025208 411.824402 C 892.754395 410.241608 893.502014 410.241608 888.717651 407.300385 C 883.933228 404.360413 875.858398 401.79718 867.036011 397.498779 C 858.213562 393.201599 858.437988 387.697205 858.51355 386.566803 C 858.588013 385.436401 861.578369 376.238403 851.246399 383.551208 C 840.914429 390.864014 832.122009 380.068787 832.122009 380.068787 C 830.103577 377.415588 821.505615 354.37442 821.505615 354.37442 C 819.188354 345.779999 814.627197 335.751587 814.627197 335.751587 C 814.851624 335.676025 814.178406 336.807617 821.804382 332.434784 C 829.43042 328.062012 832.845642 320.786377 835.485596 313.586395 C 838.12561 306.386414 835.559998 294.059998 834.588013 291.571228 C 833.615967 289.083618 827.934021 277.676392 820.898376 275.286011 C 813.862793 272.895599 809.144409 278.82959 809.144409 278.82959 C 809.144409 278.82959 806.973633 264.881989 819.385193 263.373596 C 819.385193 263.373596 819.459595 260.509216 820.132751 258.322784 C 820.132751 258.322784 811.310364 253.120819 815.464844 243.373199 C 815.464844 243.373199 818.263184 236.684387 826.189209 237.430817 L 824.271606 241.05719 C 824.271606 241.05719 822.276001 260.961609 851.410767 247.616394 C 880.545654 234.27121 879.670837 231.78363 896.268005 240.152405 L 908.379578 239.926788 C 908.379578 239.926788 925.87439 231.834015 931.480835 235.315216 C 937.088379 238.796417 957.273621 250.105225 957.273621 250.105225 C 957.273621 250.105225 976.786804 257.422791 980.599243 243.925201 Z"/>
    </g>
    <path id="path10" fill="#ffffff" stroke="#012169" stroke-width="0.9972" d="M 890.771973 323.72641 C 890.771973 323.72641 889.759216 317.617188 888.694763 313.660797 C 888.694763 313.660797 886.532349 307.451996 890.221191 303.093597 L 894.795654 297.829193 C 894.795654 297.829193 897.638367 294.004791 901.15802 293.485199 C 901.15802 293.485199 904.677612 293.380798 905.01355 292.664398 C 905.349609 291.947968 909.200378 285.612 918.358826 292.664398 C 918.358826 292.664398 921.27478 287.990417 925.760376 287.198395 C 925.760376 287.198395 930.606018 285.728394 932.949585 289.347595 C 932.949585 289.347595 938.395142 285.218414 943.067993 291.864014 C 943.067993 291.864014 949.53479 288.226807 954.244751 295.459198 C 954.244751 295.459198 960.637207 292.341583 964.562378 298.987213 C 968.48761 305.632813 967.70282 308.347198 967.70282 308.347198 L 970.616394 318.902405 L 980.936401 331.643982 L 956.937622 340.690796 L 946.172363 340.690796 L 924.640808 346.458008 L 886.400391 349.39801 L 875.746826 336.844818 Z"/>
    <g id="g2">
        <path id="path11" fill="#c8102e" stroke="#000000" stroke-width="0.9972" stroke-linejoin="round" d="M 858.448853 387.283203 C 858.448853 387.283203 852.729553 387.622803 849.813599 389.092773 C 846.897583 390.562805 844.654846 392.14679 841.291199 394.2948 C 841.291199 394.2948 839.721619 396.386383 833.104858 395.11438 C 833.104858 395.11438 821.666382 392.372375 821.666382 401.306396 C 821.666382 401.306396 807.985168 402.436829 813.591553 414.424805 C 813.591553 414.424805 817.403992 423.811188 825.254395 417.139191 C 825.254395 417.139191 820.208435 424.376404 829.964417 427.204803 C 829.964417 427.204803 836.917236 428.901611 838.935547 421.776001 C 838.935547 421.776001 840.057556 418.948792 837.365967 415.442383 C 837.365967 415.442383 840.730835 414.764404 843.085205 411.145203 C 843.085205 411.145203 835.90802 420.216003 843.758423 423.483612 C 843.758423 423.483612 853.623657 425.959198 854.186401 415.66803 C 854.186401 415.66803 853.381226 410.918396 857.204346 409.221619 C 857.204346 409.221619 865.065613 407.412018 868.653564 398.647186 C 868.654846 398.648407 857.350769 392.627991 858.448853 387.283203 Z M 835.352417 297.081604 C 835.352417 297.081604 826.530029 293.018402 822.343201 297.081604 C 822.343201 297.081604 816.51123 293.470795 810.381592 297.081604 C 810.381592 297.081604 804.549622 300.892792 800.512817 305.090393 C 800.512817 305.090393 797.672363 307.522827 798.718811 315.190796 C 798.718811 315.190796 800.213989 320.596802 799.316406 323.311188 C 799.316406 323.311188 797.372375 322.926025 793.484375 327.532806 C 793.484375 327.532806 788.549988 333.247192 784.214417 328.203583 C 784.214417 328.203583 785.55957 335.223602 793.708801 334.09201 C 793.708801 334.09201 789.746399 337.183197 793.185547 345.175201 C 793.185547 345.175201 795.727234 350.82959 791.69043 357.916809 C 791.69043 357.916809 798.793213 355.052429 798.493225 346.683624 C 798.493225 346.683624 797.89563 341.029205 799.988403 337.033203 C 799.988403 337.033203 797.89563 340.666809 802.754395 348.417603 C 802.754395 348.417603 806.492432 353.996399 803.427612 359.802002 C 803.427612 359.802002 810.454834 357.2388 809.782776 348.718811 C 809.110779 340.198792 804.848389 343.742401 807.614441 335.901611 C 807.614441 335.901611 808.287598 339.91803 810.380432 341.943604 C 812.473145 343.969177 815.164795 347.361572 814.044006 353.015991 C 814.044006 353.015991 818.230835 347.813995 817.258789 342.460815 C 816.286804 337.107605 815.240417 335.4888 815.240417 335.4888 L 828.472778 327.985229 L 835.052429 316.072815 Z"/>
        <g id="g3">
            <path id="path12" fill="none" stroke="#000000" stroke-width="0.9972" d="M 815.241577 330.699615 C 815.241577 330.699615 809.783997 330.322815 808.886414 326.100006 M 799.316406 323.311188 C 799.316406 323.311188 801.218384 323.235596 802.937988 324.969604 C 802.937988 324.969604 804.250793 326.930389 806.120422 326.703583"/>
        </g>
    </g>
    <path id="path13" fill="#000000" stroke="none" d="M 823.315186 314.641174 C 823.315186 314.641174 820.474792 314.641174 818.903992 313.283997 C 818.903992 313.283997 817.258789 312.153595 816.286804 313.962006 C 816.286804 313.962006 814.791565 316.525208 817.557556 317.656799 C 817.557556 317.656799 820.996826 319.390808 815.539246 322.858826 C 815.539246 322.858826 822.043213 320.52121 819.427246 317.355621 C 819.427246 317.355621 816.586792 315.320404 817.63324 314.565613 C 817.63324 314.565613 817.932007 313.962006 819.053955 314.716797 C 820.175964 315.470398 822.418823 315.169189 823.315186 314.641174 Z"/>
    <path id="path14" fill="#784421" stroke="#000000" stroke-width="0.7476" d="M 912.489624 329.0448 L 890.627991 253.549225 L 889.827637 253.764008 L 909.145142 330.175201 Z"/>
    <path id="path15" fill="#000000" stroke="none" d="M 836.356812 413.742004 C 836.356812 413.742004 831.197998 410.843994 826.936829 414.236389 C 826.936829 414.236389 827.372375 412.351196 830.631592 411.522003 C 830.631592 411.522003 832.39563 406.545593 837.328796 406.998016 C 837.328796 406.998016 835.310364 409.409973 832.618774 411.446411 C 832.618774 411.446411 835.460388 411.740417 836.356812 413.742004 Z"/>
    <path id="path16" fill="#64b4d1" stroke="#012169" stroke-width="0.7476" d="M 818.190002 425.733612 C 818.190002 425.733612 810.003601 420.587982 814.432739 411.936005 C 814.432739 411.936005 815.722778 409.448395 818.190002 409.957214 C 818.190002 409.957214 823.292419 411.540009 819.312012 418.609192 C 819.310791 418.609192 817.292419 423.189575 818.190002 425.733612 Z M 834.787231 433.876801 C 834.787231 433.876801 823.12439 428.562012 826.712402 419.514008 C 826.712402 419.514008 827.821228 416.459991 830.407166 416.686829 C 830.407166 416.686829 834.904846 416.912415 834.004822 422.906403 C 834.004822 422.906403 832.656006 428.787598 834.787231 433.876801 Z"/>
    <path id="path17" fill="#000000" stroke="none" d="M 832.319946 400.112396 C 832.319946 400.112396 828.815979 402.700806 827.390381 404.434784 C 827.390381 404.434784 825.964844 402.663605 824.096436 401.588409 C 824.096436 401.588409 826.247986 401.305176 827.390381 402.27359 C 827.390381 402.27359 829.179565 400.539581 832.319946 400.112396 Z"/>
    <path id="path18" fill="#64b4d1" stroke="#012169" stroke-width="0.7476" d="M 842.69281 431.614777 C 842.69281 431.614777 851.83197 429.296417 850.150757 419.853577 C 850.150757 419.853577 849.253174 415.725586 845.384399 416.290802 C 845.384399 416.290802 840.722412 417.481201 843.758423 423.483612 C 843.758423 423.483612 845.552429 427.77002 842.69281 431.614777 Z"/>
    <path id="path19" fill="#f5ce00" stroke="#000000" stroke-width="0.9972" d="M 883.987183 231.841187 C 883.987183 231.841187 889.87439 233.646027 893.071228 234.949219 C 893.071228 234.949219 901.593628 238.794006 912.416382 234.949219 C 912.416382 234.949219 919.735168 232.051208 920.710754 231.841187 L 915.106812 240.377991 L 914.825989 244.787994 L 918.332397 249.933624 C 918.332397 249.933624 916.22876 250.781982 909.947998 246.936005 C 909.947998 246.936005 902.995178 241.564819 894.696045 246.936005 C 894.696045 246.936005 890.153992 250.012787 886.341553 249.933624 L 891.724792 243.922791 L 889.650024 238.510803 Z"/>
    <path id="path20" fill="#ffffff" stroke="none" d="M 846.225586 420.333618 C 846.225586 420.333618 846.561646 419.881195 846.169189 419.683197 C 846.169189 419.683197 845.776855 419.514008 845.496033 420.064789 C 845.496033 420.064789 844.543213 421.576782 845.349609 423.64801 C 845.349609 423.64801 846.112793 425.083191 845.741943 426.58197 C 845.741943 426.58197 845.691589 427.005615 846.028809 427.063171 C 846.028809 427.063171 846.351624 426.950378 846.41394 426.639587 C 846.41394 426.639587 846.869995 425.176788 846.085205 423.745209 C 846.086426 423.743988 845.132385 421.521606 846.225586 420.333618 Z"/>
    <g id="g4">
        <path id="path21" fill="#c8102e" stroke="#000000" stroke-width="0.9972" stroke-linejoin="round" d="M 972.824402 249.463196 C 972.824402 249.463196 966.244751 252.81842 963.497986 248.746796 C 963.497986 248.746796 959.909973 241.904419 967.787964 239.529602 C 967.787964 239.529602 963.497986 234.384003 968.096436 229.634399 C 968.096436 229.634399 970.507202 227.090393 974.713196 228.95639 C 974.713196 228.95639 976.452026 225.337219 980.545166 225.450012 C 980.545166 225.450012 984.13324 225.393616 985.36676 229.351196 C 985.36676 229.351196 990.301147 227.315979 993.047974 230.256012 C 993.047974 230.256012 997.590027 235.345215 991.253967 239.360382 L 986.69397 239.775574 L 982.208435 237.702026 L 977.199585 239.134796 C 977.197205 239.133606 978.487183 244.204803 972.824402 249.463196 Z"/>
        <path id="path22" fill="#f5ce00" stroke="#000000" stroke-width="0.9972" d="M 920.714417 244.148407 C 920.714417 244.148407 920.548828 245.505615 919.202393 245.656799 C 919.202393 245.656799 917.79834 246.109192 916.980042 244.360809 C 916.980042 244.360809 916.885193 243.964813 916.863586 243.771606 C 916.769958 242.954407 916.490417 240.604797 919.031982 238.682373 C 919.031982 238.682373 923.18158 235.290009 931.106384 239.398804 C 931.106384 239.398804 937.386047 242.414398 941.722778 244.9776 C 941.722778 244.9776 952.936829 251.00882 954.283203 251.461182 C 954.283203 251.461182 959.217651 253.948792 966.768005 254.251221 C 966.768005 254.251221 977.085571 255.004791 981.458435 247.767639 C 981.458435 247.767639 984.78479 242.264404 981.458435 238.757996 C 981.458435 238.757996 980.113159 237.175201 977.900391 237.466797 C 976.971619 237.589203 975.945618 238.016388 974.954346 239.173218 C 974.954346 239.173218 973.347595 241.510803 975.216003 243.244781 C 975.216003 243.244781 977.645996 244.734009 978.505249 241.586426 C 978.505249 241.586426 978.542419 241.360809 978.61676 241.642822 C 978.664795 241.825195 979.214417 244.225189 977.925598 246.260376 C 977.925598 246.260376 971.701172 255.679169 954.580811 245.918396 L 932.002808 233.254791 C 932.002808 233.254791 920.675964 227.449219 913.9104 236.534393 C 913.9104 236.534393 908.45282 244.074036 915.480042 249.012024 C 915.480042 249.012024 920.713196 252.140411 924.002441 247.165222 C 924.002441 247.165222 926.731201 242.264404 922.432739 240.116394 C 922.432739 240.116394 918.657593 238.345215 917.162415 242.11438 C 915.667236 245.883606 920.078369 246.864014 920.48877 244.187988 C 920.48999 244.185608 920.602783 243.544769 920.714417 244.148407 Z"/>
        <g id="g5">
            <path id="path23" fill="#e4cb5e" stroke="#000000" stroke-width="0.7476" d="M 831.216003 283.012787 L 831.216003 268.876801 C 831.216003 267.766815 831.224426 266.841583 832.90564 265.484406 C 834.586792 264.127228 836.381958 261.977997 838.960754 268.085999 C 838.960754 268.085999 844.006775 262.77121 845.689209 261.979187 C 845.689209 261.979187 848.605225 259.491577 850.623657 263.109589 C 850.623657 263.109589 853.315186 259.037994 855.44519 258.020386 C 855.44519 258.020386 860.491211 254.740784 860.715576 264.57959 L 864.640808 260.960388 C 864.640808 260.960388 867.668396 258.472778 871.033203 261.865204 C 871.033203 261.865204 876.752441 267.406799 877.537231 268.989624 C 877.537231 268.989624 878.799622 270.704407 878.89679 273.40921 C 878.89679 273.40921 878.882385 276.453583 880.452026 278.149231 C 880.452026 278.149231 882.244751 279.731995 883.983643 280.071594 C 883.983643 280.071594 888.076843 280.184387 889.53479 284.029175 C 889.53479 284.029175 890.208008 283.36319 892.226379 301.790405 L 892.226379 335.372375 L 869.572754 362.401215 L 833.237976 351.997192 L 818.771973 346.003204 L 815.519958 335.372375 L 829.538391 326.325592 L 837.164429 305.743195 L 834.697205 291.267639 Z"/>
            <path id="path24" fill="#784421" stroke="#000000" stroke-width="0.7476" d="M 931.330811 300.843597 L 933.050415 298.280396 L 937.162781 295.113586 C 937.162781 295.113586 943.442444 311.594391 943.742432 315.190796 L 943.742432 320.305176 C 943.742432 320.305176 953.162415 322.708801 954.807556 337.184387 L 947.032776 351.50882 L 934.846802 344.722809 L 931.333252 342.159607 L 931.333252 300.843597 Z"/>
        </g>
    </g>
    <path id="path25" fill="#ffffff" stroke="none" d="M 815.918396 414.001221 C 815.918396 414.001221 816.367249 413.407227 816.058838 413.152802 C 816.058838 413.152802 815.862 412.869629 815.330444 413.548798 C 815.330444 413.548798 812.853577 416.3172 814.825195 420.574799 C 814.825195 420.574799 815.049622 421.181976 815.441956 420.984009 C 815.441956 420.984009 815.778015 420.814789 815.469604 420.306 C 815.470825 420.306 813.704346 416.799622 815.918396 414.001221 Z"/>
    <g id="g6">
        <path id="path26" fill="none" stroke="#000000" stroke-width="0.9972" d="M 852.655212 411.220795 C 852.655212 411.220795 853.028381 409.939209 852.131958 408.58197 C 852.131958 408.58197 851.534424 407.601593 851.757568 406.320007"/>
        <path id="path27" fill="none" stroke="#000000" stroke-width="0.7476" d="M 860.718018 264.57959 C 860.718018 264.57959 860.751648 268.114807 861.760742 270.71637 C 862.769958 273.318024 866.177979 277.816803 866.402405 280.247986"/>
        <path id="path28" fill="#c8102e" stroke="#000000" stroke-width="0.9972" stroke-linejoin="round" d="M 946.171204 387.283203 C 946.171204 387.283203 951.890381 387.622803 954.806396 389.092773 C 957.722412 390.562805 959.96521 392.14679 963.328796 394.2948 C 963.328796 394.2948 964.898376 396.386383 971.515198 395.11438 C 971.515198 395.11438 982.953613 392.372375 982.953613 401.306396 C 982.953613 401.306396 996.634766 402.436829 991.028381 414.424805 C 991.028381 414.424805 987.216003 423.811188 979.365601 417.139191 C 979.365601 417.139191 984.411621 424.376404 974.65564 427.204803 C 974.65564 427.204803 967.70282 428.901611 965.684387 421.776001 C 965.684387 421.776001 964.562378 418.948792 967.253967 415.442383 C 967.253967 415.442383 963.889221 414.764404 961.53479 411.145203 C 961.53479 411.145203 968.712036 420.216003 960.861633 423.483612 C 960.861633 423.483612 950.996399 425.959198 950.433594 415.66803 C 950.433594 415.66803 951.23877 410.918396 947.415588 409.221619 C 947.415588 409.221619 939.554382 407.412018 935.96637 398.647186 C 935.96637 398.648407 947.269165 392.627991 946.171204 387.283203 Z"/>
        <g id="g7">
            <g id="g8">
                <path id="path29" fill="none" stroke="#000000" stroke-width="0.7476" d="M 856.205994 280.243225 L 865.539612 355.579224 M 858.362427 280.079987 L 868.830017 350.302795 M 860.324402 279.753601 L 872.380798 349.39801"/>
            </g>
            <path id="path30" fill="#784421" stroke="#000000" stroke-width="0.7476" d="M 882.735596 342.2724 L 860.872803 266.776794 L 860.072388 266.991577 L 879.391174 343.404022 Z"/>
            <g id="g9">
                <path id="path31" fill="none" stroke="#000000" stroke-width="0.7476" d="M 867.013184 276.98761 L 889.09082 332.773193 M 865.539612 277.890015 L 886.846802 336.165588"/>
            </g>
        </g>
    </g>
    <path id="path32" fill="#ffffff" stroke="none" d="M 830.563171 428.52359 C 830.563171 428.52359 828.00116 426.0672 828.357544 421.663177 C 828.357544 421.663177 828.507568 420.721222 828.037231 420.590393 C 828.037231 420.590393 827.535583 420.381592 827.461243 421.474792 C 827.461243 421.474792 826.750793 426.074402 829.854004 428.712006 C 829.854004 428.712006 830.065186 428.976013 830.408447 428.900391 C 830.407166 428.900391 830.774414 428.818787 830.563171 428.52359 Z"/>
    <g id="g10">
        <path id="path33" fill="none" stroke="#000000" stroke-width="0.7476" d="M 868.009216 276.230408 L 890.771973 327.118805 M 861.78363 279.392395 L 875.745605 347.926788"/>
        <path id="path34" fill="#f5ce00" stroke="#000000" stroke-width="0.9972" d="M 975.992432 330.175201 C 966.020447 324.517212 963.833984 311.963989 963.833984 311.963989 C 961.423157 299.467194 966.301147 289.571991 966.301147 289.571991 C 972.75 275.944763 983.799622 273.40921 983.799622 273.40921 C 983.799622 273.40921 972.974426 280.920013 969.946777 291.041992 C 969.946777 291.041992 967.591187 299.579987 968.937622 308.005188 C 970.282776 316.430389 969.778809 314.281189 971.853577 320.783997 Z"/>
        <path id="path35" fill="#784421" stroke="#000000" stroke-width="0.456" d="M 933.050415 298.280396 L 891.150024 311.510406 L 888.865234 330.175201 C 878.921997 344.578796 858.71637 347.134796 858.71637 347.134796 L 874.436401 363.872375 L 904.640381 370.205994 L 920.48999 357.992401 L 934.84436 344.722809 C 933.349243 337.63562 934.171204 327.118805 934.171204 327.118805 C 934.171204 325.347595 934.84436 321.200378 934.84436 321.200378 C 934.84436 321.200378 932.377197 304.161591 933.050415 298.280396 Z"/>
        <g id="g11">
            <path id="path36" fill="none" stroke="#000000" stroke-width="0.7476" d="M 889.440002 325.485596 C 889.440002 325.485596 917.036438 316.868408 933.491943 309.949188 M 876.193237 341.21637 C 876.193237 341.21637 910.621216 334.996796 934.84436 321.200378 L 943.741211 315.190796"/>
            <path id="path37" fill="none" stroke="#000000" stroke-width="0.7476" d="M 943.741211 320.305176 L 934.171204 327.118805 C 934.171204 327.118805 895.66803 344.873993 866.352051 345.348022 M 934.16394 339.735596 C 934.16394 339.735596 904.565979 354.976807 887.59436 355.203583"/>
        </g>
        <path id="path38" fill="#c8102e" stroke="#000000" stroke-width="0.9972" stroke-linejoin="round" d="M 969.459595 297.081604 C 969.459595 297.081604 978.281982 293.018402 982.468811 297.081604 C 982.468811 297.081604 988.300781 293.470795 994.43042 297.081604 C 994.43042 297.081604 1000.26239 300.892792 1004.299194 305.090393 C 1004.299194 305.090393 1007.139648 307.522827 1006.093201 315.190796 C 1006.093201 315.190796 1004.597961 320.596802 1005.495605 323.311188 C 1005.495605 323.311188 1007.439636 322.926025 1011.327637 327.532806 C 1011.327637 327.532806 1016.262024 333.247192 1020.597595 328.203583 C 1020.597595 328.203583 1019.252441 335.223602 1011.10321 334.09201 C 1011.10321 334.09201 1015.065613 337.183197 1011.626343 345.175201 C 1011.626343 345.175201 1009.084778 350.82959 1013.121582 357.916809 C 1013.121582 357.916809 1006.018799 355.052429 1006.318787 346.683624 C 1006.318787 346.683624 1006.916382 341.029205 1004.823608 337.033203 C 1004.823608 337.033203 1006.916382 340.666809 1002.057556 348.417603 C 1002.057556 348.417603 998.31958 353.996399 1001.384399 359.802002 C 1001.384399 359.802002 994.357178 357.2388 995.029175 348.718811 C 995.702393 340.198792 999.963562 343.742401 997.197571 335.901611 C 997.197571 335.901611 996.524414 339.916809 994.43158 341.943604 C 992.338745 343.969177 989.647217 347.361572 990.768005 353.015991 C 990.768005 353.015991 986.581177 347.813995 987.553223 342.460815 C 988.525208 337.107605 989.571594 335.4888 989.571594 335.4888 L 976.339233 327.985229 L 969.759583 316.072815 Z"/>
    </g>
    <path id="path39" fill="#ffffff" stroke="#012169" stroke-width="0.9972" d="M 819.561646 344.7612 C 819.561646 344.7612 820.795166 338.917206 826.402832 341.21637 C 826.402832 341.21637 828.30957 331.641602 838.514404 331.303192 C 848.719177 330.963623 849.279541 341.254791 849.279541 341.934021 C 849.279541 341.934021 852.277222 337.515594 857.282349 338.028015 C 857.282349 338.028015 865.911621 337.519196 862.697998 351.37442 L 864.330017 353.112 C 864.330017 353.112 870.922791 337.63562 884.492432 341.707214 C 884.492432 341.707214 897.724792 345.740417 889.09082 358.557617 C 889.09082 358.557617 895.621216 367.039185 901.15918 366.247192 C 906.697205 365.4552 911.631592 363.759583 917.126343 354.03363 C 922.621216 344.307617 935.406006 342.837585 938.65802 343.402802 C 941.909973 343.968018 944.479187 346.079987 945.009583 348.379211 C 945.009583 348.379211 951.778809 325.786804 976.113586 329.336395 L 985.869568 334.243225 L 989.570435 335.940002 L 984.053955 351.50882 L 970.615234 381.88562 L 960.412781 385.0224 L 949.759216 378.915588 L 946.058411 380.89917 L 945.755981 389.997589 L 931.703979 400.112396 L 921.947998 404.133606 L 911.182739 411.484802 L 908.678406 418.056 C 908.678406 418.056 902.732361 415.551605 896.021973 418.056 L 893.800781 412.616394 L 887.52124 406.622375 L 863.125183 395.11438 L 858.717651 380.89917 L 854.264404 378.915588 L 849.279541 384.625183 L 841.990784 385.474792 L 831.112793 378.123596 Z"/>
    <g id="g12">
        <g id="g13">
            <g id="g14">
                <path id="path40" fill="none" stroke="#000000" stroke-width="0.9972" d="M 925.798828 234.158417 C 925.798828 234.158417 916.487976 233.744385 916.825195 243.394775"/>
                <path id="path41" fill="#f5ce00" stroke="#000000" stroke-width="0.9972" d="M 987.047974 336.674408 C 970.843201 331.697998 966.41394 314.28241 966.41394 314.28241 C 963.105591 301.220398 968.432373 289.798798 968.432373 289.798798 C 975.833984 272.416809 988.357178 272.42041 988.357178 272.42041 C 994.636841 272.251221 995.390381 277.622375 995.390381 277.622375 C 995.983215 281.429993 993.310791 282.805237 993.310791 282.805237 C 989.01239 285.142822 986.301636 281.975983 986.301636 281.975983 C 984.507568 279.638367 985.890015 277.565979 985.890015 277.565979 C 986.992798 276.020386 989.104858 276.698395 989.104858 276.698395 C 990.777588 277.216797 990.599976 279.308411 990.599976 279.308411 C 990.609619 279.364807 990.64679 279.364807 990.64679 279.364807 C 990.721191 279.345581 990.693604 279.318024 990.693604 279.318024 C 990.693604 279.318024 991.066772 276.754791 988.562378 276.490784 C 988.562378 276.490784 983.684387 275.434784 977.96521 282.560364 C 977.96521 282.560364 970.434021 292.173584 970.452026 304.612793 C 970.452026 304.612793 969.499207 327.966003 993.833984 334.016388 C 993.833984 334.016388 991.198853 337.80481 986.545166 351.488403 C 986.545166 351.488403 981.27478 369.074402 976.243225 378.58197 C 976.243225 378.58197 969.554382 392.144379 954.639648 386.602814 C 954.639648 386.602814 945.758423 382.701599 945.780029 376.255188 C 945.780029 376.255188 945.163208 370.373993 950.48999 369.9216 C 950.48999 369.9216 955.7052 369.525574 955.648804 373.993225 C 955.648804 373.993225 955.789246 378.828003 950.097595 377.725189 C 950.097595 377.725189 948.106812 377.301605 948.471619 375.350403 C 948.471619 375.350403 948.789612 373.597198 951.190796 374.360413 C 951.190796 374.360413 951.265198 374.369995 951.27478 374.331604 C 951.27478 374.331604 951.302429 374.289581 951.218384 374.265594 C 951.218384 374.265594 950.289612 373.850403 949.308044 374.193604 C 949.308044 374.193604 948.428406 374.486389 948.358826 375.858002 C 948.358826 375.858002 948.302429 376.960815 949.480835 377.582397 C 949.480835 377.582397 950.911255 378.091187 952.031982 377.978394 C 952.031982 377.978394 953.540405 381.022827 956.953186 382.05481 C 961.703979 383.49118 965.617249 382.107605 968.01239 380.197205 C 970.617615 378.118805 972.302429 374.486389 972.806396 373.595978 C 973.310364 372.705627 977.684387 362.908813 980.973633 352.372803 C 980.973633 352.372803 983.852417 343.287598 986.150391 338.537994 Z"/>
                <path id="path42" fill="#f5ce00" stroke="#000000" stroke-width="0.9972" d="M 941.320801 380.949615 C 941.320801 380.949615 944.348389 380.539185 944.348389 383.239197 C 944.348389 383.239197 944.163574 387.183624 939.357544 386.320801 C 939.357544 386.320801 934.619995 385.283997 936.301147 379.987213 C 936.301147 379.987213 937.423157 376.255188 941.908813 376.792786 C 941.908813 376.792786 946.253967 376.990784 948.160767 382.928406 C 948.160767 382.928406 949.618774 387.933624 947.124023 392.229614 C 944.338745 397.024811 937.292419 400.174805 933.891602 401.569183 C 933.891602 401.569183 920.265625 406.922394 916.201172 409.984802 C 916.201172 409.984802 909.968384 414.612 912.724792 418.918793 C 912.724792 418.918793 913.790405 420.559204 915.388794 420.559204 C 915.388794 420.559204 917.211609 420.644379 917.519958 418.778381 C 917.519958 418.778381 917.529541 418.74118 917.500793 418.693207 C 917.500793 418.693207 917.473145 418.693207 917.463562 418.740021 C 917.463562 418.740021 917.332764 419.880005 916.341553 420.30481 C 916.341553 420.30481 915.014404 420.974426 913.622375 419.79599 C 913.622375 419.79599 912.146423 418.382416 913.380005 416.186401 C 913.380005 416.186401 914.996399 413.481598 918.763184 415.083618 C 918.763184 415.083618 922.081177 416.723999 920.716797 420.248413 C 920.716797 420.248413 919.502441 423.492004 915.501648 423.483612 C 915.501648 423.483612 912.489624 423.384003 910.563599 421.36438 C 907.557556 418.213196 907.394409 412.075195 910.044006 408.901215 C 910.044006 408.901215 912.54834 405.526794 917.576355 403.472382 C 920.48877 402.281982 925.987183 399.891602 931.706421 397.648804 C 935.726379 396.071991 939.40802 394.184387 941.799622 391.353577 C 941.799622 391.353577 943.930786 388.97879 944.547607 384.907227 C 944.547607 384.907227 945.136841 381.85321 943.276855 381.184784 C 943.276855 381.184784 942.332397 380.7612 941.295654 380.901611 C 941.295654 380.901611 941.268005 380.902802 941.260742 380.920776 C 941.258423 380.921997 941.21637 380.96759 941.320801 380.949615 Z"/>
                <path id="path43" fill="none" stroke="#000000" stroke-width="0.9972" d="M 941.574036 380.930389 C 941.574036 380.930389 944.919556 380.326782 947.01239 384.30481 C 947.01239 384.30481 948.246033 386.868011 948.44519 388.351196 M 949.53479 374.131195 C 949.53479 374.131195 946.184387 374.712006 947.909973 379.451996 C 949.536011 383.919617 952.556396 385.384796 953.45282 386.006409"/>
                <path id="path44" fill="#f5ce00" stroke="#000000" stroke-width="0.9972" d="M 883.983643 244.147186 C 883.983643 244.147186 884.149231 245.504395 885.495605 245.655609 C 885.495605 245.655609 886.899597 246.108002 887.718018 244.359589 C 887.718018 244.359589 887.812805 243.963562 887.834412 243.770386 C 887.927979 242.953186 888.207581 240.603577 885.666016 238.681213 C 885.666016 238.681213 881.516357 235.288818 873.591553 239.397583 C 873.591553 239.397583 867.312012 242.413177 862.97522 244.97641 C 862.97522 244.97641 851.76123 251.007599 850.414795 251.459991 C 850.414795 251.459991 845.480408 253.947571 837.930054 254.25 C 837.930054 254.25 827.612427 255.003601 823.239624 247.766388 C 823.239624 247.766388 819.913208 242.263184 823.239624 238.756775 C 823.239624 238.756775 824.584778 237.174011 826.797607 237.465607 C 827.726379 237.587982 828.752441 238.015198 829.743591 239.171997 C 829.743591 239.171997 831.350403 241.509583 829.481995 243.243591 C 829.481995 243.243591 827.052002 244.732788 826.19281 241.585175 C 826.19281 241.585175 826.15564 241.359589 826.080017 241.641571 C 826.031982 241.824036 825.482361 244.22403 826.77124 246.259216 C 826.77124 246.259216 832.995605 255.678009 850.115967 245.917206 L 872.69397 233.253601 C 872.69397 233.253601 884.020813 227.447968 890.786438 236.533203 C 890.786438 236.533203 896.244019 244.072784 889.216797 249.010803 C 889.216797 249.010803 883.983643 252.139191 880.694397 247.164001 C 880.694397 247.164001 877.965576 242.263184 882.263977 240.115204 C 882.263977 240.115204 886.039246 238.343994 887.534424 242.11319 C 889.029541 245.882385 884.618408 246.862793 884.208008 244.186829 C 884.208008 244.185608 884.095154 243.544769 883.983643 244.147186 Z M 828.705627 330.175201 C 838.677612 324.517212 840.863953 311.963989 840.863953 311.963989 C 843.27478 299.467194 838.39679 289.571991 838.39679 289.571991 C 831.947998 275.944763 820.898376 273.40921 820.898376 273.40921 C 820.898376 273.40921 831.723633 280.920013 834.75116 291.041992 C 834.75116 291.041992 837.106812 299.579987 835.760376 308.005188 C 834.415222 316.430389 834.919189 314.281189 832.84436 320.783997 Z"/>
                <path id="path45" fill="none" stroke="#000000" stroke-width="0.9972" d="M 878.899231 234.158417 C 878.899231 234.158417 888.209961 233.744385 887.872803 243.394775"/>
                <path id="path46" fill="#f5ce00" stroke="#000000" stroke-width="0.9972" d="M 817.650024 336.674408 C 833.854858 331.697998 838.283997 314.28241 838.283997 314.28241 C 841.592407 301.220398 836.265625 289.798798 836.265625 289.798798 C 828.863953 272.416809 816.34082 272.42041 816.34082 272.42041 C 810.061218 272.251221 809.307556 277.622375 809.307556 277.622375 C 808.714844 281.429993 811.387207 282.805237 811.387207 282.805237 C 815.685547 285.142822 818.396423 281.975983 818.396423 281.975983 C 820.19043 279.638367 818.808044 277.565979 818.808044 277.565979 C 817.7052 276.020386 815.593201 276.698395 815.593201 276.698395 C 813.92041 277.216797 814.097961 279.308411 814.097961 279.308411 C 814.088379 279.364807 814.051147 279.364807 814.051147 279.364807 C 813.976807 279.345581 814.004395 279.318024 814.004395 279.318024 C 814.004395 279.318024 813.630005 276.754791 816.135559 276.490784 C 816.135559 276.490784 821.01355 275.434784 826.732788 282.560364 C 826.732788 282.560364 834.263977 292.173584 834.246033 304.612793 C 834.246033 304.612793 835.198853 327.966003 810.863953 334.016388 C 810.863953 334.016388 813.499207 337.80481 818.152832 351.488403 C 818.152832 351.488403 823.423157 369.074402 828.454834 378.58197 C 828.454834 378.58197 835.143616 392.144379 850.058411 386.602814 C 850.058411 386.602814 858.939636 382.701599 858.91803 376.255188 C 858.91803 376.255188 859.53479 370.373993 854.208008 369.9216 C 854.208008 369.9216 848.992798 369.525574 849.049194 373.993225 C 849.049194 373.993225 848.908813 378.828003 854.600403 377.725189 C 854.600403 377.725189 856.591187 377.301605 856.226379 375.350403 C 856.226379 375.350403 855.908447 373.597198 853.507202 374.360413 C 853.507202 374.360413 853.432739 374.369995 853.423157 374.331604 C 853.423157 374.331604 853.39563 374.289581 853.479553 374.265594 C 853.479553 374.265594 854.408447 373.850403 855.390015 374.193604 C 855.390015 374.193604 856.269592 374.486389 856.339233 375.858002 C 856.339233 375.858002 856.39563 376.960815 855.217224 377.582397 C 855.217224 377.582397 853.786804 378.091187 852.666016 377.978394 C 852.666016 377.978394 851.157593 381.022827 847.744751 382.05481 C 842.994019 383.49118 839.080811 382.107605 836.685547 380.197205 C 834.080444 378.118805 832.39563 374.486389 831.891602 373.595978 C 831.387573 372.705627 827.01355 362.908813 823.724426 352.372803 C 823.724426 352.372803 820.845642 343.287598 818.547607 338.537994 Z"/>
                <path id="path47" fill="#f5ce00" stroke="#000000" stroke-width="0.9972" d="M 863.377197 380.949615 C 863.377197 380.949615 860.349609 380.539185 860.349609 383.239197 C 860.349609 383.239197 860.534424 387.183624 865.340393 386.320801 C 865.340393 386.320801 870.078003 385.283997 868.39679 379.987213 C 868.39679 379.987213 867.27478 376.255188 862.789246 376.792786 C 862.789246 376.792786 858.44397 376.990784 856.537231 382.928406 C 856.537231 382.928406 855.079163 387.934784 857.574036 392.229614 C 860.359192 397.024811 867.40564 400.174805 870.806396 401.569183 C 870.806396 401.569183 884.432373 406.922394 888.496826 409.984802 C 888.496826 409.984802 894.729553 414.612 891.973145 418.918793 C 891.973145 418.918793 890.907593 420.559204 889.309204 420.559204 C 889.309204 420.559204 887.48645 420.644379 887.177979 418.778381 C 887.177979 418.778381 887.168396 418.74118 887.197205 418.693207 C 887.197205 418.693207 887.224792 418.693207 887.234375 418.740021 C 887.234375 418.740021 887.365234 419.880005 888.356384 420.30481 C 888.356384 420.30481 889.683594 420.974426 891.075562 419.79599 C 891.075562 419.79599 892.551636 418.382416 891.317993 416.186401 C 891.317993 416.186401 889.70166 413.481598 885.934814 415.083618 C 885.934814 415.083618 882.61676 416.723999 883.981201 420.248413 C 883.981201 420.248413 885.195618 423.492004 889.196411 423.483612 C 889.196411 423.483612 892.208435 423.384003 894.134399 421.36438 C 897.140381 418.213196 897.303589 412.075195 894.653992 408.901215 C 894.653992 408.901215 892.149597 405.526794 887.121582 403.472382 C 884.209229 402.281982 878.710754 399.891602 872.991577 397.648804 C 868.971619 396.071991 865.290039 394.184387 862.898376 391.353577 C 862.898376 391.353577 860.767212 388.97879 860.150391 384.907227 C 860.150391 384.907227 859.561218 381.85321 861.421204 381.184784 C 861.421204 381.184784 862.365601 380.7612 863.402405 380.901611 C 863.402405 380.901611 863.430054 380.902802 863.437195 380.920776 C 863.439636 380.920776 863.481567 380.96759 863.377197 380.949615 Z"/>
                <g id="g15">
                    <path id="path48" fill="none" stroke="#000000" stroke-width="0.9972" d="M 863.124023 380.930389 C 863.124023 380.930389 859.778381 380.326782 857.685547 384.30481 C 857.685547 384.30481 856.452026 386.868011 856.252808 388.351196 M 855.163208 374.130005 C 855.163208 374.130005 858.51355 374.710815 856.787964 379.450806 C 855.161987 383.918396 852.141602 385.383606 851.245178 386.005188 M 894.248352 242.850006 C 894.248352 242.850006 902.348389 237.777618 910.621216 243.394775"/>
                </g>
            </g>
            <g id="g16">
                <path id="path49" fill="none" stroke="#000000" stroke-width="0.7476" d="M 848.157593 292.400391 C 848.157593 292.400391 849.279541 287.876404 844.12085 279.959991 C 844.12085 279.959991 840.755981 272.722778 838.962036 268.085999 M 850.624817 263.109589 C 850.624817 263.109589 853.545654 270.224426 854.549988 273.41037 C 854.549988 273.41037 858.172791 282.334778 858.940796 284.144379"/>
            </g>
        </g>
        <g id="g17">
            <g id="g18">
                <path id="path50" fill="none" stroke="#000000" stroke-width="0.7476" d="M 852.082764 297.37561 C 852.082764 297.37561 855.128418 300.655212 854.782776 306.196808 M 841.989624 293.870392 C 841.989624 293.870392 845.35437 295.491608 845.132385 304.425598 C 845.132385 304.425598 844.794006 310.947571 849.840027 314.227173 M 841.53363 316.526398 C 841.53363 316.526398 852.063599 315.376801 852.643188 321.860413 C 852.643188 321.860413 852.867615 328.079987 856.455627 328.759216 C 856.455627 328.759216 861.830444 329.268005 862.895996 334.244385 M 844.849243 323.72641 C 844.849243 323.72641 846.699585 326.497192 848.493591 327.684021 M 858.362427 316.884003 C 858.362427 316.884003 861.037231 320.936401 861.541199 323.311188 M 869.950806 268.084778 C 869.950806 268.084778 872.41803 271.440002 874.810791 273.022766 M 879.81958 287.952026 C 879.81958 287.952026 885.052795 290.515198 884.156372 303.709198 C 884.156372 303.709198 883.483215 311.446808 885.651611 315.669617"/>
            </g>
            <path id="path51" fill="#784421" stroke="#000000" stroke-width="0.7476" d="M 855.166748 278.998779 L 855.502808 280.243225 C 855.502808 280.243225 864.885559 280.639191 869.950806 274.249207 L 869.408447 273.024017 C 869.408447 273.024017 861.221985 272.608826 855.166748 278.998779 Z"/>
            <path id="path52" fill="none" stroke="#000000" stroke-width="0.7476" d="M 888.968384 329.336395 C 888.968384 329.336395 921.418823 319.662018 933.925171 314.022003"/>
        </g>
        <path id="path53" fill="#784421" stroke="#000000" stroke-width="0.456" d="M 885.109192 268.424408 L 901.15918 262.317627 L 901.538391 263.391571 L 885.484802 269.4888 Z"/>
    </g>
    <g id="g19">
        <g id="g20">
            <path id="path54" fill="none" stroke="#000000" stroke-width="0.7476" d="M 886.846802 268.971619 L 897.500366 321.200378 M 888.696045 268.269592 L 900.897583 320.258392 M 890.771973 267.481201 L 904.117249 319.0896 M 896.003967 265.493988 L 914.197205 304.233612 M 898.411255 264.57959 L 917.811646 303.092407 M 900.193237 263.902802 L 921.178772 302.029205 M 896.780396 321.61438 L 905.014832 318.901215 M 890.546387 316.447205 C 890.546387 316.447205 914.683228 309.397186 932.950806 302.029205 M 890.222412 319.0896 C 890.222412 319.0896 920.812805 310.995605 932.949585 305.090393 M 899.55719 343.969177 L 901.15918 348.869995 L 905.537964 347.468414 L 904.042847 342.612 M 911.912415 340.448395 L 913.514404 345.348022 L 917.894409 343.947571 L 916.397949 339.091187 M 891.150024 311.510406 L 890.771973 304.880402 L 930.881958 292.701599 L 933.050415 298.280396 M 907.781982 299.715607 L 909.967224 305.569214 M 921.803955 295.458008 L 924.358826 301.024811 M 925.12915 294.448792 L 927.518433 299.715607 M 928.304382 293.484009 L 930.815979 298.985992 M 930.881958 292.701599 L 935.293213 290.213989 L 937.162781 295.113586 M 933.050415 291.47879 L 935.296814 296.551208"/>
        </g>
        <g id="g21">
            <path id="path55" fill="none" stroke="#012169" stroke-width="0.9972" d="M 833.578796 367.831207 C 833.578796 367.831207 825.728394 359.881195 833.578796 352.094391 C 833.578796 352.094391 825.056396 347.926788 826.401611 341.21637 M 847.597168 374.130005 C 847.597168 374.130005 839.467224 375.23761 841.877991 359.406006 C 841.877991 359.406006 838.513184 365.681976 837.354004 368.907593 C 836.48645 371.321991 837.059998 375.219604 840.501648 377.326782 C 841.876831 378.169189 849.166748 380.067596 851.52124 375.2388 M 838.513184 349.906799 C 838.513184 349.906799 835.204834 352.960815 837.560364 358.558807 M 841.933228 350.641174 C 841.933228 350.641174 842.325562 356.070007 845.017212 359.122803 M 844.258789 348.493225 C 844.258789 348.493225 844.233643 354.883179 848.830811 358.84079 M 846.5448 346.287598 C 846.5448 346.287598 846.588013 353.468414 851.914795 357.879608 M 872.997559 356.804413 C 872.997559 356.804413 875.689209 350.923218 881.352051 351.20639 C 881.352051 351.20639 878.604004 352.450806 878.6604 355.202423 C 878.6604 355.202423 878.324402 359.744385 883.202393 360.196808 C 883.202393 360.196808 887.127625 360.705627 889.0896 358.556396"/>
            <path id="path56" fill="none" stroke="#012169" stroke-width="0.9972" d="M 886.399231 383.664001 C 886.399231 383.664001 872.437195 377.104797 873.895142 367.662018 C 873.895142 367.662018 874.455627 361.894806 880.09436 359.180389 M 877.147217 365.173218 C 877.147217 365.173218 875.913574 369.244812 878.661621 372.071991 M 880.286438 362.402405 C 880.286438 362.402405 878.604004 366.869995 881.408447 370.205994 M 883.648804 360.234009 C 883.648804 360.234009 881.632751 363.928772 884.043579 367.264771 M 870.922791 384.623993 C 870.922791 384.623993 878.548828 391.240784 884.492432 391.29718 M 868.512024 386.716797 C 868.512024 386.716797 875.638794 392.484009 880.093201 393.332397 M 865.820435 388.350006 C 865.820435 388.350006 874.629578 396.10321 880.093201 396.668396 M 901.650024 403.794006 C 901.650024 403.794006 892.990784 408.459595 899.703613 413.392792 M 896.155212 398.648407 C 896.155212 398.648407 905.967651 393.502808 910.22876 391.580383 M 899.687988 401.306396 C 899.687988 401.306396 913.87439 392.654419 918.079163 390.789581 M 906.976807 401.871613 C 906.976807 401.871613 919.088379 393.786011 925.592407 390.279602 M 914.995178 401.588409 C 914.995178 401.588409 923.349609 395.029205 931.424438 390.279602 M 934.283997 382.081207 C 934.283997 382.081207 930.190796 376.087219 916.734009 382.081207 C 916.734009 382.081207 921.668396 377.602814 931.424438 374.131195 M 945.009583 348.379211 C 945.009583 348.379211 946.112427 353.241608 944.935181 356.1828"/>
            <path id="path57" fill="none" stroke="#012169" stroke-width="0.9972" d="M 923.18158 371.959198 C 923.18158 371.959198 925.984802 367.831207 933.106812 365.79599 C 933.106812 365.79599 935.026855 370.60199 940.564819 369.528015 C 940.564819 369.528015 948.919189 367.887604 946.39679 358.727997 C 946.39679 358.727997 944.65918 351.88562 935.11676 351.207611 M 963.497986 339.735596 C 963.497986 339.735596 973.198853 341.481598 973.030823 349.39801 C 973.030823 349.39801 973.815613 361.272003 961.311646 363.590393 M 971.653198 344.611206 C 971.653198 344.611206 974.31842 338.823608 980.262024 336.447571 M 973.039246 333.056396 C 973.039246 333.056396 975.688782 337.304413 977.499634 337.922394 M 971.653198 336.448792 C 971.653198 336.448792 974.150391 339.500397 974.991577 340.010406 M 970.843201 339.388794 C 970.843201 339.388794 972.158447 341.331604 973.323608 341.943604 M 920.938782 293.484009 C 920.938782 293.484009 922.826355 290.42041 927.518433 291.721222 M 946.676392 316.447205 C 946.676392 316.447205 949.648804 304.048798 960.021606 308.627991 M 955.815613 307.612793 C 955.815613 307.612793 956.881226 301.897186 954.301147 298.985992 M 948.75 307.214386 C 948.75 307.214386 950.071228 309.5784 948.940796 311.510406"/>
        </g>
    </g>
    <path id="path58" fill="#64b4d1" stroke="#012169" stroke-width="0.7476" d="M 969.833984 433.87558 C 969.833984 433.87558 981.496826 428.560791 977.908813 419.512787 C 977.908813 419.512787 976.799988 416.458801 974.213989 416.685608 C 974.213989 416.685608 969.71637 416.911194 970.616394 422.905182 C 970.616394 422.906403 971.963989 428.787598 969.833984 433.87558 Z"/>
    <path id="path59" fill="#ffffff" stroke="none" d="M 974.058044 428.52359 C 974.058044 428.52359 976.621216 426.0672 976.26355 421.663177 C 976.26355 421.663177 976.113586 420.721222 976.583984 420.590393 C 976.583984 420.590393 977.085571 420.380371 977.159973 421.473602 C 977.159973 421.473602 977.870422 426.073212 974.767212 428.710815 C 974.767212 428.710815 974.55603 428.974792 974.212769 428.89917 C 974.213989 428.900391 973.845642 428.818787 974.058044 428.52359 Z"/>
    <path id="path60" fill="#64b4d1" stroke="#012169" stroke-width="0.7476" d="M 986.431213 425.733612 C 986.431213 425.733612 994.617615 420.587982 990.188354 411.936005 C 990.188354 411.936005 988.898376 409.448395 986.431213 409.957214 C 986.431213 409.957214 981.328796 411.540009 985.309204 418.609192 C 985.309204 418.609192 987.327637 423.189575 986.431213 425.733612 Z"/>
    <path id="path61" fill="#ffffff" stroke="none" d="M 988.477234 414 C 988.477234 414 988.028381 413.406006 988.336792 413.151611 C 988.336792 413.151611 988.53363 412.868408 989.065186 413.547577 C 989.065186 413.547577 991.541992 416.315979 989.570435 420.573608 C 989.570435 420.573608 989.346008 421.180817 988.953613 420.982788 C 988.953613 420.982788 988.617615 420.813599 988.925964 420.30481 C 988.925964 420.30481 990.692444 416.799622 988.477234 414 Z"/>
    <path id="path62" fill="#64b4d1" stroke="#012169" stroke-width="0.7476" d="M 961.927246 431.614777 C 961.927246 431.614777 952.787964 429.296417 954.469177 419.853577 C 954.469177 419.853577 955.36676 415.725586 959.235596 416.290802 C 959.235596 416.290802 963.897583 417.481201 960.861633 423.483612 C 960.861633 423.483612 959.067627 427.768799 961.927246 431.614777 Z"/>
    <path id="path63" fill="#ffffff" stroke="none" d="M 958.394409 420.333618 C 958.394409 420.333618 958.058411 419.881195 958.450806 419.683197 C 958.450806 419.683197 958.843201 419.514008 959.124023 420.064789 C 959.124023 420.064789 960.076843 421.576782 959.270447 423.64801 C 959.270447 423.64801 958.507202 425.083191 958.877991 426.58197 C 958.877991 426.58197 958.928406 427.005615 958.591187 427.063171 C 958.591187 427.063171 958.268433 426.950378 958.205994 426.639587 C 958.205994 426.639587 957.75 425.176788 958.53479 423.745209 C 958.53479 423.743988 959.48877 421.521606 958.394409 420.333618 Z"/>
    <path id="path64" fill="#000000" stroke="none" d="M 968.48761 413.742004 C 968.48761 413.742004 973.646423 410.843994 977.907593 414.236389 C 977.907593 414.236389 977.471985 412.351196 974.212769 411.522003 C 974.212769 411.522003 972.450012 406.545593 967.515625 406.998016 C 967.515625 406.998016 969.533997 409.409973 972.225586 411.446411 C 972.225586 411.446411 969.385193 411.740417 968.48761 413.742004 Z M 972.301147 400.112396 C 972.301147 400.112396 975.805237 402.700806 977.230835 404.434784 C 977.230835 404.434784 978.656372 402.663605 980.52478 401.588409 C 980.52478 401.588409 978.373169 401.305176 977.230835 402.27359 C 977.230835 402.27359 975.44043 400.539581 972.301147 400.112396 Z"/>
    <g id="g22">
        <path id="path65" fill="none" stroke="#000000" stroke-width="0.9972" d="M 951.966003 411.220795 C 951.966003 411.220795 951.591553 409.939209 952.489258 408.58197 C 952.489258 408.58197 953.086792 407.601593 952.863586 406.320007 M 989.570435 330.699615 C 989.570435 330.699615 995.028015 330.322815 995.925598 326.100006 M 1005.495605 323.311188 C 1005.495605 323.311188 1003.593628 323.235596 1001.874023 324.969604 C 1001.874023 324.969604 1000.561218 326.930389 998.691589 326.703583"/>
    </g>
    <path id="path66" fill="#000000" stroke="none" d="M 981.496826 314.641174 C 981.496826 314.641174 984.337219 314.641174 985.90802 313.283997 C 985.90802 313.283997 987.553223 312.153595 988.525208 313.962006 C 988.525208 313.962006 990.020447 316.525208 987.254395 317.656799 C 987.254395 317.656799 983.815186 319.390808 989.272766 322.858826 C 989.272766 322.858826 982.768799 320.52121 985.384766 317.355621 C 985.384766 317.355621 988.22522 315.320404 987.178772 314.565613 C 987.178772 314.565613 986.880005 313.962006 985.758057 314.716797 C 984.636047 315.470398 982.393188 315.169189 981.496826 314.641174 Z"/>
    <path id="path67" fill="#64b4d1" stroke="#012169" stroke-width="0.7476" d="M 985.360779 245.984406 C 985.360779 245.984406 986.643616 244.238373 986.119202 238.999207 C 985.594788 233.759979 990.143982 233.157593 991.893616 234.663574 C 991.893616 234.663574 993.702026 236.229614 992.038757 239.552429 C 991.078796 241.470001 989.546387 243.95282 985.360779 245.984406 Z"/>
    <path id="path68" fill="#ffffff" stroke="none" d="M 987.070801 242.072388 C 987.070801 242.072388 988.776001 240.2388 987.962402 236.258423 C 987.962402 236.258423 987.956421 235.865997 988.182007 235.83963 C 988.182007 235.83963 988.596008 235.735168 988.665588 236.127625 C 988.665588 236.127625 989.581177 240.370819 987.656372 242.675964 C 987.656372 242.675964 987.30481 243.016815 987.06958 242.675964 C 987.070801 242.674805 986.811646 242.431213 987.070801 242.072388 Z"/>
    <path id="path69" fill="#64b4d1" stroke="#012169" stroke-width="0.7476" d="M 983.907593 244.078796 C 983.907593 244.078796 983.773193 241.966797 980.122803 238.377625 C 976.472412 234.788391 979.473633 231.481201 981.709229 231.50882 C 981.709229 231.50882 984.025208 231.544769 984.859192 235.074036 C 985.340393 237.112793 985.748352 239.93158 983.907593 244.078796 Z"/>
    <path id="path70" fill="#ffffff" stroke="none" d="M 983.340027 239.48642 C 983.340027 239.48642 983.404846 236.899231 980.099976 234.199219 C 980.099976 234.199219 979.831177 233.884796 979.984802 233.718018 C 979.984802 233.718018 980.229553 233.366394 980.548828 233.638794 C 980.548828 233.638794 984.108032 236.48642 984.194397 239.596802 C 984.194397 239.596802 984.154846 240.099609 983.746826 239.975983 C 983.745605 239.973602 983.38324 239.944763 983.340027 239.48642 Z"/>
    <path id="path71" fill="#64b4d1" stroke="#012169" stroke-width="0.7476" d="M 978.950378 242.49118 C 978.950378 242.49118 977.996399 240.770386 973.487976 239.170837 C 968.979553 237.571228 970.197571 233.632813 972.094788 232.790405 C 972.094788 232.790405 974.063965 231.924011 976.171204 234.562805 C 977.389221 236.089203 978.85437 238.29718 978.950378 242.49118 Z"/>
    <path id="path72" fill="#ffffff" stroke="none" d="M 976.97522 239.328003 C 976.97522 239.328003 975.950378 236.955627 971.822388 235.916382 C 971.822388 235.916382 971.446777 235.746033 971.516357 235.528778 C 971.516357 235.528778 971.59082 235.105225 971.994019 235.216797 C 971.994019 235.216797 976.413574 236.279999 977.7948 239.062805 C 977.7948 239.062805 977.969971 239.535614 977.547607 239.596802 C 977.547607 239.597961 977.206787 239.72641 976.97522 239.328003 Z"/>
    <path id="path73" fill="#64b4d1" stroke="#012169" stroke-width="0.7476" d="M 981.775208 244.214386 C 981.775208 244.214386 979.672791 244.80481 974.845154 242.475586 C 970.017639 240.146423 967.903198 244.200012 968.749207 246.368408 C 968.749207 246.368408 969.633606 248.612396 973.370422 248.218811 C 975.528015 247.990784 978.417603 247.425598 981.775208 244.214386 Z"/>
    <path id="path74" fill="#ffffff" stroke="none" d="M 970.549194 245.752808 C 970.549194 245.752808 972.737976 247.102814 976.709961 245.566803 C 976.709961 245.566803 977.114441 245.4888 977.18042 245.707184 C 977.18042 245.707184 977.360352 246.097198 976.966797 246.2388 C 976.966797 246.2388 972.741577 247.923584 970.027222 246.444 C 970.027222 246.444 969.614441 246.158417 969.925171 245.86319 C 969.926392 245.86319 970.134033 245.560791 970.549194 245.752808 Z"/>
    <path id="path75" fill="none" stroke="#000000" stroke-width="0.9972" d="M 974.712036 228.95639 C 974.712036 228.95639 977.122803 230.125183 976.562378 232.952423"/>
    <path id="path76" fill="none" stroke="#000000" stroke-width="0.9972" d="M 985.365601 229.352417 C 985.365601 229.352417 986.308838 232.337982 985.267212 233.946014"/>
    <path id="path77" fill="#64b4d1" stroke="#012169" stroke-width="0.7476" d="M 819.03363 245.984406 C 819.03363 245.984406 817.750793 244.238373 818.275208 238.999207 C 818.799622 233.759979 814.250366 233.157593 812.500793 234.663574 C 812.500793 234.663574 810.692444 236.229614 812.355591 239.552429 C 813.315613 241.470001 814.846802 243.95282 819.03363 245.984406 Z"/>
    <path id="path78" fill="#ffffff" stroke="none" d="M 817.322388 242.072388 C 817.322388 242.072388 815.617249 240.2388 816.430786 236.258423 C 816.430786 236.258423 816.436829 235.865997 816.211243 235.83963 C 816.211243 235.83963 815.79718 235.735168 815.7276 236.127625 C 815.7276 236.127625 814.812012 240.370819 816.736816 242.675964 C 816.736816 242.675964 817.088379 243.016815 817.323608 242.675964 C 817.322388 242.674805 817.582764 242.431213 817.322388 242.072388 Z"/>
    <path id="path79" fill="#64b4d1" stroke="#012169" stroke-width="0.7476" d="M 820.485596 244.078796 C 820.485596 244.078796 820.619995 241.966797 824.270447 238.377625 C 827.920837 234.788391 824.919556 231.481201 822.684021 231.50882 C 822.684021 231.50882 820.368042 231.544769 819.533997 235.074036 C 819.052795 237.112793 818.644775 239.93158 820.485596 244.078796 Z"/>
    <path id="path80" fill="#ffffff" stroke="none" d="M 821.054382 239.48642 C 821.054382 239.48642 820.989624 236.899231 824.294373 234.199219 C 824.294373 234.199219 824.563171 233.884796 824.409607 233.718018 C 824.409607 233.718018 824.164795 233.366394 823.845642 233.638794 C 823.845642 233.638794 820.286438 236.48642 820.200012 239.596802 C 820.200012 239.596802 820.239624 240.099609 820.647583 239.975983 C 820.647583 239.973602 821.01001 239.944763 821.054382 239.48642 Z"/>
    <path id="path81" fill="#64b4d1" stroke="#012169" stroke-width="0.7476" d="M 825.44281 242.49118 C 825.44281 242.49118 826.39679 240.770386 830.905212 239.170837 C 835.413574 237.571228 834.195618 233.632813 832.29834 232.790405 C 832.29834 232.790405 830.329163 231.924011 828.221985 234.562805 C 827.003967 236.089203 825.538757 238.29718 825.44281 242.49118 Z"/>
    <path id="path82" fill="#ffffff" stroke="none" d="M 827.41803 239.328003 C 827.41803 239.328003 828.44281 236.955627 832.570801 235.916382 C 832.570801 235.916382 832.946411 235.746033 832.876831 235.528778 C 832.876831 235.528778 832.802429 235.105225 832.399231 235.216797 C 832.399231 235.216797 827.979553 236.279999 826.598389 239.062805 C 826.598389 239.062805 826.423157 239.535614 826.845642 239.596802 C 826.845642 239.597961 827.186401 239.72641 827.41803 239.328003 Z"/>
    <path id="path83" fill="#64b4d1" stroke="#012169" stroke-width="0.7476" d="M 822.618042 244.214386 C 822.618042 244.214386 824.720459 244.80481 829.547974 242.475586 C 834.37561 240.146423 836.48999 244.200012 835.643982 246.368408 C 835.643982 246.368408 834.759583 248.612396 831.022766 248.218811 C 828.865234 247.990784 825.975586 247.425598 822.618042 244.214386 Z"/>
    <path id="path84" fill="#ffffff" stroke="none" d="M 833.843994 245.752808 C 833.843994 245.752808 831.655212 247.102814 827.683228 245.566803 C 827.683228 245.566803 827.278809 245.4888 827.212769 245.707184 C 827.212769 245.707184 827.032776 246.097198 827.426392 246.2388 C 827.426392 246.2388 831.651611 247.923584 834.365967 246.444 C 834.365967 246.444 834.778809 246.158417 834.468018 245.86319 C 834.466797 245.86319 834.260376 245.560791 833.843994 245.752808 Z"/>
    <path id="path85" fill="none" stroke="#000000" stroke-width="0.9972" d="M 829.681213 228.95639 C 829.681213 228.95639 827.270447 230.125183 827.830811 232.952423"/>
    <path id="path86" fill="none" stroke="#000000" stroke-width="0.9972" d="M 819.027588 229.352417 C 819.027588 229.352417 818.084412 232.337982 819.125977 233.946014"/>
    <path id="path87" fill="#000000" stroke="none" d="M 923.686829 201.927612 C 923.686829 201.927612 925.214417 206.288391 924.555603 210.240021 C 923.96637 213.774017 924.770447 214.687195 926.04718 215.38681 C 927.152405 215.991577 929.713196 214.933197 930.021606 212.162415 C 930.021606 212.162415 933.049194 218.071228 927.161987 222.057617 C 927.161987 222.057617 922.928406 224.65921 919.340393 221.18158 C 918.075562 219.95639 917.517639 216.573608 918.134399 213.434387 C 918.134399 213.434387 919.060791 209.179169 917.517639 204.811188 C 917.517639 204.811188 919.928406 207.384003 919.311646 212.514008 C 919.311646 212.514008 918.078003 221.718018 924.890381 221.265594 C 924.890381 221.265594 929.600403 221.209198 929.740784 215.498413 C 929.740784 215.498413 927.974426 217.53363 925.787964 216.855621 C 924.23877 216.37558 922.815613 214.876801 923.068787 212.514008 C 923.333984 210.036011 924.022766 205.716003 923.686829 201.927612 Z M 915.967224 217.044006 C 915.967224 217.044006 915.592834 224.31958 908.940002 226.09079 C 908.940002 226.09079 909.874817 224.772003 908.379578 221.152802 C 908.379578 221.152802 906.921631 219.041992 907.034424 215.76239 C 907.034424 215.76239 904.916382 217.419586 907.333252 221.79361 C 908.791199 224.432373 907.520447 227.599213 907.071594 227.712006 C 906.621582 227.824799 918.061218 226.203583 915.967224 217.044006 Z M 907.33197 209.805603 C 907.33197 209.805603 905.72522 207.996033 905.612427 203.811615 C 905.500793 199.627228 904.714844 198.609589 904.154358 198.118805 C 904.154358 198.118805 904.976379 201.737976 904.752014 203.961609 C 904.527588 206.185181 904.902039 207.468018 905.200806 208.522766 C 905.200806 208.522766 901.574402 209.087982 899.294373 203.810364 C 897.115234 198.765594 894.92041 199.173584 893.836792 199.210815 C 893.836792 199.210815 895.100403 199.351196 897.649231 203.960388 C 900.195618 208.565979 900.902405 209.504395 907.33197 209.805603 Z M 890.361633 198.873596 C 890.361633 198.873596 892.455627 203.887207 892.530029 206.52597 C 892.530029 206.52597 887.669983 204.904785 886.362 200.683197 C 886.362 200.683197 881.166016 202.454407 883.072754 208.448395 C 883.072754 208.448395 878.587219 206.865601 876.568787 203.208008 C 876.568787 203.208008 879.073181 205.093201 881.390381 205.922394 C 881.390381 205.922394 881.128784 201.097198 887.184021 199.287598 C 887.184021 199.287598 888.085205 203.609985 891.109192 204.640808 C 891.109192 204.641998 890.884766 201.927612 890.361633 198.873596 Z M 898.360779 190.279175 C 898.360779 190.279175 900.043213 192.729614 903.482361 192.842407 C 905.126343 192.896423 906.895142 192.525574 908.604004 190.279175 C 908.604004 190.279175 908.379578 194.539185 903.482361 194.576416 C 903.482361 194.576416 898.360779 194.764832 898.360779 190.279175 Z M 877.174805 219.399597 C 877.174805 219.399597 879.725952 221.718018 880.258789 222.481201 C 880.258789 222.481201 882.052795 224.234406 883.593628 221.967621 C 883.593628 221.967621 885.558044 218.342407 887.968811 218.438385 C 887.968811 218.438385 886.258789 219.626404 884.336426 223.053589 C 884.336426 223.053589 883.819214 224.31842 882.388794 224.459991 C 881.719177 224.52597 880.87439 224.743225 879.596436 223.407593 C 879.596436 223.407593 878.492432 222.057617 877.174805 219.399597 Z M 903.482361 173.202026 C 898.360779 173.199615 902.678406 177.159607 902.678406 177.159607 C 902.790039 183.435608 897.753601 185.367615 894.324036 183.549622 C 890.894409 181.730408 893.576355 177.159607 893.576355 177.159607 C 893.576355 177.159607 889.707581 179.703583 892.174805 183.379181 C 894.641968 187.05481 901.108826 185.414398 903.482361 182.022003 C 905.856018 185.414398 912.322754 187.05481 914.790039 183.379181 C 917.257202 179.703583 913.388367 177.159607 913.388367 177.159607 C 913.388367 177.159607 916.070435 181.730408 912.640808 183.549622 C 909.211243 185.367615 904.173645 183.436829 904.286438 177.159607 C 904.285156 177.160797 908.602783 173.199615 903.482361 173.202026 Z M 906.584412 166.417206 C 906.584412 166.417206 908.378418 169.471222 907.986023 174.106781 C 907.986023 174.106781 909.612 169.470001 906.584412 166.417206 Z M 890.884766 173.597961 C 890.884766 173.597961 890.492432 170.262024 887.240417 169.97879 C 887.240417 169.97879 889.987183 171.958801 890.884766 173.597961 Z M 916.117249 173.597961 C 916.117249 173.597961 916.509583 170.262024 919.761597 169.97879 C 919.761597 169.97879 917.01355 171.958801 916.117249 173.597961 Z M 885.725952 178.687195 C 885.725952 178.687195 888.30481 179.479187 889.87561 177.556793 C 889.87561 177.556793 886.903198 178.347595 885.725952 178.687195 Z M 877.371582 158.217621 C 877.371582 158.217621 880.371582 157.877991 883.371582 162.345581 C 883.371582 162.345581 880.399231 163.928406 879.670837 164.889618 C 879.670837 164.889618 879.670837 163.419586 881.128784 162.118805 C 881.127625 162.119995 880.567261 159.858002 877.371582 158.217621 Z M 927.612 158.217621 C 927.612 158.217621 924.612 157.877991 921.612 162.345581 C 921.612 162.345581 924.584412 163.928406 925.312805 164.889618 C 925.312805 164.889618 925.312805 163.419586 923.854858 162.118805 C 923.854858 162.119995 924.415222 159.858002 927.612 158.217621 Z M 904.454346 161.551208 C 904.454346 161.551208 907.145996 162.289185 910.509583 160.423218 C 910.509583 160.423218 914.65918 158.217621 917.294373 160.423218 C 917.294373 160.423218 914.995178 159.399597 910.565979 161.551208 C 910.565979 161.551208 906.135559 163.97998 904.454346 161.551208 Z"/>
    <path id="path88" fill="#ffffff" stroke="none" d="M 907.257568 164.268005 C 907.257568 164.268005 909.556763 160.235992 916.565979 161.036438 C 916.565979 161.036438 914.65918 166.642822 907.257568 164.268005 Z"/>
    <path id="path89" fill="#784421" stroke="none" d="M 913.478394 163.017639 C 913.478394 163.987854 912.85791 164.774414 912.092407 164.774414 C 911.326904 164.774414 910.706421 163.987854 910.706421 163.017639 C 910.706421 162.047363 911.326904 161.260803 912.092407 161.260803 C 912.85791 161.260803 913.478394 162.047363 913.478394 163.017639 Z"/>
    <path id="path90" fill="#000000" stroke="none" d="M 912.915588 163.017639 C 912.915588 163.612732 912.547058 164.095215 912.092407 164.095215 C 911.637756 164.095215 911.269165 163.612732 911.269165 163.017639 C 911.269165 162.422455 911.637756 161.940002 912.092407 161.940002 C 912.547058 161.940002 912.915588 162.422455 912.915588 163.017639 Z"/>
    <path id="path91" fill="#000000" stroke="none" d="M 892.230042 155.673584 C 892.230042 155.673584 896.65918 155.956787 899.350769 157.652405 C 899.350769 157.652405 902.210388 159.349213 905.462402 156.916809 C 905.462402 156.916809 908.99884 154.881592 911.268005 152.054413 C 911.268005 152.054413 905.854858 155.786438 903.836426 156.351593 C 903.836426 156.351593 901.986023 154.937988 901.257568 152.902802 C 901.257568 152.902802 901.538391 151.376404 904.453186 148.549225 C 904.453186 148.549225 900.528015 149.737213 899.743225 153.073212 C 899.743225 153.073212 900.471619 155.108429 901.986023 156.692383 C 901.986023 156.692383 901.257568 157.031982 899.350769 155.843994 C 899.350769 155.842834 895.202393 154.429169 892.230042 155.673584 Z M 903.482361 182.277618 C 899.650757 185.585999 903.482361 185.246399 903.482361 185.246399 C 903.482361 185.246399 907.313965 185.585999 903.482361 182.277618 Z M 901.264832 161.551208 C 901.264832 161.551208 898.573181 162.289185 895.208435 160.423218 C 895.208435 160.423218 891.058838 158.217621 888.423645 160.423218 C 888.423645 160.423218 890.722778 159.399597 895.152039 161.551208 C 895.153198 161.551208 899.582397 163.97998 901.264832 161.551208 Z"/>
    <path id="path92" fill="#ffffff" stroke="none" d="M 898.461609 164.268005 C 898.461609 164.268005 896.162415 160.235992 889.153198 161.036438 C 889.153198 161.036438 891.059998 166.642822 898.461609 164.268005 Z"/>
    <path id="path93" fill="#784421" stroke="none" d="M 895.012817 163.017639 C 895.012817 163.987854 894.392273 164.774414 893.626831 164.774414 C 892.861328 164.774414 892.240784 163.987854 892.240784 163.017639 C 892.240784 162.047363 892.861328 161.260803 893.626831 161.260803 C 894.392273 161.260803 895.012817 162.047363 895.012817 163.017639 Z"/>
    <path id="path94" fill="#000000" stroke="none" d="M 894.450012 163.017639 C 894.450012 163.612732 894.081421 164.095215 893.626831 164.095215 C 893.172119 164.095215 892.803589 163.612732 892.803589 163.017639 C 892.803589 162.422455 893.172119 161.940002 893.626831 161.940002 C 894.081421 161.940002 894.450012 162.422455 894.450012 163.017639 Z"/>
    <path id="path95" fill="none" stroke="#000000" stroke-width="2.4" d="M 1038.867676 127.996796 L 1038.867676 382.081207 C 1038.867676 449.949615 903.193237 472.000824 903.193237 472.000824 C 903.193237 472.000824 767.518799 449.949615 767.518799 382.081207 L 767.518799 127.996796 Z"/>
</svg>
