<?xml version="1.0" encoding="UTF-8"?>
<!-- Generated by Pixelmator Pro 3.5.7 -->
<svg width="1200" height="600" viewBox="0 0 1200 600" xmlns="http://www.w3.org/2000/svg">
    <path id="Path" fill="#ce1720" stroke="none" d="M 0 0 L 1200 0 L 1200 600 L 0 600 Z"/>
    <path id="path1" fill="#ffffff" stroke="none" d="M 6.666667 0 L 140 0 L 140 600 L 6.666667 600 Z"/>
    <g id="b">
        <path id="a" fill="#ce1720" stroke="none" d="M 76.26667 0 L 76.26667 21.733337 L 70.400002 21.733337 L 70.400002 0 Z M 1.333333 38 L 11.866666 38 L 11.866666 29.333313 L 17.199999 29.333313 L 17.199999 18.799988 L 24.666666 18.799988 L 24.666666 9.600037 L 30.800001 9.600037 L 30.800001 0 L 49.333332 0 L 49.333332 9.600037 L 55.333332 9.600037 L 55.333332 18.799988 L 62.799999 18.799988 L 62.799999 29.333313 L 68.133331 29.333313 L 68.133331 38 L 76.26667 38 L 76.26667 51.466675 L 68.133331 51.466675 L 68.133331 60.133362 L 62.799999 60.133362 L 62.799999 70.666687 L 55.333332 70.666687 L 55.333332 79.866638 L 49.333332 79.866638 L 49.333332 89.733307 L 45.066666 89.733307 L 45.066666 98 L 35.066666 98 L 35.066666 89.733307 L 30.800001 89.733307 L 30.800001 79.866638 L 24.666666 79.866638 L 24.666666 70.666687 L 17.199999 70.666687 L 17.199999 60.133362 L 11.866666 60.133362 L 11.866666 51.466675 L 1.333333 51.466675 M 1.333333 4.533325 L 11.866666 4.533325 L 11.866666 16.533325 L 1.333333 16.533325 M 42.666668 20.133362 L 37.200001 20.133362 L 37.200001 28.266663 L 32 28.266663 L 32 38.533325 L 26.933334 38.533325 L 26.933334 51.200012 L 32 51.200012 L 32 61.466675 L 37.200001 61.466675 L 37.200001 69.466675 L 42.666668 69.466675 L 42.666668 61.466675 L 47.866669 61.466675 L 47.866669 51.200012 L 53.066666 51.200012 L 53.066666 38.533325 L 47.866669 38.533325 L 47.866669 28.266663 L 42.666668 28.266663 Z M 43.200001 38.666687 L 43.200001 50.666687 L 36.666668 50.666687 L 36.666668 38.666687 Z M 1.333333 70.133362 L 11.866666 70.133362 L 11.866666 83.06665 L 1.333333 83.06665 M 76.26667 71.333313 L 76.26667 89.600006 L 70.400002 89.600006 L 70.400002 71.333313 Z M 61.866669 91.600006 L 61.866669 100.666656 L 68.26667 100.666656 L 68.26667 110 L 76.26667 110 L 76.26667 122.266693 L 68.26667 122.266693 L 68.26667 131.733307 L 61.866669 131.733307 L 61.866669 140.800018 L 54.399998 140.800018 L 54.399998 131.733307 L 48 131.733307 L 48 122.266693 L 42.666668 122.266693 L 42.666668 110 L 48 110 L 48 100.666656 L 54.399998 100.666656 L 54.399998 91.600006 Z M 1.333333 110 L 11.866666 110 L 11.866666 100.666656 L 18.266666 100.666656 L 18.266666 91.600006 L 25.6 91.600006 L 25.6 100.666656 L 32 100.666656 L 32 110 L 37.333332 110 L 37.333332 122.266693 L 32 122.266693 L 32 131.733307 L 25.6 131.733307 L 25.6 140.800018 L 18.266666 140.800018 L 18.266666 131.733307 L 11.866666 131.733307 L 11.866666 122.266693 L 1.333333 122.266693 M 60.933334 110.266693 L 55.466663 110.266693 L 55.466663 121.866669 L 60.933334 121.866669 Z M 24.800001 110.266693 L 19.333334 110.266693 L 19.333334 121.866669 L 24.800001 121.866669 Z M 26.933334 302.399994 L 26.933334 296.133331 L 22.4 296.133331 L 22.4 286.666656 L 16.4 286.666656 L 16.4 280.933319 L 11.866666 280.933319 L 11.866666 271.733337 L 1.333333 271.733337 L 1.333333 250.399994 L 11.866666 250.399994 L 11.866666 256.533325 L 16.4 256.533325 L 16.4 265.466675 L 22.4 265.466675 L 22.4 276.133331 L 30.933334 276.133331 L 30.933334 266.533325 L 37.200001 266.533325 L 37.200001 259.466675 L 41.733334 259.466675 L 41.733334 251.06665 L 47.733334 251.06665 L 47.733334 242.133331 L 52.133331 242.133331 L 52.133331 233.06665 L 56.399998 233.06665 L 56.399998 223.733307 L 62.133331 223.733307 L 62.133331 211.199982 L 54.533337 211.199982 L 54.533337 199.866669 L 46.266666 199.866669 L 46.266666 193.06665 L 32.399998 193.06665 L 32.399998 202.93335 L 40.399998 202.93335 L 40.399998 211.866669 L 35.066666 211.866669 L 35.066666 222.800018 L 28.800001 222.800018 L 28.800001 232.399994 L 20.933332 232.399994 L 20.933332 222.800018 L 14.400001 222.800018 L 14.400001 211.866669 L 10.400001 211.866669 L 10.400001 202.93335 L 1.333333 202.93335 L 1.333333 186 L 11.866666 186 L 11.866666 175.06665 L 15.866666 175.06665 L 15.866666 166.666656 L 19.6 166.666656 L 19.6 157.06665 L 24.933334 157.06665 L 24.933334 147.600006 L 30.133333 147.600006 L 30.133333 141.333344 L 36.399998 141.333344 L 36.399998 131.866669 L 44 131.866669 L 44 141.333344 L 50.266666 141.333344 L 50.266666 147.600006 L 55.600002 147.600006 L 55.600002 157.06665 L 60.799999 157.06665 L 60.799999 166.666656 L 65.066666 166.666656 L 65.066666 174.93335 L 69.333336 174.93335 L 69.333336 182.133331 L 76.26667 182.133331 L 76.26667 235.06665 L 68.400002 235.06665 L 68.400002 244 L 66.133331 244 L 66.133331 253.333344 L 60.266666 253.333344 L 60.266666 262.399994 L 56.666668 262.399994 L 56.666668 269.066681 L 52.933334 269.066681 L 52.933334 276.133331 L 46.533337 276.133331 L 46.533337 283.066681 L 37.333332 283.066681 L 37.333332 302.399994 M 76.26667 140.666656 L 76.26667 158.93335 L 70.400002 158.93335 L 70.400002 140.666656 Z M 1.333333 144.133331 L 11.866666 144.133331 L 11.866666 157.06665 L 1.333333 157.06665 M 1.333333 221.866669 L 11.866666 221.866669 L 11.866666 234.800018 L 1.333333 234.800018 Z M 76 254.666656 L 76 266.399994 L 70.400002 266.399994 L 70.400002 254.666656 Z M 68.26667 302.399994 L 68.26667 295.066681 L 64.799995 295.066681 L 64.799995 289.333344 L 59.733334 289.333344 L 59.733334 272.133331 L 64.799995 272.133331 L 64.799995 279.066681 L 70.133331 279.066681 L 70.133331 289.199982 L 76 289.199982 L 76 302.266663 M 47.466663 302.266663 L 47.466663 293.733337 L 53.066666 293.733337 L 53.066666 302.266663"/>
        <g id="Group">
            <path id="path2" fill="#ce1720" stroke="none" d="M 70.400002 0 L 70.400002 21.733337 L 76.26667 21.733337 L 76.26667 0 Z M 145.333328 38 L 134.800003 38 L 134.800003 29.333313 L 129.46666 29.333313 L 129.46666 18.799988 L 122 18.799988 L 122 9.600037 L 115.866669 9.600037 L 115.866669 0 L 97.333336 0 L 97.333336 9.600037 L 91.333336 9.600037 L 91.333336 18.799988 L 83.866669 18.799988 L 83.866669 29.333313 L 78.533333 29.333313 L 78.533333 38 L 70.400002 38 L 70.400002 51.466675 L 78.533333 51.466675 L 78.533333 60.133362 L 83.866669 60.133362 L 83.866669 70.666687 L 91.333336 70.666687 L 91.333336 79.866638 L 97.333336 79.866638 L 97.333336 89.733307 L 101.599998 89.733307 L 101.599998 98 L 111.599998 98 L 111.599998 89.733307 L 115.866669 89.733307 L 115.866669 79.866638 L 122 79.866638 L 122 70.666687 L 129.46666 70.666687 L 129.46666 60.133362 L 134.800003 60.133362 L 134.800003 51.466675 L 145.333328 51.466675 M 145.333328 4.533325 L 134.800003 4.533325 L 134.800003 16.533325 L 145.333328 16.533325 M 104 20.133362 L 109.466667 20.133362 L 109.466667 28.266663 L 114.666664 28.266663 L 114.666664 38.533325 L 119.733337 38.533325 L 119.733337 51.200012 L 114.666664 51.200012 L 114.666664 61.466675 L 109.466667 61.466675 L 109.466667 69.466675 L 104 69.466675 L 104 61.466675 L 98.799995 61.466675 L 98.799995 51.200012 L 93.599998 51.200012 L 93.599998 38.533325 L 98.799995 38.533325 L 98.799995 28.266663 L 104 28.266663 Z M 103.466667 38.666687 L 103.466667 50.666687 L 110 50.666687 L 110 38.666687 Z M 145.333328 70.133362 L 134.800003 70.133362 L 134.800003 83.06665 L 145.333328 83.06665 M 70.400002 71.333313 L 70.400002 89.600006 L 76.26667 89.600006 L 76.26667 71.333313 Z M 84.799995 91.600006 L 84.799995 100.666656 L 78.400002 100.666656 L 78.400002 110 L 70.400002 110 L 70.400002 122.266693 L 78.400002 122.266693 L 78.400002 131.733307 L 84.799995 131.733307 L 84.799995 140.800018 L 92.266663 140.800018 L 92.266663 131.733307 L 98.666664 131.733307 L 98.666664 122.266693 L 104 122.266693 L 104 110 L 98.666664 110 L 98.666664 100.666656 L 92.266663 100.666656 L 92.266663 91.600006 Z M 145.333328 110 L 134.800003 110 L 134.800003 100.666656 L 128.400009 100.666656 L 128.400009 91.600006 L 121.066673 91.600006 L 121.066673 100.666656 L 114.666664 100.666656 L 114.666664 110 L 109.333336 110 L 109.333336 122.266693 L 114.666664 122.266693 L 114.666664 131.733307 L 121.066673 131.733307 L 121.066673 140.800018 L 128.400009 140.800018 L 128.400009 131.733307 L 134.800003 131.733307 L 134.800003 122.266693 L 145.333328 122.266693 M 85.733337 110.266693 L 91.200005 110.266693 L 91.200005 121.866669 L 85.733337 121.866669 Z M 121.866669 110.266693 L 127.333336 110.266693 L 127.333336 121.866669 L 121.866669 121.866669 Z M 119.733337 302.399994 L 119.733337 296.133331 L 124.266663 296.133331 L 124.266663 286.666656 L 130.266663 286.666656 L 130.266663 280.933319 L 134.800003 280.933319 L 134.800003 271.733337 L 145.333328 271.733337 L 145.333328 250.399994 L 134.800003 250.399994 L 134.800003 256.533325 L 130.266663 256.533325 L 130.266663 265.466675 L 124.266663 265.466675 L 124.266663 276.133331 L 115.733337 276.133331 L 115.733337 266.533325 L 109.466667 266.533325 L 109.466667 259.466675 L 104.933327 259.466675 L 104.933327 251.06665 L 98.933327 251.06665 L 98.933327 242.133331 L 94.533333 242.133331 L 94.533333 233.06665 L 90.266663 233.06665 L 90.266663 223.733307 L 84.533333 223.733307 L 84.533333 211.199982 L 92.133331 211.199982 L 92.133331 199.866669 L 100.400002 199.866669 L 100.400002 193.06665 L 114.266663 193.06665 L 114.266663 202.93335 L 106.266663 202.93335 L 106.266663 211.866669 L 111.599998 211.866669 L 111.599998 222.800018 L 117.866669 222.800018 L 117.866669 232.399994 L 125.733337 232.399994 L 125.733337 222.800018 L 132.266663 222.800018 L 132.266663 211.866669 L 136.266663 211.866669 L 136.266663 202.93335 L 145.333328 202.93335 L 145.333328 186 L 134.800003 186 L 134.800003 175.06665 L 130.800003 175.06665 L 130.800003 166.666656 L 127.066673 166.666656 L 127.066673 157.06665 L 121.733337 157.06665 L 121.733337 147.600006 L 116.533333 147.600006 L 116.533333 141.333344 L 110.266663 141.333344 L 110.266663 131.866669 L 102.666664 131.866669 L 102.666664 141.333344 L 96.400002 141.333344 L 96.400002 147.600006 L 91.066673 147.600006 L 91.066673 157.06665 L 85.866669 157.06665 L 85.866669 166.666656 L 81.599998 166.666656 L 81.599998 174.93335 L 77.333336 174.93335 L 77.333336 182.133331 L 70.400002 182.133331 L 70.400002 235.06665 L 78.26667 235.06665 L 78.26667 244 L 80.533333 244 L 80.533333 253.333344 L 86.400002 253.333344 L 86.400002 262.399994 L 90 262.399994 L 90 269.066681 L 93.733337 269.066681 L 93.733337 276.133331 L 100.133331 276.133331 L 100.133331 283.066681 L 109.333336 283.066681 L 109.333336 302.399994 M 70.400002 140.666656 L 70.400002 158.93335 L 76.26667 158.93335 L 76.26667 140.666656 Z M 145.333328 144.133331 L 134.800003 144.133331 L 134.800003 157.06665 L 145.333328 157.06665 M 145.333328 221.866669 L 134.800003 221.866669 L 134.800003 234.800018 L 145.333328 234.800018 Z M 70.666664 254.666656 L 70.666664 266.399994 L 76.26667 266.399994 L 76.26667 254.666656 Z M 78.400002 302.399994 L 78.400002 295.066681 L 81.866669 295.066681 L 81.866669 289.333344 L 86.933327 289.333344 L 86.933327 272.133331 L 81.866669 272.133331 L 81.866669 279.066681 L 76.533333 279.066681 L 76.533333 289.199982 L 70.666664 289.199982 L 70.666664 302.266663 M 99.200005 302.266663 L 99.200005 293.733337 L 93.599998 293.733337 L 93.599998 302.266663"/>
        </g>
    </g>
    <g id="g1">
        <g id="g2">
            <path id="path3" fill="#ce1720" stroke="none" d="M 76.26667 600 L 76.26667 578.266663 L 70.400002 578.266663 L 70.400002 600 Z M 1.333333 562 L 11.866666 562 L 11.866666 570.666687 L 17.199999 570.666687 L 17.199999 581.200012 L 24.666666 581.200012 L 24.666666 590.400024 L 30.800001 590.400024 L 30.800001 600 L 49.333332 600 L 49.333332 590.400024 L 55.333332 590.400024 L 55.333332 581.200012 L 62.799999 581.200012 L 62.799999 570.666687 L 68.133331 570.666687 L 68.133331 562 L 76.26667 562 L 76.26667 548.533325 L 68.133331 548.533325 L 68.133331 539.866699 L 62.799999 539.866699 L 62.799999 529.333313 L 55.333332 529.333313 L 55.333332 520.133301 L 49.333332 520.133301 L 49.333332 510.266663 L 45.066666 510.266663 L 45.066666 502 L 35.066666 502 L 35.066666 510.266663 L 30.800001 510.266663 L 30.800001 520.133301 L 24.666666 520.133301 L 24.666666 529.333313 L 17.199999 529.333313 L 17.199999 539.866699 L 11.866666 539.866699 L 11.866666 548.533325 L 1.333333 548.533325 M 1.333333 595.466675 L 11.866666 595.466675 L 11.866666 583.466675 L 1.333333 583.466675 M 42.666668 579.866638 L 37.200001 579.866638 L 37.200001 571.733337 L 32 571.733337 L 32 561.466675 L 26.933334 561.466675 L 26.933334 548.799988 L 32 548.799988 L 32 538.533325 L 37.200001 538.533325 L 37.200001 530.533325 L 42.666668 530.533325 L 42.666668 538.533325 L 47.866669 538.533325 L 47.866669 548.799988 L 53.066666 548.799988 L 53.066666 561.466675 L 47.866669 561.466675 L 47.866669 571.733337 L 42.666668 571.733337 Z M 43.200001 561.333313 L 43.200001 549.333313 L 36.666668 549.333313 L 36.666668 561.333313 Z M 1.333333 529.866699 L 11.866666 529.866699 L 11.866666 516.93335 L 1.333333 516.93335 M 76.26667 528.666687 L 76.26667 510.399994 L 70.400002 510.399994 L 70.400002 528.666687 Z M 61.866669 508.399994 L 61.866669 499.333344 L 68.26667 499.333344 L 68.26667 490 L 76.26667 490 L 76.26667 477.733337 L 68.26667 477.733337 L 68.26667 468.266663 L 61.866669 468.266663 L 61.866669 459.200012 L 54.399998 459.200012 L 54.399998 468.266663 L 48 468.266663 L 48 477.733337 L 42.666668 477.733337 L 42.666668 490 L 48 490 L 48 499.333344 L 54.399998 499.333344 L 54.399998 508.399994 Z M 1.333333 490 L 11.866666 490 L 11.866666 499.333344 L 18.266666 499.333344 L 18.266666 508.399994 L 25.6 508.399994 L 25.6 499.333344 L 32 499.333344 L 32 490 L 37.333332 490 L 37.333332 477.733337 L 32 477.733337 L 32 468.266663 L 25.6 468.266663 L 25.6 459.200012 L 18.266666 459.200012 L 18.266666 468.266663 L 11.866666 468.266663 L 11.866666 477.733337 L 1.333333 477.733337 M 60.933334 489.733337 L 55.466663 489.733337 L 55.466663 478.133331 L 60.933334 478.133331 Z M 24.800001 489.733337 L 19.333334 489.733337 L 19.333334 478.133331 L 24.800001 478.133331 Z M 26.933334 297.600006 L 26.933334 303.866669 L 22.4 303.866669 L 22.4 313.333344 L 16.4 313.333344 L 16.4 319.066681 L 11.866666 319.066681 L 11.866666 328.266663 L 1.333333 328.266663 L 1.333333 349.599976 L 11.866666 349.599976 L 11.866666 343.466675 L 16.4 343.466675 L 16.4 334.533325 L 22.4 334.533325 L 22.4 323.866669 L 30.933334 323.866669 L 30.933334 333.466675 L 37.200001 333.466675 L 37.200001 340.533325 L 41.733334 340.533325 L 41.733334 348.93335 L 47.733334 348.93335 L 47.733334 357.866638 L 52.133331 357.866638 L 52.133331 366.93335 L 56.399998 366.93335 L 56.399998 376.266663 L 62.133331 376.266663 L 62.133331 388.799988 L 54.533337 388.799988 L 54.533337 400.133362 L 46.266666 400.133362 L 46.266666 406.93335 L 32.399998 406.93335 L 32.399998 397.06665 L 40.399998 397.06665 L 40.399998 388.133362 L 35.066666 388.133362 L 35.066666 377.200012 L 28.800001 377.200012 L 28.800001 367.599976 L 20.933332 367.599976 L 20.933332 377.200012 L 14.400001 377.200012 L 14.400001 388.133362 L 10.400001 388.133362 L 10.400001 397.06665 L 1.333333 397.06665 L 1.333333 414 L 11.866666 414 L 11.866666 424.93335 L 15.866666 424.93335 L 15.866666 433.333313 L 19.6 433.333313 L 19.6 442.93335 L 24.933334 442.93335 L 24.933334 452.400024 L 30.133333 452.400024 L 30.133333 458.666687 L 36.399998 458.666687 L 36.399998 468.133331 L 44 468.133331 L 44 458.666687 L 50.266666 458.666687 L 50.266666 452.400024 L 55.600002 452.400024 L 55.600002 442.93335 L 60.799999 442.93335 L 60.799999 433.333313 L 65.066666 433.333313 L 65.066666 425.06665 L 69.333336 425.06665 L 69.333336 417.866638 L 76.26667 417.866638 L 76.26667 364.93335 L 68.400002 364.93335 L 68.400002 356 L 66.133331 356 L 66.133331 346.666687 L 60.266666 346.666687 L 60.266666 337.600006 L 56.666668 337.600006 L 56.666668 330.933319 L 52.933334 330.933319 L 52.933334 323.866669 L 46.533337 323.866669 L 46.533337 316.933319 L 37.333332 316.933319 L 37.333332 297.600006 M 76.26667 459.333313 L 76.26667 441.06665 L 70.400002 441.06665 L 70.400002 459.333313 Z M 1.333333 455.866669 L 11.866666 455.866669 L 11.866666 442.93335 L 1.333333 442.93335 M 1.333333 378.133362 L 11.866666 378.133362 L 11.866666 365.200012 L 1.333333 365.200012 Z M 76 345.333313 L 76 333.600006 L 70.400002 333.600006 L 70.400002 345.333313 Z M 68.26667 297.600006 L 68.26667 304.933319 L 64.799995 304.933319 L 64.799995 310.666656 L 59.733334 310.666656 L 59.733334 327.866669 L 64.799995 327.866669 L 64.799995 320.933319 L 70.133331 320.933319 L 70.133331 310.800018 L 76 310.800018 L 76 297.733337 M 47.466663 297.733337 L 47.466663 306.266663 L 53.066666 306.266663 L 53.066666 297.733337"/>
            <g id="g3">
                <path id="path4" fill="#ce1720" stroke="none" d="M 70.400002 600 L 70.400002 578.266663 L 76.26667 578.266663 L 76.26667 600 Z M 145.333328 562 L 134.800003 562 L 134.800003 570.666687 L 129.46666 570.666687 L 129.46666 581.200012 L 122 581.200012 L 122 590.400024 L 115.866669 590.400024 L 115.866669 600 L 97.333336 600 L 97.333336 590.400024 L 91.333336 590.400024 L 91.333336 581.200012 L 83.866669 581.200012 L 83.866669 570.666687 L 78.533333 570.666687 L 78.533333 562 L 70.400002 562 L 70.400002 548.533325 L 78.533333 548.533325 L 78.533333 539.866699 L 83.866669 539.866699 L 83.866669 529.333313 L 91.333336 529.333313 L 91.333336 520.133301 L 97.333336 520.133301 L 97.333336 510.266663 L 101.599998 510.266663 L 101.599998 502 L 111.599998 502 L 111.599998 510.266663 L 115.866669 510.266663 L 115.866669 520.133301 L 122 520.133301 L 122 529.333313 L 129.46666 529.333313 L 129.46666 539.866699 L 134.800003 539.866699 L 134.800003 548.533325 L 145.333328 548.533325 M 145.333328 595.466675 L 134.800003 595.466675 L 134.800003 583.466675 L 145.333328 583.466675 M 104 579.866638 L 109.466667 579.866638 L 109.466667 571.733337 L 114.666664 571.733337 L 114.666664 561.466675 L 119.733337 561.466675 L 119.733337 548.799988 L 114.666664 548.799988 L 114.666664 538.533325 L 109.466667 538.533325 L 109.466667 530.533325 L 104 530.533325 L 104 538.533325 L 98.799995 538.533325 L 98.799995 548.799988 L 93.599998 548.799988 L 93.599998 561.466675 L 98.799995 561.466675 L 98.799995 571.733337 L 104 571.733337 Z M 103.466667 561.333313 L 103.466667 549.333313 L 110 549.333313 L 110 561.333313 Z M 145.333328 529.866699 L 134.800003 529.866699 L 134.800003 516.93335 L 145.333328 516.93335 M 70.400002 528.666687 L 70.400002 510.399994 L 76.26667 510.399994 L 76.26667 528.666687 Z M 84.799995 508.399994 L 84.799995 499.333344 L 78.400002 499.333344 L 78.400002 490 L 70.400002 490 L 70.400002 477.733337 L 78.400002 477.733337 L 78.400002 468.266663 L 84.799995 468.266663 L 84.799995 459.200012 L 92.266663 459.200012 L 92.266663 468.266663 L 98.666664 468.266663 L 98.666664 477.733337 L 104 477.733337 L 104 490 L 98.666664 490 L 98.666664 499.333344 L 92.266663 499.333344 L 92.266663 508.399994 Z M 145.333328 490 L 134.800003 490 L 134.800003 499.333344 L 128.400009 499.333344 L 128.400009 508.399994 L 121.066673 508.399994 L 121.066673 499.333344 L 114.666664 499.333344 L 114.666664 490 L 109.333336 490 L 109.333336 477.733337 L 114.666664 477.733337 L 114.666664 468.266663 L 121.066673 468.266663 L 121.066673 459.200012 L 128.400009 459.200012 L 128.400009 468.266663 L 134.800003 468.266663 L 134.800003 477.733337 L 145.333328 477.733337 M 85.733337 489.733337 L 91.200005 489.733337 L 91.200005 478.133331 L 85.733337 478.133331 Z M 121.866669 489.733337 L 127.333336 489.733337 L 127.333336 478.133331 L 121.866669 478.133331 Z M 119.733337 297.600006 L 119.733337 303.866669 L 124.266663 303.866669 L 124.266663 313.333344 L 130.266663 313.333344 L 130.266663 319.066681 L 134.800003 319.066681 L 134.800003 328.266663 L 145.333328 328.266663 L 145.333328 349.599976 L 134.800003 349.599976 L 134.800003 343.466675 L 130.266663 343.466675 L 130.266663 334.533325 L 124.266663 334.533325 L 124.266663 323.866669 L 115.733337 323.866669 L 115.733337 333.466675 L 109.466667 333.466675 L 109.466667 340.533325 L 104.933327 340.533325 L 104.933327 348.93335 L 98.933327 348.93335 L 98.933327 357.866638 L 94.533333 357.866638 L 94.533333 366.93335 L 90.266663 366.93335 L 90.266663 376.266663 L 84.533333 376.266663 L 84.533333 388.799988 L 92.133331 388.799988 L 92.133331 400.133362 L 100.400002 400.133362 L 100.400002 406.93335 L 114.266663 406.93335 L 114.266663 397.06665 L 106.266663 397.06665 L 106.266663 388.133362 L 111.599998 388.133362 L 111.599998 377.200012 L 117.866669 377.200012 L 117.866669 367.599976 L 125.733337 367.599976 L 125.733337 377.200012 L 132.266663 377.200012 L 132.266663 388.133362 L 136.266663 388.133362 L 136.266663 397.06665 L 145.333328 397.06665 L 145.333328 414 L 134.800003 414 L 134.800003 424.93335 L 130.800003 424.93335 L 130.800003 433.333313 L 127.066673 433.333313 L 127.066673 442.93335 L 121.733337 442.93335 L 121.733337 452.400024 L 116.533333 452.400024 L 116.533333 458.666687 L 110.266663 458.666687 L 110.266663 468.133331 L 102.666664 468.133331 L 102.666664 458.666687 L 96.400002 458.666687 L 96.400002 452.400024 L 91.066673 452.400024 L 91.066673 442.93335 L 85.866669 442.93335 L 85.866669 433.333313 L 81.599998 433.333313 L 81.599998 425.06665 L 77.333336 425.06665 L 77.333336 417.866638 L 70.400002 417.866638 L 70.400002 364.93335 L 78.26667 364.93335 L 78.26667 356 L 80.533333 356 L 80.533333 346.666687 L 86.400002 346.666687 L 86.400002 337.600006 L 90 337.600006 L 90 330.933319 L 93.733337 330.933319 L 93.733337 323.866669 L 100.133331 323.866669 L 100.133331 316.933319 L 109.333336 316.933319 L 109.333336 297.600006 M 70.400002 459.333313 L 70.400002 441.06665 L 76.26667 441.06665 L 76.26667 459.333313 Z M 145.333328 455.866669 L 134.800003 455.866669 L 134.800003 442.93335 L 145.333328 442.93335 M 145.333328 378.133362 L 134.800003 378.133362 L 134.800003 365.200012 L 145.333328 365.200012 Z M 70.666664 345.333313 L 70.666664 333.600006 L 76.26667 333.600006 L 76.26667 345.333313 Z M 78.400002 297.600006 L 78.400002 304.933319 L 81.866669 304.933319 L 81.866669 310.666656 L 86.933327 310.666656 L 86.933327 327.866669 L 81.866669 327.866669 L 81.866669 320.933319 L 76.533333 320.933319 L 76.533333 310.800018 L 70.666664 310.800018 L 70.666664 297.733337 M 99.200005 297.733337 L 99.200005 306.266663 L 93.599998 306.266663 L 93.599998 297.733337"/>
            </g>
        </g>
    </g>
    <path id="path5" fill="#007c30" stroke="none" d="M 140 400 L 1200 400 L 1200 600 L 140 600 Z"/>
</svg>
