<?xml version="1.0" encoding="UTF-8"?>
<!-- Generated by Pixelmator Pro 3.5.7 -->
<svg width="1200" height="600" viewBox="0 0 1200 600" xmlns="http://www.w3.org/2000/svg">
    <path id="Path" fill="#ea0437" stroke="none" d="M 0 0 L 1200 0 L 1200 600 L 0 600 Z"/>
    <path id="path1" fill="#4189dd" stroke="none" d="M 0 600 L 1200 600 L 1200 300"/>
    <path id="path2" fill="#12ad2b" stroke="none" d="M 0 0 L 1200 0 L 1200 300"/>
    <path id="path3" fill="#ffc726" stroke="none" d="M 276.299988 442.994385 C 263.328003 446.576416 255.890411 456.639587 256.079987 466.135223 L 319.933197 465.879608 C 320.506775 455.676025 312.112793 446.239197 299.334015 442.522827 C 361.850403 441.231598 416.162415 417.814789 426.029999 402.788422 C 416.264404 398.549988 404.972382 405.370789 396.9216 403.801208 C 416.035217 394.968018 473.298004 357.903595 463.988403 318.169189 C 456.751221 340.239594 434.8284 358.5 425.49118 363.401978 C 446.882416 330.9216 476.090393 297.105591 450.75 270.919189 C 452.029205 286.096802 441.105621 302.799591 436.280396 304.05481 C 448.688416 269.734802 460.527618 226.646423 433.643982 198.240021 C 437.174408 208.507172 435.748779 237.469177 430.887604 238.77121 C 429.390015 215.433624 425.408386 166.347595 400.831207 167.04718 C 408.637207 173.995209 412.052429 192.961182 412.22641 212.119202 C 406.624817 198.994781 400.259979 189.114014 386.644806 179.422791 C 375.631195 158.300385 356.035217 140.799622 336.436829 128.262024 C 338.636383 143.636383 340.456787 155.765991 361.924805 171.712799 C 350.731201 171.016815 339.542389 149.798401 327.580811 149.210419 C 318.064789 148.751984 310.599609 157.832367 295.051208 152.606384 C 296.772003 157.7388 304.027191 160.011627 305.55719 163.808411 C 302.227203 166.108826 294.320404 163.449615 287.749207 160.027222 C 296.790009 172.342834 310.798798 179.583618 322.693207 177.139191 C 336.836395 174.420013 352.001984 175.857605 366.465607 184.088379 C 362.770782 185.985596 348.393616 185.973602 339.165588 184.819183 C 347.553589 193.310364 353.178009 198.938385 367.761597 198.846008 C 380.787598 198.760803 387.616821 191.89798 390.962402 196.148407 C 399.131989 205.828796 404.630371 215.504395 411.464386 226.902039 C 396.368408 228.570007 400.918793 209.8284 384.105621 200.242828 C 374.65921 219.794373 394.971619 242.972382 408.798004 252.607178 C 408.984009 267.303589 411.131989 279.600006 417.365997 290.788818 C 421.5672 298.677582 426.999603 306.752411 424.951202 324.556793 C 416.674805 318.528015 408.585602 298.197601 411.561584 282.057617 C 401.201996 284.883606 397.151978 303.099579 402.03363 312.27002 C 405.68158 319.251587 408.117584 332.611206 403.9104 338.583618 C 399.809998 344.14801 399.380371 343.525208 399.434387 355.46759 C 399.580811 362.613617 395.588409 371.063995 389.086823 376.955994 C 390.444 371.920776 391.992004 363.257996 390.488403 357.843597 C 385.348785 366.561584 372.454803 375.583191 368.393982 384.957611 C 364.407593 394.352417 363.395996 410.62558 344.100006 414.377991 C 319.276794 419.305176 310.708801 423.607208 294.735596 430.143616 C 292.963196 418.011597 298.269592 392.712006 308.414398 394.155609 C 318.319183 395.917206 348.350403 383.806793 337.608002 358.507202 C 335.486389 366.481201 328.408813 374.263184 320.756409 374.607605 C 329.024414 363.880798 343.778381 352.774811 336.592773 334.801208 C 332.598022 342.44162 326.315979 351.609589 316.789185 356.768402 C 327.001221 337.196411 317.974792 331.341614 305.847595 347.461182 C 301.267212 353.679596 298.501221 366.141602 295.591217 381.968414 C 290.827209 369.095978 291.141602 352.151978 285.496796 338.392792 C 279.600006 323.514008 293.321991 319.585205 299.780396 320.779205 C 315.592773 325.000824 342.018005 324.998413 340.05481 298.87561 C 333.225586 307.712402 321.249603 310.441193 308.315979 307.259979 C 322.84079 296.654419 334.309204 276.703186 318.123596 266.288391 C 317.583618 277.333191 309.036011 289.717194 297.623993 295.420807 C 294.95282 286.101593 294.95282 276.209991 297.243591 265.366821 C 290.871613 272.074799 286.216797 286.030823 282.515991 301.895996 C 282.23761 286.213196 285.20401 274.914001 287.403595 266.477997 C 290.739594 254.155212 299.028015 262.173584 311.718018 263.08197 C 323.937592 263.775574 340.762787 257.022003 337.546814 240.450012 C 333.37442 247.006775 324.808807 249.557983 316.05838 248.86438 C 326.594391 242.482788 344.949615 231.140411 334.882813 213.696014 C 330.654022 220.303192 329.28479 225.955231 317.0448 227.981995 C 320.251221 220.608002 320.782806 210.182373 330.283203 206.050781 C 313.335602 202.676392 303.633606 213.797974 298.701599 231.217194 C 296.701202 219.140411 294.321594 214.693207 293.847595 205.861206 C 303.008392 195.686432 303.967194 175.781982 284.134796 171.331207 C 282.958801 181.598389 283.306793 184.045197 285.562805 192.404419 C 276.253204 186.874817 263.132385 183.823212 254.396393 191.643616 C 260.314789 198.029999 269.475616 203.653198 283.594788 196.687195 C 280.258789 207.598785 271.585205 205.731598 259.664398 201.571228 C 266.950806 215.256012 276.145203 217.687195 286.292389 216.110382 C 291.606018 230.118011 291.839996 240.760803 276.314392 261.160797 C 277.032013 248.484009 276.130798 239.040009 266.059204 228.789612 C 257.428802 220.336823 250.413589 229.150787 263.901611 247.944 C 255.718796 241.918793 246.458405 229.688385 243.669601 217.460388 C 240.972 232.5672 243.400803 250.371613 251.763596 260.35202 C 247.808411 264.5784 243.310806 259.903198 236.65799 249.562805 C 239.174393 282.653992 253.292389 289.039185 272.265594 281.662781 C 272.805603 299.825989 272.805603 316.642792 273.88562 338.583618 C 262.821594 322.669189 248.797195 310.798798 240.972 307.831207 C 238.545593 316.734009 247.718414 328.33197 252.843597 334.80722 C 245.019592 333.187195 228.024002 320.239197 228.024002 320.239197 C 226.315186 334.987213 245.382004 348.655182 257.700012 354.769196 C 243.223206 354.139191 236.835602 348.655182 227.484009 339.662415 C 227.665192 380.576416 271.814392 373.471222 280.088409 367.178406 C 281.168396 387.320404 282.706818 410.606384 283.784393 430.749603 C 271.304413 428.571594 272.286011 424.819183 261.606018 423.830383 C 231.965988 422.674805 208.452011 388.248016 200.666397 362.924408 C 198.432007 367.09201 200.204407 371.45282 198.160797 376.573212 C 193.348785 364.142395 187.199997 348.088806 178.954803 340.617584 C 181.054794 347.86438 181.276794 355.2276 180.547195 368.772003 C 177.717606 359.996399 175.084808 357.306 174.895203 347.004028 C 175.075195 339.095978 182.524811 333.261597 182.112 322.137604 C 181.80719 314.015991 174.399597 296.414398 173.309998 282.788391 C 169.723206 296.812805 167.472 311.596802 161.978394 320.278778 C 164.708405 305.302795 163.833603 294.967194 168.451202 284.888367 C 173.786407 274.276794 178.322403 264.802795 174.770401 254.093994 C 171.364807 258.230408 172.535995 261.98761 163.978806 272.037598 C 162.118805 261.109192 175.042801 243.618011 187.586411 236.585999 C 196.4328 231.925201 207.583191 215.253601 200.318405 203.825989 C 192.001205 209.802032 188.265594 217.873199 176.514008 231.665985 C 184.895996 198.899994 206.674805 190.325989 232.748398 190.214386 C 238.518005 190.187988 250.149597 188.104797 253.414795 180.470398 C 246.064804 183.30719 237.37561 183.668396 229.642807 182.120392 C 235.270813 173.858429 247.121994 174.932373 258.166809 174.884399 C 266.8284 174.842407 280.352386 173.667633 285.819611 161.330414 C 275.252411 165.908417 258.771606 166.861206 248.393997 163.618805 C 264.897614 155.067627 290.746796 154.147186 304.004395 142.926025 C 288.892792 131.648407 251.079605 145.553986 227.195999 161.934021 C 233.871613 155.82959 244.421997 145.001984 250.243195 136.259979 C 237.179993 129.997192 204.145203 166.594788 192.764389 188.340027 C 181.956009 194.443207 177.632385 204.012024 173.434814 210.690002 C 179.194794 191.228394 179.804413 177.105621 184.610397 161.07959 C 147.557999 173.834412 162.958801 242.294373 154.898407 258.671997 C 155.847595 240.590393 155.079605 217.360809 147.634796 205.382385 C 136.222794 214.088379 135.301193 265.333191 146.016006 307.994385 C 142.147202 296.578796 134.844009 285.92041 132.501602 272.025574 C 115.610405 302.83078 142.402802 339.173981 164.805603 367.882813 C 147.93959 359.098785 131.264404 340.202423 120.309601 324.361206 C 123.333603 379.497589 180.910797 390.95401 189.849594 404.504395 C 177.717606 398.857208 154.522797 387.68158 144.681595 399.392395 C 160.702805 403.09079 173.484009 407.366394 183.782394 414.116394 C 198.724808 432.773987 227.020813 440.9328 276.299988 442.994385 Z"/>
</svg>
