<?xml version="1.0" encoding="UTF-8"?>
<!-- Generated by Pixelmator Pro 3.5.7 -->
<svg width="1140" height="600" viewBox="0 0 1140 600" xmlns="http://www.w3.org/2000/svg">
    <path id="Path" fill="#75b2dd" stroke="none" d="M 0 0 L 1140 0 L 1140 600 L 0 600 Z"/>
    <g id="c">
        <g id="b">
            <path id="a" fill="#ffffff" stroke="none" d="M 570 60 L 551.458984 117.063385 L 579.990662 126.333893"/>
            <g id="Group">
                <path id="path1" fill="#ffffff" stroke="none" d="M 570 60 L 588.541016 117.063385 L 560.009338 126.333893"/>
            </g>
        </g>
        <g id="g1">
            <g id="g2">
                <path id="path2" fill="#ffffff" stroke="none" d="M 627.063416 101.458954 L 567.063416 101.458954 L 567.063416 131.458954"/>
                <g id="g3">
                    <path id="path3" fill="#ffffff" stroke="none" d="M 627.063416 101.458954 L 578.5224 136.726074 L 560.888794 112.455597"/>
                </g>
            </g>
        </g>
        <g id="g4">
            <g id="g5">
                <path id="path4" fill="#ffffff" stroke="none" d="M 605.267151 168.541016 L 586.726074 111.477631 L 558.194397 120.748108"/>
                <g id="g6">
                    <path id="path5" fill="#ffffff" stroke="none" d="M 605.26709 168.541016 L 556.726074 133.273895 L 574.359619 109.003357"/>
                </g>
            </g>
        </g>
        <g id="g7">
            <g id="g8">
                <path id="path6" fill="#ffffff" stroke="none" d="M 534.73291 168.541016 L 583.273926 133.273895 L 565.640381 109.003357"/>
                <g id="g9">
                    <path id="path7" fill="#ffffff" stroke="none" d="M 534.732849 168.541016 L 553.273926 111.477631 L 581.805603 120.748108"/>
                </g>
            </g>
        </g>
        <g id="g10">
            <g id="g11">
                <path id="path8" fill="#ffffff" stroke="none" d="M 512.936584 101.458954 L 561.4776 136.726074 L 579.111206 112.455597"/>
                <g id="g12">
                    <path id="path9" fill="#ffffff" stroke="none" d="M 512.936584 101.458954 L 572.936584 101.458954 L 572.936584 131.458954"/>
                </g>
            </g>
        </g>
    </g>
    <g id="g13">
        <g id="g14">
            <g id="g15">
                <path id="path10" fill="#ffffff" stroke="none" d="M 810 300 L 752.936584 281.458954 L 743.666138 309.990662"/>
                <g id="g16">
                    <path id="path11" fill="#ffffff" stroke="none" d="M 810 300 L 752.936584 318.541016 L 743.666138 290.009338"/>
                </g>
            </g>
            <g id="g17">
                <g id="g18">
                    <path id="path12" fill="#ffffff" stroke="none" d="M 768.541016 357.063416 L 768.541016 297.063385 L 738.541016 297.063385"/>
                    <g id="g19">
                        <path id="path13" fill="#ffffff" stroke="none" d="M 768.540955 357.063416 L 733.273926 308.522369 L 757.544373 290.888824"/>
                    </g>
                </g>
            </g>
            <g id="g20">
                <g id="g21">
                    <path id="path14" fill="#ffffff" stroke="none" d="M 701.458984 335.26712 L 758.5224 316.726074 L 749.251892 288.194397"/>
                    <g id="g22">
                        <path id="path15" fill="#ffffff" stroke="none" d="M 701.458984 335.26712 L 736.726074 286.726074 L 760.996643 304.35965"/>
                    </g>
                </g>
            </g>
            <g id="g23">
                <g id="g24">
                    <path id="path16" fill="#ffffff" stroke="none" d="M 701.458984 264.73288 L 736.726074 313.273895 L 760.996643 295.64035"/>
                    <g id="g25">
                        <path id="path17" fill="#ffffff" stroke="none" d="M 701.458984 264.73288 L 758.5224 283.273926 L 749.251892 311.805603"/>
                    </g>
                </g>
            </g>
            <g id="g26">
                <g id="g27">
                    <path id="path18" fill="#ffffff" stroke="none" d="M 768.540955 242.936584 L 733.273926 291.477631 L 757.544373 309.111176"/>
                    <g id="g28">
                        <path id="path19" fill="#ffffff" stroke="none" d="M 768.541016 242.936615 L 768.541016 302.936615 L 738.541016 302.936615"/>
                    </g>
                </g>
            </g>
        </g>
    </g>
    <g id="g29">
        <g id="g30">
            <g id="g31">
                <path id="path20" fill="#ffffff" stroke="none" d="M 570 540 L 588.541016 482.936615 L 560.009338 473.666077"/>
                <g id="g32">
                    <path id="path21" fill="#ffffff" stroke="none" d="M 570 540 L 551.458984 482.936615 L 579.990662 473.666077"/>
                </g>
            </g>
            <g id="g33">
                <g id="g34">
                    <path id="path22" fill="#ffffff" stroke="none" d="M 512.936584 498.541016 L 572.936584 498.541016 L 572.936584 468.541016"/>
                    <g id="g35">
                        <path id="path23" fill="#ffffff" stroke="none" d="M 512.936584 498.541016 L 561.4776 463.273895 L 579.111206 487.544434"/>
                    </g>
                </g>
            </g>
            <g id="g36">
                <g id="g37">
                    <path id="path24" fill="#ffffff" stroke="none" d="M 534.732849 431.458984 L 553.273926 488.522369 L 581.805603 479.251862"/>
                    <g id="g38">
                        <path id="path25" fill="#ffffff" stroke="none" d="M 534.73291 431.458984 L 583.273926 466.726105 L 565.640381 490.996613"/>
                    </g>
                </g>
            </g>
            <g id="g39">
                <g id="g40">
                    <path id="path26" fill="#ffffff" stroke="none" d="M 605.26709 431.458984 L 556.726074 466.726105 L 574.359619 490.996613"/>
                    <g id="g41">
                        <path id="path27" fill="#ffffff" stroke="none" d="M 605.267151 431.458984 L 586.726074 488.522369 L 558.194397 479.251862"/>
                    </g>
                </g>
            </g>
            <g id="g42">
                <g id="g43">
                    <path id="path28" fill="#ffffff" stroke="none" d="M 627.063416 498.541016 L 578.5224 463.273895 L 560.888794 487.544434"/>
                    <g id="g44">
                        <path id="path29" fill="#ffffff" stroke="none" d="M 627.063416 498.541016 L 567.063416 498.541016 L 567.063416 468.541016"/>
                    </g>
                </g>
            </g>
        </g>
    </g>
    <g id="g45">
        <g id="g46">
            <g id="g47">
                <path id="path30" fill="#ffffff" stroke="none" d="M 330 300 L 387.063416 318.541016 L 396.333893 290.009338"/>
                <g id="g48">
                    <path id="path31" fill="#ffffff" stroke="none" d="M 330 300 L 387.063416 281.458954 L 396.333893 309.990662"/>
                </g>
            </g>
            <g id="g49">
                <g id="g50">
                    <path id="path32" fill="#ffffff" stroke="none" d="M 371.458954 242.936615 L 371.458954 302.936615 L 401.458954 302.936615"/>
                    <g id="g51">
                        <path id="path33" fill="#ffffff" stroke="none" d="M 371.458984 242.936584 L 406.726105 291.477631 L 382.455597 309.111176"/>
                    </g>
                </g>
            </g>
            <g id="g52">
                <g id="g53">
                    <path id="path34" fill="#ffffff" stroke="none" d="M 438.541046 264.73288 L 381.477631 283.273926 L 390.748138 311.805603"/>
                    <g id="g54">
                        <path id="path35" fill="#ffffff" stroke="none" d="M 438.541046 264.73288 L 403.273926 313.273895 L 379.003387 295.64035"/>
                    </g>
                </g>
            </g>
            <g id="g55">
                <g id="g56">
                    <path id="path36" fill="#ffffff" stroke="none" d="M 438.541046 335.26712 L 403.273926 286.726074 L 379.003387 304.35965"/>
                    <g id="g57">
                        <path id="path37" fill="#ffffff" stroke="none" d="M 438.541046 335.26712 L 381.477631 316.726074 L 390.748138 288.194397"/>
                    </g>
                </g>
            </g>
            <g id="g58">
                <g id="g59">
                    <path id="path38" fill="#ffffff" stroke="none" d="M 371.458984 357.063416 L 406.726105 308.522369 L 382.455597 290.888824"/>
                    <g id="g60">
                        <path id="path39" fill="#ffffff" stroke="none" d="M 371.458954 357.063416 L 371.458954 297.063385 L 401.458954 297.063385"/>
                    </g>
                </g>
            </g>
        </g>
    </g>
</svg>
