<?xml version="1.0" encoding="UTF-8"?>
<!-- Generated by Pixelmator Pro 3.5.7 -->
<svg width="1200" height="600" viewBox="0 0 1200 600" xmlns="http://www.w3.org/2000/svg">
    <path id="Path" fill="#0073cf" stroke="none" d="M 0 0 L 1200 0 L 1200 600 L 0 600 Z"/>
    <path id="path1" fill="#ffffff" stroke="none" d="M 0 200 L 1200 200 L 1200 400 L 0 400 Z"/>
    <g id="c">
        <g id="b">
            <path id="a" fill="#0073cf" stroke="none" d="M 600.000244 266.665405 L 589.699646 298.367279 L 605.550598 303.517548 Z"/>
            <g id="Group">
                <path id="path2" fill="#0073cf" stroke="none" d="M 599.999756 266.665405 L 610.300354 298.367279 L 594.449402 303.517548 Z"/>
            </g>
        </g>
        <g id="g1">
            <g id="g2">
                <path id="path3" fill="#0073cf" stroke="none" d="M 631.703186 289.699219 L 598.369812 289.699219 L 598.369812 306.365906 Z"/>
                <g id="g3">
                    <path id="path4" fill="#0073cf" stroke="none" d="M 631.703003 289.698853 L 604.735779 309.291687 L 594.939392 295.808075 Z"/>
                </g>
            </g>
        </g>
        <g id="g4">
            <g id="g5">
                <path id="path5" fill="#0073cf" stroke="none" d="M 568.296997 289.698853 L 595.264221 309.291687 L 605.060608 295.808075 Z"/>
                <g id="g6">
                    <path id="path6" fill="#0073cf" stroke="none" d="M 568.296814 289.699219 L 601.630188 289.699219 L 601.630188 306.365906 Z"/>
                </g>
            </g>
        </g>
        <g id="g7">
            <g id="g8">
                <path id="path7" fill="#0073cf" stroke="none" d="M 619.593445 326.968384 L 609.292847 295.26651 L 593.441956 300.416779 Z"/>
                <g id="g9">
                    <path id="path8" fill="#0073cf" stroke="none" d="M 619.59375 326.96817 L 592.626526 307.375305 L 602.422974 293.891693 Z"/>
                </g>
            </g>
        </g>
        <g id="g10">
            <g id="g11">
                <path id="path9" fill="#0073cf" stroke="none" d="M 580.40625 326.96817 L 607.373474 307.375305 L 597.577026 293.891693 Z"/>
                <g id="g12">
                    <path id="path10" fill="#0073cf" stroke="none" d="M 580.406555 326.968384 L 590.707153 295.26651 L 606.558044 300.416779 Z"/>
                </g>
            </g>
        </g>
    </g>
    <g id="g13">
        <g id="g14">
            <g id="g15">
                <path id="path11" fill="#0073cf" stroke="none" d="M 766.66687 213.332031 L 756.366272 245.033936 L 772.217224 250.184204 Z"/>
                <g id="g16">
                    <path id="path12" fill="#0073cf" stroke="none" d="M 766.666504 213.332031 L 776.967041 245.033936 L 761.116089 250.184204 Z"/>
                </g>
            </g>
            <g id="g17">
                <g id="g18">
                    <path id="path13" fill="#0073cf" stroke="none" d="M 798.369812 236.365906 L 765.036499 236.365906 L 765.036499 253.032562 Z"/>
                    <g id="g19">
                        <path id="path14" fill="#0073cf" stroke="none" d="M 798.369751 236.365509 L 771.402466 255.958344 L 761.606018 242.474731 Z"/>
                    </g>
                </g>
            </g>
            <g id="g20">
                <g id="g21">
                    <path id="path15" fill="#0073cf" stroke="none" d="M 734.963623 236.365509 L 761.930847 255.958344 L 771.727295 242.474731 Z"/>
                    <g id="g22">
                        <path id="path16" fill="#0073cf" stroke="none" d="M 734.963501 236.365906 L 768.296875 236.365906 L 768.296875 253.032562 Z"/>
                    </g>
                </g>
            </g>
            <g id="g23">
                <g id="g24">
                    <path id="path17" fill="#0073cf" stroke="none" d="M 786.260071 273.63504 L 775.959534 241.933167 L 760.108582 247.083466 Z"/>
                    <g id="g25">
                        <path id="path18" fill="#0073cf" stroke="none" d="M 786.260437 273.634827 L 759.293213 254.041992 L 769.0896 240.55835 Z"/>
                    </g>
                </g>
            </g>
            <g id="g26">
                <g id="g27">
                    <path id="path19" fill="#0073cf" stroke="none" d="M 747.072876 273.634827 L 774.040161 254.041992 L 764.243713 240.55835 Z"/>
                    <g id="g28">
                        <path id="path20" fill="#0073cf" stroke="none" d="M 747.073242 273.63504 L 757.373779 241.933167 L 773.224731 247.083466 Z"/>
                    </g>
                </g>
            </g>
        </g>
    </g>
    <g id="g29">
        <g id="g30">
            <g id="g31">
                <path id="path21" fill="#0073cf" stroke="none" d="M 766.66687 313.332062 L 756.366272 345.033936 L 772.217224 350.184235 Z"/>
                <g id="g32">
                    <path id="path22" fill="#0073cf" stroke="none" d="M 766.666504 313.332062 L 776.967041 345.033936 L 761.116089 350.184235 Z"/>
                </g>
            </g>
            <g id="g33">
                <g id="g34">
                    <path id="path23" fill="#0073cf" stroke="none" d="M 798.369812 336.365906 L 765.036499 336.365906 L 765.036499 353.032562 Z"/>
                    <g id="g35">
                        <path id="path24" fill="#0073cf" stroke="none" d="M 798.369751 336.365509 L 771.402466 355.958344 L 761.606018 342.474731 Z"/>
                    </g>
                </g>
            </g>
            <g id="g36">
                <g id="g37">
                    <path id="path25" fill="#0073cf" stroke="none" d="M 734.963623 336.365509 L 761.930847 355.958344 L 771.727295 342.474731 Z"/>
                    <g id="g38">
                        <path id="path26" fill="#0073cf" stroke="none" d="M 734.963501 336.365906 L 768.296875 336.365906 L 768.296875 353.032562 Z"/>
                    </g>
                </g>
            </g>
            <g id="g39">
                <g id="g40">
                    <path id="path27" fill="#0073cf" stroke="none" d="M 786.260071 373.635071 L 775.959534 341.933167 L 760.108582 347.083435 Z"/>
                    <g id="g41">
                        <path id="path28" fill="#0073cf" stroke="none" d="M 786.260437 373.634827 L 759.293213 354.041962 L 769.0896 340.55835 Z"/>
                    </g>
                </g>
            </g>
            <g id="g42">
                <g id="g43">
                    <path id="path29" fill="#0073cf" stroke="none" d="M 747.072876 373.634827 L 774.040161 354.041962 L 764.243713 340.55835 Z"/>
                    <g id="g44">
                        <path id="path30" fill="#0073cf" stroke="none" d="M 747.073242 373.635071 L 757.373779 341.933167 L 773.224731 347.083435 Z"/>
                    </g>
                </g>
            </g>
        </g>
    </g>
    <g id="g45">
        <g id="g46">
            <g id="g47">
                <path id="path31" fill="#0073cf" stroke="none" d="M 433.333527 213.332031 L 423.032959 245.033936 L 438.883911 250.184204 Z"/>
                <g id="g48">
                    <path id="path32" fill="#0073cf" stroke="none" d="M 433.33313 213.332031 L 443.633667 245.033936 L 427.782745 250.184204 Z"/>
                </g>
            </g>
            <g id="g49">
                <g id="g50">
                    <path id="path33" fill="#0073cf" stroke="none" d="M 465.036499 236.365906 L 431.703156 236.365906 L 431.703156 253.032562 Z"/>
                    <g id="g51">
                        <path id="path34" fill="#0073cf" stroke="none" d="M 465.036377 236.365509 L 438.069153 255.958344 L 428.272705 242.474731 Z"/>
                    </g>
                </g>
            </g>
            <g id="g52">
                <g id="g53">
                    <path id="path35" fill="#0073cf" stroke="none" d="M 401.63031 236.365509 L 428.597534 255.958344 L 438.393921 242.474731 Z"/>
                    <g id="g54">
                        <path id="path36" fill="#0073cf" stroke="none" d="M 401.630157 236.365906 L 434.963501 236.365906 L 434.963501 253.032562 Z"/>
                    </g>
                </g>
            </g>
            <g id="g55">
                <g id="g56">
                    <path id="path37" fill="#0073cf" stroke="none" d="M 452.926758 273.63504 L 442.62619 241.933167 L 426.775269 247.083466 Z"/>
                    <g id="g57">
                        <path id="path38" fill="#0073cf" stroke="none" d="M 452.927094 273.634827 L 425.959869 254.041992 L 435.756256 240.55835 Z"/>
                    </g>
                </g>
            </g>
            <g id="g58">
                <g id="g59">
                    <path id="path39" fill="#0073cf" stroke="none" d="M 413.739594 273.634827 L 440.706818 254.041992 L 430.91037 240.55835 Z"/>
                    <g id="g60">
                        <path id="path40" fill="#0073cf" stroke="none" d="M 413.739929 273.63504 L 424.040466 241.933167 L 439.891418 247.083466 Z"/>
                    </g>
                </g>
            </g>
        </g>
    </g>
    <g id="g61">
        <g id="g62">
            <g id="g63">
                <path id="path41" fill="#0073cf" stroke="none" d="M 433.333527 313.332062 L 423.032959 345.033936 L 438.883911 350.184235 Z"/>
                <g id="g64">
                    <path id="path42" fill="#0073cf" stroke="none" d="M 433.33313 313.332062 L 443.633667 345.033936 L 427.782745 350.184235 Z"/>
                </g>
            </g>
            <g id="g65">
                <g id="g66">
                    <path id="path43" fill="#0073cf" stroke="none" d="M 465.036499 336.365906 L 431.703156 336.365906 L 431.703156 353.032562 Z"/>
                    <g id="g67">
                        <path id="path44" fill="#0073cf" stroke="none" d="M 465.036377 336.365509 L 438.069153 355.958344 L 428.272705 342.474731 Z"/>
                    </g>
                </g>
            </g>
            <g id="g68">
                <g id="g69">
                    <path id="path45" fill="#0073cf" stroke="none" d="M 401.63031 336.365509 L 428.597534 355.958344 L 438.393921 342.474731 Z"/>
                    <g id="g70">
                        <path id="path46" fill="#0073cf" stroke="none" d="M 401.630157 336.365906 L 434.963501 336.365906 L 434.963501 353.032562 Z"/>
                    </g>
                </g>
            </g>
            <g id="g71">
                <g id="g72">
                    <path id="path47" fill="#0073cf" stroke="none" d="M 452.926758 373.635071 L 442.62619 341.933167 L 426.775269 347.083435 Z"/>
                    <g id="g73">
                        <path id="path48" fill="#0073cf" stroke="none" d="M 452.927094 373.634827 L 425.959869 354.041962 L 435.756256 340.55835 Z"/>
                    </g>
                </g>
            </g>
            <g id="g74">
                <g id="g75">
                    <path id="path49" fill="#0073cf" stroke="none" d="M 413.739594 373.634827 L 440.706818 354.041962 L 430.91037 340.55835 Z"/>
                    <g id="g76">
                        <path id="path50" fill="#0073cf" stroke="none" d="M 413.739929 373.635071 L 424.040466 341.933167 L 439.891418 347.083435 Z"/>
                    </g>
                </g>
            </g>
        </g>
    </g>
</svg>
