<?xml version="1.0" encoding="UTF-8"?>
<!-- Generated by Pixelmator Pro 3.5.7 -->
<svg width="1200" height="600" viewBox="0 0 1200 600" xmlns="http://www.w3.org/2000/svg">
    <path id="Path" fill="#cf142b" stroke="none" d="M 0 0 L 1200 0 L 1200 600 L 0 600 Z"/>
    <g id="Group">
        <g id="a">
            <path id="path1" fill="#f9dd16" stroke="#000000" stroke-width="2" d="M 451.940002 252.692017 C 452.380005 253.141998 457.653992 256.329987 457.746002 256.152008 C 457.838013 255.976013 471.552002 252.812012 471.459991 252.98999 C 471.369995 253.166016 463.776001 262.190002 464.130005 262.373993 C 464.481995 262.556 472.063995 271.634003 472.23999 271.726013 C 472.415985 271.817993 457.880005 270.532013 457.880005 270.532013 L 448.265991 278.283997 L 446.114014 268.223999 C 446.114014 268.223999 434.019989 263.955994 433.843994 263.864014 C 433.667999 263.773987 444.194 260.294006 444.194 260.294006 L 447.334015 252.088013 C 447.334015 252.088013 451.406006 252.862 451.940002 252.692017 Z"/>
            <path id="path2" fill="#ffffff" stroke="#000000" stroke-width="2.6" d="M 628.932007 272.40799 C 628.960022 263.928009 612.262024 225.559998 609.512024 219.660004 C 604.39801 213.26001 598.986023 203.119995 596.659973 194.365997 C 595.153992 185.526001 590.426025 178.596008 583.762024 176.246002 C 576.072021 172.164001 568.562012 173.764008 561.333984 174.391998 C 557.789978 175.145996 554.755981 177.059998 553.044006 179.880005 C 549.140015 185.463989 547.018005 185.039978 544.317993 187.444 C 522.09198 190.90802 501.071991 202.377991 485.082001 210.195984 C 476.614014 216.074005 469.425995 219.488007 466.096008 220.205994 C 457.067993 220.23999 450.502014 215.962006 447.365997 213.686005 L 416.691986 185.794006 C 407.832001 179.179993 405.638 188.727997 407.339996 190.186005 C 410.299988 196.546021 403.894012 200.416016 428.216003 223.325989 L 437.428009 242.255981 C 437.428009 242.255981 436.917999 247.432007 437.346008 247.653992 C 441.786011 258.231995 448.839996 255.593994 452.170013 252.627991 L 459.395996 246.046021 C 459.395996 246.046021 473.716003 241.511993 473.940002 241.085999 C 489.298004 243.369995 528.869995 235.832001 535.393982 232.734009 C 541.273987 229.442017 541.650024 232.22998 546.744019 228.082001 C 551.004028 225.261993 548.661987 227.505981 556.530029 220.315979 C 558.952026 218.231995 560.869995 221.606018 561.320007 223.963989 C 561.76001 246.304016 564.494019 260.575989 566.531982 282.850006 L 599.997986 299.997986 Z"/>
            <path id="path3" fill="#f9dd16" stroke="none" d="M 435.678009 204.563995 C 435.984009 204.833984 430.149994 223.825989 430.149994 223.825989 C 430.149994 223.825989 424.772003 218.463989 424.817993 218.376007 L 428.584015 198.421997 L 435.678009 204.563995 Z"/>
            <g id="g1">
                <path id="path4" fill="none" stroke="#000000" stroke-width="2.26" d="M 435.843994 203.858002 C 435.578003 205.141998 434.447998 210.865997 433.921997 212.432007 C 433.481995 214.164001 433.088013 215.911987 432.79599 217.645996 C 432.256012 219.541992 432.019989 220.781982 431.420013 222.731995 C 431.227997 224.401978 430.877991 225.970001 430.451996 227.641998 M 426.75 195.149994 C 426.869995 195.395996 427.299988 197.119995 427.364014 198.22998 C 427.160004 199.393982 426.835999 203.563995 426.390015 204.976013 C 426.028778 206.536804 425.737823 208.113098 425.518005 209.700012 C 425.071991 211.414001 424.89801 212.539978 424.39801 214.299988 C 424.282013 215.820007 424.007996 217.23999 423.664001 218.752014"/>
                <path id="path5" fill="none" stroke="#000000" stroke-width="2" d="M 524.453979 193.27002 C 531.609985 201.234009 533.830017 214.177979 532.533997 221.424011 M 496.768005 240.444 L 496.89801 240.195984 C 496.492004 240.976013 496.806 240.529999 496.040009 238.799988 C 495.227997 237.903992 494.656006 233.549988 495.906006 231.143982 C 496.385986 229.916016 497.186005 228.067993 497.790009 226.903992 C 497.962006 226.574005 498.450012 226.244019 498.622009 225.911987 M 445.59201 213.557983 L 445.462006 213.806 L 444.946014 214.802002 C 444.276001 216.093994 443.372009 217.27002 442.757996 218.410004 C 442.109985 219.653992 441.112 220.716003 440.463989 221.962006 C 439.634003 223.126007 438.903992 224.671997 438.044006 225.876007 C 437.23999 227.307983 436.343994 228.328003 435.556 229.846008 C 434.876007 231.046021 434.328003 231.600006 433.623993 232.955994 L 435.556 229.846008 C 434.876007 231.046021 434.328003 231.600006 433.623993 232.955994 M 419.605988 189.315979 C 419.730011 189.549988 420.213989 191.175995 420.313995 192.213989 C 420.153992 193.294006 419.980011 197.174011 419.59201 198.477997 C 419.298004 199.927979 419.049988 201.395996 418.89801 202.858002 C 418.518005 204.444 418.385986 205.488007 417.95401 207.112 C 417.894012 208.531982 417.674011 209.846008 417.390015 211.246002 M 450.786011 235.112 C 449.105988 233.346008 448.119995 233.992004 447.040009 233.911987 C 445.843994 234.123993 443.671997 235.123993 441.466003 237.34198 C 440.660004 238.220001 439.984009 238.865997 438.917999 239.812012 C 438.437988 240.557983 438.044006 240.839996 437.514008 241.298004 M 576.952026 175.52002 L 576.822021 175.77002 C 577.228027 174.98999 576.934021 175.429993 577.302002 177.283997 C 577.786011 178.563995 577.843994 179.450012 578.380005 180.687988 M 550.838013 182.436005 C 550.752014 182.60199 550.533997 200.671997 551.281982 203.002014 C 551.505981 204.492004 551.90802 205.742004 552.116028 207.523987 C 552.117981 208.598022 552.369995 209.497986 552.445984 210.544006 C 553.057983 211.695984 553.185974 212.854004 553.814026 213.779999 C 554.119995 215.056 555.142029 215.108002 555.690002 216.298004 C 556.453979 217.122009 557.710022 218.575989 558.466003 219.227997 M 538.283997 231.906006 C 537.728027 231.716003 536.299988 230.585999 535.08197 229.97998 C 533.708008 229.203979 530.317993 225.160004 530.156006 222.309998"/>
                <path id="path6" fill="none" stroke="#000000" stroke-width="2" d="M 551.804016 206.26001 C 551.76001 206.343994 549.919983 208.156006 546.90802 211.218018 C 543.054016 214.783997 532.567993 220.921997 531.307983 221.417999 C 530.099976 221.963989 528.59198 223.278015 527.400024 223.463989 C 526.030029 224.01001 524.664001 224.223999 523.367981 224.531982 C 521.786011 224.865997 520.44397 225.153992 519.216003 225.221985 C 515.530029 226.825989 496.108002 226.201996 495.105988 225.984009 C 493.975464 225.970062 492.845886 225.911377 491.720001 225.807983 C 490.79599 226.028015 489.701996 225.936005 488.45401 226.007996 C 486.944 225.885986 486.078003 226.175995 484.808014 226.330017 C 483.808014 226.858002 482.141998 227.403992 481.015991 228.156006 C 479.471985 228.779999 478.536011 229.630005 477.470001 230.108002 C 476.362 231.023987 461.25 239.84198 460.518005 240.235992 C 458.932007 240.936005 453.238007 242.626007 451.812012 238.622009 C 451.446014 237.048004 450.720001 235.421997 450.675995 234.218018 C 450.217987 232.776001 450.477997 231.234009 450.553986 229.888 C 451.876007 223.067993 454.06601 220.382019 454.670013 219.218018 L 455.31601 217.973999 M 595.763977 192.877991 L 595.633972 193.126007 C 595.984009 192.453979 595.822021 192.806 594.867981 193.994019 C 593.895996 194.778015 592.695984 196.022003 591.814026 196.833984 C 590.921997 197.716003 590.065979 198.966003 589.265991 199.304016 C 588.461975 200.356018 587.445984 200.687988 586.348022 201.268005 C 585.022827 201.739594 583.751648 202.351044 582.55603 203.09198 C 580.916016 203.963989 579.895996 204.796021 578.375977 205.666016 C 577.435974 206.859985 576.484009 207.604004 575.687988 209.011993 C 574.900024 210.317993 574.114014 211.437988 573.369995 212.867981 L 571.559998 216.356018 L 573.369995 212.867981 L 571.559998 216.356018 M 583.138 288.447998 L 583.39801 287.947998 C 582.91803 288.869995 583.085999 288.627991 583.536011 287.074005 C 583.539978 285.208008 583.981995 282.951996 584.002014 281.306 C 584.281982 279.563995 584.565979 277.682007 584.583984 275.917999 C 584.478027 273.854004 584.481995 272.003998 584.174011 270.014008 C 584.150024 268.182007 583.934021 266.282013 583.880005 264.485992 C 583.848022 262.708008 583.713989 261.186005 583.328003 259.458008 C 583.294006 258.165985 583.213989 256.391998 582.89801 254.807983 C 583.067993 253.559998 582.711975 252.411987 582.445984 251.411987 C 581.963989 249.488007 581.776001 248.365997 581.27002 246.372009 C 580.963989 245.306 580.661987 243.940002 580.202026 242.34198 C 580.036011 240.825989 579.223999 238.858002 578.893982 237.552002 C 578.44397 236.59198 577.98999 235.291992 577.814026 234.14801 C 577.343994 233.09198 576.671997 231.806 576.487976 230.612 C 575.992004 229.701996 575.461975 228.287994 574.914001 226.947998 C 574.440002 225.848022 574.09198 224.492004 573.585999 223.414001 C 573.078003 222.054016 572.458008 220.890015 572.140015 219.502014 C 571.653992 219.029999 571.544006 218.514008 571.281982 218.108002"/>
            </g>
            <path id="path7" fill="#f9dd16" stroke="#000000" stroke-width="2" d="M 579.780029 183.471985 C 578.090027 187.335999 573.736023 192.97998 573.671997 193.104004 L 569.528015 201.388 C 567.703979 205.921997 568.867981 207.738007 569.664001 209.048004 C 571.314026 211.958008 571.604004 213.531982 572.823975 215.747986 C 573.283997 218.514008 568.375977 219.445984 568.309998 219.570007 C 558.090027 223.115997 552.906006 213.309998 552.85199 212.807983 C 551.466003 207.661987 551.645996 206.807983 554.778015 205.746002 C 558.369995 204.921997 559.812012 204.880005 561.590027 203.589996 C 564.953979 201.070007 567.330017 193.450012 567.393982 193.324005 C 567.458008 193.197998 567.89801 189.002014 567.89801 189.002014 C 568.159973 186.976013 567.223999 185.122009 568.257996 181.916016 C 569.60199 178.820007 570.409973 177.976013 573.59198 177.72998 C 577.73999 177.354004 580.960022 180.289978 579.780029 183.471985 Z"/>
        </g>
        <g id="g2">
            <g id="g3">
                <path id="path8" fill="#f9dd16" stroke="#000000" stroke-width="2" d="M 714.999939 195.430267 C 714.390198 195.586334 708.992371 198.559753 709.100464 198.728424 C 709.206909 198.896118 705.090027 212.354767 704.981873 212.186096 C 704.874451 212.020142 700.856445 200.931549 700.520081 201.146149 C 700.186462 201.359955 688.533691 203.387177 688.365967 203.493591 C 688.198364 203.600006 696.580017 191.65448 696.580017 191.65448 L 694.673645 179.452484 L 704.461792 182.618835 C 704.461792 182.618835 714.205017 174.279083 714.372681 174.172668 C 714.538635 174.065277 712.289429 184.921051 712.289429 184.921051 L 717.825989 191.743378 C 717.825989 191.743378 715.11969 194.882813 714.999939 195.430267 Z"/>
                <path id="path9" fill="#ffffff" stroke="#000000" stroke-width="2.6" d="M 609.429382 338.851868 C 616.759277 343.116119 658.335938 347.839233 664.820496 348.407654 C 672.920044 347.178772 684.407532 347.56189 693.151733 349.924438 C 701.560425 353.040222 709.925964 352.410706 715.293091 347.814514 C 722.673218 343.19577 725.042542 335.891907 728.112732 329.318237 C 729.23175 325.87204 729.091187 322.287537 727.504944 319.394928 C 724.621094 313.221954 726.049255 311.596252 725.317383 308.055969 C 733.43042 287.075684 734.007141 263.136841 735.231567 245.380096 C 734.375061 235.107605 735.012451 227.175598 736.055603 223.932739 C 740.540161 216.09726 747.528015 212.549957 751.067139 210.972076 L 790.559326 198.353607 C 800.717224 193.98764 793.54541 187.313568 791.431702 188.058533 C 784.443787 187.441956 784.295288 179.959229 752.29364 189.567688 L 731.293762 188.080536 C 731.293762 188.080536 727.066223 185.050842 726.659973 185.310516 C 715.279175 183.866669 714.036743 191.294586 714.940369 195.661469 L 717.027527 205.210358 C 717.027527 205.210358 713.794067 219.878845 714.051025 220.285828 C 704.394043 232.444275 691.136108 270.483612 690.557068 277.682556 C 690.468018 284.420776 687.86554 283.352448 688.910828 289.837952 C 689.223022 294.937256 688.450684 291.786987 690.743347 302.195892 C 691.337158 305.335419 687.456177 305.309418 685.189087 304.520142 C 665.62207 293.731201 651.895203 288.962921 631.586365 279.590851 L 600.002747 299.999268 Z"/>
                <path id="path10" fill="#f9dd16" stroke="none" d="M 764.810974 205.41098 C 764.424194 205.540985 750.893616 190.992584 750.893616 190.992584 C 750.893616 190.992584 758.226257 189.016113 758.27948 189.099915 L 773.677124 202.338409 L 764.810974 205.41098 Z"/>
                <g id="g4">
                    <path id="path11" fill="none" stroke="#000000" stroke-width="2.26" d="M 765.339417 205.907715 C 764.360413 205.03537 759.968323 201.194763 758.875122 199.956238 C 757.595154 198.709167 756.27832 197.493988 754.922668 196.374084 C 753.550659 194.958435 752.594788 194.134033 751.206055 192.639465 C 749.855774 191.638153 748.672852 190.551056 747.437866 189.34613 M 777.427795 202.386108 C 777.154724 202.367004 775.446716 201.877411 774.45343 201.377838 C 773.547363 200.619171 770.098022 198.253571 769.098206 197.161346 C 767.927124 196.068085 766.70752 195.027985 765.443115 194.044159 C 764.181702 192.800903 763.293579 192.087219 762.019348 190.7742 C 760.760986 189.913757 759.668274 188.966461 758.530823 187.912537"/>
                    <path id="path12" fill="none" stroke="#000000" stroke-width="2" d="M 730.203918 287.940216 C 719.728882 290.155518 707.409058 285.60611 701.781799 280.860718 M 703.192993 240.376465 L 703.342773 240.613068 C 702.8703 239.87146 703.099548 240.366364 704.980774 240.567993 C 706.16272 240.312775 710.21936 241.994415 711.67804 244.279968 C 712.501526 245.309631 713.701965 246.926483 714.407959 248.031555 C 714.607788 248.34549 714.649536 248.933136 714.851074 249.248077 M 752.064941 209.499756 L 751.915161 209.263184 L 751.310608 208.318298 C 750.526733 207.092072 749.960266 205.721191 749.280029 204.619415 C 748.526672 203.436218 748.105957 202.040955 747.350891 200.85675 C 746.757813 199.555969 745.783997 198.150757 745.171265 196.803986 C 744.33313 195.391693 743.897766 194.105743 742.977173 192.664307 C 742.277893 191.475433 742.072144 190.723846 741.249817 189.436157 L 742.977173 192.664307 C 742.277893 191.475433 742.072144 190.723846 741.249817 189.436157 M 786.052185 199.116211 C 785.787476 199.106598 784.137329 198.712738 783.188416 198.280365 C 782.33313 197.601776 779.059937 195.511108 778.124634 194.523102 C 777.015869 193.543488 775.868591 192.594696 774.678406 191.732086 C 773.494934 190.609985 772.656799 189.973633 771.46637 188.787537 C 770.266602 188.025604 769.238647 187.17807 768.168213 186.232117 M 730.801636 203.220886 C 733.171082 202.648956 733.104614 201.472046 733.713867 200.576752 C 734.128296 199.434998 734.348267 197.053986 733.530396 194.034546 C 733.173035 192.897522 732.951599 191.989075 732.665344 190.592896 C 732.259277 189.804199 732.212036 189.321991 732.080444 188.634003 M 719.326843 342.279877 L 719.175293 342.042267 C 719.647827 342.783905 719.413757 342.309265 717.624146 341.700958 C 716.273682 341.480133 715.477356 341.087341 714.137207 340.932526 M 726.394409 316.206482 C 726.29364 316.048981 710.753601 306.825195 708.361755 306.307953 C 706.959351 305.756958 705.675781 305.480133 704.028564 304.769257 C 703.097473 304.233948 702.192017 304.002197 701.248169 303.545013 C 699.944519 303.499023 698.877686 303.030853 697.761719 303.111786 C 696.503662 302.738739 695.947632 303.59787 694.643066 303.477417 C 693.547485 303.727051 691.660217 304.087799 690.71759 304.416504 M 689.829102 280.599365 C 690.271667 280.212891 691.964294 279.541168 693.098145 278.789337 C 694.457153 277.987457 699.654358 277.073608 702.203491 278.358337"/>
                    <path id="path13" fill="none" stroke="#000000" stroke-width="2" d="M 705.279236 305.131042 C 705.228455 305.050934 704.579224 302.551422 703.433472 298.411987 C 702.272217 293.291321 702.199585 281.141174 702.400024 279.801971 C 702.531189 278.482788 702.147217 276.519836 702.582092 275.394562 C 702.79425 273.93512 703.291931 272.645111 703.673218 271.368713 C 704.174927 269.831696 704.596558 268.525452 705.151672 267.428009 C 705.60553 263.433868 715.856934 246.925903 716.546753 246.167114 C 717.124084 245.195038 717.739685 244.246124 718.392151 243.322784 C 718.663635 242.412567 719.290283 241.511139 719.851929 240.394348 C 720.712585 239.147644 720.89447 238.252655 721.396057 237.075806 C 721.438843 235.945801 721.79895 234.22998 721.710754 232.878815 C 721.942322 231.229675 721.674194 229.99411 721.793274 228.831909 C 721.553955 227.414337 721.473389 209.917969 721.498169 209.087067 C 721.684937 207.363525 723.068359 201.587372 727.248901 202.354431 C 728.795044 202.824463 730.566162 203.008728 731.630859 203.572632 C 733.108704 203.896973 734.314087 204.893158 735.441772 205.631958 C 740.687073 210.186859 741.918213 213.426453 742.624268 214.531525 L 743.378601 215.712982 M 694.888367 349.892487 L 694.738586 349.655884 C 695.145569 350.295044 694.921692 349.97876 694.369873 348.558533 C 694.176941 347.324768 693.699585 345.663513 693.437378 344.493744 C 693.119568 343.280212 692.465027 341.913879 692.572327 341.052063 C 692.063232 339.829773 692.283691 338.783905 692.330383 337.54303 C 692.584595 336.159576 692.690674 334.752991 692.64679 333.347076 C 692.711609 331.490784 692.501099 330.191406 692.507629 328.440033 C 691.943604 327.028992 691.775269 325.83255 690.953918 324.439178 C 690.216858 323.10379 689.639954 321.863068 688.77356 320.503754 L 686.657837 317.19223 L 688.77356 320.503754 L 686.657837 317.19223 M 618.435303 291.173096 L 618.738342 291.648254 C 618.179871 290.771576 618.30542 291.038055 619.426208 292.204773 C 621.040222 293.141205 622.77301 294.652008 624.188477 295.49234 C 625.557129 296.605804 627.044983 297.792755 628.56366 298.690338 C 630.404053 299.630585 632.004272 300.559021 633.881653 301.287292 C 635.480164 302.182526 637.233643 302.945435 638.81604 303.796692 C 640.371826 304.657959 641.756897 305.302887 643.446411 305.832611 C 644.582336 306.449188 646.15863 307.266876 647.688416 307.785248 C 648.684204 308.556458 649.856445 308.822144 650.855469 309.091766 C 652.762695 309.636353 653.828369 310.034546 655.808228 310.593353 C 656.884399 310.861328 658.218384 311.282776 659.832275 311.683441 C 661.228149 312.297668 663.338501 312.578461 664.634583 312.945648 C 665.690979 313.035919 667.043762 313.292755 668.122498 313.712372 C 669.272034 313.833313 670.721741 313.894348 671.847778 314.332001 C 672.88385 314.357483 674.373413 314.605438 675.807861 314.800903 C 676.997498 314.940399 678.345825 315.316986 679.53241 315.417816 C 680.964233 315.657867 682.282288 315.702942 683.643311 316.121552 C 684.295105 315.936646 684.796936 316.099396 685.279541 316.07547"/>
                </g>
                <path id="path14" fill="#f9dd16" stroke="#000000" stroke-width="2" d="M 711.026184 340.752991 C 708.524902 337.357422 705.814026 330.76474 705.738647 330.647278 L 700.636475 322.916473 C 697.621948 319.069824 695.467224 319.169891 693.934753 319.204254 C 690.5896 319.178223 689.081482 318.642334 686.552368 318.590881 C 683.926941 317.606262 685.573853 312.889801 685.49939 312.77066 C 687.538513 302.146912 698.622742 302.560394 699.084473 302.764618 C 704.23407 304.137329 704.883667 304.720215 704.237366 307.963623 C 703.154968 311.486359 702.470337 312.756165 702.698486 314.940979 C 703.198914 319.114258 708.609985 324.981964 708.687134 325.100372 C 708.764221 325.218811 712.178101 327.697876 712.178101 327.697876 C 713.801697 328.937744 715.875244 329.054169 718.134766 331.552612 C 720.143982 334.264557 720.470886 335.386292 719.092957 338.264984 C 717.344543 342.045258 713.191895 343.365906 711.026184 340.752991 Z"/>
            </g>
        </g>
        <g id="g5">
            <g id="g6">
                <path id="path15" fill="#f9dd16" stroke="#000000" stroke-width="2" d="M 633.060059 451.877716 C 633.229797 451.271667 633.353638 445.11026 633.153503 445.119568 C 632.955078 445.127899 623.357971 434.833252 623.558167 434.823914 C 623.755554 434.813843 635.367554 436.878448 635.349915 436.479858 C 635.331543 436.084045 639.402344 424.978821 639.394043 424.780396 C 639.385681 424.582001 645.539978 437.813538 645.539978 437.813538 L 657.060364 442.263489 L 649.424194 449.157166 C 649.424194 449.157166 651.774963 461.764893 651.783325 461.963318 C 651.793335 462.160767 643.516602 454.784973 643.516602 454.784973 L 634.839966 456.16864 C 634.839966 456.16864 633.474304 452.255188 633.060059 451.877716 Z"/>
                <path id="path16" fill="#ffffff" stroke="#000000" stroke-width="2.6" d="M 561.638611 288.740143 C 554.280701 292.955872 529.402039 326.600769 525.66748 331.932343 C 522.681946 339.561218 516.606445 349.318115 510.188293 355.709534 C 503.285614 361.433777 499.648041 368.993286 500.944885 375.939514 C 501.254761 384.640259 506.395416 390.344086 510.553284 396.289734 C 512.978271 398.981934 516.152832 400.652466 519.45105 400.725098 C 526.238892 401.314026 526.932739 403.36377 530.364624 404.500031 C 544.4776 422.016327 564.920898 434.485168 579.686462 444.423889 C 589.010925 448.81839 595.561584 453.336395 597.848389 455.861267 C 602.391846 463.66275 601.969971 471.488037 601.566895 475.341919 L 592.748718 515.852417 C 591.450806 526.832397 600.816589 523.958435 601.228271 521.755432 C 605.256226 516.012024 611.81073 519.624756 619.490356 487.106293 L 631.278198 469.663483 C 631.278198 469.663483 636.015808 467.517151 635.994019 467.035492 C 642.934814 457.901337 637.123291 453.111389 632.889648 451.71051 L 623.576477 448.743652 C 623.576477 448.743652 612.489929 438.609131 612.008972 438.628174 C 606.307983 424.18573 579.993896 393.684387 574.04895 389.583435 C 568.257996 386.137207 570.484436 384.417542 564.345154 382.080017 C 559.772949 379.800781 562.887329 380.707031 552.726624 377.488098 C 549.710815 376.432587 551.673828 373.084595 553.490906 371.515869 C 572.61792 359.964783 583.610779 350.46109 601.881653 337.559143 L 599.999268 300.002747 Z"/>
                <path id="path17" fill="#f9dd16" stroke="none" d="M 599.510986 490.025024 C 599.591797 489.625 618.95636 485.181427 618.95636 485.181427 C 618.95636 485.181427 617.00177 492.519897 616.902527 492.524048 L 597.738892 499.239594 L 599.510986 490.025024 Z"/>
                <g id="g7">
                    <path id="path18" fill="none" stroke="#000000" stroke-width="2.26" d="M 598.816589 490.234253 C 600.061584 489.822632 605.583679 487.93924 607.202881 487.611755 C 608.922852 487.126831 610.633667 486.594025 612.281372 485.979919 C 614.193298 485.499542 615.385193 485.083954 617.373962 484.62854 C 618.916199 483.959839 620.449158 483.478943 622.110107 483.011871 M 595.822205 502.463898 C 595.975281 502.237 597.253296 501.002594 598.182556 500.392151 C 599.292664 499.986816 603.065979 498.182434 604.51178 497.862671 C 606.044128 497.395081 607.554688 496.858948 609.038879 496.255859 C 610.746277 495.785095 611.808411 495.372772 613.582642 494.925781 C 614.95697 494.266235 616.32373 493.793549 617.805176 493.335449"/>
                    <path id="path19" fill="none" stroke="#000000" stroke-width="2" d="M 545.342102 418.789764 C 548.661133 408.610474 558.760925 400.215881 565.684204 397.715271 M 600.039001 419.179535 L 599.759216 419.190948 C 600.637695 419.152557 600.094482 419.103638 598.979248 420.631989 C 598.609314 421.783203 595.124634 424.455566 592.415955 424.57605 C 591.112488 424.774353 589.112061 425.005554 587.802002 425.064453 C 587.430237 425.080505 586.900452 424.822876 586.526917 424.839905 M 602.343018 476.942261 L 602.622803 476.930847 L 603.743347 476.8797 C 605.197266 476.813934 606.667725 477.00882 607.961975 476.970581 C 609.363342 476.90976 610.782043 477.243042 612.18512 477.181244 C 613.608154 477.318024 615.312012 477.177246 616.784729 477.320007 C 618.42688 477.300293 619.75824 477.566254 621.466858 477.489685 C 622.846069 477.478577 623.599854 477.676147 625.126221 477.607849 L 621.466858 477.489685 C 622.846069 477.478577 623.599854 477.676147 625.126221 477.607849 M 594.341858 511.56781 C 594.482483 511.343384 595.648682 510.111267 596.49762 509.505646 C 597.512878 509.104218 600.960083 507.31488 602.283386 506.998901 C 603.686096 506.528503 605.081421 506.009308 606.423584 505.409912 C 607.987061 504.946014 608.957214 504.53833 610.579651 504.100464 C 611.839355 503.442413 613.087341 502.975952 614.441772 502.521881 M 618.412354 461.667114 C 617.722961 464.005066 618.775391 464.53595 619.246094 465.51123 C 620.02771 466.44104 621.979736 467.822021 625.003601 468.623474 C 626.166931 468.882477 627.064392 469.144897 628.416687 469.595093 C 629.302734 469.637817 629.743958 469.838013 630.405579 470.067993 M 503.721161 382.200134 L 504.002655 382.187714 C 503.124146 382.226105 503.652191 382.260742 505.073822 381.015045 C 505.940338 379.955872 506.67865 379.462646 507.482788 378.379456 M 522.767578 401.357544 C 522.954346 401.348999 538.712402 392.502808 540.356262 390.690063 C 541.534668 389.751038 542.416199 388.777893 543.855408 387.706726 C 544.784546 387.16803 545.437988 386.499786 546.305847 385.91098 C 546.997498 384.804993 547.93634 384.115112 548.424255 383.108215 C 549.376343 382.205261 548.910339 381.294128 549.666931 380.224579 C 549.998535 379.15097 550.629761 377.336182 550.816406 376.355499 M 571.886902 387.494629 C 572.000305 388.071106 571.735718 389.872833 571.819885 391.230652 C 571.834839 392.808533 570.027649 397.766388 567.640503 399.331665"/>
                    <path id="path20" fill="none" stroke="#000000" stroke-width="2" d="M 542.916748 388.608948 C 543.011536 388.605042 545.500793 389.292542 549.658508 390.369995 C 554.673767 391.924683 565.232422 397.936829 566.291992 398.780029 C 567.368835 399.553192 569.260803 400.202148 570.017883 401.141418 C 571.17572 402.054871 572.044067 403.13089 572.958801 404.099274 C 574.039063 405.302307 574.959473 406.320557 575.632324 407.349976 C 578.864441 409.740143 588.035034 426.872131 588.34729 427.848877 C 588.900452 428.8349 589.414429 429.842499 589.887817 430.869232 C 590.540344 431.559448 591.00769 432.552856 591.694031 433.597656 C 592.343384 434.96637 593.027527 435.57135 593.795898 436.594177 C 594.753174 437.196228 596.059021 438.366028 597.273254 438.965149 C 598.585693 439.990326 599.789795 440.375916 600.736755 441.060089 C 602.084045 441.561646 617.276611 450.240021 617.983826 450.676941 C 619.383057 451.70047 623.693665 455.786621 620.939087 459.02356 C 619.758972 460.127502 618.713806 461.569275 617.693115 462.209381 C 616.67334 463.327026 615.207886 463.872864 614.004211 464.480042 C 607.436951 466.745148 604.015808 466.191528 602.70575 466.250458 L 601.30542 466.313019 M 509.347656 357.229492 L 509.627411 357.218079 C 508.870422 357.250946 509.256256 357.21524 510.762115 357.447449 C 511.927063 357.897217 513.604431 358.314453 514.748596 358.672241 C 515.958435 359.003784 517.468994 359.120117 518.161682 359.643921 C 519.474792 359.814209 520.270325 360.528076 521.321594 361.188965 C 522.392578 362.10083 523.557678 362.895966 524.79718 363.560913 C 526.372375 364.545227 527.602905 365.012573 529.116394 365.893951 C 530.620422 366.111023 531.740723 366.563446 533.358093 366.548828 C 534.883118 366.578217 536.246033 366.698914 537.856445 366.628265 L 541.782166 366.451782 L 537.856445 366.628265 L 541.782166 366.451782 M 598.426697 320.378906 L 597.863647 320.403748 C 598.9021 320.358429 598.608582 320.333954 597.037781 320.721222 C 595.4198 321.650787 593.244995 322.395996 591.809509 323.20166 C 590.160889 323.8302 588.389038 324.525238 586.852356 325.391663 C 585.11792 326.515411 583.513733 327.436981 581.944336 328.6987 C 580.369812 329.635468 578.832336 330.772552 577.303955 331.717316 C 575.780151 332.634033 574.529114 333.511108 573.225586 334.709381 C 572.123657 335.384827 570.62738 336.341125 569.413574 337.406769 C 568.247803 337.883545 567.43158 338.765869 566.698547 339.496216 C 565.273315 340.875641 564.39563 341.599457 562.921753 343.034637 C 562.151611 343.832672 561.119629 344.777222 559.965698 345.974548 C 558.73584 346.876312 557.4375 348.563538 556.471436 349.50235 C 555.865051 350.37207 554.966248 351.415222 554.063477 352.139618 C 553.383972 353.074677 552.606262 354.299622 551.664246 355.05603 C 551.124146 355.940552 550.164612 357.106567 549.278137 358.251099 C 548.5625 359.211609 547.562195 360.190979 546.881592 361.168213 C 545.957764 362.288147 545.259705 363.407043 544.216675 364.376465 C 544.050903 365.033386 543.659058 365.386597 543.438477 365.816528"/>
                </g>
                <path id="path21" fill="#f9dd16" stroke="#000000" stroke-width="2" d="M 509.193787 375.775024 C 513.385071 375.30658 520.449951 376.25528 520.589355 376.248718 L 529.83551 375.695496 C 534.674072 375.008179 535.664795 373.092102 536.401245 371.747742 C 538.096375 368.86377 539.314514 367.825653 540.623657 365.661133 C 542.789063 363.87973 546.050171 367.664215 546.190613 367.659363 C 554.37146 374.737122 548.471252 384.129578 548.063538 384.427368 C 544.299927 388.200684 543.470337 388.471802 540.984619 386.290405 C 538.475037 383.591644 537.717651 382.363831 535.711487 381.468994 C 531.847107 379.815735 524.059998 381.568054 523.918884 381.575623 C 523.777771 381.583191 519.923889 383.30014 519.923889 383.30014 C 518.03833 384.086273 516.900757 385.823853 513.607239 386.531372 C 510.254059 386.915466 509.119141 386.637695 507.315094 384.005005 C 504.915466 380.600739 505.848083 376.344116 509.193787 375.775024 Z"/>
            </g>
        </g>
        <path id="path22" fill="#f9dd16" stroke="#000000" stroke-width="2.6" d="M 609.236023 338.73999 C 605.687988 336.93399 602.981995 336.574005 601.687988 337.447998 C 599.633972 325.955994 597.823975 314.450012 595.185974 302.993988 C 573.393982 293.920013 568.788025 291.847992 561.638 288.73999 C 564.976013 286.570007 566.642029 284.406006 566.530029 282.850006 C 577.51001 286.81601 588.380005 291.002014 599.619995 294.444 C 618.374023 280.109985 622.471985 277.156006 628.73999 272.518005 C 628.947998 276.493988 629.98999 279.018005 631.393982 279.701996 C 622.469971 287.226013 613.40802 294.54599 604.80603 302.562012 C 607.846008 325.970001 608.35199 330.993988 609.236023 338.73999 Z"/>
    </g>
</svg>
