<?xml version="1.0" encoding="UTF-8"?>
<!-- Generated by Pixelmator Pro 3.5.7 -->
<svg width="900" height="600" viewBox="0 0 900 600" xmlns="http://www.w3.org/2000/svg">
    <path id="Path" fill="#ff9933" stroke="none" d="M -0 0 L 900 0 L 900 600 L -0 600 Z"/>
    <path id="path1" fill="#ffffff" stroke="none" d="M -0 200 L 900 200 L 900 600 L -0 600 Z"/>
    <path id="path2" fill="#128807" stroke="none" d="M -0 400 L 900 400 L 900 600 L -0 600 Z"/>
    <g id="Group">
        <path id="path3" fill="#000088" stroke="none" d="M 530 300 C 530 344.1828 494.18277 380 450 380 C 405.81723 380 370 344.1828 370 300 C 370 255.81723 405.81723 220 450 220 C 494.18277 220 530 255.81723 530 300 Z"/>
        <path id="path4" fill="#ffffff" stroke="none" d="M 520 300 C 520 338.659943 488.659912 370 450 370 C 411.340088 370 380 338.659943 380 300 C 380 261.340057 411.340088 230 450 230 C 488.659912 230 520 261.340057 520 300 Z"/>
        <path id="path5" fill="#000088" stroke="none" d="M 464 300 C 464 307.731995 457.731964 314 450 314 C 442.268036 314 436 307.731995 436 300 C 436 292.268005 442.268036 286 450 286 C 457.731964 286 464 292.268005 464 300 Z"/>
        <g id="d">
            <g id="c">
                <g id="b">
                    <g id="a">
                        <path id="path6" fill="#000088" stroke="none" d="M 522.871643 309.593719 C 522.619324 311.510162 520.861145 312.859222 518.944702 312.606903 C 517.028259 312.354614 515.679199 310.596466 515.931519 308.680023 C 516.183777 306.76355 517.941956 305.41449 519.858398 305.666809 C 521.774841 305.919098 523.123901 307.677246 522.871643 309.593719 Z"/>
                        <path id="path7" fill="#000088" stroke="none" d="M 450 370 L 452.399994 328 L 450 308 L 447.600006 328 L 450 370 Z"/>
                    </g>
                    <g id="g1">
                        <g id="g2">
                            <path id="path8" fill="#000088" stroke="none" d="M 517.905579 328.12735 C 517.165833 329.913239 515.118408 330.761261 513.332581 330.021545 C 511.546722 329.28183 510.698639 327.234436 511.438385 325.448578 C 512.178101 323.66272 514.225525 322.814667 516.011353 323.554413 C 517.79718 324.294128 518.645264 326.341522 517.905579 328.12735 Z"/>
                            <path id="path9" fill="#000088" stroke="none" d="M 431.88266 367.614807 L 445.071289 327.667084 L 447.929443 307.727386 L 440.434845 326.424774 L 431.88266 367.614807 Z"/>
                        </g>
                    </g>
                </g>
                <g id="g3">
                    <g id="g4">
                        <g id="g5">
                            <path id="path10" fill="#000088" stroke="none" d="M 508.311798 344.744202 C 507.135101 346.277771 504.937958 346.567017 503.404419 345.390259 C 501.87085 344.213562 501.581635 342.016418 502.758331 340.48288 C 503.935059 338.94931 506.132202 338.660065 507.665741 339.836792 C 509.19931 341.013519 509.488556 343.210663 508.311798 344.744202 Z"/>
                            <path id="path11" fill="#000088" stroke="none" d="M 415 360.621765 L 438.078461 325.4487 L 446 306.928192 L 433.921539 323.048706 L 415 360.621765 Z"/>
                        </g>
                        <g id="g6">
                            <g id="g7">
                                <path id="path12" fill="#000088" stroke="none" d="M 494.744232 358.311768 C 493.210693 359.488525 491.01358 359.19928 489.836823 357.66571 C 488.660126 356.132141 488.949341 353.935059 490.48291 352.758301 C 492.016479 351.581604 494.213593 351.87085 495.390289 353.404358 C 496.567047 354.937927 496.277802 357.135071 494.744232 358.311768 Z"/>
                                <path id="path13" fill="#000088" stroke="none" d="M 400.502533 349.497498 L 431.898071 321.496063 L 444.34314 305.65686 L 428.503937 318.101929 L 400.502533 349.497498 Z"/>
                            </g>
                        </g>
                    </g>
                </g>
            </g>
            <g id="g8">
                <g id="g9">
                    <g id="g10">
                        <g id="g11">
                            <path id="path14" fill="#000088" stroke="none" d="M 478.127411 367.905518 C 476.341553 368.645264 474.294189 367.79718 473.554443 366.011353 C 472.814728 364.225464 473.66275 362.178101 475.448639 361.438354 C 477.234497 360.698608 479.28186 361.546692 480.021606 363.33252 C 480.761322 365.118408 479.9133 367.165771 478.127411 367.905518 Z"/>
                            <path id="path15" fill="#000088" stroke="none" d="M 389.378204 335 L 426.951294 316.078461 L 443.071777 304 L 424.55127 311.921539 L 389.378204 335 Z"/>
                        </g>
                        <g id="g12">
                            <g id="g13">
                                <path id="path16" fill="#000088" stroke="none" d="M 459.59375 372.871582 C 457.677277 373.123901 455.919159 371.774841 455.66687 369.858398 C 455.414551 367.941956 456.763641 366.183777 458.680054 365.931519 C 460.596527 365.679199 462.354645 367.028259 462.606964 368.944702 C 462.859283 370.861145 461.510223 372.619324 459.59375 372.871582 Z"/>
                                <path id="path17" fill="#000088" stroke="none" d="M 382.385162 318.11734 L 423.575226 309.565155 L 442.272583 302.070557 L 422.332916 304.928711 L 382.385162 318.11734 Z"/>
                            </g>
                        </g>
                    </g>
                    <g id="g14">
                        <g id="g15">
                            <g id="g16">
                                <path id="path18" fill="#000088" stroke="none" d="M 440.406281 372.871643 C 438.489838 372.619324 437.140778 370.861145 437.393066 368.944702 C 437.645386 367.028259 439.403534 365.679199 441.319977 365.931519 C 443.23645 366.183777 444.58548 367.941956 444.333221 369.858398 C 444.080902 371.774841 442.322754 373.123901 440.406281 372.871643 Z"/>
                                <path id="path19" fill="#000088" stroke="none" d="M 380 300 L 422 302.399994 L 442 300 L 422 297.600006 L 380 300 Z"/>
                            </g>
                            <g id="g17">
                                <g id="g18">
                                    <path id="path20" fill="#000088" stroke="none" d="M 421.87265 367.905518 C 420.086792 367.165833 419.238739 365.118408 419.978424 363.332581 C 420.71817 361.546692 422.765533 360.698669 424.551422 361.438354 C 426.33728 362.178101 427.185333 364.225525 426.445587 366.011353 C 425.705902 367.79718 423.658478 368.645264 421.87265 367.905518 Z"/>
                                    <path id="path21" fill="#000088" stroke="none" d="M 382.385162 281.88266 L 422.332916 295.071289 L 442.272583 297.929443 L 423.575226 290.434845 L 382.385162 281.88266 Z"/>
                                </g>
                            </g>
                        </g>
                    </g>
                </g>
            </g>
        </g>
        <g id="g19">
            <g id="g20">
                <g id="g21">
                    <g id="g22">
                        <g id="g23">
                            <path id="path22" fill="#000088" stroke="none" d="M 405.255829 358.311829 C 403.72226 357.135071 403.432983 354.937988 404.609741 353.404419 C 405.786469 351.87085 407.983612 351.581604 409.51712 352.758362 C 411.05069 353.935059 411.339935 356.132202 410.163208 357.665771 C 408.986481 359.19928 406.789337 359.488525 405.255829 358.311829 Z"/>
                            <path id="path23" fill="#000088" stroke="none" d="M 389.378204 265 L 424.55127 288.078461 L 443.071777 296 L 426.951294 283.921539 L 389.378204 265 Z"/>
                        </g>
                        <g id="g24">
                            <g id="g25">
                                <path id="path24" fill="#000088" stroke="none" d="M 391.688232 344.744263 C 390.511475 343.210693 390.800751 341.01358 392.334259 339.836823 C 393.867828 338.660095 396.064941 338.949371 397.241699 340.48291 C 398.418427 342.016449 398.12915 344.213562 396.595612 345.39032 C 395.062042 346.567017 392.86496 346.277771 391.688232 344.744263 Z"/>
                                <path id="path25" fill="#000088" stroke="none" d="M 400.502533 250.502533 L 428.503937 281.898071 L 444.34314 294.34314 L 431.898071 278.503937 L 400.502533 250.502533 Z"/>
                            </g>
                        </g>
                    </g>
                    <g id="g26">
                        <g id="g27">
                            <g id="g28">
                                <path id="path26" fill="#000088" stroke="none" d="M 382.094482 328.127411 C 381.354736 326.341553 382.202789 324.294159 383.988647 323.554443 C 385.774536 322.814728 387.821899 323.662781 388.561646 325.448639 C 389.301361 327.234497 388.453278 329.281891 386.66745 330.021606 C 384.881592 330.761322 382.834198 329.913269 382.094482 328.127411 Z"/>
                                <path id="path27" fill="#000088" stroke="none" d="M 415 239.378204 L 433.921539 276.951294 L 446 293.071808 L 438.078461 274.5513 L 415 239.378204 Z"/>
                            </g>
                            <g id="g29">
                                <g id="g30">
                                    <path id="path28" fill="#000088" stroke="none" d="M 377.128387 309.59375 C 376.876099 307.677307 378.225128 305.919159 380.141602 305.66684 C 382.058075 305.414551 383.816193 306.763611 384.068512 308.680084 C 384.320801 310.596527 382.971771 312.354675 381.055298 312.606964 C 379.138824 312.859283 377.380707 311.510223 377.128387 309.59375 Z"/>
                                    <path id="path29" fill="#000088" stroke="none" d="M 431.88266 232.385162 L 440.434845 273.575226 L 447.929443 292.272614 L 445.071289 272.332916 L 431.88266 232.385162 Z"/>
                                </g>
                            </g>
                        </g>
                    </g>
                </g>
                <g id="g31">
                    <g id="g32">
                        <g id="g33">
                            <g id="g34">
                                <path id="path30" fill="#000088" stroke="none" d="M 377.128387 290.406281 C 377.380707 288.489838 379.138824 287.140778 381.055298 287.393097 C 382.971771 287.645386 384.320801 289.403534 384.068481 291.319977 C 383.816193 293.23645 382.058075 294.58551 380.141602 294.333191 C 378.225128 294.080902 376.876099 292.322754 377.128387 290.406281 Z"/>
                                <path id="path31" fill="#000088" stroke="none" d="M 450 230 L 447.600006 272 L 450 292 L 452.399994 272 L 450 230 Z"/>
                            </g>
                            <g id="g35">
                                <g id="g36">
                                    <path id="path32" fill="#000088" stroke="none" d="M 382.094452 271.87265 C 382.834198 270.086761 384.881592 269.238739 386.66745 269.978455 C 388.453278 270.71817 389.301361 272.765564 388.561615 274.551422 C 387.821899 276.33728 385.774506 277.185333 383.988647 276.445587 C 382.202789 275.705872 381.354736 273.658478 382.094452 271.87265 Z"/>
                                    <path id="path33" fill="#000088" stroke="none" d="M 468.11734 232.385162 L 454.928711 272.332916 L 452.070557 292.272614 L 459.565155 273.575226 L 468.11734 232.385162 Z"/>
                                </g>
                            </g>
                        </g>
                        <g id="g37">
                            <g id="g38">
                                <g id="g39">
                                    <path id="path34" fill="#000088" stroke="none" d="M 391.688202 255.255829 C 392.864899 253.72226 395.062042 253.432983 396.595581 254.609741 C 398.12915 255.786469 398.418365 257.983612 397.241669 259.51712 C 396.064941 261.05069 393.867798 261.339935 392.334259 260.163208 C 390.80069 258.986481 390.511444 256.789337 391.688202 255.255829 Z"/>
                                    <path id="path35" fill="#000088" stroke="none" d="M 485 239.378204 L 461.921539 274.5513 L 454 293.071808 L 466.078461 276.951294 L 485 239.378204 Z"/>
                                </g>
                                <g id="g40">
                                    <g id="g41">
                                        <path id="path36" fill="#000088" stroke="none" d="M 405.255768 241.688232 C 406.789307 240.511475 408.98642 240.800751 410.163177 242.334259 C 411.339874 243.867828 411.050659 246.064941 409.51709 247.241699 C 407.983521 248.418427 405.786407 248.12915 404.609711 246.595612 C 403.432953 245.062042 403.722198 242.86496 405.255768 241.688232 Z"/>
                                        <path id="path37" fill="#000088" stroke="none" d="M 499.497467 250.502533 L 468.101929 278.503937 L 455.65686 294.34314 L 471.496063 281.898071 L 499.497467 250.502533 Z"/>
                                    </g>
                                </g>
                            </g>
                        </g>
                    </g>
                </g>
            </g>
        </g>
        <g id="g42">
            <g id="g43">
                <g id="g44">
                    <g id="g45">
                        <g id="g46">
                            <path id="path38" fill="#000088" stroke="none" d="M 421.872589 232.094482 C 423.658447 231.354736 425.705811 232.202789 426.445557 233.988647 C 427.185272 235.774536 426.33725 237.821899 424.551361 238.561646 C 422.765503 239.301361 420.71814 238.453278 419.978394 236.66745 C 419.238678 234.881592 420.0867 232.834198 421.872589 232.094482 Z"/>
                            <path id="path39" fill="#000088" stroke="none" d="M 510.621796 265 L 473.048706 283.921539 L 456.928223 296 L 475.44873 288.078461 L 510.621796 265 Z"/>
                        </g>
                        <g id="g47">
                            <g id="g48">
                                <path id="path40" fill="#000088" stroke="none" d="M 440.40625 227.128387 C 442.322723 226.876099 444.080841 228.225128 444.33313 230.141602 C 444.585449 232.058075 443.236359 233.816193 441.319946 234.068512 C 439.403473 234.320801 437.645355 232.971771 437.393036 231.055298 C 437.140717 229.138824 438.489777 227.380707 440.40625 227.128387 Z"/>
                                <path id="path41" fill="#000088" stroke="none" d="M 517.614807 281.88266 L 476.424774 290.434845 L 457.727417 297.929443 L 477.667084 295.071289 L 517.614807 281.88266 Z"/>
                            </g>
                        </g>
                    </g>
                    <g id="g49">
                        <g id="g50">
                            <g id="g51">
                                <path id="path42" fill="#000088" stroke="none" d="M 459.593719 227.128387 C 461.510162 227.380707 462.859222 229.138824 462.606934 231.055298 C 462.354614 232.971771 460.596466 234.320801 458.680023 234.068481 C 456.76355 233.816193 455.41452 232.058075 455.666779 230.141602 C 455.919098 228.225128 457.677246 226.876099 459.593719 227.128387 Z"/>
                                <path id="path43" fill="#000088" stroke="none" d="M 520 300 L 478 297.600006 L 458 300 L 478 302.399994 L 520 300 Z"/>
                            </g>
                            <g id="g52">
                                <g id="g53">
                                    <path id="path44" fill="#000088" stroke="none" d="M 478.12735 232.094452 C 479.913208 232.834198 480.761261 234.881592 480.021576 236.66745 C 479.28183 238.453278 477.234467 239.301361 475.448578 238.561615 C 473.66272 237.821899 472.814667 235.774506 473.554413 233.988647 C 474.294098 232.202789 476.341522 231.354736 478.12735 232.094452 Z"/>
                                    <path id="path45" fill="#000088" stroke="none" d="M 517.614807 318.11734 L 477.667084 304.928711 L 457.727417 302.070557 L 476.424774 309.565155 L 517.614807 318.11734 Z"/>
                                </g>
                            </g>
                        </g>
                    </g>
                </g>
                <g id="g54">
                    <g id="g55">
                        <g id="g56">
                            <g id="g57">
                                <path id="path46" fill="#000088" stroke="none" d="M 494.744171 241.688202 C 496.27774 242.864899 496.567017 245.062042 495.390259 246.595581 C 494.213531 248.12915 492.016388 248.418365 490.48288 247.241669 C 488.94931 246.064941 488.660065 243.867798 489.836792 242.334259 C 491.013519 240.80069 493.210663 240.511444 494.744171 241.688202 Z"/>
                                <path id="path47" fill="#000088" stroke="none" d="M 510.621796 335 L 475.44873 311.921539 L 456.928223 304 L 473.048706 316.078461 L 510.621796 335 Z"/>
                            </g>
                            <g id="g58">
                                <g id="g59">
                                    <path id="path48" fill="#000088" stroke="none" d="M 508.311768 255.255768 C 509.488525 256.789307 509.199249 258.98642 507.665741 260.163177 C 506.132172 261.339905 503.935059 261.050629 502.758301 259.51709 C 501.581573 257.983521 501.87085 255.786407 503.404388 254.609711 C 504.937958 253.432953 507.13504 253.722198 508.311768 255.255768 Z"/>
                                    <path id="path49" fill="#000088" stroke="none" d="M 499.497467 349.497498 L 471.496063 318.101929 L 455.65686 305.65686 L 468.101929 321.496063 L 499.497467 349.497498 Z"/>
                                </g>
                            </g>
                        </g>
                        <g id="g60">
                            <g id="g61">
                                <g id="g62">
                                    <path id="path50" fill="#000088" stroke="none" d="M 517.905518 271.872589 C 518.645264 273.658447 517.79718 275.705841 516.011353 276.445557 C 514.225464 277.185272 512.178101 276.337219 511.438354 274.551361 C 510.698639 272.765503 511.546722 270.718109 513.332581 269.978394 C 515.118408 269.238678 517.165833 270.086731 517.905518 271.872589 Z"/>
                                    <path id="path51" fill="#000088" stroke="none" d="M 485 360.621765 L 466.078461 323.048706 L 454 306.928192 L 461.921539 325.4487 L 485 360.621765 Z"/>
                                </g>
                                <g id="g63">
                                    <g id="g64">
                                        <path id="path52" fill="#000088" stroke="none" d="M 522.871643 290.40625 C 523.123901 292.322693 521.774841 294.080841 519.858398 294.33316 C 517.941956 294.585449 516.183777 293.236389 515.931458 291.319916 C 515.679199 289.403473 517.028259 287.645325 518.944702 287.393036 C 520.861145 287.140717 522.619324 288.489777 522.871643 290.40625 Z"/>
                                        <path id="path53" fill="#000088" stroke="none" d="M 468.11734 367.614807 L 459.565155 326.424774 L 452.070557 307.727386 L 454.928711 327.667084 L 468.11734 367.614807 Z"/>
                                    </g>
                                </g>
                            </g>
                        </g>
                    </g>
                </g>
            </g>
        </g>
    </g>
</svg>
