<?xml version="1.0" encoding="UTF-8"?>
<!-- Generated by Pixelmator Pro 3.5.7 -->
<svg width="1200" height="600" viewBox="0 0 1200 600" xmlns="http://www.w3.org/2000/svg">
    <path id="Path" fill="#ffffff" stroke="none" d="M 0 0 L 1200 0 L 1200 600 L 0 600 Z"/>
    <path id="a" fill="#012169" stroke="none" d="M 1200 521.762024 C 1186.553955 529.85199 1175.001953 548.757996 1139.280029 548.757996 C 1067.858032 548.757996 1049.998047 508.95401 996.426025 508.95401 C 960.713989 508.95401 942.856018 548.757996 907.143982 548.757996 C 835.713989 548.757996 817.857971 508.95401 764.286011 508.95401 C 728.572021 508.95401 710.713989 548.757996 675 548.757996 C 603.572021 548.757996 585.713989 508.95401 532.143982 508.95401 C 496.428009 508.95401 478.571991 548.757996 442.858002 548.757996 C 371.429993 548.757996 353.571991 508.95401 300 508.95401 C 264.283997 508.95401 246.427994 548.757996 210.714005 548.757996 C 139.285995 548.757996 121.428001 508.95401 67.858002 508.95401 C 32.141998 508.95401 21.427999 537.317993 -0 537.317993 L -0 588.559998 C 21.427999 588.559998 32.141998 560.197998 67.858002 560.197998 C 121.428001 560.197998 139.285995 600 210.714005 600 C 246.427994 600 264.283997 560.197998 300 560.197998 C 353.570007 560.197998 371.429993 600 442.858002 600 C 478.571991 600 496.428009 560.197998 532.143982 560.197998 C 585.713989 560.197998 603.572021 600 675 600 C 710.713989 600 728.572021 560.197998 764.286011 560.197998 C 817.857971 560.197998 835.713989 600 907.143982 600 C 942.856018 600 960.713989 560.197998 996.426025 560.197998 C 1049.998047 560.197998 1067.858032 600 1139.280029 600 C 1175.001953 600 1186.553955 588.719971 1200 580.632019 Z"/>
    <g id="Group">
        <path id="path1" fill="#012169" stroke="none" d="M 1200 422.256042 C 1186.553955 430.346008 1175.001953 449.252014 1139.280029 449.252014 C 1067.858032 449.252014 1049.998047 409.447998 996.426025 409.447998 C 960.713989 409.447998 942.856018 449.252014 907.143982 449.252014 C 835.713989 449.252014 817.857971 409.447998 764.286011 409.447998 C 728.572021 409.447998 710.713989 449.252014 675 449.252014 C 603.572021 449.252014 585.713989 409.447998 532.143982 409.447998 C 496.428009 409.447998 478.571991 449.252014 442.858002 449.252014 C 371.429993 449.252014 353.571991 409.447998 300 409.447998 C 264.283997 409.447998 246.427994 449.252014 210.714005 449.252014 C 139.285995 449.252014 121.428001 409.447998 67.858002 409.447998 C 32.141998 409.447998 21.427999 437.812012 0 437.812012 L 0 489.054016 C 21.427999 489.054016 32.141998 460.692017 67.858002 460.692017 C 121.428001 460.692017 139.285995 500.494019 210.714005 500.494019 C 246.427994 500.494019 264.283997 460.692017 300 460.692017 C 353.570007 460.692017 371.429993 500.494019 442.858002 500.494019 C 478.571991 500.494019 496.428009 460.692017 532.143982 460.692017 C 585.713989 460.692017 603.572021 500.494019 675 500.494019 C 710.713989 500.494019 728.572021 460.692017 764.286011 460.692017 C 817.857971 460.692017 835.713989 500.494019 907.143982 500.494019 C 942.856018 500.494019 960.713989 460.692017 996.426025 460.692017 C 1049.998047 460.692017 1067.858032 500.494019 1139.280029 500.494019 C 1175.001953 500.494019 1186.553955 489.213989 1200 481.126038 Z"/>
    </g>
    <g id="g1">
        <path id="path2" fill="#012169" stroke="none" d="M 1200 322.748016 C 1186.553955 330.837982 1175.001953 349.743988 1139.280029 349.743988 C 1067.858032 349.743988 1049.998047 309.940002 996.426025 309.940002 C 960.713989 309.940002 942.856018 349.743988 907.143982 349.743988 C 835.713989 349.743988 817.857971 309.940002 764.286011 309.940002 C 728.572021 309.940002 710.713989 349.743988 675 349.743988 C 603.572021 349.743988 585.713989 309.940002 532.143982 309.940002 C 496.428009 309.940002 478.571991 349.743988 442.858002 349.743988 C 371.429993 349.743988 353.571991 309.940002 300 309.940002 C 264.283997 309.940002 246.427994 349.743988 210.714005 349.743988 C 139.285995 349.743988 121.428001 309.940002 67.858002 309.940002 C 32.141998 309.940002 21.427999 338.303986 0 338.303986 L 0 389.54599 C 21.427999 389.54599 32.141998 361.18399 67.858002 361.18399 C 121.428001 361.18399 139.285995 400.985992 210.714005 400.985992 C 246.427994 400.985992 264.283997 361.18399 300 361.18399 C 353.570007 361.18399 371.429993 400.985992 442.858002 400.985992 C 478.571991 400.985992 496.428009 361.18399 532.143982 361.18399 C 585.713989 361.18399 603.572021 400.985992 675 400.985992 C 710.713989 400.985992 728.572021 361.18399 764.286011 361.18399 C 817.857971 361.18399 835.713989 400.985992 907.143982 400.985992 C 942.856018 400.985992 960.713989 361.18399 996.426025 361.18399 C 1049.998047 361.18399 1067.858032 400.985992 1139.280029 400.985992 C 1175.001953 400.985992 1186.553955 389.705963 1200 381.618011 Z"/>
    </g>
    <g id="g2">
        <path id="path3" fill="#012169" stroke="none" d="M 1200 223.242035 C 1186.553955 231.332001 1175.001953 250.238007 1139.280029 250.238007 C 1067.858032 250.238007 1049.998047 210.434021 996.426025 210.434021 C 960.713989 210.434021 942.856018 250.238007 907.143982 250.238007 C 835.713989 250.238007 817.857971 210.434021 764.286011 210.434021 C 728.572021 210.434021 710.713989 250.238007 675 250.238007 C 603.572021 250.238007 585.713989 210.434021 532.143982 210.434021 C 496.428009 210.434021 478.571991 250.238007 442.858002 250.238007 C 371.429993 250.238007 353.571991 210.434021 300 210.434021 C 264.283997 210.434021 246.427994 250.238007 210.714005 250.238007 C 139.285995 250.238007 121.428001 210.434021 67.858002 210.434021 C 32.141998 210.434021 21.427999 238.798004 0 238.798004 L 0 290.040009 C 21.427999 290.040009 32.141998 261.678009 67.858002 261.678009 C 121.428001 261.678009 139.285995 301.480011 210.714005 301.480011 C 246.427994 301.480011 264.283997 261.678009 300 261.678009 C 353.570007 261.678009 371.429993 301.480011 442.858002 301.480011 C 478.571991 301.480011 496.428009 261.678009 532.143982 261.678009 C 585.713989 261.678009 603.572021 301.480011 675 301.480011 C 710.713989 301.480011 728.572021 261.678009 764.286011 261.678009 C 817.857971 261.678009 835.713989 301.480011 907.143982 301.480011 C 942.856018 301.480011 960.713989 261.678009 996.426025 261.678009 C 1049.998047 261.678009 1067.858032 301.480011 1139.280029 301.480011 C 1175.001953 301.480011 1186.553955 290.199982 1200 282.11203 Z"/>
    </g>
    <g id="g3">
        <path id="path4" fill="#012169" stroke="none" d="M 1200 123.734009 C 1186.553955 131.823975 1175.001953 150.72998 1139.280029 150.72998 C 1067.858032 150.72998 1049.998047 110.925995 996.426025 110.925995 C 960.713989 110.925995 942.856018 150.72998 907.143982 150.72998 C 835.713989 150.72998 817.857971 110.925995 764.286011 110.925995 C 728.572021 110.925995 710.713989 150.72998 675 150.72998 C 603.572021 150.72998 585.713989 110.925995 532.143982 110.925995 C 496.428009 110.925995 478.571991 150.72998 442.858002 150.72998 C 371.429993 150.72998 353.571991 110.925995 300 110.925995 C 264.283997 110.925995 246.427994 150.72998 210.714005 150.72998 C 139.285995 150.72998 121.428001 110.925995 67.858002 110.925995 C 32.141998 110.925995 21.427999 139.289978 0 139.289978 L 0 190.531982 C 21.427999 190.531982 32.141998 162.169983 67.858002 162.169983 C 121.428001 162.169983 139.285995 201.971985 210.714005 201.971985 C 246.427994 201.971985 264.283997 162.169983 300 162.169983 C 353.570007 162.169983 371.429993 201.971985 442.858002 201.971985 C 478.571991 201.971985 496.428009 162.169983 532.143982 162.169983 C 585.713989 162.169983 603.572021 201.971985 675 201.971985 C 710.713989 201.971985 728.572021 162.169983 764.286011 162.169983 C 817.857971 162.169983 835.713989 201.971985 907.143982 201.971985 C 942.856018 201.971985 960.713989 162.169983 996.426025 162.169983 C 1049.998047 162.169983 1067.858032 201.971985 1139.280029 201.971985 C 1175.001953 201.971985 1186.553955 190.691956 1200 182.604004 Z"/>
    </g>
    <g id="g4">
        <path id="path5" fill="#012169" stroke="none" d="M 1200 24.226013 C 1186.553955 32.315979 1175.001953 51.221985 1139.280029 51.221985 C 1067.858032 51.221985 1049.998047 11.41803 996.426025 11.41803 C 960.713989 11.41803 942.856018 51.221985 907.143982 51.221985 C 835.713989 51.221985 817.857971 11.41803 764.286011 11.41803 C 728.572021 11.41803 710.713989 51.221985 675 51.221985 C 603.572021 51.221985 585.713989 11.41803 532.143982 11.41803 C 496.428009 11.41803 478.571991 51.221985 442.858002 51.221985 C 371.429993 51.221985 353.571991 11.41803 300 11.41803 C 264.283997 11.41803 246.427994 51.221985 210.714005 51.221985 C 139.285995 51.221985 121.428001 11.41803 67.858002 11.41803 C 32.141998 11.41803 21.427999 39.781982 0 39.781982 L 0 91.023987 C 21.427999 91.023987 32.141998 62.661987 67.858002 62.661987 C 121.428001 62.661987 139.285995 102.463989 210.714005 102.463989 C 246.427994 102.463989 264.283997 62.661987 300 62.661987 C 353.570007 62.661987 371.429993 102.463989 442.858002 102.463989 C 478.571991 102.463989 496.428009 62.661987 532.143982 62.661987 C 585.713989 62.661987 603.572021 102.463989 675 102.463989 C 710.713989 102.463989 728.572021 62.661987 764.286011 62.661987 C 817.857971 62.661987 835.713989 102.463989 907.143982 102.463989 C 942.856018 102.463989 960.713989 62.661987 996.426025 62.661987 C 1049.998047 62.661987 1067.858032 102.463989 1139.280029 102.463989 C 1175.001953 102.463989 1186.553955 91.18396 1200 83.096008 Z"/>
    </g>
    <path id="path6" fill="#ffffff" stroke="none" d="M 0 0 L 600 0 L 600 304 L 0 304 Z"/>
    <clipPath id="clipPath1">
        <path d="M 0 0 L 600 0 L 600 300 L 0 300 Z"/>
    </clipPath>
    <g id="g5" clip-path="url(#clipPath1)">
        <path id="path7" fill="#012169" stroke="none" d="M 0 0 L 600 0 L 600 300 L 0 300 Z"/>
        <path id="path8" fill="#000000" stroke="#ffffff" stroke-width="60" d="M 0 0 L 600 300 M 600 0 L 0 300"/>
        <clipPath id="clipPath2">
            <path d="M 0 0 L 0 150 L 700 150 L 700 300 L 600 300 Z M 600 0 L 300 0 L 300 400 L 0 400 L 0 300 Z"/>
        </clipPath>
        <path id="path9" fill="#000000" stroke="#c8102e" stroke-width="40" clip-path="url(#clipPath2)" d="M 0 0 L 600 300 M 600 0 L 0 300"/>
        <path id="path10" fill="#000000" stroke="#ffffff" stroke-width="100" d="M 300 0 L 300 400 M 0 150 L 700 150"/>
        <path id="path11" fill="#000000" stroke="#c8102e" stroke-width="60" d="M 300 0 L 300 400 M 0 150 L 700 150"/>
    </g>
    <path id="path12" fill="#a24300" stroke="#ffffff" stroke-width="2.830936" d="M 892.817078 159.057495 L 888.531311 566.197388 C 888.531311 587.625854 907.906799 587.625854 909.959534 566.197388 L 905.673828 159.057495 Z"/>
    <g id="g6">
        <g id="g7">
            <g id="d">
                <path id="path13" fill="#006d00" stroke="#ffffff" stroke-width="2.23875" d="M 937.134705 310.361115 L 923.650513 295.565979 L 920.323181 310.512421 L 914.464905 288.868317 L 908.988342 299.765869 L 908.017456 276.722046 L 902.540894 287.619598 L 901.569946 264.575562 L 896.093384 275.473114 L 892.973145 248.380157 L 887.496704 259.277924 L 884.376526 232.184998 L 878.900085 243.082764 L 875.779846 215.989838 L 874.219604 202.44339 L 876.957581 196.993774 L 883.994751 199.643341 L 895.329651 210.389893 L 917.999573 231.882935 L 903.926392 226.585297 L 926.596252 248.078094 L 912.52301 242.780457 L 935.192871 264.273285 L 921.11969 258.975647 L 941.640442 276.419769 L 927.5672 271.122131 L 948.08783 288.56601 L 934.014648 283.268402 L 949.648071 302.112457 L 933.425659 292.76593 Z"/>
                <path id="path14" fill="none" stroke="#000000" stroke-width="0.271364" d="M 937.13446 310.361206 L 876.957336 196.993835 M 917.999329 231.882996 L 885.554565 213.190155 L 878.89978 243.082855"/>
                <path id="path15" fill="none" stroke="#000000" stroke-width="0.271364" d="M 926.595947 248.078186 L 894.151245 229.385345 L 887.49646 259.278015"/>
                <path id="path16" fill="none" stroke="#000000" stroke-width="0.271364" d="M 935.192627 264.273346 L 902.747864 245.580505 L 896.093079 275.473206"/>
                <path id="path17" fill="none" stroke="#000000" stroke-width="0.271364" d="M 941.640137 276.41983 L 911.344543 261.775696 L 902.540649 287.61969"/>
                <path id="path18" fill="none" stroke="#000000" stroke-width="0.271364" d="M 948.087585 288.566101 L 917.792053 273.92218 L 908.988037 299.765961"/>
                <path id="path19" fill="none" stroke="#000000" stroke-width="0.271364" d="M 949.647827 302.112549 L 922.090393 282.019745 L 920.322876 310.512482"/>
            </g>
        </g>
        <g id="g8">
            <g id="g9">
                <path id="path20" fill="#006d00" stroke="#ffffff" stroke-width="2.494272" d="M 779.199585 117.124725 L 801.209717 125.518097 L 794.809692 108.873413 L 814.052368 127.833221 L 812.236084 114.227844 L 827.803162 136.950836 L 825.986877 123.345459 L 841.554199 146.068604 L 839.737915 132.463226 L 859.888977 158.225708 L 858.072449 144.620178 L 878.223511 170.382629 L 876.406982 156.7771 L 896.558044 182.539551 L 906.633728 195.420685 L 907.542664 202.224091 L 899.282532 202.947815 L 881.856079 197.593384 L 847.003052 186.884735 L 863.521301 185.43631 L 828.668518 174.727814 L 845.186768 173.279358 L 810.333984 162.570892 L 826.852234 161.122437 L 796.582947 153.453094 L 813.101196 152.004669 L 782.832214 144.33548 L 799.350464 142.887054 L 772.756531 131.454376 L 793.858582 133.045227 Z"/>
                <path id="path21" fill="none" stroke="#000000" stroke-width="0.302336" d="M 779.199829 117.124542 L 907.542847 202.223877 M 847.003296 186.884521 L 889.207031 190.066101 L 876.407166 156.776855"/>
                <path id="path22" fill="none" stroke="#000000" stroke-width="0.302336" d="M 828.668762 174.7276 L 870.872498 177.90918 L 858.072632 144.619934"/>
                <path id="path23" fill="none" stroke="#000000" stroke-width="0.302336" d="M 810.334229 162.570679 L 852.537964 165.752228 L 839.738098 132.463013"/>
                <path id="path24" fill="none" stroke="#000000" stroke-width="0.302336" d="M 796.583191 153.452911 L 834.20343 153.595306 L 825.987061 123.345245"/>
                <path id="path25" fill="none" stroke="#000000" stroke-width="0.302336" d="M 782.832397 144.335266 L 820.452393 144.477539 L 812.236267 114.227631"/>
                <path id="path26" fill="none" stroke="#000000" stroke-width="0.302336" d="M 772.756775 131.454163 L 811.285156 138.399078 L 794.809875 108.873199"/>
            </g>
        </g>
        <g id="g10">
            <g id="g11">
                <path id="path27" fill="#006d00" stroke="#ffffff" stroke-width="2.487968" d="M 1035.037476 145.546234 L 1016.701172 158.957855 L 1036.933838 161.20871 L 1008.711121 167.901581 L 1023.770508 172.386322 L 993.19165 174.602997 L 1008.250977 179.087738 L 977.671814 181.304535 L 992.731201 185.789276 L 956.978699 190.23996 L 972.03833 194.724579 L 936.285828 199.175262 L 951.345459 203.659882 L 915.592957 208.110565 L 897.716736 210.33606 L 890.185974 208.093994 L 893.003723 201.383392 L 906.167114 190.20578 L 932.493774 167.850311 L 926.860229 181.270355 L 953.186646 158.915009 L 947.553101 172.335052 L 973.879517 149.979706 L 968.245972 163.39975 L 989.399292 143.278168 L 983.765747 156.698212 L 1004.918762 136.576752 L 999.285278 149.996796 L 1022.794983 134.351288 L 1011.988098 150.005219 Z"/>
                <path id="path28" fill="none" stroke="#000000" stroke-width="0.301572" d="M 1035.037598 145.546478 L 890.186096 208.094238 M 932.493896 167.850555 L 910.880432 199.158295 L 951.345581 203.660156"/>
                <path id="path29" fill="none" stroke="#000000" stroke-width="0.301572" d="M 953.186768 158.915253 L 931.573303 190.222992 L 972.038452 194.724854"/>
                <path id="path30" fill="none" stroke="#000000" stroke-width="0.301572" d="M 973.879639 149.97995 L 952.266174 181.287689 L 992.731323 185.78952"/>
                <path id="path31" fill="none" stroke="#000000" stroke-width="0.301572" d="M 989.399414 143.278412 L 972.959045 172.352386 L 1008.251099 179.088013"/>
                <path id="path32" fill="none" stroke="#000000" stroke-width="0.301572" d="M 1004.918945 136.576996 L 988.478821 165.650848 L 1023.77063 172.386566"/>
                <path id="path33" fill="none" stroke="#000000" stroke-width="0.301572" d="M 1022.795105 134.351532 L 998.825256 161.183197 L 1036.93396 161.208984"/>
            </g>
        </g>
        <g id="g12">
            <g id="g13">
                <path id="path34" fill="#006d00" stroke="#ffffff" stroke-width="2.494257" d="M 1032.054199 281.000641 L 1009.236694 274.386871 L 1017.396179 290.453247 L 996.200073 273.09906 L 999.469055 286.502289 L 981.529053 265.109833 L 984.798035 278.513062 L 966.857788 257.120453 L 970.126709 270.523682 L 947.295898 246.467926 L 950.565125 259.871277 L 927.734375 235.815521 L 931.003601 249.218872 L 908.172791 225.163116 L 896.757263 213.135345 L 895.121948 206.433075 L 903.269287 205.058075 L 921.196411 209.009064 L 957.050842 216.910797 L 940.75824 219.661591 L 976.612427 227.563171 L 960.319824 230.313995 L 996.174011 238.215576 L 979.881409 240.9664 L 1010.845337 246.204956 L 994.552734 248.95578 L 1025.516357 254.194183 L 1009.223755 256.945007 L 1036.931885 266.221954 L 1015.748718 266.309601 Z"/>
                <path id="path35" fill="none" stroke="#000000" stroke-width="0.302334" d="M 1032.054077 281.000854 L 895.121765 206.433319 M 957.050659 216.911011 L 914.684692 217.086456 L 931.003418 249.219116"/>
                <path id="path36" fill="none" stroke="#000000" stroke-width="0.302334" d="M 976.612244 227.563416 L 934.246277 227.738861 L 950.564941 259.871521"/>
                <path id="path37" fill="none" stroke="#000000" stroke-width="0.302334" d="M 996.173828 238.21582 L 953.8078 238.391266 L 970.126526 270.523926"/>
                <path id="path38" fill="none" stroke="#000000" stroke-width="0.302334" d="M 1010.845093 246.20517 L 973.369385 249.043671 L 984.797852 278.513275"/>
                <path id="path39" fill="none" stroke="#000000" stroke-width="0.302334" d="M 1025.516113 254.194427 L 988.04071 257.03302 L 999.468872 286.502502"/>
                <path id="path40" fill="none" stroke="#000000" stroke-width="0.302334" d="M 1036.931641 266.222168 L 997.821472 262.359222 L 1017.395996 290.453491"/>
            </g>
        </g>
        <g id="g14">
            <g id="g15">
                <path id="path41" fill="#006d00" stroke="#ffffff" stroke-width="2.224072" d="M 794.313782 288.925781 L 805.766602 272.916656 L 788.299988 275.436157 L 809.87915 263.187256 L 796.082886 262.566895 L 820.889648 253.768005 L 807.093384 253.147675 L 831.90033 244.348602 L 818.104065 243.728271 L 846.58136 231.789337 L 832.784912 231.169159 L 861.262146 219.230225 L 847.465698 218.610077 L 875.942993 206.671143 L 890.181519 200.701569 L 897.080505 201.01123 L 896.637573 207.601685 L 888.854736 220.470947 L 873.289185 246.209656 L 874.173706 233.030212 L 858.608398 258.768738 L 859.49292 245.589294 L 843.927551 271.32782 L 844.812073 258.148407 L 832.91687 280.747253 L 833.801392 267.56781 L 821.906372 290.166473 L 822.790894 276.98703 L 807.667786 296.136047 L 812.222656 279.816742 Z"/>
                <path id="path42" fill="none" stroke="#000000" stroke-width="0.269584" d="M 794.313599 288.925598 L 897.080322 201.011047 M 873.289001 246.209442 L 882.398499 213.571014 L 847.465515 218.609863"/>
                <path id="path43" fill="none" stroke="#000000" stroke-width="0.269584" d="M 858.608215 258.768555 L 867.717651 226.130096 L 832.784729 231.168976"/>
                <path id="path44" fill="none" stroke="#000000" stroke-width="0.269584" d="M 843.927368 271.327637 L 853.036865 238.689209 L 818.103882 243.728058"/>
                <path id="path45" fill="none" stroke="#000000" stroke-width="0.269584" d="M 832.916687 280.74704 L 838.356018 251.248322 L 807.093201 253.147461"/>
                <path id="path46" fill="none" stroke="#000000" stroke-width="0.269584" d="M 821.906189 290.16629 L 827.345337 260.667725 L 796.082703 262.566711"/>
                <path id="path47" fill="none" stroke="#000000" stroke-width="0.269584" d="M 807.667603 296.135834 L 820.004944 266.947266 L 788.299805 275.435974"/>
            </g>
        </g>
        <g id="g16">
            <g id="e">
                <path id="path48" fill="#006d00" stroke="#ffffff" stroke-width="2.53439" d="M 1001.996643 77.890442 L 979.856201 92.712738 L 976.223572 76.820129 L 963.157471 98.795685 L 960.814636 88.21933 L 950.141479 110.759308 L 948.640869 100.381683 L 940.360962 123.486694 L 935.624695 112.345551 L 927.320068 140.456055 L 922.584167 129.314972 L 914.279053 157.425659 L 909.543091 146.284576 L 901.237976 174.395264 L 897.085205 188.450684 L 899.452637 194.022125 L 908.34198 191.107056 L 923.750916 179.707855 L 954.569092 156.909485 L 936.791931 162.738251 L 967.610107 139.939911 L 949.833008 145.768646 L 980.651184 122.970306 L 962.874023 128.799042 L 993.667114 111.006683 L 972.654907 116.071716 L 1005.840942 98.84433 L 985.670898 104.108124 L 1009.993774 84.788879 L 988.956421 94.859924 Z"/>
                <path id="path49" fill="none" stroke="#000000" stroke-width="0.307199" d="M 993.386414 85.88208 L 961.397766 113.415833 L 899.451965 194.022522"/>
                <path id="path50" fill="none" stroke="#000000" stroke-width="0.307199" d="M 947.80304 160.325317 L 912.493958 177.051727 L 909.517517 151.290741"/>
                <path id="path51" fill="none" stroke="#000000" stroke-width="0.307199" d="M 961.383179 143.482941 L 925.534973 160.082123 L 922.558594 134.321136"/>
                <path id="path52" fill="none" stroke="#000000" stroke-width="0.307199" d="M 974.154846 126.449768 L 938.57605 143.112518 L 935.869324 117.415161"/>
                <path id="path53" fill="none" stroke="#000000" stroke-width="0.307199" d="M 984.744568 113.9133 L 951.617065 126.142914 L 947.773621 105.188934"/>
                <path id="path54" fill="none" stroke="#000000" stroke-width="0.307199" d="M 996.951721 101.75882 L 961.397949 113.415619 L 960.014099 93.042328"/>
                <path id="path55" fill="none" stroke="#000000" stroke-width="0.307199" d="M 1001.680115 90.269775 L 968.806152 107.091064 L 975.153625 81.579529"/>
            </g>
        </g>
        <g id="g17">
            <g id="g18">
                <path id="path56" fill="#006d00" stroke="#ffffff" stroke-width="2.503989" d="M 881.999084 50.117432 L 891.886902 72.688599 L 904.636414 60.758667 L 902.439209 85.364319 L 910.860168 77.391602 L 906.278687 101.406006 L 913.860535 93.225281 L 906.894226 116.648804 L 917.700012 109.267242 L 907.715332 136.972198 L 918.520813 129.590576 L 908.536499 157.295898 L 919.341919 149.914246 L 909.357605 177.619568 L 904.365601 191.472412 L 898.962708 195.164185 L 893.149231 188.692108 L 886.925476 172.059174 L 874.477783 138.793152 L 886.10437 151.735474 L 873.656616 118.469482 L 885.283264 131.411804 L 872.83551 98.145813 L 884.462097 111.088135 L 868.996033 82.104126 L 883.846252 95.845215 L 865.995667 66.270447 L 880.006775 79.803528 L 870.987671 52.417603 L 882.81958 70.440674 Z"/>
                <path id="path57" fill="none" stroke="#000000" stroke-width="0.303514" d="M 884.491882 60.79541 L 895.062683 98.626068 L 898.963074 195.164856"/>
                <path id="path58" fill="none" stroke="#000000" stroke-width="0.303514" d="M 878.175781 144.74057 L 898.141846 174.839722 L 916.323914 154.196594"/>
                <path id="path59" fill="none" stroke="#000000" stroke-width="0.303514" d="M 876.817505 124.283722 L 897.32074 154.516052 L 915.502747 133.872925"/>
                <path id="path60" fill="none" stroke="#000000" stroke-width="0.303514" d="M 876.264832 104.026581 L 896.499634 134.192383 L 914.412903 113.482635"/>
                <path id="path61" fill="none" stroke="#000000" stroke-width="0.303514" d="M 874.843018 88.583923 L 895.678467 113.868683 L 911.681274 97.715271"/>
                <path id="path62" fill="none" stroke="#000000" stroke-width="0.303514" d="M 871.809448 72.742004 L 895.062622 98.625793 L 908.614441 81.865112"/>
                <path id="path63" fill="none" stroke="#000000" stroke-width="0.303514" d="M 874.752014 60.820557 L 892.583008 89.908966 L 902.65918 65.298706"/>
            </g>
        </g>
        <g id="g19">
            <path id="path64" fill="#006d00" stroke="#ffffff" stroke-width="2.342669" d="M 749.306885 216.231903 L 778.222839 196.207458 L 763.740906 188.741852 L 789.072266 193.067963 L 780.373352 181.597351 L 804.988159 190.793427 L 796.28894 179.323029 L 820.904053 188.519196 L 812.2052 177.048553 L 841.886169 187.109833 L 833.187256 175.639221 L 862.151367 190.57074 L 853.452454 179.100128 L 883.133118 189.161652 L 897.615662 196.627319 L 901.966064 202.362946 L 896.181885 206.367767 L 880.265686 208.641998 L 854.581909 219.233368 L 859.283936 210.051086 L 827.452393 214.599915 L 839.018738 206.59021 L 806.470337 216.009247 L 818.036682 207.999542 L 790.554138 218.283752 L 802.837585 205.403839 L 774.63855 220.558044 L 786.921692 207.678375 L 763.789063 223.697815 L 776.789063 205.947906 Z"/>
            <path id="path65" fill="none" stroke="#000000" stroke-width="0.28396" d="M 758.458984 210.853882 L 788.355408 197.937927 L 804.271301 195.663666 L 817.556824 195.436096 L 840.452454 196.850037 L 861.094543 197.750336 L 901.966064 202.362946"/>
            <path id="path66" fill="none" stroke="#000000" stroke-width="0.28396" d="M 858.567078 214.921326 L 881.408325 200.881348 L 858.130127 182.604797"/>
            <path id="path67" fill="none" stroke="#000000" stroke-width="0.28396" d="M 832.907043 212.825897 L 861.094543 197.75058 L 837.816345 179.473785"/>
            <path id="path68" fill="none" stroke="#000000" stroke-width="0.28396" d="M 814.640564 212.412201 L 840.452454 196.850037 L 816.979919 179.89325 M 780.421814 216.553345 L 804.271301 195.663666 L 785.05127 185.102081"/>
            <path id="path69" fill="none" stroke="#000000" stroke-width="0.28396" d="M 769.826782 217.9646 L 788.355408 197.937927 L 773.582092 192.451813 M 796.337463 214.278748 L 819.883972 195.447449 L 800.99231 182.655151"/>
        </g>
    </g>
    <path id="path70" fill="#9d9d9d" stroke="#000000" stroke-width="0.510713" d="M 850.60199 444.915985 L 900.526001 435.958008 L 952.531982 444.915985 L 928.401978 454.947998 L 883.885986 455.665985 Z"/>
    <path id="path71" fill="#c8102e" stroke="#000000" stroke-width="0.825349" d="M 900.906006 364.23999 C 892.179993 367.273987 882.513977 359.971985 866.778015 371.888 C 866.778015 371.888 839.343994 360.152008 837.26001 387.276001 C 837.177979 388.373993 841.604004 394.988007 842.219971 394.515991 C 845.666016 391.869995 840.58197 397.085999 840.58197 397.839996 C 840.58197 398.600006 841.088013 399.019989 841.26001 399.355988 C 841.426025 399.696014 841.848022 400.200012 841.932007 401.634003 C 842.015991 403.06601 838.823975 406.973999 840.171997 408.40799 C 841.518005 409.84201 841.60199 413.973999 841.60199 415.152008 C 841.60199 416.332001 842.445984 419.619995 843.036011 420.29599 C 843.624023 420.967987 844.635986 422.653992 844.635986 424.085999 C 844.635986 425.519989 845.226013 429.480011 844.969971 430.48999 C 844.719971 431.5 846.487976 432.765991 848.09198 433.269989 C 849.692017 433.778015 870.35199 434.135986 899.348022 433.630005 C 928.346008 433.123993 938.02002 437.712006 950 433.355988 C 951.85199 432.682007 952.190002 431.165985 952.023987 430.321991 C 951.85199 429.481995 952.023987 426.786011 952.530029 426.109985 C 953.033997 425.436005 956.406006 420.041992 955.72998 419.029999 C 956.366028 418.455994 961.096008 421.761993 958.083984 418.809998 C 957.312012 418.053986 958.515991 410.085999 958.932007 408.410004 C 959.35199 406.727997 959.992004 403.570007 960.765991 402.984009 C 961.541992 402.39801 959.450012 400.20401 959.598022 399.808014 C 959.747986 399.40799 960.312012 398.171997 961.098022 397.608002 C 961.098022 397.608002 962.559998 390.753998 961.65802 387.385986 C 960.763977 384.014008 957.468018 368.850006 936.901978 371.885986 C 936.901978 371.885986 909.369995 361.298004 900.906006 364.23999 Z"/>
    <g id="g20">
        <g id="g21">
            <g id="f">
                <path id="path72" fill="#f7d917" stroke="#000000" stroke-width="0.420222" d="M 865.701843 381.732056 C 864.35321 382.21283 862.997681 393.796387 864.161865 397.534088 C 864.967712 400.121582 865.938904 401.869629 866.499512 402.945496 C 865.338013 401.155914 862.710693 397.727386 859.739746 397.994019 C 856.004089 398.329254 856.995056 410.34613 857.182007 411.108307 C 857.182617 411.111084 857.182739 411.118774 857.183594 411.121094 C 857.184082 411.122681 857.192871 411.131165 857.193604 411.132751 L 857.202087 411.131958 C 857.334473 410.831055 858.236755 405.746155 861.931702 405.414551 C 864.36377 405.196289 866.605469 407.838867 867.448975 408.974243 C 867.495239 409.352051 867.546448 409.716553 867.594421 410.085754 C 867.18573 411.265564 867.166199 413.976868 865.890015 417.501862 C 864.347656 421.76178 858.139771 422.741333 857.09314 422.876892 L 870.634827 421.661621 C 870.647644 421.660461 870.664795 421.660126 870.67749 421.657776 C 870.683594 421.65802 870.688354 421.656403 870.694397 421.65625 C 870.707397 421.656311 870.724243 421.653564 870.737366 421.652405 L 884.278809 420.437134 C 883.221985 420.490356 876.791443 420.64502 874.245728 416.751984 C 872.138733 413.530609 871.579163 410.871277 870.89209 409.789795 C 870.84906 409.420166 870.810425 409.054565 870.763855 408.676758 C 871.312195 407.416443 872.861389 404.433685 875.293762 404.215393 C 878.988403 403.88382 881.109253 408.697449 881.312073 408.968262 L 881.320557 408.967499 C 881.320862 408.96582 881.327393 408.955963 881.327454 408.954346 C 881.327759 408.951904 881.325989 408.944366 881.325928 408.941528 C 881.323181 408.162842 879.366089 396.232666 875.630737 396.567871 C 872.659485 396.834534 870.9245 400.654572 870.224487 402.611206 C 870.510559 401.459351 870.975281 399.077576 871.103333 396.911133 C 871.335327 392.987091 867.162354 381.603821 865.770203 381.725922 C 865.748291 381.727905 865.723267 381.724487 865.701843 381.732056 Z M 866.542908 403.017578 C 866.663269 403.204865 866.768799 403.365967 866.853699 403.507507 C 866.855469 403.51059 867.148132 404.684479 867.150085 404.687134 C 867.152405 404.712799 868.369629 408.695129 868.371948 408.720825 C 868.280518 408.570557 866.665405 403.249146 866.542908 403.017578 Z M 870.199585 402.689423 C 870.135864 402.937683 869.792114 408.434906 869.739197 408.598114 C 869.735229 408.572601 870.020142 403.261749 870.016174 403.236237 C 870.015686 403.232239 870.042603 404.432007 870.042053 404.427612 C 870.090576 404.274078 870.127197 402.893982 870.199585 402.689423 Z"/>
                <path id="path73" fill="#f7d917" stroke="#000000" stroke-width="0.420222" d="M 866.903015 408.890625 C 866.903015 408.890625 867.90509 408.049255 868.998657 407.951111 C 870.092224 407.852966 871.277283 408.498077 871.277283 408.498077 L 871.521057 410.478333 C 871.521057 410.478333 870.335999 409.833221 869.242432 409.931366 C 868.148865 410.02951 867.14679 410.870911 867.14679 410.870911 Z"/>
            </g>
        </g>
        <g id="g22">
            <g id="g23">
                <path id="path74" fill="#f7d917" stroke="#000000" stroke-width="0.338618" d="M 933.983154 382.41217 C 932.564087 382.602051 928.829651 393.650787 929.191162 397.548889 C 929.441406 400.247437 930.027893 402.159241 930.352539 403.328156 C 929.588562 401.336182 927.731567 397.436279 924.770081 397.079376 C 921.046448 396.630615 919.51709 408.591095 919.541504 409.375488 C 919.541504 409.378326 919.540039 409.385864 919.540344 409.388336 C 919.540527 409.389954 919.547302 409.400116 919.547729 409.401794 L 919.556152 409.402802 C 919.74823 409.135986 921.68811 404.349731 925.371216 404.793579 C 927.795532 405.085754 929.438782 408.136688 930.027771 409.422638 C 929.994446 409.801849 929.96875 410.169006 929.938904 410.5401 C 929.293823 411.609192 928.710999 414.257233 926.729736 417.439911 C 924.335388 421.286133 918.059509 420.953583 917.007507 420.868591 L 930.50592 422.4953 C 930.518738 422.496857 930.535522 422.500092 930.548462 422.500427 C 930.554382 422.501953 930.559387 422.501343 930.565308 422.502472 C 930.578003 422.505219 930.595032 422.506042 930.608093 422.507629 L 944.106201 424.134338 C 943.061462 423.966675 936.739319 422.780975 935.058716 418.443665 C 933.667542 414.854553 933.673157 412.136963 933.226013 410.936249 C 933.260803 410.565735 933.299011 410.200073 933.332031 409.820862 C 934.130432 408.702087 936.26593 406.106567 938.690552 406.398743 C 942.373352 406.84259 943.447021 411.992004 943.58905 412.299072 L 943.597473 412.30011 C 943.598145 412.298584 943.606628 412.290253 943.606995 412.288696 C 943.607788 412.286346 943.607605 412.278625 943.608154 412.275848 C 943.767395 411.51358 944.333679 399.437042 940.610229 398.988342 C 937.648499 398.631409 935.157227 402.007263 934.065613 403.775635 C 934.584961 402.708435 935.534729 400.475281 936.110413 398.382751 C 937.153259 394.592651 935.438416 382.590393 934.05127 382.420349 C 934.02948 382.417725 934.005676 382.40918 933.983154 382.41217 Z M 930.380066 403.407715 C 930.458862 403.615906 930.528564 403.795441 930.582153 403.951538 C 930.583191 403.954926 930.625427 405.164001 930.62677 405.167023 C 930.623718 405.192627 930.986328 409.341064 930.983276 409.366638 C 930.925049 409.200684 930.451721 403.659668 930.380066 403.407715 Z M 934.024963 403.846985 C 933.911072 404.076538 932.431763 409.382263 932.34613 409.530884 C 932.347534 409.505127 933.730469 404.369507 933.731934 404.343689 C 933.732239 404.339691 933.509094 405.51886 933.509521 405.514435 C 933.588928 405.374359 933.911621 404.032043 934.024963 403.846985 Z"/>
                <path id="path75" fill="#f7d917" stroke="#000000" stroke-width="0.338618" d="M 929.511108 409.227356 C 929.511108 409.227356 930.666199 408.612671 931.756287 408.74408 C 932.846375 408.875427 933.871399 409.752838 933.871399 409.752838 L 933.69812 411.74054 C 933.69812 411.74054 932.673096 410.863129 931.583008 410.73175 C 930.49292 410.600403 929.33783 411.215057 929.33783 411.215057 Z"/>
            </g>
        </g>
        <g id="g24">
            <g id="g25">
                <g id="g26">
                    <path id="path76" fill="#f7d917" stroke="#000000" stroke-width="0.393336" d="M 840.876343 401.61615 L 846.20697 395.117035 C 846.20697 395.117035 846.703735 395.759583 846.20697 395.117035 C 835.27832 380.98938 834.725403 372.883911 835.955505 368.77948 C 837.185547 364.675049 839.64624 360.228424 846.20697 354.75528 C 852.7677 349.282684 857.295227 352.32428 863.445557 352.32428 C 869.596436 352.32428 871.236877 353.692444 876.567017 354.37677 C 881.897644 355.060608 896.249207 355.744934 896.249207 355.744934 L 896.249207 351.982117 C 896.249207 351.982117 896.815247 352.087738 896.249207 351.982117 C 889.912903 350.801025 881.897644 351.982117 876.567017 350.613953 C 871.236877 349.245819 866.725891 348.904205 860.985413 348.904205 C 855.244873 348.904205 851.127258 347.230164 847.437073 349.624878 C 843.746277 352.018982 839.23584 356.123413 835.955505 359.544067 C 832.67511 362.964722 831.035217 369.805481 831.445068 374.252075 C 831.855469 378.6987 833.495361 382.461517 835.955505 385.881622 C 838.416199 389.302246 838.005798 392.038574 838.82605 394.432678 C 839.64624 396.827362 840.876343 401.957764 840.876343 401.61615 Z M 959.122986 401.61615 L 953.792297 395.117035 C 953.792297 395.117035 953.294983 395.759583 953.792297 395.117035 C 964.720398 380.98938 965.273315 372.883911 964.043213 368.77948 C 962.813171 364.675049 960.353027 360.228424 953.792297 354.75528 C 947.231567 349.282684 942.704102 352.32428 936.553162 352.32428 C 930.402283 352.32428 928.76239 353.692444 923.431702 354.37677 C 918.101074 355.060608 903.749512 355.744934 903.749512 355.744934 L 903.749512 351.982117 C 903.749512 351.982117 903.183472 352.087738 903.749512 351.982117 C 910.086365 350.801025 918.101074 351.982117 923.431702 350.613953 C 928.76239 349.245819 933.272827 348.904205 939.013306 348.904205 C 944.754395 348.904205 948.87146 347.230164 952.562256 349.624878 C 956.252441 352.018982 960.762878 356.123413 964.043213 359.544067 C 967.323608 362.964722 968.96405 369.805481 968.55365 374.252075 C 968.143799 378.6987 966.503357 382.461517 964.043213 385.881622 C 961.58313 389.302246 961.99292 392.038574 961.173279 394.432678 C 960.353027 396.827362 959.122986 401.957764 959.122986 401.61615 Z"/>
                    <path id="path77" fill="#f7d917" stroke="#000000" stroke-width="0.45935" d="M 891.072021 348.882202 L 910.085815 348.882202 L 910.085815 387.882385 L 891.072021 387.882385 Z"/>
                </g>
                <g id="g27">
                    <path id="path78" fill="#f7d917" stroke="#000000" stroke-width="0.27506" d="M 893.344543 314.499695 C 893.344543 314.499695 895.390991 316.165466 896.961609 318.307617 C 898.532776 320.449249 899.627502 323.067261 899.627502 323.067261 C 899.627502 323.067261 897.00946 321.972534 894.867859 320.401367 C 892.725647 318.83078 891.059937 316.784332 891.059937 316.784332 L 891.059937 331.253601 C 891.059937 331.253601 892.725647 329.207153 894.867859 327.636566 C 897.00946 326.06543 899.627502 324.970673 899.627502 324.970673 C 899.627502 324.970673 898.783569 327.131012 898.238953 329.730865 C 897.74884 332.068878 893.737366 337.467743 893.737366 337.467743 L 905.456543 338.253876 C 905.456543 338.253876 903.508057 332.068878 902.723022 329.730865 C 901.878052 327.212402 901.530884 324.970673 901.530884 324.970673 C 901.530884 324.970673 904.148926 326.06543 906.291077 327.636566 C 908.432678 329.207153 910.09845 331.253601 910.09845 331.253601 L 910.09845 316.784332 C 910.09845 316.784332 908.432678 318.83078 906.291077 320.401367 C 904.148926 321.972534 901.530884 323.067261 901.530884 323.067261 C 901.530884 323.067261 902.62561 320.449249 904.196777 318.307617 C 905.767395 316.165466 907.813843 314.499695 907.813843 314.499695 Z"/>
                    <path id="path79" fill="#f7d917" stroke="#000000" stroke-width="0.27506" d="M 910.009888 340.28656 C 910.009888 345.494995 905.787598 349.717285 900.579224 349.717285 C 895.370728 349.717285 891.148499 345.494995 891.148499 340.28656 C 891.148499 335.078125 895.370728 330.855865 900.579224 330.855865 C 905.787598 330.855865 910.009888 335.078125 910.009888 340.28656 Z"/>
                    <path id="path80" fill="#f7d917" stroke="#000000" stroke-width="0.27506" d="M 891.358643 341.639313 L 910.118835 341.639313 C 910.118835 341.639313 910.390564 338.010712 909.032898 336.653015 L 903.204895 336.653015 L 903.106445 331.21344 L 897.582153 331.21344 L 897.483643 336.653015 C 897.483643 336.653015 893.562988 336.849426 891.756897 336.849426 C 890.937805 339.072449 891.063782 339.259491 891.063782 339.259491 Z"/>
                </g>
                <g id="g28">
                    <path id="path81" fill="#f7d917" stroke="#000000" stroke-width="0.41259" d="M 888.499634 386.576416 C 888.499634 386.576416 891.916992 389.357819 894.539429 392.934143 C 897.161865 396.510498 898.989868 400.881165 898.989868 400.881165 C 898.989868 400.881165 894.618652 399.053131 891.042847 396.430725 C 887.466553 393.808289 884.68512 390.39093 884.68512 390.39093 L 884.68512 414.550018 C 884.68512 414.550018 887.466553 411.13324 891.042847 408.510254 C 894.618652 405.887817 898.989868 404.059784 898.989868 404.059784 C 898.989868 404.059784 897.161865 408.43103 894.539429 412.007385 C 891.916992 415.58313 888.499634 418.365112 888.499634 418.365112 L 912.658752 418.365112 C 912.658752 418.365112 909.241394 415.58313 906.618958 412.007385 C 903.996521 408.43103 902.168457 404.059784 902.168457 404.059784 C 902.168457 404.059784 906.539734 405.887817 910.11554 408.510254 C 913.691833 411.13324 916.473267 414.550018 916.473267 414.550018 L 916.473267 390.39093 C 916.473267 390.39093 913.691833 393.808289 910.11554 396.430725 C 906.539734 399.053131 902.168457 400.881165 902.168457 400.881165 C 902.168457 400.881165 903.996521 396.510498 906.618958 392.934143 C 909.241394 389.357819 912.658752 386.576416 912.658752 386.576416 Z M 842.489258 427.592834 L 854.38562 425.495209 C 854.38562 425.495209 850.537537 423.349182 847.333618 420.282837 C 844.1297 417.216431 841.570557 413.229187 841.570557 413.229187 C 841.570557 413.229187 846.192688 414.27002 850.170044 416.23175 C 854.1474 418.193481 857.480042 421.076111 857.480042 421.076111 L 853.284851 397.283936 C 853.284851 397.283936 851.138794 401.132019 848.072449 404.335938 C 845.006042 407.539856 841.018799 410.09845 841.018799 410.09845 C 841.018799 410.09845 842.059631 405.476898 844.021362 401.499512 C 845.983093 397.522156 848.865723 394.189514 848.865723 394.189514 L 836.96936 396.28714 Z M 952.292664 394.189514 C 952.292664 394.189514 955.175293 397.522156 957.137024 401.499512 C 959.098755 405.476898 960.139587 410.09845 960.139587 410.09845 C 960.139587 410.09845 956.152283 407.539856 953.085938 404.335938 C 950.019592 401.132019 947.873535 397.283936 947.873535 397.283936 L 943.678345 421.076111 C 943.678345 421.076111 947.010986 418.193481 950.988342 416.23175 C 954.965698 414.27002 959.58783 413.229187 959.58783 413.229187 C 959.58783 413.229187 957.028625 417.216431 953.824768 420.282837 C 950.621399 423.349182 946.772766 425.495209 946.772766 425.495209 L 958.669128 427.592834 L 964.189026 396.28714 Z"/>
                    <path id="path82" fill="#f7d917" stroke="#000000" stroke-width="0.41259" d="M 842.612488 426.356689 L 842.695007 443.688782 C 842.695007 443.688782 871.657715 433.826233 900.620422 433.826233 C 929.583191 433.826233 958.545898 443.688782 958.545898 443.688782 L 958.545898 426.356689 C 958.545898 426.356689 929.562805 416.493591 900.579224 416.493591 C 871.595581 416.493591 842.612488 426.356689 842.612488 426.356689 Z"/>
                </g>
            </g>
            <g id="g29">
                <g id="g30">
                    <path id="g" fill="#ffffff" stroke="#000000" stroke-width="0.363756" d="M 839.926636 392.387146 C 839.94104 393.971985 839.103821 395.442596 837.733643 396.239197 C 836.363525 397.035828 834.671265 397.035828 833.301086 396.239197 C 831.930969 395.442596 831.093689 393.971985 831.108093 392.387146 C 831.093689 390.802338 831.930969 389.331726 833.301086 388.535095 C 834.671265 387.738495 836.363525 387.738495 837.733643 388.535095 C 839.103821 389.331726 839.94104 390.802338 839.926636 392.387146 Z"/>
                </g>
                <g id="g31">
                    <path id="path83" fill="#ffffff" stroke="#000000" stroke-width="0.363756" d="M 834.270874 382.329865 C 834.285217 383.914673 833.447998 385.385315 832.077881 386.181915 C 830.707703 386.978516 829.015442 386.978516 827.645325 386.181915 C 826.275146 385.385315 825.437927 383.914673 825.452332 382.329865 C 825.437927 380.745056 826.275146 379.274414 827.645325 378.477814 C 829.015442 377.681213 830.707703 377.681213 832.077881 378.477814 C 833.447998 379.274414 834.285217 380.745056 834.270874 382.329865 Z"/>
                </g>
                <g id="g32">
                    <path id="path84" fill="#ffffff" stroke="#000000" stroke-width="0.363756" d="M 833.091919 370.54187 C 833.106323 372.126709 832.269104 373.597351 830.898926 374.393921 C 829.528809 375.190552 827.836548 375.190552 826.466431 374.393921 C 825.096252 373.597351 824.259033 372.126709 824.273438 370.54187 C 824.259033 368.957092 825.096252 367.48645 826.466431 366.689819 C 827.836548 365.89325 829.528809 365.89325 830.898926 366.689819 C 832.269104 367.48645 833.106323 368.957092 833.091919 370.54187 Z"/>
                </g>
                <g id="g33">
                    <path id="path85" fill="#ffffff" stroke="#000000" stroke-width="0.363756" d="M 836.628113 359.53949 C 836.642517 361.124329 835.805298 362.59494 834.43512 363.391541 C 833.065002 364.188141 831.372742 364.188141 830.002563 363.391541 C 828.632446 362.59494 827.795166 361.124329 827.80957 359.53949 C 827.795166 357.954681 828.632446 356.484039 830.002563 355.687439 C 831.372742 354.890839 833.065002 354.890839 834.43512 355.687439 C 835.805298 356.484039 836.642517 357.954681 836.628113 359.53949 Z"/>
                </g>
                <g id="g34">
                    <path id="path86" fill="#ffffff" stroke="#000000" stroke-width="0.363756" d="M 844.09436 350.501587 C 844.108765 352.086365 843.271484 353.557007 841.901367 354.353638 C 840.531189 355.150208 838.838928 355.150208 837.468811 354.353638 C 836.098633 353.557007 835.261414 352.086365 835.275818 350.501587 C 835.261414 348.916748 836.098633 347.446106 837.468811 346.649536 C 838.838928 345.852905 840.531189 345.852905 841.901367 346.649536 C 843.271484 347.446106 844.108765 348.916748 844.09436 350.501587 Z"/>
                </g>
                <g id="g35">
                    <path id="path87" fill="#ffffff" stroke="#000000" stroke-width="0.363756" d="M 854.311157 344.214783 C 854.325562 345.799622 853.488342 347.270264 852.118164 348.066833 C 850.748047 348.863464 849.055786 348.863464 847.685608 348.066833 C 846.315491 347.270264 845.478271 345.799622 845.492615 344.214783 C 845.478271 342.629974 846.315491 341.159363 847.685608 340.362732 C 849.055786 339.566132 850.748047 339.566132 852.118164 340.362732 C 853.488342 341.159363 854.325562 342.629974 854.311157 344.214783 Z"/>
                </g>
                <g id="g36">
                    <path id="path88" fill="#ffffff" stroke="#000000" stroke-width="0.363756" d="M 865.70636 345.000366 C 865.720764 346.585205 864.883545 348.055817 863.513367 348.852417 C 862.14325 349.649017 860.450989 349.649017 859.080811 348.852417 C 857.710693 348.055817 856.873413 346.585205 856.887817 345.000366 C 856.873413 343.415558 857.710693 341.944916 859.080811 341.148315 C 860.450989 340.351715 862.14325 340.351715 863.513367 341.148315 C 864.883545 341.944916 865.720764 343.415558 865.70636 345.000366 Z"/>
                </g>
                <g id="g37">
                    <path id="path89" fill="#ffffff" stroke="#000000" stroke-width="0.363756" d="M 877.101563 346.886719 C 877.115967 348.471558 876.278687 349.9422 874.908569 350.73877 C 873.538391 351.5354 871.84613 351.5354 870.476013 350.73877 C 869.105835 349.9422 868.268616 348.471558 868.28302 346.886719 C 868.268616 345.30191 869.105835 343.831268 870.476013 343.034668 C 871.84613 342.238068 873.538391 342.238068 874.908569 343.034668 C 876.278687 343.831268 877.115967 345.30191 877.101563 346.886719 Z"/>
                </g>
                <g id="g38">
                    <path id="path90" fill="#ffffff" stroke="#000000" stroke-width="0.363756" d="M 888.497253 348.065643 C 888.511658 349.650452 887.674438 351.121094 886.30426 351.917694 C 884.934143 352.714294 883.241882 352.714294 881.871765 351.917694 C 880.501587 351.121094 879.664368 349.650452 879.678772 348.065643 C 879.664368 346.480835 880.501587 345.010193 881.871765 344.213593 C 883.241882 343.416992 884.934143 343.416992 886.30426 344.213593 C 887.674438 345.010193 888.511658 346.480835 888.497253 348.065643 Z"/>
                </g>
                <g id="g39">
                    <path id="path91" fill="#ffffff" stroke="#000000" stroke-width="0.363756" d="M 960.072083 392.387146 C 960.057678 393.971985 960.894958 395.442596 962.265076 396.239197 C 963.635254 397.035828 965.327515 397.035828 966.697632 396.239197 C 968.06781 395.442596 968.905029 393.971985 968.890625 392.387146 C 968.905029 390.802338 968.06781 389.331726 966.697632 388.535095 C 965.327515 387.738495 963.635254 387.738495 962.265076 388.535095 C 960.894958 389.331726 960.057678 390.802338 960.072083 392.387146 Z"/>
                </g>
                <g id="g40">
                    <path id="path92" fill="#ffffff" stroke="#000000" stroke-width="0.363756" d="M 965.727905 382.329865 C 965.713501 383.914673 966.55072 385.385315 967.920837 386.181915 C 969.291016 386.978516 970.983276 386.978516 972.353394 386.181915 C 973.723572 385.385315 974.560791 383.914673 974.546387 382.329865 C 974.560791 380.745056 973.723572 379.274414 972.353394 378.477814 C 970.983276 377.681213 969.291016 377.681213 967.920837 378.477814 C 966.55072 379.274414 965.713501 380.745056 965.727905 382.329865 Z"/>
                </g>
                <g id="g41">
                    <path id="path93" fill="#ffffff" stroke="#000000" stroke-width="0.363756" d="M 966.906799 370.54187 C 966.892395 372.126709 967.729614 373.597351 969.099792 374.393921 C 970.46991 375.190552 972.16217 375.190552 973.532349 374.393921 C 974.902466 373.597351 975.739685 372.126709 975.725342 370.54187 C 975.739685 368.957092 974.902466 367.48645 973.532349 366.689819 C 972.16217 365.89325 970.46991 365.89325 969.099792 366.689819 C 967.729614 367.48645 966.892395 368.957092 966.906799 370.54187 Z"/>
                </g>
                <g id="g42">
                    <path id="path94" fill="#ffffff" stroke="#000000" stroke-width="0.363756" d="M 963.370605 359.53949 C 963.356201 361.124329 964.193481 362.59494 965.563599 363.391541 C 966.933777 364.188141 968.625977 364.188141 969.996155 363.391541 C 971.366272 362.59494 972.203552 361.124329 972.189148 359.53949 C 972.203552 357.954681 971.366272 356.484039 969.996155 355.687439 C 968.625977 354.890839 966.933777 354.890839 965.563599 355.687439 C 964.193481 356.484039 963.356201 357.954681 963.370605 359.53949 Z"/>
                </g>
                <g id="g43">
                    <path id="path95" fill="#ffffff" stroke="#000000" stroke-width="0.363756" d="M 955.904358 350.501587 C 955.890015 352.086365 956.727234 353.557007 958.097351 354.353638 C 959.467529 355.150208 961.15979 355.150208 962.529907 354.353638 C 963.900085 353.557007 964.737305 352.086365 964.7229 350.501587 C 964.737305 348.916748 963.900085 347.446106 962.529907 346.649536 C 961.15979 345.852905 959.467529 345.852905 958.097351 346.649536 C 956.727234 347.446106 955.890015 348.916748 955.904358 350.501587 Z"/>
                </g>
                <g id="g44">
                    <path id="path96" fill="#ffffff" stroke="#000000" stroke-width="0.363756" d="M 945.68811 344.214783 C 945.673706 345.799622 946.510925 347.270264 947.881104 348.066833 C 949.251221 348.863464 950.943481 348.863464 952.31366 348.066833 C 953.683777 347.270264 954.521057 345.799622 954.506653 344.214783 C 954.521057 342.629974 953.683777 341.159363 952.31366 340.362732 C 950.943481 339.566132 949.251221 339.566132 947.881104 340.362732 C 946.510925 341.159363 945.673706 342.629974 945.68811 344.214783 Z"/>
                </g>
                <g id="g45">
                    <path id="path97" fill="#ffffff" stroke="#000000" stroke-width="0.363756" d="M 934.292358 345.000366 C 934.277954 346.585205 935.115234 348.055817 936.485352 348.852417 C 937.85553 349.649017 939.547791 349.649017 940.917908 348.852417 C 942.288086 348.055817 943.125305 346.585205 943.110901 345.000366 C 943.125305 343.415558 942.288086 341.944916 940.917908 341.148315 C 939.547791 340.351715 937.85553 340.351715 936.485352 341.148315 C 935.115234 341.944916 934.277954 343.415558 934.292358 345.000366 Z"/>
                </g>
                <g id="g46">
                    <path id="path98" fill="#ffffff" stroke="#000000" stroke-width="0.363756" d="M 922.897156 346.886719 C 922.882813 348.471558 923.720032 349.9422 925.090149 350.73877 C 926.460327 351.5354 928.152588 351.5354 929.522705 350.73877 C 930.892883 349.9422 931.730103 348.471558 931.715698 346.886719 C 931.730103 345.30191 930.892883 343.831268 929.522705 343.034668 C 928.152588 342.238068 926.460327 342.238068 925.090149 343.034668 C 923.720032 343.831268 922.882813 345.30191 922.897156 346.886719 Z"/>
                </g>
                <g id="g47">
                    <path id="path99" fill="#ffffff" stroke="#000000" stroke-width="0.363756" d="M 911.502014 348.065643 C 911.48761 349.650452 912.324829 351.121094 913.695007 351.917694 C 915.065125 352.714294 916.757385 352.714294 918.127563 351.917694 C 919.497681 351.121094 920.3349 349.650452 920.320557 348.065643 C 920.3349 346.480835 919.497681 345.010193 918.127563 344.213593 C 916.757385 343.416992 915.065125 343.416992 913.695007 344.213593 C 912.324829 345.010193 911.48761 346.480835 911.502014 348.065643 Z"/>
                </g>
                <g id="g48">
                    <g id="g49">
                        <path id="path100" fill="#ffffff" stroke="#000000" stroke-width="0.363756" d="M 904.98822 382.484985 C 905.002625 384.069824 904.165405 385.540436 902.795227 386.337036 C 901.42511 387.133667 899.732849 387.133667 898.362671 386.337036 C 896.992554 385.540436 896.155273 384.069824 896.169678 382.484985 C 896.155273 380.900177 896.992554 379.429565 898.362671 378.632935 C 899.732849 377.836334 901.42511 377.836334 902.795227 378.632935 C 904.165405 379.429565 905.002625 380.900177 904.98822 382.484985 Z"/>
                    </g>
                    <g id="g50">
                        <path id="path101" fill="#ffffff" stroke="#000000" stroke-width="0.363756" d="M 904.98822 374.628174 C 905.002625 376.213013 904.165405 377.683624 902.795227 378.480225 C 901.42511 379.276855 899.732849 379.276855 898.362671 378.480225 C 896.992554 377.683624 896.155273 376.213013 896.169678 374.628174 C 896.155273 373.043365 896.992554 371.572754 898.362671 370.776123 C 899.732849 369.979523 901.42511 369.979523 902.795227 370.776123 C 904.165405 371.572754 905.002625 373.043365 904.98822 374.628174 Z"/>
                    </g>
                    <g id="g51">
                        <path id="path102" fill="#ffffff" stroke="#000000" stroke-width="0.363756" d="M 904.98822 368.341431 C 905.002625 369.926208 904.165405 371.396851 902.795227 372.193481 C 901.42511 372.990051 899.732849 372.990051 898.362671 372.193481 C 896.992554 371.396851 896.155273 369.926208 896.169678 368.341431 C 896.155273 366.756592 896.992554 365.28595 898.362671 364.48938 C 899.732849 363.692749 901.42511 363.692749 902.795227 364.48938 C 904.165405 365.28595 905.002625 366.756592 904.98822 368.341431 Z"/>
                    </g>
                    <g id="g52">
                        <path id="path103" fill="#ffffff" stroke="#000000" stroke-width="0.363756" d="M 904.98822 362.604187 C 905.002625 364.189026 904.165405 365.659668 902.795227 366.456238 C 901.42511 367.252869 899.732849 367.252869 898.362671 366.456238 C 896.992554 365.659668 896.155273 364.189026 896.169678 362.604187 C 896.155273 361.019409 896.992554 359.548767 898.362671 358.752136 C 899.732849 357.955566 901.42511 357.955566 902.795227 358.752136 C 904.165405 359.548767 905.002625 361.019409 904.98822 362.604187 Z"/>
                    </g>
                    <g id="g53">
                        <path id="path104" fill="#ffffff" stroke="#000000" stroke-width="0.363756" d="M 904.98822 344.214783 C 905.002625 345.799622 904.165405 347.270264 902.795227 348.066833 C 901.42511 348.863464 899.732849 348.863464 898.362671 348.066833 C 896.992554 347.270264 896.155273 345.799622 896.169678 344.214783 C 896.155273 342.629974 896.992554 341.159363 898.362671 340.362732 C 899.732849 339.566132 901.42511 339.566132 902.795227 340.362732 C 904.165405 341.159363 905.002625 342.629974 904.98822 344.214783 Z"/>
                    </g>
                    <g id="g54">
                        <path id="path105" fill="#ffffff" stroke="#000000" stroke-width="0.363756" d="M 904.98822 345.000366 C 905.002625 346.585205 904.165405 348.055817 902.795227 348.852417 C 901.42511 349.649017 899.732849 349.649017 898.362671 348.852417 C 896.992554 348.055817 896.155273 346.585205 896.169678 345.000366 C 896.155273 343.415558 896.992554 341.944916 898.362671 341.148315 C 899.732849 340.351715 901.42511 340.351715 902.795227 341.148315 C 904.165405 341.944916 905.002625 343.415558 904.98822 345.000366 Z"/>
                    </g>
                    <g id="g55">
                        <path id="path106" fill="#ffffff" stroke="#000000" stroke-width="0.363756" d="M 904.98822 349.087219 C 905.002625 350.672028 904.165405 352.142639 902.795227 352.93927 C 901.42511 353.73587 899.732849 353.73587 898.362671 352.93927 C 896.992554 352.142639 896.155273 350.672028 896.169678 349.087219 C 896.155273 347.50238 896.992554 346.031769 898.362671 345.235168 C 899.732849 344.438538 901.42511 344.438538 902.795227 345.235168 C 904.165405 346.031769 905.002625 347.50238 904.98822 349.087219 Z"/>
                    </g>
                    <g id="g56">
                        <path id="path107" fill="#ffffff" stroke="#000000" stroke-width="0.363756" d="M 904.98822 354.667084 C 905.002625 356.251892 904.165405 357.722534 902.795227 358.519135 C 901.42511 359.315735 899.732849 359.315735 898.362671 358.519135 C 896.992554 357.722534 896.155273 356.251892 896.169678 354.667084 C 896.155273 353.082275 896.992554 351.611633 898.362671 350.815033 C 899.732849 350.018433 901.42511 350.018433 902.795227 350.815033 C 904.165405 351.611633 905.002625 353.082275 904.98822 354.667084 Z"/>
                    </g>
                </g>
                <g id="g57">
                    <path id="h" fill="#ffffff" stroke="#000000" stroke-width="0.55012" d="M 906.233887 401.46817 C 906.233887 404.614868 903.682983 407.165771 900.536255 407.165771 C 897.389587 407.165771 894.838684 404.614868 894.838684 401.46817 C 894.838684 398.321472 897.389587 395.770569 900.536255 395.770569 C 903.682983 395.770569 906.233887 398.321472 906.233887 401.46817 Z"/>
                </g>
                <g id="g58">
                    <path id="path108" fill="#ffffff" stroke="#000000" stroke-width="0.55012" d="M 846.679504 411.802734 C 846.679504 414.949402 844.128601 417.500305 840.981934 417.500305 C 837.835266 417.500305 835.284363 414.949402 835.284363 411.802734 C 835.284363 408.656006 837.835266 406.105103 840.981934 406.105103 C 844.128601 406.105103 846.679504 408.656006 846.679504 411.802734 Z"/>
                </g>
                <g id="g59">
                    <path id="path109" fill="#ffffff" stroke="#000000" stroke-width="0.55012" d="M 965.505432 411.802734 C 965.505432 414.949402 962.954529 417.500305 959.807861 417.500305 C 956.661194 417.500305 954.110291 414.949402 954.110291 411.802734 C 954.110291 408.656006 956.661194 406.105103 959.807861 406.105103 C 962.954529 406.105103 965.505432 408.656006 965.505432 411.802734 Z"/>
                </g>
            </g>
        </g>
    </g>
    <g id="g60">
        <path id="path110" fill="#012169" stroke="#000000" stroke-width="0.426101" d="M 892.294006 420.809998 L 909.906006 420.809998 L 909.906006 428.488007 L 892.294006 428.488007 Z"/>
        <path id="path111" fill="#3e8225" stroke="#000000" stroke-width="0.621865" d="M 920.343628 426.495178 C 920.400696 428.788147 923.984375 431.006012 928.348022 431.448975 C 932.71167 431.891968 936.202881 430.392273 936.145752 428.099335 C 936.088684 425.806396 932.505005 423.588501 928.141357 423.145569 C 923.77771 422.702576 920.286499 424.202271 920.343628 426.495178 Z"/>
        <path id="path112" fill="#c8102e" stroke="#000000" stroke-width="0.550233" d="M 842.713989 430.532013 L 838.302002 434.944 L 843.419983 437.899994 L 855.323975 434.709991 L 853.202026 427.970001 Z M 959.486023 430.532013 L 963.89801 434.944 L 958.780029 437.899994 L 946.877991 434.709991 L 948.997986 427.970001 Z"/>
        <path id="path113" fill="#3e8225" stroke="#000000" stroke-width="0.621865" d="M 881.856384 426.495178 C 881.799316 428.788147 878.215576 431.006012 873.851929 431.448975 C 869.488281 431.891968 865.997131 430.392273 866.05426 428.099335 C 866.111328 425.806396 869.695007 423.588501 874.058655 423.145569 C 878.422302 422.702576 881.913452 424.202271 881.856384 426.495178 Z"/>
        <g id="g61">
            <g id="g62">
                <path id="i" fill="#ffffff" stroke="#000000" stroke-width="0.50666" d="M 888.484131 421.380798 C 888.484131 422.57785 887.513733 423.548279 886.31665 423.548279 C 885.119568 423.548279 884.14917 422.57785 884.14917 421.380798 C 884.14917 420.183716 885.119568 419.213287 886.31665 419.213287 C 887.513733 419.213287 888.484131 420.183716 888.484131 421.380798 Z"/>
            </g>
            <g id="g63">
                <path id="path114" fill="#ffffff" stroke="#000000" stroke-width="0.50666" d="M 889.161011 428.289612 C 889.161011 429.486664 888.190613 430.457092 886.99353 430.457092 C 885.796448 430.457092 884.82605 429.486664 884.82605 428.289612 C 884.82605 427.092529 885.796448 426.122101 886.99353 426.122101 C 888.190613 426.122101 889.161011 427.092529 889.161011 428.289612 Z"/>
            </g>
            <g id="g64">
                <path id="path115" fill="#ffffff" stroke="#000000" stroke-width="0.50666" d="M 861.390015 426.257874 C 861.390015 427.454956 860.419556 428.425354 859.222473 428.425354 C 858.025452 428.425354 857.054993 427.454956 857.054993 426.257874 C 857.054993 425.060822 858.025452 424.090393 859.222473 424.090393 C 860.419556 424.090393 861.390015 425.060822 861.390015 426.257874 Z"/>
            </g>
            <g id="g65">
                <path id="path116" fill="#ffffff" stroke="#000000" stroke-width="0.50666" d="M 864.099121 432.760376 C 864.099121 433.957458 863.128662 434.927856 861.93158 434.927856 C 860.734558 434.927856 859.764099 433.957458 859.764099 432.760376 C 859.764099 431.563293 860.734558 430.592865 861.93158 430.592865 C 863.128662 430.592865 864.099121 431.563293 864.099121 432.760376 Z"/>
            </g>
            <g id="g66">
                <path id="path117" fill="#ffffff" stroke="#000000" stroke-width="0.50666" d="M 913.613953 421.380798 C 913.613953 422.57785 914.584412 423.548279 915.781433 423.548279 C 916.978516 423.548279 917.948975 422.57785 917.948975 421.380798 C 917.948975 420.183716 916.978516 419.213287 915.781433 419.213287 C 914.584412 419.213287 913.613953 420.183716 913.613953 421.380798 Z"/>
            </g>
            <g id="g67">
                <path id="path118" fill="#ffffff" stroke="#000000" stroke-width="0.50666" d="M 912.936584 428.289612 C 912.936584 429.486664 913.906982 430.457092 915.104065 430.457092 C 916.301147 430.457092 917.271545 429.486664 917.271545 428.289612 C 917.271545 427.092529 916.301147 426.122101 915.104065 426.122101 C 913.906982 426.122101 912.936584 427.092529 912.936584 428.289612 Z"/>
            </g>
            <g id="g68">
                <path id="path119" fill="#ffffff" stroke="#000000" stroke-width="0.50666" d="M 940.707581 426.257874 C 940.707581 427.454956 941.67804 428.425354 942.875122 428.425354 C 944.072205 428.425354 945.042603 427.454956 945.042603 426.257874 C 945.042603 425.060822 944.072205 424.090393 942.875122 424.090393 C 941.67804 424.090393 940.707581 425.060822 940.707581 426.257874 Z"/>
            </g>
            <g id="g69">
                <path id="path120" fill="#ffffff" stroke="#000000" stroke-width="0.50666" d="M 937.998474 432.760376 C 937.998474 433.957458 938.968933 434.927856 940.166016 434.927856 C 941.363037 434.927856 942.333496 433.957458 942.333496 432.760376 C 942.333496 431.563293 941.363037 430.592865 940.166016 430.592865 C 938.968933 430.592865 937.998474 431.563293 937.998474 432.760376 Z"/>
            </g>
        </g>
    </g>
    <path id="path121" fill="#ffffff" stroke="#000000" stroke-width="0.868415" d="M 944.859985 456.533997 C 946.513977 456.246002 956.5 453.872009 958.604004 452.60199 C 957.245972 450.156006 954.812012 448.242004 956.705994 449.04599 C 957.726013 449.477997 958.533997 446.105988 955.572021 443.529999 C 946.971985 446.350006 926.348022 451.506012 900.432007 451.506012 C 873.911987 451.506012 853.028015 446.079987 844.427979 443.26001 C 841.466003 445.838013 842.388 448.764008 842.208008 449.859985 C 842.208008 449.868011 842.211975 451.23999 842.752014 452.329987 C 845.666016 455.497986 855.112 457.058014 856.765991 457.346008 C 864.546021 458.697998 872.323975 460.73999 900.414001 460.73999 C 926.401978 460.73999 937.080017 457.884003 944.859985 456.533997 Z"/>
    <g id="g70">
        <path id="path122" fill="#ffffff" stroke="#000000" stroke-width="0.868089" d="M 855.902222 438.69101 C 854.246948 438.978729 843.71875 442.707428 841.61676 443.977661 C 841.618408 443.985352 841.615051 444.002411 841.61676 444.01123 C 841.795532 445.104858 839.789246 450.200623 842.751099 452.777374 C 851.350586 449.956909 875.496948 441.551636 901.412598 441.551636 C 927.933289 441.551636 949.900146 449.956909 958.499634 452.777374 C 961.461487 450.200623 959.4552 445.104858 959.634521 444.01123 C 959.636169 444.002411 959.632324 443.985352 959.634521 443.977661 C 957.531982 442.707428 947.003784 438.978729 945.34845 438.69101 C 937.569763 437.340454 929.520386 432.317322 901.429626 432.317322 C 875.443604 432.317322 863.680969 437.340454 855.902222 438.69101 Z"/>
        <g id="g71">
            <g id="k">
                <g id="g72">
                    <path id="j" fill="#000000" stroke="#000000" stroke-width="0.366777" d="M 848.338074 445.008392 C 848.37323 445.244324 848.266113 445.479218 848.058105 445.622131 C 847.850159 445.765076 847.573914 445.793671 847.336365 445.696838 C 847.098816 445.600006 846.937134 445.392944 846.91394 445.155762 C 846.878784 444.9198 846.985901 444.684937 847.193909 444.541992 C 847.401855 444.399048 847.67804 444.370483 847.915649 444.467316 C 848.153198 444.564148 848.31488 444.77121 848.338074 445.008392 Z"/>
                </g>
                <g id="g73">
                    <path id="path123" fill="#000000" stroke="#000000" stroke-width="0.366777" d="M 847.526978 446.792419 C 847.562134 447.028381 847.455017 447.263245 847.247009 447.406189 C 847.039001 447.549133 846.762817 447.577698 846.525269 447.480896 C 846.28772 447.384033 846.126038 447.176971 846.102783 446.939789 C 846.067627 446.703857 846.174805 446.468994 846.382751 446.32605 C 846.590759 446.183105 846.866943 446.15451 847.104492 446.251343 C 847.342102 446.348206 847.503784 446.555267 847.526978 446.792419 Z"/>
                </g>
                <g id="g74">
                    <path id="path124" fill="#000000" stroke="#000000" stroke-width="0.366777" d="M 849.089905 447.763672 C 849.125061 447.999603 849.017944 448.234497 848.809937 448.377441 C 848.60199 448.520386 848.325745 448.54895 848.088196 448.452087 C 847.850647 448.355286 847.688965 448.148193 847.665771 447.911011 C 847.630615 447.675079 847.737732 447.440186 847.94574 447.297272 C 848.153687 447.154327 848.429871 447.125732 848.66748 447.222595 C 848.905029 447.319427 849.066711 447.526489 849.089905 447.763672 Z"/>
                </g>
                <path id="path125" fill="#000000" stroke="#000000" stroke-width="0.734142" d="M 847.717041 446.562744 L 853.937866 443.682861 L 850.956482 445.680847 L 852.994934 445.411316 L 851.197571 446.422272 L 854.268311 446.298767 Z"/>
            </g>
        </g>
        <g id="g75">
            <g id="g76">
                <g id="g77">
                    <path id="path126" fill="#000000" stroke="#000000" stroke-width="0.366777" d="M 871.219788 438.460327 C 871.254944 438.696259 871.147827 438.931152 870.939819 439.074066 C 870.731812 439.21701 870.455627 439.245605 870.218079 439.148743 C 869.980469 439.051941 869.818848 438.844849 869.795593 438.607666 C 869.760437 438.371735 869.867615 438.136841 870.075562 437.993896 C 870.283569 437.850952 870.559753 437.822388 870.797302 437.91925 C 871.034912 438.016052 871.196533 438.223145 871.219788 438.460327 Z"/>
                </g>
                <g id="g78">
                    <path id="path127" fill="#000000" stroke="#000000" stroke-width="0.366777" d="M 870.408691 440.244354 C 870.443848 440.480286 870.33667 440.71521 870.128723 440.858124 C 869.920715 441.001038 869.644531 441.029633 869.406921 440.9328 C 869.169373 440.835968 869.00769 440.628906 868.984497 440.391724 C 868.949341 440.155762 869.056458 439.920898 869.264465 439.777954 C 869.472473 439.63501 869.748657 439.606445 869.986206 439.703278 C 870.223755 439.80011 870.385437 440.007202 870.408691 440.244354 Z"/>
                </g>
                <g id="g79">
                    <path id="path128" fill="#000000" stroke="#000000" stroke-width="0.366777" d="M 871.971619 441.215576 C 872.006775 441.451538 871.899597 441.686401 871.69165 441.829346 C 871.483643 441.97229 871.207458 442.000854 870.96991 441.904022 C 870.7323 441.80719 870.570679 441.600098 870.547424 441.362946 C 870.512268 441.127014 870.619446 440.89212 870.827393 440.749207 C 871.0354 440.606262 871.311584 440.577667 871.549133 440.6745 C 871.786743 440.771362 871.948364 440.978394 871.971619 441.215576 Z"/>
                </g>
                <path id="path129" fill="#000000" stroke="#000000" stroke-width="0.734142" d="M 870.598755 440.014648 L 876.81958 437.134766 L 873.838196 439.132751 L 875.876648 438.863251 L 874.079285 439.874207 L 877.150024 439.750732 Z"/>
            </g>
        </g>
        <g id="g80">
            <g id="g81">
                <g id="g82">
                    <path id="path130" fill="#000000" stroke="#000000" stroke-width="0.366779" d="M 899.61908 435.392822 C 899.59668 435.63031 899.436462 435.832703 899.200317 435.921692 C 898.964172 436.010681 898.689148 435.972321 898.481628 435.821411 C 898.27417 435.670532 898.166809 435.430786 898.20105 435.194946 C 898.223389 434.957458 898.383606 434.755035 898.619751 434.666046 C 898.855957 434.577057 899.13092 434.615417 899.33844 434.766327 C 899.545898 434.917236 899.653259 435.156982 899.61908 435.392822 Z"/>
                </g>
                <g id="g83">
                    <path id="path131" fill="#000000" stroke="#000000" stroke-width="0.366779" d="M 898.404419 436.930786 C 898.38208 437.168304 898.221802 437.370728 897.985657 437.459717 C 897.749512 437.548706 897.474487 437.510315 897.267029 437.359436 C 897.05957 437.208557 896.952148 436.968781 896.986389 436.732941 C 897.008728 436.495422 897.169006 436.29303 897.405151 436.204041 C 897.641296 436.115051 897.916321 436.153442 898.123779 436.304321 C 898.331238 436.4552 898.43866 436.694946 898.404419 436.930786 Z"/>
                </g>
                <g id="g84">
                    <path id="path132" fill="#000000" stroke="#000000" stroke-width="0.366779" d="M 899.689392 438.247955 C 899.667053 438.485474 899.506836 438.687866 899.27063 438.776855 C 899.034485 438.865845 898.75946 438.827454 898.552002 438.676575 C 898.344543 438.525696 898.237122 438.28595 898.271362 438.05011 C 898.293701 437.812592 898.453979 437.610199 898.690125 437.52121 C 898.92627 437.43219 899.201294 437.470581 899.408752 437.62146 C 899.616272 437.772369 899.723633 438.012115 899.689392 438.247955 Z"/>
                </g>
                <path id="path133" fill="#000000" stroke="#000000" stroke-width="0.734145" d="M 898.643982 436.753296 L 905.373352 435.44635 L 902.000305 436.672546 L 904.044067 436.898865 L 902.056946 437.450134 L 905.067993 438.065369 Z"/>
            </g>
        </g>
        <g id="g85">
            <g id="g86">
                <g id="g87">
                    <path id="path134" fill="#000000" stroke="#000000" stroke-width="0.366777" d="M 925.937988 440.841614 C 925.973145 440.605682 925.866028 440.370789 925.65802 440.227844 C 925.450073 440.08493 925.173889 440.056335 924.936279 440.153198 C 924.69873 440.25 924.537048 440.457092 924.513855 440.694275 C 924.478699 440.930206 924.585815 441.1651 924.793823 441.308044 C 925.00177 441.450958 925.278015 441.479553 925.515564 441.38269 C 925.753113 441.285858 925.914795 441.078796 925.937988 440.841614 Z"/>
                </g>
                <g id="g88">
                    <path id="path135" fill="#000000" stroke="#000000" stroke-width="0.366777" d="M 925.126892 439.057556 C 925.162048 438.821655 925.054932 438.586731 924.846924 438.443817 C 924.638977 438.300873 924.362732 438.272308 924.125183 438.369141 C 923.887634 438.465973 923.725952 438.673035 923.702759 438.910217 C 923.667603 439.146179 923.774719 439.381042 923.982666 439.523987 C 924.190674 439.666931 924.466858 439.695496 924.704468 439.598663 C 924.942017 439.501831 925.103699 439.294739 925.126892 439.057556 Z"/>
                </g>
                <g id="g89">
                    <path id="path136" fill="#000000" stroke="#000000" stroke-width="0.366777" d="M 926.689819 438.086365 C 926.724976 437.850403 926.617859 437.61554 926.409851 437.472595 C 926.201904 437.329651 925.92572 437.301086 925.68811 437.397919 C 925.450562 437.494751 925.288879 437.701813 925.265686 437.938995 C 925.23053 438.174927 925.337646 438.40979 925.545654 438.552734 C 925.753601 438.695679 926.029846 438.724274 926.267395 438.627441 C 926.504944 438.530579 926.666626 438.323517 926.689819 438.086365 Z"/>
                </g>
                <path id="path137" fill="#000000" stroke="#000000" stroke-width="0.734142" d="M 925.317017 439.287292 L 931.537781 442.167175 L 928.556396 440.169159 L 930.594849 440.43869 L 928.797546 439.427734 L 931.868286 439.551208 Z"/>
            </g>
        </g>
        <g id="g90">
            <g id="g91">
                <g id="g92">
                    <path id="path138" fill="#000000" stroke="#000000" stroke-width="0.366777" d="M 949.030945 446.87204 C 949.066101 446.636108 948.958984 446.401215 948.750977 446.258301 C 948.54303 446.115356 948.266785 446.086761 948.029236 446.183594 C 947.791687 446.280426 947.630005 446.487488 947.606812 446.72467 C 947.571655 446.960632 947.678772 447.195496 947.886719 447.33844 C 948.094727 447.481384 948.370911 447.509949 948.608521 447.413116 C 948.846069 447.316284 949.007751 447.109192 949.030945 446.87204 Z"/>
                </g>
                <g id="g93">
                    <path id="path139" fill="#000000" stroke="#000000" stroke-width="0.366777" d="M 948.219849 445.088013 C 948.255005 444.852051 948.147888 444.617157 947.93988 444.474243 C 947.731873 444.331299 947.455688 444.302734 947.21814 444.399536 C 946.98053 444.496399 946.818909 444.703461 946.795654 444.940643 C 946.760498 445.176575 946.867676 445.411438 947.075623 445.554382 C 947.28363 445.697327 947.559814 445.725891 947.797363 445.629089 C 948.034973 445.532227 948.196594 445.325165 948.219849 445.088013 Z"/>
                </g>
                <g id="g94">
                    <path id="path140" fill="#000000" stroke="#000000" stroke-width="0.366777" d="M 949.782776 444.11676 C 949.817932 443.880829 949.710815 443.645935 949.502808 443.502991 C 949.294861 443.360046 949.018616 443.331482 948.781067 443.428345 C 948.543518 443.525146 948.381836 443.732239 948.358643 443.969421 C 948.323486 444.205353 948.430603 444.440247 948.63855 444.58316 C 948.846558 444.726105 949.122742 444.7547 949.360352 444.657837 C 949.5979 444.561005 949.759583 444.353943 949.782776 444.11676 Z"/>
                </g>
                <path id="path141" fill="#000000" stroke="#000000" stroke-width="0.734142" d="M 948.409912 445.317688 L 954.630737 448.197571 L 951.649353 446.199585 L 953.687805 446.469116 L 951.890442 445.45813 L 954.961182 445.581635 Z"/>
            </g>
        </g>
    </g>
</svg>
