<?xml version="1.0" encoding="UTF-8"?>
<!-- Generated by Pixelmator Pro 3.5.7 -->
<svg width="1050" height="600" viewBox="0 0 1050 600" xmlns="http://www.w3.org/2000/svg">
    <path id="Path" fill="#da0000" stroke="none" d="M -0 0 L 1050 0 L 1050 600 L -0 600 Z"/>
    <path id="path1" fill="#ffffff" stroke="none" d="M -0 0 L 1050 0 L 1050 400 L -0 400 Z"/>
    <path id="path2" fill="#239f40" stroke="none" d="M -0 0 L 1050 0 L 1050 200 L -0 200 Z"/>
    <g id="Group">
        <g id="e">
            <g id="c">
                <path id="b" fill="none" stroke="#ffffff" stroke-width="4.666667" d="M 13.999999 169.666656 L 74.666664 169.666656 M 16.333334 190.666656 L 16.333334 179 L 35 179 L 35 188.333344 L 53.666668 188.333344 L 53.666668 179 L 42 179 M 23.333334 188.333344 L 27.999998 188.333344 M 74.666664 188.333344 L 63 188.333344 L 63 179 L 81.666664 179 M 81.666664 167.333313 L 81.666664 188.333344 L 100.333336 188.333344 L 100.333336 167.333313 M 91 167.333313 L 91 188.333344"/>
                <path id="a" fill="none" stroke="#ffffff" stroke-width="9.333333" d="M 13.999999 200 L 55.999996 200 M 60.666668 200 L 102.666664 200"/>
                <g id="g1">
                    <path id="path3" fill="none" stroke="#ffffff" stroke-width="9.333333" d="M 13.999999 400 L 55.999996 400 M 60.666668 400 L 102.666664 400"/>
                </g>
                <g id="g2">
                    <path id="path4" fill="none" stroke="#ffffff" stroke-width="4.666667" d="M 13.999999 411.666687 L 74.666664 411.666687 M 16.333334 432.666687 L 16.333334 421 L 35 421 L 35 430.333313 L 53.666668 430.333313 L 53.666668 421 L 42 421 M 23.333334 430.333313 L 27.999998 430.333313 M 74.666664 430.333313 L 63 430.333313 L 63 421 L 81.666664 421 M 81.666664 409.333313 L 81.666664 430.333313 L 100.333336 430.333313 L 100.333336 409.333313 M 91 409.333313 L 91 430.333313"/>
                </g>
            </g>
            <g id="d">
                <g id="g3">
                    <g id="g4">
                        <path id="path5" fill="none" stroke="#ffffff" stroke-width="4.666667" d="M 107.333336 169.666656 L 168 169.666656 M 109.666672 190.666656 L 109.666672 179 L 128.333328 179 L 128.333328 188.333344 L 147 188.333344 L 147 179 L 135.333328 179 M 116.666664 188.333344 L 121.333336 188.333344 M 168 188.333344 L 156.333344 188.333344 L 156.333344 179 L 175 179 M 175 167.333313 L 175 188.333344 L 193.666656 188.333344 L 193.666656 167.333313 M 184.333328 167.333313 L 184.333328 188.333344"/>
                        <path id="path6" fill="none" stroke="#ffffff" stroke-width="9.333333" d="M 107.333336 200 L 149.333328 200 M 154 200 L 196 200"/>
                        <g id="g5">
                            <path id="path7" fill="none" stroke="#ffffff" stroke-width="9.333333" d="M 107.333336 400 L 149.333328 400 M 154 400 L 196 400"/>
                        </g>
                        <g id="g6">
                            <path id="path8" fill="none" stroke="#ffffff" stroke-width="4.666667" d="M 107.333336 411.666687 L 168 411.666687 M 109.666672 432.666687 L 109.666672 421 L 128.333328 421 L 128.333328 430.333313 L 147 430.333313 L 147 421 L 135.333328 421 M 116.666664 430.333313 L 121.333336 430.333313 M 168 430.333313 L 156.333344 430.333313 L 156.333344 421 L 175 421 M 175 409.333313 L 175 430.333313 L 193.666656 430.333313 L 193.666656 409.333313 M 184.333328 409.333313 L 184.333328 430.333313"/>
                        </g>
                    </g>
                </g>
                <g id="g7">
                    <g id="g8">
                        <path id="path9" fill="none" stroke="#ffffff" stroke-width="4.666667" d="M 200.666672 169.666656 L 261.333344 169.666656 M 203 190.666656 L 203 179 L 221.666672 179 L 221.666672 188.333344 L 240.333328 188.333344 L 240.333328 179 L 228.666656 179 M 210 188.333344 L 214.666672 188.333344 M 261.333344 188.333344 L 249.666672 188.333344 L 249.666672 179 L 268.333344 179 M 268.333344 167.333313 L 268.333344 188.333344 L 287 188.333344 L 287 167.333313 M 277.666687 167.333313 L 277.666687 188.333344"/>
                        <path id="path10" fill="none" stroke="#ffffff" stroke-width="9.333333" d="M 200.666672 200 L 242.666672 200 M 247.333328 200 L 289.333344 200"/>
                        <g id="g9">
                            <path id="path11" fill="none" stroke="#ffffff" stroke-width="9.333333" d="M 200.666672 400 L 242.666672 400 M 247.333328 400 L 289.333344 400"/>
                        </g>
                        <g id="g10">
                            <path id="path12" fill="none" stroke="#ffffff" stroke-width="4.666667" d="M 200.666672 411.666687 L 261.333344 411.666687 M 203 432.666687 L 203 421 L 221.666672 421 L 221.666672 430.333313 L 240.333328 430.333313 L 240.333328 421 L 228.666656 421 M 210 430.333313 L 214.666672 430.333313 M 261.333344 430.333313 L 249.666672 430.333313 L 249.666672 421 L 268.333344 421 M 268.333344 409.333313 L 268.333344 430.333313 L 287 430.333313 L 287 409.333313 M 277.666687 409.333313 L 277.666687 430.333313"/>
                        </g>
                    </g>
                </g>
                <g id="g11">
                    <g id="g12">
                        <path id="path13" fill="none" stroke="#ffffff" stroke-width="4.666667" d="M 294 169.666656 L 354.666687 169.666656 M 296.333344 190.666656 L 296.333344 179 L 315 179 L 315 188.333344 L 333.666656 188.333344 L 333.666656 179 L 322 179 M 303.333344 188.333344 L 308 188.333344 M 354.666687 188.333344 L 343 188.333344 L 343 179 L 361.666656 179 M 361.666656 167.333313 L 361.666656 188.333344 L 380.333344 188.333344 L 380.333344 167.333313 M 371 167.333313 L 371 188.333344"/>
                        <path id="path14" fill="none" stroke="#ffffff" stroke-width="9.333333" d="M 294 200 L 336 200 M 340.666656 200 L 382.666687 200"/>
                        <g id="g13">
                            <path id="path15" fill="none" stroke="#ffffff" stroke-width="9.333333" d="M 294 400 L 336 400 M 340.666656 400 L 382.666687 400"/>
                        </g>
                        <g id="g14">
                            <path id="path16" fill="none" stroke="#ffffff" stroke-width="4.666667" d="M 294 411.666687 L 354.666687 411.666687 M 296.333344 432.666687 L 296.333344 421 L 315 421 L 315 430.333313 L 333.666656 430.333313 L 333.666656 421 L 322 421 M 303.333344 430.333313 L 308 430.333313 M 354.666687 430.333313 L 343 430.333313 L 343 421 L 361.666656 421 M 361.666656 409.333313 L 361.666656 430.333313 L 380.333344 430.333313 L 380.333344 409.333313 M 371 409.333313 L 371 430.333313"/>
                        </g>
                    </g>
                </g>
            </g>
        </g>
        <g id="g15">
            <g id="g16">
                <g id="g17">
                    <g id="g18">
                        <path id="path17" fill="none" stroke="#ffffff" stroke-width="4.666667" d="M 387.333313 169.666656 L 447.999969 169.666656 M 389.666656 190.666656 L 389.666656 179 L 408.333344 179 L 408.333344 188.333344 L 427.000031 188.333344 L 427.000031 179 L 415.333313 179 M 396.666656 188.333344 L 401.333344 188.333344 M 447.999969 188.333344 L 436.333313 188.333344 L 436.333313 179 L 455 179 M 455 167.333313 L 455 188.333344 L 473.666687 188.333344 L 473.666687 167.333313 M 464.333344 167.333313 L 464.333344 188.333344"/>
                        <path id="path18" fill="none" stroke="#ffffff" stroke-width="9.333333" d="M 387.333313 200 L 429.333344 200 M 434 200 L 476 200"/>
                        <g id="g19">
                            <path id="path19" fill="none" stroke="#ffffff" stroke-width="9.333333" d="M 387.333313 400 L 429.333344 400 M 434 400 L 476 400"/>
                        </g>
                        <g id="g20">
                            <path id="path20" fill="none" stroke="#ffffff" stroke-width="4.666667" d="M 387.333313 411.666687 L 447.999969 411.666687 M 389.666656 432.666687 L 389.666656 421 L 408.333344 421 L 408.333344 430.333313 L 427.000031 430.333313 L 427.000031 421 L 415.333313 421 M 396.666656 430.333313 L 401.333344 430.333313 M 447.999969 430.333313 L 436.333313 430.333313 L 436.333313 421 L 455 421 M 455 409.333313 L 455 430.333313 L 473.666687 430.333313 L 473.666687 409.333313 M 464.333344 409.333313 L 464.333344 430.333313"/>
                        </g>
                    </g>
                </g>
                <g id="g21">
                    <g id="g22">
                        <path id="path21" fill="none" stroke="#ffffff" stroke-width="4.666667" d="M 480.666656 169.666656 L 541.333313 169.666656 M 482.999969 190.666656 L 482.999969 179 L 501.666656 179 L 501.666656 188.333344 L 520.333374 188.333344 L 520.333374 179 L 508.666687 179 M 490 188.333344 L 494.666656 188.333344 M 541.333313 188.333344 L 529.666626 188.333344 L 529.666626 179 L 548.333313 179 M 548.333313 167.333313 L 548.333313 188.333344 L 567 188.333344 L 567 167.333313 M 557.666687 167.333313 L 557.666687 188.333344"/>
                        <path id="path22" fill="none" stroke="#ffffff" stroke-width="9.333333" d="M 480.666656 200 L 522.666687 200 M 527.333313 200 L 569.333374 200"/>
                        <g id="g23">
                            <path id="path23" fill="none" stroke="#ffffff" stroke-width="9.333333" d="M 480.666656 400 L 522.666687 400 M 527.333313 400 L 569.333374 400"/>
                        </g>
                        <g id="g24">
                            <path id="path24" fill="none" stroke="#ffffff" stroke-width="4.666667" d="M 480.666656 411.666687 L 541.333313 411.666687 M 482.999969 432.666687 L 482.999969 421 L 501.666656 421 L 501.666656 430.333313 L 520.333374 430.333313 L 520.333374 421 L 508.666687 421 M 490 430.333313 L 494.666656 430.333313 M 541.333313 430.333313 L 529.666626 430.333313 L 529.666626 421 L 548.333313 421 M 548.333313 409.333313 L 548.333313 430.333313 L 567 430.333313 L 567 409.333313 M 557.666687 409.333313 L 557.666687 430.333313"/>
                        </g>
                    </g>
                </g>
                <g id="g25">
                    <g id="g26">
                        <path id="path25" fill="none" stroke="#ffffff" stroke-width="4.666667" d="M 574 169.666656 L 634.666626 169.666656 M 576.333313 190.666656 L 576.333313 179 L 595 179 L 595 188.333344 L 613.666687 188.333344 L 613.666687 179 L 602 179 M 583.333313 188.333344 L 588 188.333344 M 634.666626 188.333344 L 623 188.333344 L 623 179 L 641.666687 179 M 641.666687 167.333313 L 641.666687 188.333344 L 660.333374 188.333344 L 660.333374 167.333313 M 651 167.333313 L 651 188.333344"/>
                        <path id="path26" fill="none" stroke="#ffffff" stroke-width="9.333333" d="M 574 200 L 616 200 M 620.666687 200 L 662.666687 200"/>
                        <g id="g27">
                            <path id="path27" fill="none" stroke="#ffffff" stroke-width="9.333333" d="M 574 400 L 616 400 M 620.666687 400 L 662.666687 400"/>
                        </g>
                        <g id="g28">
                            <path id="path28" fill="none" stroke="#ffffff" stroke-width="4.666667" d="M 574 411.666687 L 634.666626 411.666687 M 576.333313 432.666687 L 576.333313 421 L 595 421 L 595 430.333313 L 613.666687 430.333313 L 613.666687 421 L 602 421 M 583.333313 430.333313 L 588 430.333313 M 634.666626 430.333313 L 623 430.333313 L 623 421 L 641.666687 421 M 641.666687 409.333313 L 641.666687 430.333313 L 660.333374 430.333313 L 660.333374 409.333313 M 651 409.333313 L 651 430.333313"/>
                        </g>
                    </g>
                </g>
            </g>
        </g>
        <g id="g29">
            <g id="g30">
                <g id="g31">
                    <path id="path29" fill="none" stroke="#ffffff" stroke-width="4.666667" d="M 667.333313 169.666656 L 728 169.666656 M 669.666626 190.666656 L 669.666626 179 L 688.333313 179 L 688.333313 188.333344 L 707 188.333344 L 707 179 L 695.333374 179 M 676.666687 188.333344 L 681.333313 188.333344 M 728 188.333344 L 716.333313 188.333344 L 716.333313 179 L 735 179 M 735 167.333313 L 735 188.333344 L 753.666687 188.333344 L 753.666687 167.333313 M 744.333374 167.333313 L 744.333374 188.333344"/>
                    <path id="path30" fill="none" stroke="#ffffff" stroke-width="9.333333" d="M 667.333313 200 L 709.333313 200 M 714 200 L 756 200"/>
                    <g id="g32">
                        <path id="path31" fill="none" stroke="#ffffff" stroke-width="9.333333" d="M 667.333313 400 L 709.333313 400 M 714 400 L 756 400"/>
                    </g>
                    <g id="g33">
                        <path id="path32" fill="none" stroke="#ffffff" stroke-width="4.666667" d="M 667.333313 411.666687 L 728 411.666687 M 669.666626 432.666687 L 669.666626 421 L 688.333313 421 L 688.333313 430.333313 L 707 430.333313 L 707 421 L 695.333374 421 M 676.666687 430.333313 L 681.333313 430.333313 M 728 430.333313 L 716.333313 430.333313 L 716.333313 421 L 735 421 M 735 409.333313 L 735 430.333313 L 753.666687 430.333313 L 753.666687 409.333313 M 744.333374 409.333313 L 744.333374 430.333313"/>
                    </g>
                </g>
                <g id="g34">
                    <g id="g35">
                        <g id="g36">
                            <path id="path33" fill="none" stroke="#ffffff" stroke-width="4.666667" d="M 760.666626 169.666656 L 821.333313 169.666656 M 763 190.666656 L 763 179 L 781.666687 179 L 781.666687 188.333344 L 800.333374 188.333344 L 800.333374 179 L 788.666687 179 M 770 188.333344 L 774.666626 188.333344 M 821.333313 188.333344 L 809.666626 188.333344 L 809.666626 179 L 828.333313 179 M 828.333313 167.333313 L 828.333313 188.333344 L 847 188.333344 L 847 167.333313 M 837.666687 167.333313 L 837.666687 188.333344"/>
                            <path id="path34" fill="none" stroke="#ffffff" stroke-width="9.333333" d="M 760.666626 200 L 802.666687 200 M 807.333313 200 L 849.333374 200"/>
                            <g id="g37">
                                <path id="path35" fill="none" stroke="#ffffff" stroke-width="9.333333" d="M 760.666626 400 L 802.666687 400 M 807.333313 400 L 849.333374 400"/>
                            </g>
                            <g id="g38">
                                <path id="path36" fill="none" stroke="#ffffff" stroke-width="4.666667" d="M 760.666626 411.666687 L 821.333313 411.666687 M 763 432.666687 L 763 421 L 781.666687 421 L 781.666687 430.333313 L 800.333374 430.333313 L 800.333374 421 L 788.666687 421 M 770 430.333313 L 774.666626 430.333313 M 821.333313 430.333313 L 809.666626 430.333313 L 809.666626 421 L 828.333313 421 M 828.333313 409.333313 L 828.333313 430.333313 L 847 430.333313 L 847 409.333313 M 837.666687 409.333313 L 837.666687 430.333313"/>
                            </g>
                        </g>
                    </g>
                    <g id="g39">
                        <g id="g40">
                            <path id="path37" fill="none" stroke="#ffffff" stroke-width="4.666667" d="M 854.000061 169.666656 L 914.666626 169.666656 M 856.333313 190.666656 L 856.333313 179 L 875 179 L 875 188.333344 L 893.666687 188.333344 L 893.666687 179 L 882 179 M 863.333313 188.333344 L 868 188.333344 M 914.666626 188.333344 L 903 188.333344 L 903 179 L 921.666687 179 M 921.666687 167.333313 L 921.666687 188.333344 L 940.333374 188.333344 L 940.333374 167.333313 M 930.999939 167.333313 L 930.999939 188.333344"/>
                            <path id="path38" fill="none" stroke="#ffffff" stroke-width="9.333333" d="M 854.000061 200 L 895.999939 200 M 900.666687 200 L 942.666626 200"/>
                            <g id="g41">
                                <path id="path39" fill="none" stroke="#ffffff" stroke-width="9.333333" d="M 854.000061 400 L 895.999939 400 M 900.666687 400 L 942.666626 400"/>
                            </g>
                            <g id="g42">
                                <path id="path40" fill="none" stroke="#ffffff" stroke-width="4.666667" d="M 854.000061 411.666687 L 914.666626 411.666687 M 856.333313 432.666687 L 856.333313 421 L 875 421 L 875 430.333313 L 893.666687 430.333313 L 893.666687 421 L 882 421 M 863.333313 430.333313 L 868 430.333313 M 914.666626 430.333313 L 903 430.333313 L 903 421 L 921.666687 421 M 921.666687 409.333313 L 921.666687 430.333313 L 940.333374 430.333313 L 940.333374 409.333313 M 930.999939 409.333313 L 930.999939 430.333313"/>
                            </g>
                        </g>
                    </g>
                    <g id="g43">
                        <g id="g44">
                            <path id="path41" fill="none" stroke="#ffffff" stroke-width="4.666667" d="M 947.333374 169.666656 L 1008 169.666656 M 949.666626 190.666656 L 949.666626 179 L 968.333313 179 L 968.333313 188.333344 L 987 188.333344 L 987 179 L 975.333374 179 M 956.666687 188.333344 L 961.333313 188.333344 M 1008 188.333344 L 996.333313 188.333344 L 996.333313 179 L 1015 179 M 1015 167.333313 L 1015 188.333344 L 1033.666748 188.333344 L 1033.666748 167.333313 M 1024.333252 167.333313 L 1024.333252 188.333344"/>
                            <path id="path42" fill="none" stroke="#ffffff" stroke-width="9.333333" d="M 947.333374 200 L 989.333313 200 M 994.000061 200 L 1036 200"/>
                            <g id="g45">
                                <path id="path43" fill="none" stroke="#ffffff" stroke-width="9.333333" d="M 947.333374 400 L 989.333313 400 M 994.000061 400 L 1036 400"/>
                            </g>
                            <g id="g46">
                                <path id="path44" fill="none" stroke="#ffffff" stroke-width="4.666667" d="M 947.333374 411.666687 L 1008 411.666687 M 949.666626 432.666687 L 949.666626 421 L 968.333313 421 L 968.333313 430.333313 L 987 430.333313 L 987 421 L 975.333374 421 M 956.666687 430.333313 L 961.333313 430.333313 M 1008 430.333313 L 996.333313 430.333313 L 996.333313 421 L 1015 421 M 1015 409.333313 L 1015 430.333313 L 1033.666748 430.333313 L 1033.666748 409.333313 M 1024.333252 409.333313 L 1024.333252 430.333313"/>
                            </g>
                        </g>
                    </g>
                </g>
            </g>
        </g>
    </g>
    <g id="g47">
        <g id="f">
            <path id="path45" fill="#da0000" stroke="none" d="M 483.899994 362.700012 C 514.869507 372.734436 548.619873 359.55127 564.588806 331.182404 C 580.557678 302.813507 574.319519 267.120728 549.674988 245.849976 C 565.542725 269.377502 566.772278 299.8461 552.851929 324.575745 C 538.931641 349.305298 512.245667 364.060242 483.899994 362.700012"/>
            <path id="path46" fill="#da0000" stroke="none" d="M 571.349976 349.575012 C 591.477539 337.873413 602.523743 315.156586 599.298035 292.099304 C 596.072327 269.042023 579.216003 250.22876 556.649963 244.5 C 572.53833 256.480774 583.014099 274.284485 585.771118 293.99173 C 588.528137 313.698944 583.340393 333.694 571.349976 349.575012 M 525 375 L 521.25 300 L 525 240.975006 C 527.27832 244.155151 530.322327 246.708954 533.849976 248.399994 L 533.849976 292.5 L 530.850037 366.974976 Z M 523.5 236.25 L 525 237.674988 C 528.099854 242.324646 534.234802 243.841644 539.144409 241.172546 C 544.054077 238.503418 546.11676 232.529816 543.899963 227.399994 C 543.133789 231.620941 539.808472 234.911377 535.579651 235.632935 C 531.350891 236.354523 527.122559 234.353027 525 230.625"/>
        </g>
        <g id="g48">
            <g id="g49">
                <path id="path47" fill="#da0000" stroke="none" d="M 566.100037 362.700012 C 535.130493 372.734436 501.380096 359.55127 485.411224 331.182404 C 469.442352 302.813507 475.680481 267.120728 500.325012 245.849976 C 484.457306 269.377502 483.227753 299.8461 497.148071 324.575745 C 511.068359 349.305298 537.754333 364.060242 566.100037 362.700012"/>
                <path id="path48" fill="#da0000" stroke="none" d="M 478.649994 349.575012 C 458.522491 337.873413 447.476257 315.156586 450.701965 292.099304 C 453.927673 269.042023 470.783997 250.22876 493.350006 244.5 C 477.4617 256.480774 466.985931 274.284485 464.228882 293.99173 C 461.471863 313.698944 466.659607 333.694 478.649994 349.575012 M 525 375 L 528.75 300 L 525 240.975006 C 522.72168 244.155151 519.677673 246.708954 516.150024 248.399994 L 516.150024 292.5 L 519.149963 366.974976 Z M 526.5 236.25 L 525 237.674988 C 521.900146 242.324646 515.765198 243.841644 510.85556 241.172546 C 505.945953 238.503418 503.88327 232.529816 506.100006 227.399994 C 506.866211 231.620941 510.191559 234.911377 514.420349 235.632935 C 518.649109 236.354523 522.877441 234.353027 525 230.625"/>
            </g>
        </g>
    </g>
</svg>
