<?xml version="1.0" encoding="UTF-8"?>
<!-- Generated by Pixelmator Pro 3.5.7 -->
<svg width="1200" height="600" viewBox="0 0 1200 600" xmlns="http://www.w3.org/2000/svg">
    <path id="Path" fill="#024fa2" stroke="none" d="M 0 0 L 1200 0 L 1200 600 L 0 600 Z"/>
    <path id="path1" fill="#ffffff" stroke="none" d="M 0 100 L 1200 100 L 1200 500 L 0 500 Z"/>
    <path id="path2" fill="#ed1c27" stroke="none" d="M 0 116.666656 L 1200 116.666656 L 1200 483.333344 L 0 483.333344 Z"/>
    <path id="path3" fill="#ffffff" stroke="none" d="M 533.333313 300 C 533.333313 373.63797 473.637939 433.333313 399.999969 433.333313 C 326.36203 433.333313 266.666656 373.63797 266.666656 300 C 266.666656 226.36203 326.36203 166.666687 399.999969 166.666687 C 473.637939 166.666687 533.333313 226.36203 533.333313 300 Z"/>
    <g id="Group">
        <g id="b">
            <path id="a" fill="#ed1c27" stroke="none" d="M 400.000763 170.828369 L 360.08609 293.673187 L 421.508484 313.630524 Z"/>
            <g id="g1">
                <path id="path4" fill="#ed1c27" stroke="none" d="M 399.999207 170.828369 L 439.91391 293.673187 L 378.491486 313.630524 Z"/>
            </g>
        </g>
        <g id="g2">
            <g id="g3">
                <path id="path5" fill="#ed1c27" stroke="none" d="M 522.849731 260.084503 L 393.683075 260.084503 L 393.683075 324.667847 Z"/>
                <g id="g4">
                    <path id="path6" fill="#ed1c27" stroke="none" d="M 522.849304 260.083038 L 418.351227 336.00528 L 380.390106 283.756287 Z"/>
                </g>
            </g>
        </g>
        <g id="g5">
            <g id="g6">
                <path id="path7" fill="#ed1c27" stroke="none" d="M 277.150726 260.083038 L 381.648773 336.00528 L 419.609894 283.756287 Z"/>
                <g id="g7">
                    <path id="path8" fill="#ed1c27" stroke="none" d="M 277.150238 260.084503 L 406.316895 260.084503 L 406.316895 324.667847 Z"/>
                </g>
            </g>
        </g>
        <g id="g8">
            <g id="g9">
                <path id="path9" fill="#ed1c27" stroke="none" d="M 475.92453 404.502502 L 436.009827 281.657715 L 374.587433 301.615051 Z"/>
                <g id="g10">
                    <path id="path10" fill="#ed1c27" stroke="none" d="M 475.925812 404.501587 L 371.427765 328.579315 L 409.388916 276.330292 Z"/>
                </g>
            </g>
        </g>
        <g id="g11">
            <g id="g12">
                <path id="path11" fill="#ed1c27" stroke="none" d="M 324.074188 404.501587 L 428.572235 328.579315 L 390.611084 276.330292 Z"/>
                <g id="g13">
                    <path id="path12" fill="#ed1c27" stroke="none" d="M 324.07547 404.502502 L 363.990143 281.657715 L 425.412567 301.615051 Z"/>
                </g>
            </g>
        </g>
    </g>
</svg>
