<?xml version="1.0" encoding="UTF-8"?>
<!-- Generated by Pixelmator Pro 3.5.7 -->
<svg width="1200" height="600" viewBox="0 0 1200 600" xmlns="http://www.w3.org/2000/svg">
    <path id="Path" fill="#cc092f" stroke="none" d="M -0 0 L 1200 0 L 1200 600 L -0 600 Z"/>
    <path id="path1" fill="#ffd200" stroke="none" d="M -0 0 L 800 0 L 800 600 L -0 600 Z"/>
    <path id="path2" fill="#0046ae" stroke="none" d="M -0 0 L 400 0 L 400 600 L -0 600 Z"/>
    <path id="path3" fill="#000000" stroke="none" d="M 565.126648 122.160004 C 562.977966 122.160004 561.101318 122.708008 560.006653 123.559967 C 561.746033 124.06665 563.010681 125.670654 563.010681 127.621338 L 563.010681 132.569977 L 558.062683 132.569977 C 556.124695 132.569977 554.519348 131.323334 554.000671 129.600677 C 553.148682 130.695313 552.601318 132.572021 552.601318 134.720001 C 552.601318 136.868652 553.148682 138.746002 554.000671 139.839355 C 554.507996 138.099335 556.111328 136.835327 558.062683 136.835327 L 563.010681 136.835327 L 563.010681 160.622681 C 563.010681 162.492676 561.84137 164.043976 560.211975 164.615326 C 562.572693 164.936676 564.604004 168.104645 565.160706 169.837311 C 565.718689 168.108643 567.75 164.936676 570.109985 164.615326 C 568.40448 164.033112 567.262878 162.424805 567.276001 160.622681 L 567.276001 136.833984 L 572.225342 136.833984 C 574.164001 136.833984 575.768677 138.080658 576.287354 139.804688 C 577.138672 138.709991 577.685974 136.832001 577.685974 134.684662 C 577.685974 132.536011 577.139343 130.659332 576.287354 129.565338 C 575.779968 131.304688 574.175964 132.567993 572.225342 132.567993 L 567.276001 132.567993 L 567.276001 127.619995 C 567.276001 125.681305 568.522034 124.07666 570.246033 123.558014 C 569.152649 122.707367 567.274658 122.159332 565.126648 122.159332 Z"/>
    <path id="path4" fill="#f5d402" stroke="none" d="M 565.126648 123.186676 C 564.007996 123.186676 563.022644 123.395996 562.192017 123.663971 C 563.301331 124.628662 564.035339 126.026642 564.035339 127.623322 L 564.035339 132.572021 C 564.035339 132.64267 564.014648 132.709991 564.000671 132.777344 L 564.000671 133.562012 L 563.215332 133.562012 C 563.148682 133.576019 563.080627 133.595978 563.010681 133.59668 L 558.06134 133.59668 C 556.483337 133.59668 555.10199 132.874664 554.137329 131.787994 C 553.859985 132.627319 553.625305 133.586029 553.625305 134.723358 C 553.625305 135.84201 553.834656 136.827301 554.102661 137.65799 C 555.067322 136.548676 556.464661 135.81601 558.06134 135.81601 L 564.033997 135.81601 C 564.027344 135.918671 563.999329 136.017975 563.999329 136.121979 L 563.999329 136.634003 C 564.013367 136.700684 564.033325 136.767975 564.033997 136.838654 L 564.033997 160.625977 C 564.033997 162.170654 563.237366 163.385345 562.190674 164.345978 C 562.927673 164.805511 563.584717 165.382202 564.135986 166.053345 C 564.627319 166.643311 564.822693 167.220673 565.159973 167.827301 C 565.497986 167.222015 565.692688 166.643311 566.184021 166.053345 C 566.728271 165.397827 567.373474 164.833221 568.095337 164.380646 C 567.039368 163.422699 566.252014 162.177338 566.252014 160.626678 L 566.252014 135.847992 L 567.07135 135.847992 C 567.138 135.834686 567.205322 135.814667 567.276001 135.814667 L 572.22467 135.814667 C 573.802002 135.814667 575.18335 136.536652 576.148682 137.622681 C 576.425354 136.784027 576.661316 135.826019 576.661316 134.687988 C 576.661316 133.569977 576.451355 132.583984 576.18335 131.753326 C 575.218689 132.862671 573.82135 133.595337 572.22467 133.595337 L 567.276001 133.595337 C 567.205994 133.595337 567.138 133.574677 567.07135 133.560669 L 566.286011 133.560669 L 566.286011 132.776001 C 566.272034 132.709991 566.252014 132.641998 566.251343 132.570679 L 566.251343 127.622681 C 566.251343 126.044678 566.973999 124.663971 568.059998 123.697998 C 567.220642 123.421997 566.262634 123.186005 565.125305 123.186005"/>
    <path id="path5" fill="#000000" stroke="none" d="M 627.072693 209.324677 C 624.049316 207.177338 621.567322 204.75 619.803345 201.917999 C 615.555359 195.102661 613.762634 186.735992 613.762634 178.233307 C 613.762634 174.639313 617.789368 170.593353 617.789368 167.686676 C 617.789368 163.293335 617.380005 160.657318 617.380005 160.657318 C 618.808655 160.85202 621.304626 163.387329 621.304626 163.387329 C 621.304626 163.387329 621.218689 156.095337 618.914673 154.82132 C 618.914673 154.82132 619.84668 153.862671 623.215332 153.763336 C 622.268677 151.365997 617.584656 148.439331 617.584656 148.439331 C 617.818665 148.02002 618.251343 147.657318 618.812683 147.347321 C 619.989319 146.696655 621.642639 146.267334 622.907349 146.015991 C 621.559326 145.736664 620.005981 145.308685 618.300659 144.752686 C 614.406006 143.484009 609.82135 141.621338 605.536682 139.56601 C 597.715332 135.813995 591.757324 135.572662 588.472656 135.572662 C 586.089294 135.573334 582.579346 135.638672 580.521301 137.007324 C 578.638 138.257324 578.791321 139.883331 578.132019 140.45401 C 576.578674 141.798004 573.91803 141.750641 572.636658 141.750641 C 564.343323 141.750641 564.036011 150.624664 564.036011 150.624664 C 564.036011 150.624664 566.156677 147.416016 569.906006 147.416016 C 576.140015 147.416016 580.861328 150.812012 580.861328 152.091309 C 580.861328 152.609344 580.218689 152.705322 580.179321 152.705322 C 576.107361 152.705322 569.961975 150.361328 566.697327 150.248016 L 566.697327 151.85202 C 573.98468 154.387329 581.372681 157.976654 581.372681 173.796661 C 581.372681 183.758667 580.179993 193.92334 575.195984 201.918671 C 573.430664 204.75 570.917297 207.172699 567.892639 209.325348 L 597.482666 214.658691 Z"/>
    <g id="a">
        <path id="path6" fill="#000000" stroke="none" d="M 597.481323 202.658691 L 567.892639 209.325348 C 566.546692 208.918671 560.217346 206.951996 555.776672 204.47934 C 547.959351 200.124664 543.906006 195.792633 534.616638 195.366669 L 534.616638 188.301361 C 534.616638 184.526703 535.982666 181.125977 535.982666 177.516693 C 532.06665 176.466675 521.197327 163.176666 511.170654 157.277985 C 496.417328 166.833984 484.994019 182.521332 484.994019 189.735352 C 484.994019 189.735352 485.437347 344.742004 484.994019 398.742004 C 484.994019 401.854004 483.11734 406.250671 483.11734 406.250671 C 488.503326 403.971985 498.376007 390.463989 500.454681 385.329346 L 500.454681 387.787354 C 508.588654 384.078003 514.544678 374.33136 517.211975 369.289368 C 517.259338 370.018677 517.383362 371.848694 517.383362 371.848694 C 524.649963 365.478699 533.900696 327.823334 533.900696 327.823334 L 549.31665 342.973358 C 549.31665 342.973358 543.741333 354.290649 541.569336 356.31665 C 541.569336 356.31665 543.02533 356.501343 544.674683 356.487366 C 543.659973 357.945984 535.909973 369.104004 533.480652 373.312683 C 531.207336 377.25 529.603333 375.497314 526.108704 375.497314 C 523.210632 375.497314 516.642029 380.114014 515.563293 381.981995 C 514.429321 383.945374 513.584656 386.330627 513.584656 388.295959 C 513.584656 390.455994 515.871338 393.416016 515.871338 393.416016 C 516.117371 392.381348 516.553345 392.015991 516.553345 392.015991 C 516.553345 392.015991 522.562012 399.501343 523.447327 400.479309 C 524.136658 401.241333 527.210632 401.736633 528.294006 400.753357 C 531.0047 398.288635 533.628662 396.565369 536.041321 393.006653 C 537.283325 391.171997 537.377991 389.070007 538.805359 387.100647 C 543.580017 380.513977 553.08197 367.901306 555.25531 365.020691 C 555.400696 365.822693 555.52533 366.490662 555.66333 367.307312 C 558.126038 362.335327 569.963989 352.835999 569.963989 352.835999 L 582.349304 358.536011 C 582.349304 358.536011 559.22467 411.692688 538.698669 419.866028 C 538.698669 419.866028 547.628662 423.659973 558.595337 429.354004 C 560.241699 430.214905 561.880005 431.091187 563.51001 431.982666 C 564.977783 430.210266 566.400269 428.400757 567.776001 426.555969 C 574.333313 417.782654 580.746033 407.614014 580.746033 407.614014 C 581.192688 410.2547 577.72998 418.409973 571.872681 428.468018 C 570.720642 430.444031 569.519348 432.510681 568.186707 434.609985 C 569.675476 435.457764 571.15448 436.322693 572.623352 437.204651 C 583.486633 443.741333 593.68866 451.255981 597.468018 458.159363 L 600.134705 451.486633 L 597.468018 444.814026 L 597.468018 211.509369 L 598.801331 208.176025 Z"/>
        <g id="Group">
            <path id="path7" fill="#b07f55" stroke="none" d="M 597.468018 444.814026 C 593.635315 440.656677 585.622009 435.577332 576.616028 430.890015 C 587.50531 411.346008 592.901306 380.453308 590.369324 374.303345 C 590.369324 374.303345 585.899353 390.325317 580.437317 399.455994 C 575.380005 407.911987 569.153992 417.422668 563.134705 424.473328 C 558.182678 422.360657 553.380676 420.588013 549.278015 419.353333 C 567.31665 405.458008 585.762024 359.52533 585.762024 359.52533 L 566.687317 350.685364 C 566.687317 350.685364 559.551331 359.0047 557.234009 360.549316 C 557.234009 360.549316 556.244019 356.411987 555.664001 354.951965 C 555.664001 354.951965 552.929993 357.02002 551.43335 357.069336 C 551.43335 357.069336 550.986023 354.261353 550.64801 352.426697 C 548.764648 353.682007 545.631348 353.416687 545.631348 353.416687 C 548.382629 352.114014 551.638 344.133362 551.638 344.133362 L 533.42334 319.904663 C 533.42334 319.904663 527.02533 350.648682 519.737976 356.968689 L 519.737976 224.582001 L 525.505981 229.939331 L 534.242676 221.782684 L 534.242676 215.57132 L 526.4953 222.806 L 526.4953 204.069336 C 527.389771 202.7258 528.232178 201.348297 529.020691 199.940033 C 530.274658 202.125977 534.327332 208.826019 539.088013 212.943359 C 539.871338 209.757965 545.026672 206.731323 545.026672 206.731323 C 545.026672 206.731323 546.873962 211.736664 549.701355 212.976654 C 550.695984 211.224701 556.630676 207.346039 556.630676 207.346039 C 556.630676 207.346039 551.553345 208.11734 549.497314 210.042633 C 547.731323 209.647339 547.278687 202.670654 547.278687 202.670654 C 547.278687 202.670654 539.807312 206.309967 538.507996 208.916016 C 537.083313 208.53067 534.865295 202.923981 534.002014 200.62265 C 535.849304 200.416748 537.706604 200.314362 539.565369 200.31601 C 541.695984 200.31601 544.421997 201.325348 547.278015 202.670654 C 550.416016 204.14798 553.698669 206.018677 556.630005 207.34668 C 560.384705 209.046661 566.065369 209.391998 567.721313 209.462646 C 565.824646 210.79599 563.739319 212.013336 561.476685 213.148682 C 561.476685 213.148682 570.417297 213.06601 576.697998 209.940033 C 578.93866 208.498657 581.263977 207.062653 583.250671 205.366669 C 582.388672 207.761993 581.046692 210.592682 578.949341 213.011322 C 588.17334 212.230682 592.766663 206.963348 594.068665 205.196014 C 594.680664 206.779327 595.770691 209.320648 597.481323 211.509369 L 600.814636 211.509369 L 600.814636 438.175964 Z M 529.497986 178.198639 L 529.66803 182.430664 L 529.66803 194.888672 C 526.32196 193.737305 522.117371 188.23999 520.078674 185.332672 L 520.078674 183.625977 C 520.078674 182.02066 521.023315 180.847992 521.716675 180.213348 L 519.703308 179.497314 C 518.935364 180.37265 518.099304 181.672699 518.099304 183.353363 L 518.099304 184.343353 L 512.093323 190.794037 L 506.189331 181.85202 L 506.189331 179.667999 C 506.189331 178.196014 507.32132 176.554688 508.271332 175.436005 L 506.291351 174.71933 C 505.291992 176.014008 504.243317 177.758667 504.243317 179.394684 L 504.243317 181.168671 C 502.854645 182.605988 497.451996 188.166016 497.451996 188.166016 L 494.005341 180.76001 C 498.141998 175.030029 504.849335 168.614014 511.171356 164.01001 C 511.171356 164.01001 524.880676 176.597321 529.497986 178.198639 Z M 494.751343 190.28067 L 494.751343 200.554688 L 489.973358 204.990631 L 489.973358 189.735352 C 489.973358 188.274658 490.585327 186.514648 491.610687 184.581329 Z"/>
            <path id="path8" fill="#b07f55" stroke="none" d="M 509.631348 194.239349 L 509.631348 200.587311 L 504.137329 205.741333 L 504.137329 185.878662 Z M 502.190674 205.707367 L 496.695343 200.587982 L 496.695343 193.148682 L 502.190674 187.380707 Z M 527.27533 197.993988 C 525.999329 199.797363 522.657349 204.208008 519.050659 206.151337 L 519.050659 188.711334 C 519.877991 190.087311 523.67334 196.227325 527.27533 197.993988 Z M 517.104004 189.597992 L 517.104004 205.706665 L 511.608673 200.587311 L 511.608673 194.888031 Z M 494.750641 206.764648 L 494.750641 222.839996 L 489.972656 218.368652 L 489.972656 211.235352 Z M 502.186676 211.918671 L 502.186676 217.686005 L 496.690674 222.804688 L 496.690674 206.798676 Z M 509.625336 206.800018 L 509.625336 222.806641 L 504.131348 217.652679 L 504.131348 211.953339 Z M 517.100647 211.953339 L 517.100647 217.652679 L 511.605347 222.806 L 511.605347 206.799316 Z M 524.539978 222.839996 L 519.044006 217.686005 L 519.044006 212.328705 C 520.939331 211.171997 522.845337 209.04599 524.539368 206.800018 Z M 510.616669 229.938629 L 516.41864 224.54599 L 516.41864 356.966003 C 516.41864 356.966003 516.823303 363.536682 517.101318 367.818665 L 504.815338 380.241333 L 504.815338 224.510651 Z M 501.501984 375.293335 C 501.501984 379.549988 493.72934 389.475342 489.966675 391.743347 L 489.966675 224.583344 L 495.699982 229.940674 L 501.501984 224.547363 Z"/>
        </g>
        <g id="g1">
            <path id="path9" fill="#d10429" stroke="none" d="M 549.690002 360.925354 L 553.921997 358.023987 C 553.921997 358.023987 554.204041 359.424011 554.570007 361.335327 C 552.757996 363.812683 542.349304 378.018005 537.198669 384.951965 C 535.91803 386.674683 534.842651 391.060669 534.842651 391.060669 C 534.842651 391.060669 532.966675 390.17334 532.966675 388.570007 C 532.966675 386.9953 533.171997 385.122681 533.171997 385.122681 C 533.171997 385.122681 531.771301 386.726685 529.348694 386.726685 C 529.348694 384.791321 533.09137 382.692017 533.239319 379.935974 C 530.385315 382.052002 527.906677 380.966003 524.605347 381.984009 C 521.01001 383.09137 520.008667 384.60199 518.906006 384.544006 C 518.256653 384.508667 517.66864 383.388672 517.916687 382.700684 C 518.346008 381.509338 522.792664 378.211975 525.901306 377.616028 C 526.645996 377.473328 532.503357 378.890686 533.68335 377.070007 C 538.544678 369.568665 546.436707 357.391296 547.197998 356.218018 C 547.699341 356.097961 548.160706 355.970642 548.528015 355.738647 C 548.528015 355.738647 548.483337 359.572693 549.690002 360.925354 Z"/>
            <path id="path10" fill="#d10429" stroke="none" d="M 522.47998 384.301331 C 522.715332 384.573303 522.694641 384.971985 522.444641 385.187988 L 520.533997 386.859985 C 520.283997 387.075989 519.882629 387.029968 519.647339 386.757324 C 519.411316 386.485352 519.431335 386.08667 519.682007 385.869995 L 521.592651 384.197998 C 521.714294 384.091614 521.87561 384.042114 522.036011 384.062012 C 522.194641 384.080017 522.361328 384.164673 522.47998 384.301331 Z M 525.380676 386.314636 C 525.951965 386.973328 525.915344 387.906677 525.312012 388.431335 L 520.670654 392.492004 C 520.06665 393.017334 519.092651 392.911987 518.52002 392.253967 C 517.948669 391.595337 517.98468 390.627991 518.588684 390.104004 L 523.22998 386.07666 C 523.461365 385.880981 523.747498 385.761536 524.049316 385.73468 C 524.523987 385.695984 525.022644 385.903992 525.380676 386.314636 Z M 528.040649 389.454651 C 528.612 390.113342 528.575989 391.045959 527.971985 391.570679 L 523.297302 395.632019 C 522.693298 396.156677 521.753357 396.052002 521.180664 395.393372 C 520.608704 394.735352 520.645325 393.768005 521.25 393.244019 L 525.890686 389.216675 C 526.109558 389.022278 526.384583 388.902466 526.675964 388.874695 C 527.149963 388.835999 527.682678 389.042664 528.040649 389.454651 Z M 529.642639 391.945984 C 530.148376 391.903625 530.643677 392.10675 530.973999 392.492004 C 531.545959 393.150696 531.509338 394.117981 530.906006 394.642029 L 526.263977 398.669983 C 525.659973 399.194641 524.720032 399.089294 524.14801 398.430664 C 523.575989 397.772034 523.578674 396.838684 524.182007 396.314026 L 528.857971 392.253357 C 529.083313 392.055969 529.357361 391.968689 529.642639 391.945984 Z"/>
        </g>
    </g>
    <g id="g2">
        <g id="g3">
            <path id="path11" fill="#000000" stroke="none" d="M 597.454651 202.658691 L 627.043335 209.325348 C 628.389343 208.918671 634.718689 206.951996 639.159363 204.47934 C 646.976624 200.124664 651.029968 195.792633 660.319336 195.366669 L 660.319336 188.301361 C 660.319336 184.526703 658.953308 181.125977 658.953308 177.516693 C 662.869324 176.466675 673.738647 163.176666 683.765381 157.277985 C 698.518738 166.833984 709.941956 182.521332 709.941956 189.735352 C 709.941956 189.735352 709.498718 344.742004 709.941956 398.742004 C 709.941956 401.854004 711.818665 406.250671 711.818665 406.250671 C 706.432678 403.971985 696.559998 390.463989 694.481384 385.329346 L 694.481384 387.787354 C 686.347351 384.078003 680.391296 374.33136 677.723999 369.289368 C 677.676697 370.018677 677.552673 371.848694 677.552673 371.848694 C 670.286011 365.478699 661.035339 327.823334 661.035339 327.823334 L 645.619324 342.973358 C 645.619324 342.973358 651.194641 354.290649 653.366638 356.31665 C 653.366638 356.31665 651.910645 356.501343 650.261292 356.487366 C 651.276001 357.945984 659.026001 369.104004 661.455322 373.312683 C 663.728699 377.25 665.332642 375.497314 668.827332 375.497314 C 671.725342 375.497314 678.294006 380.114014 679.372681 381.981995 C 680.506653 383.945374 681.351318 386.330627 681.351318 388.295959 C 681.351318 390.455994 679.064636 393.416016 679.064636 393.416016 C 678.818665 392.381348 678.382629 392.015991 678.382629 392.015991 C 678.382629 392.015991 672.373962 399.501343 671.488647 400.479309 C 670.799316 401.241333 667.725342 401.736633 666.642029 400.753357 C 663.931335 398.288635 661.307312 396.565369 658.894653 393.006653 C 657.652649 391.171997 657.557983 389.070007 656.130676 387.100647 C 651.356018 380.513977 641.854004 367.901306 639.680664 365.020691 C 639.535339 365.822693 639.410645 366.490662 639.272644 367.307312 C 636.809998 362.335327 624.971985 352.835999 624.971985 352.835999 L 612.58667 358.536011 C 612.58667 358.536011 635.711365 411.692688 656.237366 419.866028 C 656.237366 419.866028 647.307312 423.659973 636.340637 429.354004 C 634.694275 430.214905 633.055969 431.091187 631.425964 431.982666 C 629.958191 430.210266 628.535706 428.400757 627.159973 426.555969 C 620.602661 417.782654 614.190002 407.614014 614.190002 407.614014 C 613.743347 410.2547 617.205994 418.409973 623.063293 428.468018 C 624.215332 430.444031 625.416687 432.510681 626.749329 434.609985 C 625.260498 435.457764 623.781494 436.322693 622.312683 437.204651 C 611.449341 443.741333 601.247314 451.255981 597.467957 458.159363 L 594.801331 451.486633 L 597.467957 444.814026 L 597.467957 211.509369 L 596.134644 208.176025 Z"/>
            <g id="g4">
                <path id="path12" fill="#b07f55" stroke="none" d="M 597.467957 444.814026 C 601.300659 440.656677 609.314026 435.577332 618.320007 430.890015 C 607.430664 411.346008 602.034668 380.453308 604.56665 374.303345 C 604.56665 374.303345 609.036682 390.325317 614.498657 399.455994 C 619.555969 407.911987 625.781982 417.422668 631.801331 424.473328 C 636.753357 422.360657 641.555359 420.588013 645.65802 419.353333 C 627.619324 405.458008 609.174011 359.52533 609.174011 359.52533 L 628.248657 350.685364 C 628.248657 350.685364 635.384644 359.0047 637.701965 360.549316 C 637.701965 360.549316 638.691956 356.411987 639.272034 354.951965 C 639.272034 354.951965 642.005981 357.02002 643.502625 357.069336 C 643.502625 357.069336 643.950012 354.261353 644.288025 352.426697 C 646.171326 353.682007 649.304626 353.416687 649.304626 353.416687 C 646.553345 352.114014 643.298035 344.133362 643.298035 344.133362 L 661.512634 319.904663 C 661.512634 319.904663 667.910645 350.648682 675.197998 356.968689 L 675.197998 224.582001 L 669.429993 229.939331 L 660.693298 221.782684 L 660.693298 215.57132 L 668.440674 222.806 L 668.440674 204.069336 C 667.546204 202.7258 666.703796 201.348297 665.915344 199.940033 C 664.661316 202.125977 660.608643 208.826019 655.847961 212.943359 C 655.064636 209.757965 649.909363 206.731323 649.909363 206.731323 C 649.909363 206.731323 648.062012 211.736664 645.23468 212.976654 C 644.23999 211.224701 638.305359 207.346039 638.305359 207.346039 C 638.305359 207.346039 643.382629 208.11734 645.43866 210.042633 C 647.204651 209.647339 647.657288 202.670654 647.657288 202.670654 C 647.657288 202.670654 655.128662 206.309967 656.427979 208.916016 C 657.852661 208.53067 660.070679 202.923981 660.934021 200.62265 C 659.086731 200.416748 657.22937 200.314362 655.370667 200.31601 C 653.23999 200.31601 650.513977 201.325348 647.65802 202.670654 C 644.519958 204.14798 641.237366 206.018677 638.305969 207.34668 C 634.551331 209.046661 628.870667 209.391998 627.214661 209.462646 C 629.111328 210.79599 631.196655 212.013336 633.45929 213.148682 C 633.45929 213.148682 624.518677 213.06601 618.237976 209.940033 C 615.997314 208.498657 613.671997 207.062653 611.685364 205.366669 C 612.547302 207.761993 613.889343 210.592682 615.986633 213.011322 C 606.762634 212.230682 602.169312 206.963348 600.86731 205.196014 C 600.25531 206.779327 599.165344 209.320648 597.454651 211.509369 L 594.121338 211.509369 L 594.121338 438.175964 Z M 665.437988 178.198639 L 665.268005 182.430664 L 665.268005 194.888672 C 668.614014 193.737305 672.818665 188.23999 674.857361 185.332672 L 674.857361 183.625977 C 674.857361 182.02066 673.912659 180.847992 673.219299 180.213348 L 675.232666 179.497314 C 676.000671 180.37265 676.83667 181.672699 676.83667 183.353363 L 676.83667 184.343353 L 682.842712 190.794037 L 688.746643 181.85202 L 688.746643 179.667999 C 688.746643 178.196014 687.614685 176.554688 686.664734 175.436005 L 688.644714 174.71933 C 689.644043 176.014008 690.692688 177.758667 690.692688 179.394684 L 690.692688 181.168671 C 692.08136 182.605988 697.48407 188.166016 697.48407 188.166016 L 700.930664 180.76001 C 696.794006 175.030029 690.08667 168.614014 683.764648 164.01001 C 683.764648 164.01001 670.055359 176.597321 665.437988 178.198639 Z M 700.184631 190.28067 L 700.184631 200.554688 L 704.962646 204.990631 L 704.962646 189.735352 C 704.962646 188.274658 704.350647 186.514648 703.325378 184.581329 Z"/>
                <path id="path13" fill="#b07f55" stroke="none" d="M 685.304688 194.239349 L 685.304688 200.587311 L 690.798645 205.741333 L 690.798645 185.878662 Z M 692.745361 205.707367 L 698.240662 200.587982 L 698.240662 193.148682 L 692.745361 187.380707 Z M 667.660645 197.993988 C 668.936646 199.797363 672.278625 204.208008 675.885315 206.151337 L 675.885315 188.711334 C 675.057983 190.087311 671.262634 196.227325 667.660645 197.993988 Z M 677.83197 189.597992 L 677.83197 205.706665 L 683.327332 200.587311 L 683.327332 194.888031 Z M 700.185364 206.764648 L 700.185364 222.839996 L 704.963379 218.368652 L 704.963379 211.235352 Z M 692.749329 211.918671 L 692.749329 217.686005 L 698.245361 222.804688 L 698.245361 206.798676 Z M 685.31073 206.800018 L 685.31073 222.806641 L 690.804688 217.652679 L 690.804688 211.953339 Z M 677.835327 211.953339 L 677.835327 217.652679 L 683.330627 222.806 L 683.330627 206.799316 Z M 670.395996 222.839996 L 675.892029 217.686005 L 675.892029 212.328705 C 673.996643 211.171997 672.090637 209.04599 670.396667 206.800018 Z M 684.319336 229.938629 L 678.517334 224.54599 L 678.517334 356.966003 C 678.517334 356.966003 678.112671 363.536682 677.834656 367.818665 L 690.120667 380.241333 L 690.120667 224.510651 Z M 693.434021 375.293335 C 693.434021 379.549988 701.206726 389.475342 704.969299 391.743347 L 704.969299 224.583344 L 699.236023 229.940674 L 693.434021 224.547363 Z"/>
            </g>
            <g id="g5">
                <path id="path14" fill="#d10429" stroke="none" d="M 645.246033 360.925354 L 641.013977 358.023987 C 641.013977 358.023987 640.731995 359.424011 640.366028 361.335327 C 642.177979 363.812683 652.58667 378.018005 657.737366 384.951965 C 659.018005 386.674683 660.093323 391.060669 660.093323 391.060669 C 660.093323 391.060669 661.969299 390.17334 661.969299 388.570007 C 661.969299 386.9953 661.763977 385.122681 661.763977 385.122681 C 661.763977 385.122681 663.164673 386.726685 665.587341 386.726685 C 665.587341 384.791321 661.844666 382.692017 661.696655 379.935974 C 664.550659 382.052002 667.029358 380.966003 670.330627 381.984009 C 673.925964 383.09137 674.927307 384.60199 676.029968 384.544006 C 676.679321 384.508667 677.267334 383.388672 677.019348 382.700684 C 676.590027 381.509338 672.143311 378.211975 669.034668 377.616028 C 668.289978 377.473328 662.432678 378.890686 661.252625 377.070007 C 656.391296 369.568665 648.499329 357.391296 647.737976 356.218018 C 647.236633 356.097961 646.77533 355.970642 646.40802 355.738647 C 646.40802 355.738647 646.452698 359.572693 645.246033 360.925354 Z"/>
                <path id="path15" fill="#d10429" stroke="none" d="M 672.455994 384.301331 C 672.220642 384.573303 672.241333 384.971985 672.491333 385.187988 L 674.401978 386.859985 C 674.651978 387.075989 675.053345 387.029968 675.288635 386.757324 C 675.524658 386.485352 675.5047 386.08667 675.253967 385.869995 L 673.343323 384.197998 C 673.22168 384.091614 673.060364 384.042114 672.899963 384.062012 C 672.741333 384.080017 672.574646 384.164673 672.455994 384.301331 Z M 669.555359 386.314636 C 668.984009 386.973328 669.020691 387.906677 669.623962 388.431335 L 674.26532 392.492004 C 674.869324 393.017334 675.843323 392.911987 676.415955 392.253967 C 676.987366 391.595337 676.951355 390.627991 676.347351 390.104004 L 671.705994 386.07666 C 671.47467 385.880981 671.188477 385.761536 670.886658 385.73468 C 670.411987 385.695984 669.91333 385.903992 669.555359 386.314636 Z M 666.895325 389.454651 C 666.323975 390.113342 666.359985 391.045959 666.963989 391.570679 L 671.638672 395.632019 C 672.242676 396.156677 673.182678 396.052002 673.75531 395.393372 C 674.327332 394.735352 674.290649 393.768005 673.685974 393.244019 L 669.045349 389.216675 C 668.826477 389.022278 668.551453 388.902466 668.26001 388.874695 C 667.786011 388.835999 667.253357 389.042664 666.895325 389.454651 Z M 665.293335 391.945984 C 664.787598 391.903625 664.292297 392.10675 663.961975 392.492004 C 663.390015 393.150696 663.426697 394.117981 664.029968 394.642029 L 668.671997 398.669983 C 669.276001 399.194641 670.216003 399.089294 670.788025 398.430664 C 671.359985 397.772034 671.357361 396.838684 670.753967 396.314026 L 666.078003 392.253357 C 665.852661 392.055969 665.578674 391.968689 665.293335 391.945984 Z"/>
            </g>
        </g>
    </g>
    <path id="path16" fill="#b07f55" stroke="none" d="M 590.622681 137.757965 C 598.261353 137.757965 603.633972 141.240631 610.862 144.446655 C 612.755981 145.286652 614.4953 145.967316 616.048035 146.493988 C 615.075317 147.355988 614.318665 148.222015 614.102661 148.951996 C 614.102661 148.951996 617.34198 149.552002 618.812012 152.263336 C 618.812012 152.263336 615.731995 152.612671 615.228699 154.412689 C 616.954041 154.542633 618.66803 156.717316 618.675964 158.81601 L 614.307312 157.449982 C 614.307312 157.449982 615.365295 162.355347 615.365295 167.68869 C 615.365295 170.412689 611.441345 173.618011 611.441345 178.23465 C 611.441345 192.723999 615.09137 198.293335 617.687317 202.772675 C 618.702698 204.525299 619.528015 206.541992 621.236633 208.062653 C 613.757996 204.080658 608.199341 199.103363 608.199341 194.47998 L 608.199341 176.972015 L 606.253967 176.972015 L 606.253967 194.47998 C 606.253967 197.832672 607.072693 199.394684 607.072693 199.394684 C 608.246643 203.104004 610.619995 208.829346 612.090027 211.134674 C 605.209351 207.416016 601.713989 202.759369 601.713989 201.032684 L 601.713989 176.971344 L 599.768677 176.971344 L 599.768677 201.373322 L 600.143982 203.045319 C 599.309998 204.298676 598.226013 205.782684 597.481995 206.287354 C 596.73999 205.783325 595.68866 204.296661 594.853333 203.045319 L 595.229309 201.373322 L 595.229309 176.971344 L 593.283997 176.971344 L 593.283997 201.032684 C 593.283997 202.758667 589.788635 207.416016 582.90863 211.134674 C 584.378662 208.828705 586.751343 203.104004 587.924683 199.394684 C 587.924683 199.394684 588.744019 197.833344 588.744019 194.47998 L 588.744019 176.972015 L 586.798645 176.972015 L 586.798645 194.47998 C 586.798645 199.097992 581.260681 204.083344 573.795349 208.062653 C 575.486633 206.54068 576.299988 204.51535 577.309998 202.772675 C 580.148682 197.874023 583.65802 191.650665 583.65802 173.93399 C 583.65802 167.284668 582.674683 162.764008 580.961975 159.600006 C 580.441345 158.556 579.73999 155.777344 583.726013 155.777344 C 585.790649 155.777344 590.518005 159.429321 590.518005 159.429321 C 590.518005 159.429321 590.323303 156.51535 587.924011 154.855988 C 587.526001 154.580658 586.866638 153.714691 586.866638 152.910004 C 586.866638 152.307343 587.900696 150.819977 588.708679 150.452667 C 589.263977 150.200684 580.58667 148.68869 580.58667 144.753326 C 580.58667 143.93399 581.10199 143.388031 582.906006 143.388031 C 585.269348 143.388031 589.114014 146.220673 592.531311 146.220673 C 595.057312 146.220673 596.053345 145.605988 598.640015 145.605988 C 601.801331 145.605988 608.396667 151.59201 610.652649 151.373322 C 608.130676 149.790009 604.056702 143.796661 597.889343 143.796661 C 595.748657 143.796661 593.81134 144.274658 591.813293 144.274658 C 589.252686 144.274658 586.731323 141.919342 583.963989 141.919342 C 582.109314 141.919342 580.038025 142.022675 579.731323 141.543335 C 579.194641 140.706665 579.67804 140.221344 580.175354 139.529999 C 581.114685 138.225342 583.752686 137.84668 586.353333 137.756012 C 587.115906 137.728119 587.878967 137.716949 588.642029 137.722656 C 589.368652 137.72998 590.041321 137.757965 590.622681 137.757965 Z"/>
    <path id="path17" fill="#cc092f" stroke="none" d="M 565.820007 147.126678 C 565.820007 147.126678 567.432678 144.072662 571.509338 144.072662 C 573.213318 144.072662 578.837341 143.954681 578.837341 143.954681 C 579.58667 145.902008 583.003357 149.156006 583.003357 152.540009 C 583.003357 152.540009 579.535339 146.288666 569.854675 146.288666 C 567.421997 146.288666 565.818665 147.125977 565.818665 147.125977 Z"/>
    <path id="path18" fill="#d10429" stroke="none" d="M 581.559998 153.733307 C 581.559998 153.733307 579.497986 155.905365 579.049988 157.064667 C 577.009338 156.291351 573.450684 152.624023 573.450684 152.624023 C 573.450684 152.624023 576.467346 154.385345 581.559326 153.733307 Z"/>
    <path id="path19" fill="#000000" stroke="none" d="M 578.293335 147.97998 C 578.293335 147.97998 575.914673 147.217316 575.914673 146.418671 C 575.914673 145.401337 577.070007 145.401337 577.760681 146.194 C 578.236023 146.73999 578.292664 147.980682 578.292664 147.980682 Z"/>
    <path id="path20" fill="#000000" stroke="none" d="M 591.940002 148.040009 C 591.940002 149.528595 590.414185 150.735352 588.531982 150.735352 C 586.649841 150.735352 585.123962 149.528595 585.123962 148.040009 C 585.123962 146.551422 586.649841 145.344635 588.531982 145.344635 C 590.414185 145.344635 591.940002 146.551422 591.940002 148.040009 Z"/>
    <path id="path21" fill="#f5d402" stroke="none" d="M 590.906677 148.040009 C 590.906677 149.350739 589.844055 150.41333 588.533325 150.41333 C 587.222595 150.41333 586.159973 149.350739 586.159973 148.040009 C 586.159973 146.729248 587.222595 145.666656 588.533325 145.666656 C 589.844055 145.666656 590.906677 146.729248 590.906677 148.040009 Z"/>
    <path id="path22" fill="#000000" stroke="none" d="M 589.539978 148.040009 C 589.539978 148.596344 589.088989 149.047333 588.532654 149.047333 C 587.976318 149.047333 587.52533 148.596344 587.52533 148.040009 C 587.52533 147.483643 587.976318 147.032684 588.532654 147.032684 C 589.088989 147.032684 589.539978 147.483643 589.539978 148.040009 Z"/>
    <g id="g6">
        <path id="path23" fill="#000000" stroke="none" d="M 534.25 394.634705 L 545.050659 400.526672 L 542.430664 412.545959 L 531.630005 406.652649 Z"/>
        <path id="path24" fill="#000000" stroke="none" d="M 483.93335 279.153351 L 480.042694 280.92868 L 524 377.208679 L 528.675964 377.208679 Z M 535.774658 392.700012 L 532.601318 395.976685 L 534.580627 400.345337 L 538.436707 398.570679 Z"/>
        <path id="path25" fill="#000000" stroke="none" d="M 497.593353 355.06665 C 497.593353 355.06665 501.29599 362.714661 504.109985 363.763367 C 502.654663 363.366638 497.929321 365.100647 497.929321 365.100647 C 497.929321 365.100647 506.261993 372.544006 513.329346 373.032654 C 519.322693 373.445374 522.232666 370.454041 522.232666 370.454041 L 521.031982 364.104675 C 521.031982 364.104675 517.365295 359.676697 511.497314 357.633362 C 505.567993 355.567993 497.592651 355.067993 497.592651 355.067993 Z M 525.506653 341.366669 C 525.506653 341.366669 520.393982 345.743347 518.99469 350.812683 C 517.594666 355.882629 519.906677 361.643982 519.906677 361.643982 L 524.202698 369.65802 C 524.202698 369.65802 530.156677 366.489319 532.689331 361.751343 C 535.221985 357.012634 534.293335 350.619324 534.293335 350.619324 C 534.293335 350.619324 529.57666 352.375305 528.976685 353.152649 C 529.971985 347.896667 525.505981 341.366669 525.505981 341.366669 Z M 509.073334 339.320007 C 509.073334 339.320007 503.258667 341.285339 497.61203 340.945343 C 492.233307 340.620667 487.760651 336.104004 487.760651 336.104004 C 487.760651 336.104004 492.21933 333.08667 494.420013 333.488678 C 491.999359 332.604004 488.489349 326.540009 488.489349 326.540009 C 488.489349 326.540009 493.477325 325.032684 497.899994 326.699982 C 502.322662 328.368683 506.179321 333.213348 506.179321 333.213348 L 509.074005 339.320007 Z M 511.073334 310.920013 C 511.073334 310.920013 513.981323 316.941315 513.291992 319.033997 C 514.194031 317.640656 517.607971 315.470673 517.607971 315.470673 C 517.607971 315.470673 519.671997 325.220001 517.697998 331.241333 C 515.72467 337.261993 509.715332 339.554657 509.715332 339.554657 L 503.08667 326.66333 C 503.08667 326.66333 502.100006 321.887329 504.166656 318.105316 C 506.234009 314.323334 511.073334 310.919342 511.073334 310.919342 Z M 473.23999 294.980011 C 473.23999 294.980011 479.524658 294.320007 485.274017 296.701996 C 490.080658 298.697327 491.553986 302.324005 491.553986 302.324005 L 493.921356 308.670685 C 493.921356 308.670685 487.080658 311.235992 481.675995 309.274658 C 476.27066 307.31134 472.299316 300.82132 472.299316 300.82132 C 472.299316 300.82132 476.07666 299.388672 477.514648 299.925995 C 475.420013 298.999329 473.241333 294.980011 473.241333 294.980011 L 473.241333 294.980682 Z M 493.006683 283.199982 C 493.006683 283.199982 495.764648 286.742004 495.847321 290.81601 C 496.582672 288.649994 500.026001 286.256012 500.026001 286.256012 C 500.026001 286.256012 503.567352 294.826019 502.790009 300.910675 C 502.012665 306.996002 496.917328 310.595337 496.917328 310.595337 L 490.563324 298.533997 C 490.563324 298.533997 488.492676 293.590668 489.102661 289.756012 C 489.713348 285.922668 493.006683 283.198669 493.006683 283.198669 Z M 471.23999 260.133331 C 471.23999 260.133331 470.100677 266.702667 472.039337 270.486664 C 473.771332 273.863342 474.873993 274.604004 474.873993 274.604004 C 471.57132 272.424652 466.578003 272.236664 466.578003 272.236664 C 466.578003 272.236664 468.355347 279.384003 472.602661 282.644684 C 476.850006 285.905334 483.399323 285.143341 483.399323 285.143341 C 483.399323 285.143341 487.706024 279.410004 487.406006 273.233337 C 487.106659 267.056671 482.200684 260.435333 482.200684 260.435333 C 482.200684 260.435333 480.265991 264.448669 480.095337 267.444672 C 478.843353 264.355988 471.238647 260.134003 471.238647 260.134003 Z M 522.573303 370.179993 L 522.75 372.538025 C 526.666687 372.574646 527.25 372.184631 528.253967 373.419373 C 528.922668 374.242004 530.513367 374.960022 532.112 374.229309 C 533.711975 373.499329 534.42865 371.578003 533.698669 369.978699 C 532.968689 368.379333 531.481323 368.031982 530.048645 368.314636 C 529.169373 368.487976 528.590637 369.190002 527.844666 369.575317 C 526.425964 370.309998 522.57196 370.180664 522.57196 370.180664 Z"/>
        <path id="path26" fill="#000000" stroke="none" d="M 522.233337 368.380005 L 524.139343 369.776672 C 522.094666 373.119324 521.456665 373.407349 521.971985 374.91333 C 522.315369 375.916016 522.082703 377.644653 520.615295 378.615295 C 519.148682 379.585327 517.139343 379.175964 516.169373 377.710022 C 515.200012 376.243347 515.692688 374.799316 516.691345 373.733337 C 517.304626 373.078674 518.204651 372.960022 518.926697 372.531311 C 520.301331 371.716003 522.232666 368.379333 522.232666 368.379333 Z M 508.966675 340.380005 L 509.14267 342.738007 C 513.059998 342.774017 513.642639 342.384674 514.646667 343.618652 C 515.314636 344.440674 516.906006 345.159363 518.5047 344.42865 C 520.105347 343.698639 520.82196 341.777985 520.090637 340.17868 C 519.360657 338.578674 517.873962 338.231995 516.441345 338.514679 C 515.56134 338.68866 514.983337 339.389984 514.237976 339.77533 C 512.818665 340.509338 508.965332 340.380676 508.965332 340.380676 Z"/>
        <path id="path27" fill="#000000" stroke="none" d="M 509.76001 341.213348 L 511.426666 342.891327 C 508.887329 345.873962 508.210663 346.059998 508.485992 347.627319 C 508.670013 348.671997 508.170654 350.343994 506.569977 351.074036 C 504.970673 351.804016 503.050659 351.088013 502.319336 349.487976 C 501.589325 347.888672 502.300659 346.538025 503.453339 345.640686 C 504.160675 345.090637 505.069977 345.112 505.848663 344.802002 C 507.333344 344.210632 509.76001 341.21402 509.76001 341.21402 Z M 495.779999 312.480011 L 495.956665 314.837982 C 499.873993 314.873993 500.456665 314.48465 501.461334 315.720001 C 502.130005 316.54068 503.720001 317.259338 505.319977 316.528656 C 506.918671 315.798676 507.635986 313.878662 506.906006 312.277313 C 506.174683 310.678009 504.68869 310.331329 503.255341 310.613983 C 502.375336 310.787994 501.797333 311.489349 501.051361 311.874664 C 499.63266 312.609344 495.779327 312.47934 495.779327 312.47934 Z"/>
        <path id="path28" fill="#000000" stroke="none" d="M 496.866669 311.986664 L 498.532684 313.664001 C 495.993317 316.647339 495.317993 316.833344 495.59201 318.400665 C 495.776001 319.444672 495.276642 321.116669 493.676666 321.846649 C 492.077362 322.576019 490.156647 321.860016 489.425995 320.260651 C 488.696655 318.660675 489.40799 317.309998 490.560028 316.41333 C 491.267334 315.862 492.175995 315.884674 492.956024 315.573334 C 494.440674 314.981995 496.866669 311.986664 496.866669 311.986664 Z M 481.733307 283.026672 L 481.909332 285.384003 C 485.82666 285.420685 486.410004 285.03067 487.41333 286.264679 C 488.082672 287.087341 489.67334 287.805328 491.272003 287.076019 C 492.871979 286.344666 493.588654 284.424652 492.858673 282.824677 C 492.128662 281.22467 490.641327 280.87735 489.208008 281.160675 C 488.329346 281.334686 487.750641 282.036652 487.004669 282.421326 C 485.586029 283.155334 481.732025 283.026672 481.732025 283.026672 Z"/>
        <path id="path29" fill="#000000" stroke="none" d="M 482.819977 282.533325 L 484.485352 284.211334 C 481.946655 287.194672 481.27002 287.380005 481.545319 288.947998 C 481.72934 289.992004 481.22934 291.664001 479.630005 292.394012 C 478.029999 293.123993 476.109985 292.40799 475.380005 290.808014 C 474.649323 289.208649 475.361328 287.856659 476.512665 286.960663 C 477.220673 286.410675 478.129303 286.432007 478.908661 286.120667 C 480.39267 285.529999 482.819336 282.533997 482.819336 282.533997 Z"/>
        <g id="g7">
            <path id="path30" fill="#f5d402" stroke="none" d="M 535.806702 398.041321 L 542.50531 401.695984 L 540.880005 409.151306 L 534.180664 405.496643 Z M 506.47998 333.393341 C 505.076019 333.975983 502.993317 327.863342 501.463989 324.514679 C 499.895355 321.078003 496.709991 315.781342 497.614655 315.368011 C 498.60733 314.914673 499.915314 317.696014 501.52066 321.212677 C 503.126007 324.727997 507.795319 332.845337 506.47998 333.391998 Z M 492.060028 301.199982 C 490.656647 301.784668 489.119995 297.782013 487.591339 294.432648 C 486.022675 290.996674 484.494659 288.569336 485.399323 288.156006 C 486.39267 287.702667 487.859344 290.71402 489.143341 293.526001 C 490.387329 296.251343 493.375336 300.652679 492.059326 301.200653 Z M 525.419983 374.193298 C 524.317993 374.487976 519.507324 364.41864 515.617981 355.898682 C 511.72934 347.379333 508.833344 340.485992 509.738007 340.074677 C 510.731323 339.620667 513.880005 347.66864 517.770691 356.189331 C 521.660706 364.710022 526.246033 373.971313 525.420654 374.193298 Z"/>
        </g>
        <g id="g8">
            <path id="path31" fill="#097754" stroke="none" d="M 473.17334 264.126678 C 473.17334 264.126678 473.003326 268.927338 474.591339 271.649994 C 476.180023 274.373993 479.727325 275.459991 479.727325 275.459991 C 479.727325 275.459991 479.896637 270.660675 478.308685 267.938019 C 476.720001 265.21402 473.17334 264.126678 473.17334 264.126678 Z M 469.853363 274.986664 C 469.853363 274.986664 474.023315 275.231995 476.432007 277.077332 C 478.838654 278.922668 479.771332 282.767334 479.771332 282.767334 C 479.771332 282.767334 477.007324 283.048004 474.600677 281.202667 C 472.193329 279.356659 469.853363 274.986664 469.853363 274.986664 Z M 482.939972 265.293335 C 482.939972 265.293335 481.553345 268.473328 481.713348 271.901337 C 481.872681 275.329987 483.873322 279.192657 483.873322 279.192657 C 483.873322 279.192657 485.682007 275.07666 485.522675 271.647339 C 485.364014 268.218658 483.424683 266.264008 482.939972 265.293335 Z M 475.920013 296.199982 C 475.920013 296.199982 477.967316 299.058685 481.119354 300.61734 C 484.271332 302.175323 488.968018 302.233337 488.968018 302.233337 C 488.968018 302.233337 486.623993 299.191986 483.471313 297.633331 C 480.319336 296.075348 475.920013 296.198669 475.920013 296.198669 Z M 476.93335 302.839996 C 476.93335 302.839996 478.437988 305.787323 481.189331 307.050659 C 483.942017 308.314667 489.571991 308.210663 489.571991 308.210663 C 489.571991 308.210663 487.411987 305.456665 484.660004 304.192657 C 481.90799 302.928009 476.932648 302.839996 476.932648 302.839996 Z M 492.779999 287.119995 C 492.779999 287.119995 491.116669 289.868683 491.279327 292.897339 C 491.442657 295.927338 493.430664 299.238007 493.430664 299.238007 C 493.430664 299.238007 494.828644 295.442657 494.665314 292.41333 C 494.502686 289.383331 492.779327 287.119995 492.779327 287.119995 Z M 498.906647 291.006683 C 498.906647 291.006683 496.060669 294.82666 495.652008 298.753998 C 495.243317 302.680664 497.27066 306.715332 497.27066 306.715332 C 497.27066 306.715332 500.708649 303.263336 501.11734 299.33667 C 501.526001 295.408661 498.906647 291.007996 498.906647 291.007996 Z M 491.060028 327.273346 C 491.060028 327.273346 491.402008 328.685333 492.591339 330.184662 C 493.779999 331.685333 495.815338 333.272675 495.815338 333.272675 C 495.815338 333.272675 497.781342 332.640656 500.225342 333.169342 C 502.668671 333.699341 505.918671 335.876007 505.918671 335.876007 C 505.918671 335.876007 502.420654 330.655334 498.788666 328.625336 C 495.156647 326.596649 491.06131 327.272675 491.06131 327.272675 Z M 490.699982 336.246674 C 490.699982 336.246674 495.228668 334.311981 498.958008 334.81134 C 502.687988 335.310669 506.050659 338.258667 506.050659 338.258667 C 506.050659 338.258667 501.01001 340.002655 497.28067 339.503998 C 493.550018 339.004669 490.699341 336.246674 490.699341 336.246674 Z M 509.839996 315.193329 C 509.839996 315.193329 505.835327 319.436005 505.499359 323.118011 C 505.163971 326.799347 508.746674 330.230682 508.746674 330.230682 C 508.746674 330.230682 508.570679 327.869324 509.187347 326.314667 C 509.804657 324.76001 511.115997 323.100006 511.115997 323.100006 C 511.115997 323.100006 511.674683 321.204681 511.458649 319.684662 C 511.156647 317.560669 509.839996 315.193329 509.839996 315.193329 Z M 515.58667 320.106659 C 515.58667 320.106659 511.812012 323.925995 510.814667 328.015991 C 509.81665 332.105988 511.594696 336.466675 511.594696 336.466675 C 511.594696 336.466675 515.027344 333.758667 516.02533 329.669342 C 517.023315 325.579315 515.585999 320.106659 515.585999 320.106659 Z M 525.039978 344.76001 C 525.039978 344.76001 526.75 348.330017 527.18335 351.315369 C 527.617981 354.299988 527.215332 355.333313 527.215332 355.333313 C 527.215332 355.333313 525.447327 357.07135 524.654663 358.093323 C 523.635986 359.406677 523.486633 361.810669 523.486633 361.810669 C 523.486633 361.810669 519.936707 356.533325 520.484009 352.675354 C 521.030701 348.817993 525.039978 344.759338 525.039978 344.759338 Z M 532.52002 353.02002 C 532.52002 353.02002 527.97467 356.022034 526.171326 359.10199 C 524.366028 362.179993 525.302002 365.334656 525.302002 365.334656 C 525.302002 365.334656 528.540649 365.049316 530.346008 361.970642 C 532.149963 358.892029 532.519348 353.019348 532.519348 353.019348 Z M 502.65332 365.700012 C 502.65332 365.700012 509.20401 365.521301 513.208008 366.505981 C 517.211975 367.489319 518.669373 369.635986 518.669373 369.635986 C 518.669373 369.635986 514.167297 371.744019 510.16333 370.76001 C 506.159332 369.776672 502.652679 365.699341 502.652679 365.699341 Z M 501.546661 357.926697 C 501.546661 357.926697 504.501984 362.508667 508.322662 364.171326 C 513.588013 366.461365 519.684631 365.351318 519.684631 365.351318 C 519.684631 365.351318 516.372681 361.291992 511.815338 359.5 C 507.256683 357.708679 501.546661 357.927307 501.546661 357.927307 Z"/>
        </g>
        <path id="path32" fill="#000000" stroke="none" d="M 725.82666 267.962677 L 726.680664 269.77066 C 726.680664 269.77066 725.294006 270.246674 724.666016 271.476654 C 724.039307 272.708008 725.075989 274.446686 725.075989 274.446686 C 725.075989 274.446686 717.873352 273.817993 716.748718 274.549347 C 715.72998 275.20932 717.179993 280.198669 716.509338 284.412659 C 715.574707 290.28598 713.259338 289.792664 713.164612 290.930664 C 713.072693 292.036652 714.052002 293.763336 714.052002 293.763336 C 714.052002 293.763336 712.701355 294.18866 712.41333 294.753326 C 711.950012 295.661346 712.736023 297.33667 712.174622 298.43866 C 709.041321 304.587341 704.414612 313.662659 701.356018 319.667328 C 700.92865 320.505341 699.780701 320.825348 699.205322 321.95401 C 698.674622 322.995331 699.103333 324.513336 699.103333 324.513336 C 699.103333 324.513336 697.075989 324.634674 696.37262 326.01535 C 695.625305 327.481995 696.065369 329.462006 696.065369 329.462006 C 696.065369 329.462006 694.783386 329.626007 694.15332 330.861328 C 693.480652 332.182007 694.620056 332.874664 694.325989 333.455353 C 690.213318 341.523315 685.370056 351.033997 682.414673 356.833984 C 681.327332 358.966675 677.522644 359.393982 675.314636 363.727966 C 673.171997 367.932007 676.236023 371.031311 676.236023 371.031311 C 676.236023 371.031311 673.054626 371.319336 672.209351 372.977356 C 671.347961 374.667297 672.029358 377.233337 674.325317 378.40332 C 676.621338 379.572693 679.130005 378.626038 679.992004 376.935974 C 680.83667 375.278015 679.138 372.533325 679.138 372.533325 C 679.138 372.533325 683.446716 373.153992 685.587952 368.949341 C 687.796631 364.615295 685.934631 361.32196 687.021301 359.18866 C 689.977295 353.388672 694.82135 343.878662 698.932678 335.809998 C 699.229309 335.22934 700.444031 335.731995 701.116699 334.411346 C 701.746033 333.175995 701.116699 332.056671 701.116699 332.056671 C 701.116699 332.056671 702.997986 331.236664 703.745361 329.769318 C 704.44928 328.388672 703.370056 326.664001 703.370056 326.664001 C 703.370056 326.664001 704.85199 326.136017 705.383301 325.094666 C 705.958008 323.966003 705.535339 322.861328 705.962646 322.022003 C 709.022705 316.018005 713.649963 306.941986 716.781982 300.794647 C 717.343994 299.691315 719.152039 299.313995 719.614685 298.404663 C 719.902649 297.840668 719.444641 296.493988 719.444641 296.493988 C 719.444641 296.493988 721.436707 296.296661 722.276672 295.571991 C 723.142029 294.82666 721.385315 293.227997 725.587952 289.019318 C 728.602722 286.000671 733.466003 284.22467 733.402649 283.012665 C 733.332703 281.672668 728.590637 276.221344 728.590637 276.221344 C 728.590637 276.221344 730.591309 276.052673 731.218689 274.822662 C 731.846008 273.59201 731.424011 272.160004 731.424011 272.160004 L 733.402649 271.818665 L 733.402649 262.433319 Z M 660.402649 398.67865 C 660.076111 399.333801 660.076111 400.104187 660.402649 400.759338 C 660.402649 400.759338 658.013977 400.012634 657.194641 400.41803 C 656.422668 400.799988 657.194641 412.056702 657.194641 412.056702 C 657.194641 412.056702 666.72467 406.044678 666.579346 405.196655 C 666.425964 404.295349 664.429321 402.773315 664.429321 402.773315 C 665.201355 402.649353 665.803345 402.165344 666.10199 401.579346 C 666.415344 400.962646 666.457336 399.200684 664.292664 398.097351 C 663.481995 397.684021 662.76001 397.56134 662.175964 397.619995 C 661.205994 397.718018 660.599304 398.293335 660.402649 398.67865 Z"/>
        <g id="g9">
            <path id="path33" fill="#f5d402" stroke="none" d="M 727.559998 268.339996 L 732.064697 270.62735 L 731.997314 265.200653 Z M 725.820007 271.616669 C 725.241394 272.752655 725.803284 274.207336 727.082703 274.858673 C 728.36261 275.51001 729.847961 275.10733 730.427979 273.972015 C 731.006653 272.835999 730.443359 271.381989 729.164612 270.730011 C 728.712646 270.49585 728.205322 270.389374 727.697327 270.421997 C 726.892029 270.477325 726.181946 270.906647 725.820007 271.616669 Z M 718.073303 275.746674 C 717.599365 276.053314 718.243958 280.110016 718.107361 283.56134 C 717.978027 286.81601 716.936707 287.732666 716.366699 288.851349 C 715.840637 289.884003 713.944031 291.104004 713.944031 291.104004 L 715.513367 292.673981 C 715.513367 292.673981 716.534668 291.083344 718.141357 287.92868 C 720.036682 284.20932 719.975342 277.470001 720.531311 277.110657 C 721.014648 276.798004 724.968018 275.813324 724.968018 275.813324 C 724.967346 275.813324 721.340027 275.61734 719.33667 275.643341 C 718.667969 275.652008 718.18335 275.675323 718.073303 275.746674 Z"/>
            <path id="path34" fill="#f5d402" stroke="none" d="M 718.486633 294.483337 C 718.486633 294.483337 719.011292 293.024658 720.84198 289.432007 C 723.049316 285.099335 727.761292 281.956665 727.871338 281.172668 C 727.986023 280.364655 726.233337 276.56601 726.233337 276.56601 C 726.233337 276.56601 722.07666 277.362671 721.488708 277.931335 C 720.920654 278.480011 721.171326 284.109344 718.963318 288.442657 C 717.134033 292.034668 716.233948 293.35733 716.233948 293.35733 Z"/>
            <path id="path35" fill="#f5d402" stroke="none" d="M 729.100037 281.480011 C 729.134705 282.139343 723.65802 286.053986 721.761963 289.772675 C 720.155334 292.926666 719.475342 294.688019 719.475342 294.688019 L 721.659973 295.029327 C 721.659973 295.029327 721.509338 292.784668 722.035339 291.752655 C 722.604675 290.634674 722.754639 289.26535 725.312012 287.248016 C 728.023987 285.108673 731.690002 283.238678 731.659973 282.673981 C 731.632629 282.152679 727.563965 277.111328 727.563965 277.111328 C 727.563965 277.111328 729.068665 280.906006 729.100037 281.480011 Z M 713.059998 305.813324 C 716.350647 299.354675 717.356018 298.914673 717.77002 298.100677 C 718.216003 297.225983 718.109314 296.048676 716.643982 295.301331 C 716.094666 295.022003 715.623352 294.950653 715.210693 294.995331 C 714.521973 295.069336 714.021301 295.506683 713.743347 296.052673 C 713.328674 296.86734 713.553284 297.955994 710.261292 304.415314 L 702.786682 319.056 C 702.786682 319.056 702.003357 320.493317 703.469299 321.23999 C 704.935303 321.985992 705.585388 320.488678 705.585388 320.488678 Z M 699.853333 322.605316 C 699.445984 323.406006 700.143982 324.581329 701.42334 325.234009 C 702.702637 325.884674 704.087341 325.761322 704.494629 324.960663 C 704.902039 324.160675 704.170654 322.98465 702.890686 322.332001 C 702.251282 322.006012 701.600647 321.873993 701.048035 321.92334 C 700.494629 321.971344 700.057373 322.205994 699.853333 322.605316 Z M 697.08667 326.768677 C 696.558655 327.803986 697.382019 329.29068 698.929993 330.080658 C 700.478027 330.869324 702.156677 330.671326 702.684021 329.636017 C 703.211975 328.600006 702.388 327.114655 700.840637 326.324677 C 700.26001 326.029999 699.685303 325.873322 699.134033 325.847321 C 698.218018 325.803986 697.416687 326.121338 697.08667 326.768677 Z M 695.34668 331.411346 C 694.939392 332.210663 695.638 333.386658 696.916687 334.038666 C 698.195984 334.690674 699.580017 334.56601 699.988708 333.765991 C 700.395996 332.966003 699.697327 331.790009 698.418701 331.138 C 697.778625 330.81134 697.094666 330.679352 696.541321 330.727997 C 695.989319 330.776672 695.551331 331.010651 695.34668 331.411346 Z M 694.219971 335.847992 C 694.219971 335.847992 685.921326 352.181335 682.993347 357.92865 C 682.057312 359.764648 678.118652 360.90863 676.57666 363.935974 C 675.023315 366.981323 676.119324 369.83197 678.145996 370.864014 C 680.171997 371.896667 683.147278 371.145996 684.69928 368.100037 C 686.241394 365.073303 684.856018 361.197998 685.79071 359.362671 C 688.719299 353.613342 697.019348 337.281342 697.019348 337.281342 C 697.019348 337.281342 697.83667 335.843994 696.370667 335.097321 C 696.077881 334.941956 695.743713 334.882477 695.415344 334.927338 C 694.607361 335.03067 694.219971 335.847992 694.219971 335.847992 Z M 673.226685 373.763977 C 672.604675 374.984009 673.315979 376.609985 674.830017 377.381348 C 676.344666 378.15332 678.099304 377.781982 678.721313 376.562683 C 679.343323 375.342651 678.597351 373.716003 677.083313 372.944641 C 676.51532 372.654663 675.935974 372.52002 675.376648 372.535339 C 674.444031 372.562012 673.614685 373.002014 673.226685 373.763977 Z M 662.171326 398.712646 C 661.697998 398.728699 661.305969 398.878662 661.14801 399.190674 C 660.830017 399.814026 661.486633 400.799316 662.615295 401.374695 C 663.744019 401.949341 664.924683 401.895996 665.243347 401.272034 C 665.56134 400.647339 664.90332 399.662659 663.776001 399.088013 C 663.211365 398.799988 662.645996 398.695984 662.171326 398.711975 Z M 658.280701 401.783325 L 658.280701 409.838013 L 664.833984 405.127991 C 664.833984 405.127991 663.945374 403.558655 662.000671 402.567993 C 660.055969 401.578003 658.280701 401.782654 658.280701 401.782654 Z"/>
        </g>
    </g>
    <g id="g10">
        <path id="path36" fill="#f5d402" stroke="none" d="M 662.42865 222.39798 C 662.42865 217.980682 668.230652 213.626678 668.230652 213.626678 L 526.733337 213.626678 C 526.733337 213.626678 532.535339 217.97998 532.535339 222.39798 L 532.535339 327.722015 C 532.535339 330.496674 533.392639 332.303314 534.753967 334.069336 C 536.114685 335.971344 539.013977 338.599335 542.022644 340.553986 C 551.315979 346.589294 566.853333 352.953308 578.609314 358.301331 C 588.405334 362.757324 592.390015 364.555359 597.481995 370.860657 C 602.574646 364.555359 606.593323 362.757996 616.389343 358.301331 C 628.143372 352.954041 643.681335 346.589294 652.975342 340.553986 C 655.985352 338.599335 658.884705 335.972015 660.24469 334.069336 C 661.606018 332.303314 662.42865 330.496674 662.42865 327.722015 Z"/>
        <path id="path37" fill="#d10429" stroke="none" d="M 535.880005 281.987335 L 535.880005 222.397339 C 535.880005 219.024658 534.17334 216.971344 534.17334 216.971344 L 660.791992 216.971344 C 660.791992 216.971344 659.085327 219.025299 659.085327 222.397339 L 659.121338 281.987335 L 597.500671 300.653992 Z"/>
        <path id="path38" fill="#0b45bb" stroke="none" d="M 659.120667 281.987335 L 620.964661 281.27066 L 574.036011 281.27066 L 535.880005 281.987335 L 535.880005 327.721344 C 535.880005 330.019989 538.26532 335.404663 552.023315 342.259308 C 574.763977 353.59137 592.243347 358.882019 597.482666 365.330627 C 602.721313 358.882019 620.200684 353.590637 642.942017 342.259308 C 656.699341 335.404663 659.084656 330.019989 659.084656 327.721344 Z"/>
        <path id="path39" fill="#000000" stroke="none" d="M 620.041992 279.600677 C 620.041992 279.600677 642.054626 274.050018 642.054626 250.522675 C 642.054626 232.147339 619.986023 223.031342 619.358704 218.646637 C 617.201965 226.234009 626.730652 236.713348 626.730652 249.123322 C 626.730652 265.180664 614.888 265.949341 614.888 265.949341 C 612.116638 265.949341 610.994019 267.928009 609.904663 267.928009 C 607.573303 267.684662 606.476013 264.71933 604.170654 264.71933 C 602.005981 264.71933 600.343994 268.063995 597.481995 268.063995 C 594.620667 268.063995 592.992004 264.71933 590.82666 264.71933 C 588.522644 264.71933 587.424683 267.684662 585.093323 267.928009 C 584.003967 267.928009 582.880676 265.949341 580.109314 265.949341 C 580.109314 265.949341 568.267334 265.180664 568.267334 249.123322 C 568.267334 236.713348 577.797302 226.232666 575.639343 218.646637 C 575.013977 223.031342 552.945374 232.146637 552.945374 250.522675 C 552.945374 274.050018 574.958008 279.600677 574.958008 279.600677 L 568.67804 291.033325 C 568.67804 291.033325 577.774658 291.488678 582.602661 295.60733 C 588.424683 300.572662 587.857971 311.093353 587.857971 318.746674 C 587.857971 324.776672 587.096008 331.139984 584.002014 333.762665 C 579.847351 337.285339 577.038635 337.54599 577.038635 341.681305 C 577.038635 345.130676 579.690002 345.82196 584.002014 348.097961 C 589.526672 351.013367 589.269348 354.92334 597.481995 354.92334 C 605.695984 354.92334 605.471985 351.013977 610.997314 348.097961 C 615.309326 345.82196 617.960022 345.130676 617.960022 341.681305 C 617.960022 337.54599 615.150696 337.285339 610.997314 333.762665 C 607.90332 331.138672 607.141296 324.776001 607.141296 318.746674 C 607.141296 311.093353 606.575317 300.572662 612.396667 295.60733 C 617.225342 291.489349 626.320679 291.033325 626.32135 291.033325 Z"/>
        <path id="path40" fill="#000000" stroke="none" d="M 597.47998 220.280029 L 593.656677 231.134003 L 583.247314 226.184662 L 588.195984 236.594635 L 577.343323 240.450684 L 588.195984 244.307343 L 583.247314 254.682648 L 593.656677 249.734009 L 597.47998 260.58667 L 601.33667 249.734009 L 611.746033 254.682648 L 606.798035 244.307343 L 617.650696 240.450684 L 606.798035 236.594635 L 611.746033 226.184662 L 601.33667 231.134003 L 597.47998 220.280029 Z M 574.033325 281.273346 C 574.033325 281.273346 560.442017 277.950653 555.365295 271.239349 C 546.48999 279.223328 535.877319 281.98999 535.877319 281.98999 C 535.877319 281.98999 546.948669 286.988678 555.365295 293.355316 C 559.243347 287.798004 574.033325 281.273346 574.033325 281.273346 Z M 620.960022 281.273346 C 620.960022 281.273346 635.750671 287.797333 639.629333 293.355316 C 648.044678 286.988678 659.115295 281.98999 659.115295 281.98999 C 659.115295 281.98999 648.503967 279.222687 639.629333 271.239349 C 634.552673 277.949982 620.960022 281.273346 620.960022 281.273346 Z M 579.600037 295.73999 L 574.309998 301.029327 L 579.600037 306.319336 L 584.890015 301.029327 L 579.600037 295.73999 Z M 615.399963 295.73999 L 610.110657 301.029327 L 615.399963 306.319336 L 620.690002 301.029327 L 615.399963 295.73999 Z M 578.268677 326.626678 C 578.268677 333.309998 577.620667 336.831329 577.620667 336.831329 C 577.620667 336.831329 585.078003 334.636017 586.563293 327.070648 C 587.259338 323.524017 588.034668 310.458649 584.446655 308.231323 L 574.720032 306.320007 C 575.770691 308.919342 578.268677 316.971344 578.268677 326.626678 Z M 610.552673 308.231995 C 606.965332 310.458649 607.740662 323.524017 608.436707 327.07132 C 609.921326 334.636658 617.378662 336.832001 617.378662 336.832001 C 617.378662 336.832001 616.730652 333.310669 616.730652 326.62735 C 616.730652 316.972015 619.228699 308.919342 620.279968 306.320648 Z M 555.33667 308.610016 C 551.982666 309.451324 549.955994 312.866669 550.798035 316.220673 C 550.926697 316.734009 551.138672 317.208008 551.377991 317.653992 C 550.881165 317.486725 550.36499 317.383423 549.84198 317.346649 C 549.62616 317.335663 549.409851 317.335663 549.194031 317.346649 C 546.02002 317.453339 543.373962 319.948669 543.15332 323.183319 C 542.917297 326.63266 545.539368 329.602661 548.98999 329.838654 C 549.49115 329.876068 549.994995 329.853027 550.490662 329.769989 C 550.186279 330.180634 549.934387 330.627655 549.740662 331.100677 C 548.449341 334.309326 550.013367 338.001343 553.221985 339.292664 C 556.429993 340.582672 560.087341 338.985321 561.377991 335.777313 C 561.564392 335.305695 561.690735 334.8125 561.753967 334.309326 C 562.058044 334.727386 562.413208 335.105652 562.81134 335.435333 C 565.463989 337.653992 569.432007 337.302673 571.650696 334.650665 C 572.716309 333.379761 573.232422 331.73703 573.085083 330.085052 C 572.937744 328.433044 572.139099 326.907593 570.865295 325.845337 C 570.463989 325.509338 570.018677 325.245331 569.568665 325.026672 C 570.059998 324.869598 570.529846 324.651917 570.967346 324.378662 C 573.897339 322.541992 574.783997 318.639343 572.946655 315.70932 C 571.684021 313.695343 569.465332 312.660004 567.247314 312.808685 C 566.204834 312.879364 565.196228 313.207886 564.312012 313.764679 C 563.876221 314.032806 563.475159 314.353668 563.117981 314.720001 C 563.12439 314.203156 563.067078 313.687469 562.947327 313.184662 C 562.211365 310.249329 559.513367 308.314667 556.599304 308.440002 C 556.173828 308.454193 555.750793 308.511139 555.33667 308.610016 Z M 621.883362 326.833344 C 622.56134 333.22467 627.75531 338.579315 634.169373 340.109344 C 633.074036 338.317993 632.346008 336.32132 632.121338 334.205353 C 631.317993 326.625336 637.179993 320.48465 645.192688 320.48465 C 646.455322 320.48465 647.67865 320.640656 648.877991 320.929352 C 646.053345 316.298004 640.73468 313.079315 634.953308 313.079315 C 626.941345 313.079987 621.078003 319.254669 621.883362 326.833344 Z"/>
        <g id="g11">
            <path id="path41" fill="#ffd200" stroke="none" d="M 565.06134 249.12265 C 565.06134 261.208008 571.505981 268.33667 580.112 268.33667 C 581.753357 268.33667 583.548645 270.555328 585.095337 270.555328 C 587.616638 270.555328 589.294006 267.756683 590.829346 267.756683 C 592.780701 267.756683 594.096008 270.828003 597.484009 270.828003 C 600.872681 270.828003 602.221985 267.756683 604.17334 267.756683 C 605.708008 267.756683 607.385315 270.555328 609.906677 270.555328 C 611.454041 270.555328 613.247986 268.33667 614.890015 268.33667 C 623.496033 268.33667 629.941345 261.208008 629.941345 249.12265 C 629.941345 239.266693 621.664001 227.249359 622.569336 225.300018 C 622.569336 225.300018 638.711975 236.879303 638.711975 250.521332 C 638.711975 272.496674 616.425964 277.927338 616.425964 277.927338 L 621.442688 289.223328 C 621.442688 289.223328 614.534668 290.259338 610.31665 293.660675 C 604.690674 298.197327 604.616638 310.454681 604.616638 318.744659 C 604.616638 328.51001 604.97998 332.64798 608.507996 335.297333 C 612.227966 338.092682 615.026001 338.694672 615.026001 341.543335 C 615.026001 344.02533 612.129333 345.040649 608.370667 346.696655 C 604.095337 348.58136 603.669373 351.850647 597.484009 351.850647 C 591.298035 351.850647 590.906006 348.58136 586.630676 346.696655 C 582.872681 345.040649 579.975342 344.026001 579.975342 341.543335 C 579.975342 338.694672 582.773315 338.092682 586.493347 335.297333 C 590.021301 332.64798 590.383972 328.51001 590.383972 318.744659 C 590.383972 310.454681 590.310669 298.197327 584.684631 293.660675 C 580.466003 290.257996 573.558655 289.223328 573.558655 289.223328 L 578.574646 277.927338 C 578.574646 277.927338 556.289368 272.497345 556.289368 250.521332 C 556.289368 236.879303 572.432678 225.300018 572.432678 225.300018 C 573.338013 227.249359 565.06134 239.266693 565.06134 249.12265 Z M 589.053345 339.873322 C 584.675354 339.873322 581.886658 340.797333 581.886658 342.126007 C 581.886658 343.455322 584.675964 344.344666 589.053345 344.344666 C 590.220032 344.344666 591.544678 343.665314 591.544678 342.126007 C 591.544678 340.58667 590.219299 339.873322 589.053345 339.873322 Z M 605.946655 339.873322 C 604.779968 339.873322 603.455322 340.587341 603.455322 342.126007 C 603.454651 343.665314 604.779968 344.344666 605.946655 344.344666 C 610.325317 344.344666 613.113342 343.456024 613.113342 342.126007 C 613.113342 340.796661 610.324646 339.873322 605.946655 339.873322 Z"/>
            <path id="path42" fill="#ffd200" stroke="none" d="M 597.52002 227.58667 L 599.977356 234.515991 L 606.597961 231.34201 L 603.458008 237.996674 L 610.352661 240.454681 L 603.458008 242.912018 L 606.597961 249.532684 L 599.977356 246.39267 L 597.486023 253.286652 L 595.028687 246.39267 L 588.40802 249.532684 L 591.548035 242.912018 L 584.653992 240.454681 L 591.548035 237.996674 L 588.40802 231.34201 L 595.028687 234.515991 L 597.52002 227.58667 Z M 566.764648 281.685333 C 566.763367 281.685333 555.365295 290.149323 555.365295 290.149323 L 555.227966 290.319336 L 554.989319 290.114655 L 542.362 282.196686 C 542.362 282.196686 550.419983 279.418671 555.160706 274.58667 C 559.645996 279.722015 566.764648 281.685333 566.764648 281.685333 Z M 652.632019 282.196686 C 652.632019 282.196686 644.226013 286.383331 640.003357 290.114655 L 639.76532 290.319336 L 639.629333 290.149323 C 635.638672 285.568665 628.230652 281.685333 628.230652 281.685333 C 628.230652 281.685333 635.347961 279.722015 639.833984 274.58667 C 644.574646 279.418671 652.632019 282.196686 652.632019 282.196686 Z M 579.600037 298.266663 L 582.364685 301.029999 L 579.600037 303.829315 L 576.801331 301.029999 L 579.600037 298.266663 Z M 615.399963 298.266663 L 618.199341 301.029999 L 615.399963 303.829315 L 612.635986 301.029999 L 615.399963 298.266663 Z M 583.355347 310.346008 C 585.286682 313.011322 584.958679 317.320648 584.958679 323.31601 C 584.958679 329.360657 580.419983 331.676666 580.419983 331.676666 C 580.419983 317.147339 578.921997 313.653992 578.133362 309.253326 Z M 616.866638 309.253326 C 616.07666 313.654663 614.580627 317.147339 614.580627 331.675995 C 614.580627 331.675995 610.041321 329.360016 610.041321 323.315338 C 610.041321 317.320007 609.713318 313.011993 611.645325 310.346008 L 616.866638 309.253326 Z"/>
            <path id="b" fill="#ffd200" stroke="none" d="M 561.888 314.751984 C 562.023987 315.29599 562.038635 315.830658 561.98999 316.356659 C 561.950012 316.792664 561.833984 317.18866 561.68335 317.584686 C 560.92804 317.308685 560.110657 317.174652 559.26001 317.174652 C 557.153992 317.174652 555.268677 318.101349 553.970032 319.564667 C 553.628235 319.266266 553.329773 318.921631 553.083313 318.54068 C 552.803345 318.108002 552.56665 317.634674 552.434631 317.10733 C 551.779968 314.498657 553.375305 311.856659 555.984009 311.202667 C 556.309326 311.119995 556.650696 311.079315 556.973328 311.066681 C 559.278625 310.972778 561.332214 312.512695 561.888 314.751984 Z"/>
            <g id="g12">
                <path id="path43" fill="#ffd200" stroke="none" d="M 569.164185 323.857147 C 568.688843 324.154633 568.184875 324.333771 567.669617 324.450043 C 567.242554 324.546722 566.830139 324.558777 566.406921 324.537872 C 566.435974 323.734222 566.310852 322.915497 566.048035 322.106445 C 565.397217 320.103546 563.933289 318.596832 562.14032 317.813904 C 562.31842 317.396637 562.554016 317.006287 562.840149 316.654205 C 563.165161 316.254211 563.542175 315.882843 564.002869 315.59433 C 566.281555 314.165588 569.287292 314.866425 570.715393 317.145355 C 570.894531 317.429169 571.038696 317.741272 571.150452 318.04422 C 571.952087 320.207672 571.122131 322.636627 569.164185 323.857147 Z"/>
            </g>
            <g id="g13">
                <path id="path44" fill="#ffd200" stroke="none" d="M 562.753113 333.590912 C 562.323303 333.230743 561.997253 332.806793 561.727417 332.352631 C 561.503479 331.97641 561.364563 331.58786 561.253723 331.178925 C 562.026978 330.958252 562.767029 330.586243 563.4552 330.086243 C 565.158997 328.848358 566.139587 326.990509 566.330139 325.043304 C 566.782043 325.083801 567.226013 325.187195 567.649353 325.350555 C 568.130188 325.536041 568.599854 325.779816 569.016602 326.128845 C 571.07959 327.854523 571.341858 330.929657 569.615784 332.992096 C 569.401184 333.250214 569.148987 333.483734 568.895325 333.683624 C 567.08551 335.114624 564.518982 335.075867 562.753113 333.590912 Z"/>
            </g>
            <g id="g14">
                <path id="path45" fill="#ffd200" stroke="none" d="M 551.514709 330.501526 C 551.724426 329.981445 552.026794 329.540283 552.375366 329.143341 C 552.664001 328.814117 552.990601 328.561951 553.345276 328.330109 C 553.794128 328.997375 554.376526 329.586212 555.064758 330.086212 C 556.768555 331.324097 558.838501 331.682587 560.749268 331.262054 C 560.850403 331.704376 560.889282 332.1586 560.864685 332.611664 C 560.836914 333.126282 560.750183 333.648346 560.547058 334.152527 C 559.543335 336.647797 556.699768 337.847504 554.204834 336.843262 C 553.893066 336.718903 553.593018 336.551178 553.324524 336.371765 C 551.404358 335.092682 550.648071 332.639801 551.514709 330.501526 Z"/>
            </g>
            <g id="g15">
                <path id="path46" fill="#ffd200" stroke="none" d="M 550.97998 318.858429 C 551.539368 318.897186 552.052429 319.048462 552.537659 319.257294 C 552.939941 319.430054 553.280701 319.66275 553.610779 319.928406 C 553.114929 320.561493 552.734863 321.297394 552.471985 322.106415 C 551.821228 324.109344 552.119934 326.188782 553.110291 327.876068 C 552.720886 328.108917 552.300903 328.286285 551.862427 328.402924 C 551.364441 328.535492 550.841125 328.614349 550.298828 328.576935 C 547.61554 328.393433 545.595825 326.059753 545.779968 323.376648 C 545.801819 323.041718 545.868652 322.704498 545.95636 322.393707 C 546.579407 320.172211 548.678528 318.695007 550.97998 318.858429 Z"/>
            </g>
            <path id="path47" fill="#ffd200" stroke="none" d="M 563.970032 324.311981 C 563.970032 326.913269 561.861267 329.022003 559.26001 329.022003 C 556.658752 329.022003 554.549988 326.913269 554.549988 324.311981 C 554.549988 321.710724 556.658752 319.60202 559.26001 319.60202 C 561.861267 319.60202 563.970032 321.710724 563.970032 324.311981 Z"/>
            <path id="path48" fill="#ffd200" stroke="none" d="M 641.950012 317.961334 C 634.130676 319.473328 628.503357 326.380005 629.32196 334.446014 C 626.830017 332.381989 625.006653 329.60202 624.680664 326.527985 C 624.046692 320.541992 628.394653 315.91333 634.954041 315.91333 C 637.461365 315.91333 639.870667 316.681335 641.950012 317.961334 Z"/>
        </g>
    </g>
</svg>
