<?xml version="1.0" encoding="UTF-8"?>
<!-- Generated by Pixelmator Pro 3.5.7 -->
<svg width="1200" height="600" viewBox="0 0 1200 600" xmlns="http://www.w3.org/2000/svg">
    <path id="Path" fill="#ce2028" stroke="none" d="M 0 0 L 1200 0 L 1200 600 L 0 600 Z"/>
    <path id="path1" fill="#f9d616" stroke="none" d="M 672.857117 342.857147 L 0 0 L 180 0 Z M 527.142883 257.142853 L 1020 600 L 1200 600 Z M 527.142883 342.857147 L 1020 0 L 1200 0 Z M 672.857117 257.142853 L 0 600 L 180 600 Z M 600 300 L 0 240 L 0 360 Z M 600 300 L 1200 240 L 1200 360 Z M 600 300 L 540 0 L 660 0 Z M 600 300 L 540 600 L 660 600 Z"/>
    <path id="path2" fill="#f9d616" stroke="#ce2028" stroke-width="21.428572" d="M 696.428589 300 C 696.428589 353.256042 653.256042 396.428589 600 396.428589 C 546.743958 396.428589 503.571442 353.256042 503.571442 300 C 503.571442 246.743958 546.743958 203.571442 600 203.571442 C 653.256042 203.571442 696.428589 246.743958 696.428589 300 Z"/>
</svg>
