<?xml version="1.0" encoding="UTF-8"?>
<!-- Generated by Pixelmator Pro 3.5.7 -->
<svg width="900" height="600" viewBox="0 0 900 600" xmlns="http://www.w3.org/2000/svg">
    <path id="Path" fill="#d21034" stroke="none" d="M 0 0 L 900 0 L 900 600 L 0 600 Z"/>
    <g id="Group">
        <path id="path1" fill="#007e3a" stroke="none" d="M 150 150 L 750 150 L 750 450 L 150 450 Z"/>
        <path id="path2" fill="#ffffff" stroke="none" d="M 587.5 300 C 587.5 355.228455 542.728455 400 487.5 400 C 432.271545 400 387.5 355.228455 387.5 300 C 387.5 244.771484 432.271545 200 487.5 200 C 542.728455 200 587.5 244.771484 587.5 300 Z"/>
        <path id="path3" fill="#007e3a" stroke="none" d="M 625 300 C 625 355.228455 580.228455 400 525 400 C 469.771545 400 425 355.228455 425 300 C 425 244.771484 469.771545 200 525 200 C 580.228455 200 625 244.771484 625 300 Z"/>
    </g>
</svg>
