<?xml version="1.0" encoding="UTF-8"?>
<!-- Generated by Pixelmator Pro 3.5.7 -->
<svg width="1200" height="600" viewBox="0 0 1200 600" xmlns="http://www.w3.org/2000/svg">
    <path id="Path" fill="#ffffff" stroke="none" d="M 0 0 L 1200 0 L 1200 600 L 0 600 Z"/>
    <path id="path1" fill="none" stroke="#cc0000" stroke-width="42.857143" d="M 42.857143 21.428589 L 1200 21.428589 M 1200 107.142853 L 42.857143 107.142853 M 42.857143 192.857147 L 1200 192.857147 M 1200 278.571442 L 42.857143 278.571442"/>
    <path id="path2" fill="#000066" stroke="none" d="M 0 0 L 600 0 L 600 364.285706 L 0 364.285706 Z"/>
    <path id="path3" fill="none" stroke="#cc0000" stroke-width="42.857143" d="M 0 364.285706 L 1200 364.285706 M 1200 450 L 0 450 M 0 535.714294 L 1200 535.714294"/>
    <path id="path4" fill="#ffcc00" stroke="none" d="M 375 64.285706 L 384.553558 129.642853 L 421.517853 74.910706 L 401.696442 137.946442 L 458.75 104.642853 L 413.571442 152.857147 L 479.464294 147.589294 L 417.857147 171.428558 L 479.464294 195.267853 L 413.571442 190 L 458.75 238.214294 L 401.696442 204.910706 L 421.517853 267.946442 L 384.553558 213.214294 L 375 278.571442 L 365.446442 213.214294 L 328.482147 267.946442 L 348.303558 204.910706 L 291.25 238.214294 L 336.428558 190 L 270.535706 195.267853 L 332.142853 171.428558 L 270.535706 147.589294 L 336.428558 152.857147 L 291.25 104.642853 L 348.303558 137.946442 L 328.482147 74.910706 L 365.446442 129.642853 Z M 321.428558 66.964294 C 286.078094 51.279114 245.193222 54.536133 212.771866 75.620117 C 180.350525 96.704163 160.791611 132.754547 160.791611 171.428558 C 160.791611 210.10257 180.350525 246.152985 212.771866 267.237 C 245.193222 288.321014 286.078094 291.578033 321.428558 275.892853 C 282.257751 303.997559 230.655991 307.827087 187.765656 285.812408 C 144.87532 263.797699 117.904991 219.638824 117.904991 171.428558 C 117.904991 123.218323 144.87532 79.059448 187.765656 57.044739 C 230.655991 35.030029 282.257751 38.859558 321.428558 66.964294 Z"/>
</svg>
