<?xml version="1.0" encoding="UTF-8"?>
<!-- Generated by Pixelmator Pro 3.5.7 -->
<svg width="900" height="600" viewBox="0 0 900 600" xmlns="http://www.w3.org/2000/svg">
    <path id="Path" fill="#ff0000" stroke="none" d="M 0 0 L 900 0 L 900 600 L 0 600 Z"/>
    <path id="path1" fill="#006600" stroke="none" d="M 0 0 L 360 0 L 360 600 L 0 600 Z"/>
    <g id="Group">
        <path id="path2" fill="#ffff00" fill-rule="evenodd" stroke="#000000" stroke-width="0.8595" stroke-linecap="round" stroke-linejoin="round" d="M 477.359985 393.059998 C 432.045013 391.695007 224.25 261.990021 222.825012 241.334991 L 234.300003 222.199493 C 254.910004 252.148499 467.339996 378.28949 488.205017 373.819519 L 477.359985 393.054016"/>
        <path id="path3" fill="#ffff00" fill-rule="evenodd" stroke="#000000" stroke-width="0.8595" stroke-linecap="round" stroke-linejoin="round" d="M 231.884995 219.599976 C 227.820007 230.540985 286.10849 266.576996 356.239502 309.231018 C 426.367493 351.881989 486.837036 378.23999 491.319 374.459991 C 491.593506 373.972504 493.523987 370.650024 493.347015 370.675507 C 492.507019 371.941498 490.462524 372.340515 487.272003 371.42099 C 468.324005 365.956482 418.90802 343.273499 357.709503 306.161987 C 296.512512 269.047516 243.268509 234.845978 234.994492 220.313995 C 234.418518 219.307495 234.007507 217.470001 234.091507 216.041992 L 233.890503 216.039001 L 232.128006 219.1185 L 231.886505 219.601501 L 231.884995 219.601501 Z M 478.425018 393.660004 C 477.656982 395.054993 476.224518 395.099976 473.502014 394.801483 C 456.552032 392.926483 405.11853 367.914001 344.259003 331.481995 C 273.444 289.09198 214.959 250.46698 221.304001 240.372009 L 223.030502 237.321014 L 223.371002 237.425995 C 217.665009 254.533478 338.792999 323.792999 345.924011 328.208984 C 416.01001 371.629517 475.096497 396.985535 480.325531 390.395996 L 478.423523 393.667511 L 478.423523 393.66449 Z"/>
        <path id="path4" fill="#ffff00" fill-rule="evenodd" stroke="#000000" stroke-width="0.8595" stroke-linecap="round" stroke-linejoin="round" d="M 360.255005 253.845001 C 405.610504 253.486481 461.579987 247.647003 493.78949 234.809998 L 486.848999 223.534485 C 467.810974 234.071991 411.533966 241.000519 359.871002 242.036987 C 298.766998 241.474487 255.635986 235.785004 234.025497 221.284485 L 227.474991 233.291992 C 267.200989 250.102509 307.909485 253.672516 360.255005 253.846497"/>
        <path id="path5" fill="#ffff00" fill-rule="evenodd" stroke="#000000" stroke-width="0.8595" stroke-linecap="round" stroke-linejoin="round" d="M 495.660004 235.065002 C 494.551483 236.838013 473.545471 244.081482 442.600464 249.427521 C 421.6185 252.627014 394.249512 255.361511 360.094513 255.394501 C 327.644989 255.4245 301.136993 253.114502 281.068481 250.394989 C 248.584503 245.300995 231.819 238.214996 225.621002 235.709991 C 226.213501 234.532501 226.595993 233.704498 227.166 232.605011 C 245.008499 239.709015 261.85199 243.991486 281.585999 247.027496 C 301.520996 249.727509 327.710999 252.070496 359.998474 252.040497 C 393.994476 252.006012 421.063507 249.064514 441.922485 245.960999 C 473.654968 240.842987 490.988983 234.255005 493.423492 231.196503 L 495.66449 235.065002 L 495.661499 235.065002 Z M 489.570007 223.630524 C 486.130493 226.393494 468.992981 232.471497 438.839996 237.286499 C 418.718994 240.169525 393.133484 242.751007 360.444 242.782501 C 329.388 242.8125 304.013977 240.720001 284.716492 237.908997 C 254.095505 233.910004 237.796509 226.696503 231.922501 224.593506 C 232.507507 223.582489 233.101501 222.57901 233.713501 221.57251 C 238.285492 223.875 254.012985 230.259003 285.05249 234.657013 C 304.132507 237.361511 329.542511 239.377502 360.445496 239.346008 C 392.980499 239.313019 418.274994 236.682007 438.269989 233.814026 C 468.577515 229.643982 484.885468 221.891998 487.361969 219.952484 L 489.571503 223.627502 L 489.571503 223.631989 Z M 211.320007 308.490021 C 239.216995 323.494507 301.17749 331.056 359.810974 331.576508 C 413.197479 331.660492 482.747986 323.323486 508.75647 309.541504 L 508.040985 294.523499 C 499.903503 307.239014 425.37149 319.436981 359.231995 318.9375 C 293.092499 318.438019 231.674988 308.222992 211.201492 294.998993 L 211.321487 308.485504"/>
        <path id="path6" fill="#ffff00" fill-rule="evenodd" stroke="#000000" stroke-width="0.8595" stroke-linecap="round" stroke-linejoin="round" d="M 510.179993 306.329987 L 510.179993 309.910492 C 506.272522 314.584503 481.762482 321.649506 451.026001 326.623474 C 427.633484 330.209991 397.135498 332.915985 359.132996 332.915985 C 323.028015 332.915985 294.238495 330.34198 271.911011 326.91449 C 236.616013 321.774017 214.041 312.774017 209.511002 310.088989 L 209.530502 305.910004 C 223.14299 314.960999 260.022003 321.580475 272.406006 323.606995 C 294.588013 327.011993 323.208008 329.567993 359.1315 329.567993 C 396.955505 329.567993 427.282532 326.880005 450.527985 323.317505 C 472.579529 320.132996 503.994019 311.848511 510.178497 306.331482 L 510.179993 306.331482 Z M 510.195007 293.59198 L 510.195007 297.172516 C 506.287506 301.843506 481.777496 308.908478 451.041016 313.882507 C 427.648499 317.468994 397.150513 320.174988 359.14801 320.174988 C 323.042999 320.174988 294.25351 317.602509 271.925995 314.171997 C 236.630997 309.036011 214.056 300.036011 209.526016 297.347992 L 209.545517 293.170502 C 223.158005 302.220001 260.037018 308.841003 272.42099 310.864502 C 294.602997 314.272491 323.222992 316.828491 359.146515 316.828491 C 396.97052 316.828491 427.297485 314.140503 450.542999 310.573486 C 472.594482 307.388977 504.009033 299.104492 510.193512 293.588989 L 510.195007 293.59198 Z M 359.684998 390.480011 C 295.527008 390.097504 240.553513 372.991486 228.945007 370.164001 L 237.4095 383.414978 C 257.91449 392.039978 311.545502 404.894989 360.299988 403.471497 C 409.05603 402.0495 451.664978 398.272522 481.691986 383.656494 L 490.372528 369.922485 C 469.909515 379.559998 400.270477 390.380981 359.684998 390.480011"/>
        <path id="path7" fill="#ffff00" fill-rule="evenodd" stroke="#000000" stroke-width="0.825" stroke-linecap="round" stroke-linejoin="round" d="M 484.949982 380.580017 C 483.68515 382.517273 482.386963 384.432556 481.05603 386.324982 C 466.893005 391.318481 444.576019 396.560974 435.160492 398.089508 C 415.9245 402.054016 386.162994 404.980499 359.749481 404.994019 C 302.91449 404.162964 256.391998 393.03598 234.505508 383.545502 L 232.738495 380.509521 L 233.028015 380.053497 L 236.022018 381.214508 C 274.944 395.140503 318.658508 400.695007 360.069 401.692505 C 386.376038 401.785492 412.711487 398.67749 434.007019 394.869019 C 466.663513 388.325989 479.867981 383.393982 483.919525 381.158997 L 484.949982 380.580017 L 484.949982 380.580017 Z M 492.475494 368.167511 L 492.574493 368.28302 C 491.604553 369.921387 490.623016 371.552979 489.630035 373.17749 C 482.077515 375.877502 461.576996 381.874481 431.641479 386.060974 C 411.917999 388.747498 399.658508 391.349976 360.423004 392.112 C 286.900513 390.241516 239.298004 375.865479 227.989502 372.319489 L 226.314011 369.105011 C 268.923004 380.227478 312.447021 387.992981 360.425995 388.785004 C 396.320984 388.021484 411.593994 385.37851 431.154022 382.709991 C 466.05899 377.28302 483.64801 371.536499 488.926483 369.877502 C 488.854309 369.773926 488.777222 369.673798 488.695496 369.577484 L 492.480011 368.16449 L 492.47699 368.167511 Z"/>
        <path id="path8" fill="#ffff00" fill-rule="evenodd" stroke="#000000" stroke-width="0.8595" stroke-linecap="round" stroke-linejoin="round" d="M 493.244995 296.639984 C 493.453491 338.84549 471.855011 376.718994 454.457977 393.42749 C 429.846008 417.06601 397.213501 432.271484 359.104492 432.972015 C 316.5495 433.75351 276.4245 406.011017 265.662018 393.823517 C 244.62001 369.996002 227.488495 339.738007 226.939499 298.958984 C 229.546509 252.895508 247.628998 220.80899 273.841522 198.805481 C 300.053986 176.801971 334.955994 166.085999 364.02301 166.852478 C 397.560028 167.737518 436.735535 184.189484 463.804504 216.850494 C 481.539001 238.249481 489.218994 261.472504 493.244995 296.639984 Z M 359.466003 152.126984 C 441.193512 152.126984 508.410004 218.634003 508.410004 300.181488 C 508.410004 381.727478 441.193512 448.237518 359.466003 448.237518 C 277.738495 448.237518 211.080002 381.729004 211.080002 300.181488 C 211.080002 218.634003 277.738495 152.126984 359.466003 152.126984"/>
        <path id="path9" fill="#ffff00" fill-rule="evenodd" stroke="#000000" stroke-width="0.8595" stroke-linecap="round" stroke-linejoin="round" d="M 359.86499 151.620026 C 441.665985 151.620026 508.38147 218.344513 508.38147 300.153015 C 508.38147 381.959991 441.66449 448.683014 359.86499 448.683014 C 278.063995 448.683014 211.348495 381.961487 211.348495 300.153015 C 211.348495 218.344513 278.065491 151.620026 359.86499 151.620026 Z M 214.617004 300.153015 C 214.617004 380.042999 280.220978 445.416016 359.86499 445.416016 C 439.510468 445.416016 505.114502 380.042999 505.114502 300.153015 C 505.114502 220.259979 439.509003 154.886993 359.86499 154.886993 C 280.220978 154.886993 214.617004 220.263 214.617004 300.153015 Z"/>
        <path id="path10" fill="#ffff00" fill-rule="evenodd" stroke="#000000" stroke-width="0.8595" stroke-linecap="round" stroke-linejoin="round" d="M 359.985016 163.964996 C 434.581512 163.964996 496.024506 225.196503 496.024506 300.020996 C 496.024506 374.846985 434.579987 436.0755 359.985016 436.0755 C 285.389984 436.0755 223.945496 374.846985 223.945496 300.020996 C 223.945496 225.196503 285.39151 163.964996 359.985016 163.964996 Z M 227.212509 300.019501 C 227.212509 373.046997 287.181 432.805481 359.985016 432.805481 C 432.789001 432.805481 492.757507 373.046997 492.757507 300.019501 C 492.757507 226.990479 432.790497 167.231995 359.985016 167.231995 C 287.181 167.231995 227.212509 226.992004 227.212509 300.019501 Z"/>
        <path id="path11" fill="#ffff00" fill-rule="evenodd" stroke="#000000" stroke-width="0.8595" stroke-linecap="round" stroke-linejoin="round" d="M 365.970001 151.019989 L 353.242493 151.019989 L 353.257507 449.460022 L 366.028503 449.460022 Z"/>
        <path id="path12" fill="#ffff00" fill-rule="evenodd" stroke="#000000" stroke-width="0.8595" stroke-linecap="round" stroke-linejoin="round" d="M 364.695007 149.31897 L 367.934998 149.31897 L 367.962006 451.19397 L 364.72052 451.19397 L 364.696503 149.31897 Z M 352.063507 149.321991 L 355.327484 149.321991 L 355.332001 451.197021 L 352.065002 451.197021 L 352.065002 149.321991 Z"/>
        <path id="path13" fill="#ffff00" fill-rule="evenodd" stroke="#000000" stroke-width="0.8595" stroke-linecap="round" stroke-linejoin="round" d="M 508.484985 305.902496 L 508.484985 294.869995 L 499.5 286.5 L 448.5 273 L 375 265.5 L 286.5 270 L 223.5 285 L 210.780014 294.420013 L 210.780014 305.455505 L 243 291 L 319.5 279 L 393 279 L 447 285 L 484.5 294 Z"/>
        <path id="path14" fill="#ffff00" fill-rule="evenodd" stroke="#000000" stroke-width="0.8595" stroke-linecap="round" stroke-linejoin="round" d="M 359.924988 277.154999 C 394.999512 277.090515 429.029999 280.477509 456.022522 285.735016 C 483.876038 291.303009 503.478027 298.267517 510.179993 306.089996 L 510.172485 309.964508 C 502.090485 300.229492 475.713013 293.092499 455.395477 289.012512 C 428.608521 283.801514 394.80603 280.436981 359.924988 280.501526 C 323.118011 280.570496 288.844513 284.056519 262.449005 289.205994 C 241.268997 293.408997 213.022507 301.757996 209.496002 309.993011 L 209.496002 305.959503 C 211.43251 300.259521 232.465515 291.740997 261.971985 285.834015 C 288.565491 280.648499 322.902008 277.222504 359.924988 277.154999 Z M 359.940002 264.416992 C 395.014496 264.354004 429.045013 267.742493 456.037506 272.997009 C 483.890991 278.566498 503.492981 285.52951 510.195007 293.35199 L 510.1875 297.226501 C 502.105499 287.493011 475.728027 280.356018 455.410492 276.277496 C 428.623505 271.063507 394.820984 267.699005 359.940002 267.76651 C 323.132996 267.832489 289.026001 271.321503 262.627502 276.467987 C 242.188507 280.343994 212.788498 289.02301 209.509506 297.257996 L 209.509506 293.222992 C 211.446014 287.583008 232.905014 278.76001 261.987 273.097504 C 288.580505 267.910492 322.916992 264.487488 359.940002 264.416992 Z M 359.220001 199.440033 C 414.49353 199.164001 462.705017 207.167999 484.762482 218.467499 L 492.808502 232.385986 C 473.636993 222.053986 421.624512 211.311005 359.300995 212.917511 C 308.519989 213.229523 254.260513 218.507996 227.037003 233.032501 L 236.64151 216.968994 C 258.984009 205.382996 311.6745 199.504486 359.221497 199.443024"/>
        <path id="path15" fill="#ffff00" fill-rule="evenodd" stroke="#000000" stroke-width="0.8595" stroke-linecap="round" stroke-linejoin="round" d="M 359.955017 210.929993 C 391.480499 210.846008 421.942535 212.625 446.169037 216.996002 C 468.730499 221.194489 490.24649 227.496002 493.322998 230.885986 L 495.707977 235.100983 C 488.226013 230.215515 469.608002 224.775024 445.699493 220.242004 C 421.690521 215.730011 391.249512 214.234497 359.899506 214.316986 C 324.316498 214.195496 296.671509 216.073486 272.946014 220.21051 C 247.853989 224.905487 230.445007 231.612 226.150497 234.7995 L 228.487503 230.344513 C 236.833511 226.087524 250.072495 220.954498 272.322021 216.949493 C 296.857513 212.467529 324.796509 211.123505 359.956482 210.929993 L 359.956482 210.929993 Z M 359.941498 198.203979 C 390.111023 198.124512 419.899536 199.805969 443.119507 203.979004 C 461.433014 207.544525 479.544037 213.111023 486.175507 218.064026 L 489.66449 223.606506 C 483.733521 217.014008 461.410492 210.766479 441.703491 207.268524 C 418.662018 203.293488 390.111023 201.721527 359.941498 201.469482 C 328.27951 201.559479 299.018982 203.497467 276.313507 207.631531 C 254.652008 211.754974 240.673508 216.634521 234.759003 220.446014 L 237.826492 215.815521 C 245.988007 211.519501 259.1745 207.573029 275.781006 204.346527 C 298.65451 200.180969 328.095001 198.292511 359.943024 198.203979 Z M 433.725006 361.890015 C 406.39801 356.790009 379.021515 356.047516 359.899506 356.272522 C 267.789001 357.352509 238.033493 375.1875 234.402008 380.587524 L 227.516998 369.364502 C 250.969513 352.366516 301.127991 342.834015 360.399017 343.80899 C 391.175995 344.313019 417.734985 346.356018 440.077515 350.683502 L 433.72348 361.893005"/>
        <path id="path16" fill="#ffff00" fill-rule="evenodd" stroke="#000000" stroke-width="0.825" stroke-linecap="round" stroke-linejoin="round" d="M 359.369995 354.690002 C 384.992981 355.07251 410.143494 356.130005 434.419525 360.656982 L 432.66153 363.761993 C 410.115021 359.599487 386.078979 358.0065 359.457001 358.136993 C 325.462524 357.869995 291.079498 361.045502 261.145508 369.635986 C 251.700012 372.265503 236.064011 378.335999 234.469513 383.355011 L 232.720505 380.47052 C 233.224503 377.505005 242.674515 371.350494 260.341522 366.385498 C 294.62851 356.567993 326.701508 354.911987 359.37149 354.686981 L 359.37149 354.690002 Z M 360.532501 341.79599 C 387.079529 342.290985 414.494995 343.519501 441.142517 348.797974 L 439.3125 352.027496 C 415.249512 347.251526 392.257507 345.658508 360.690002 345.172485 C 326.587524 345.235474 290.413483 347.666992 257.52301 357.227966 C 246.903015 360.32251 228.577499 367.007996 227.966995 372.302979 L 226.218002 369.205505 C 226.615494 364.396484 242.481018 358.123474 256.755005 353.971497 C 289.899017 344.33551 326.167511 341.857483 360.533997 341.79599 Z"/>
        <path id="path17" fill="#ffff00" fill-rule="evenodd" stroke="#000000" stroke-width="0.8595" stroke-linecap="round" stroke-linejoin="round" d="M 491.369995 371.070007 L 480.301483 388.24353 L 448.5 360 L 366 304.5 L 273 253.5 L 224.714996 236.985016 L 235.005005 217.904999 L 238.5 216 L 268.5 223.5 L 367.5 274.5 L 424.5 310.5 L 472.5 345 L 492 367.5 Z"/>
        <path id="path18" fill="#ffff00" fill-rule="evenodd" stroke="#000000" stroke-width="0.8595" stroke-linecap="round" stroke-linejoin="round" d="M 222.974991 237.434998 C 231.444016 231.690002 293.683502 259.417511 358.807495 298.685974 C 423.759033 338.067017 485.822998 382.567505 480.22052 390.895477 L 478.37851 393.793488 L 477.532532 394.460999 C 477.712524 394.330505 478.647003 393.189026 477.442535 390.10199 C 474.673523 380.997009 430.648499 345.865479 357.600006 301.759491 C 286.387512 259.294495 227.040009 233.703003 221.104507 241.018494 L 222.974991 237.433502 L 222.974991 237.433502 Z M 493.63501 370.8255 C 498.990021 360.247498 441.261017 316.759491 369.686981 274.417511 C 296.467499 232.918518 243.696014 208.491028 234.056992 215.774994 L 231.915009 219.674988 C 231.897018 219.888 231.993011 219.40799 232.446014 219.058502 C 234.198013 217.528503 237.1035 217.633514 238.41449 217.608002 C 255.011993 217.856995 302.415009 239.673004 368.923523 277.799988 C 398.065521 294.772491 492.029999 355.036499 491.671509 371.984985 C 491.697021 373.440002 491.791504 373.73999 491.244019 374.461487 L 493.63501 370.826996 L 493.63501 370.824005 Z"/>
    </g>
    <path id="path19" fill="#ffffff" stroke="#000000" stroke-width="1.005" d="M 270.899994 316.514984 C 270.899994 340.921509 280.894501 362.995483 297.08551 379.127991 C 313.307983 395.294983 335.353485 405.49649 359.798981 405.49649 C 384.370514 405.49649 406.669495 395.517029 422.822968 379.412994 C 438.976501 363.310486 448.987518 341.084991 448.992004 316.592987 L 448.988983 316.592987 L 448.988983 197.809479 L 270.878998 197.597992 L 270.897003 316.514984 L 270.899994 316.514984 Z"/>
    <path id="path20" fill="#ff0000" stroke="#000000" stroke-width="0.7605" d="M 274.230011 316.679993 L 274.230011 316.747498 C 274.230011 340.083008 283.89151 361.333496 299.392517 376.760986 C 314.923523 392.218506 336.313507 401.828979 359.713501 401.828979 C 383.235016 401.828979 404.581512 392.289001 420.046509 376.890015 C 435.508484 361.492493 445.09201 340.240509 445.095032 316.824005 L 445.09201 316.824005 L 445.09201 201.585022 L 274.332001 201.556519 L 274.22699 316.678497 M 410.76001 236.057983 L 410.765991 309.394501 L 410.704529 317.152496 L 410.704529 317.152496 C 410.704529 319.194 410.582977 321.520508 410.344482 323.502014 C 408.957001 335.096985 403.624512 345.202515 395.72699 353.064026 C 386.480988 362.268005 373.72052 367.97699 359.656494 367.97699 C 345.666016 367.97699 333.196503 362.070007 323.911499 352.827026 C 314.388 343.346985 308.866486 330.347992 308.866486 316.906494 L 308.848511 235.872009 L 410.758484 236.054993 L 410.761505 236.057983 Z"/>
    <g id="e">
        <g id="d">
            <path id="path21" fill="#ffff00" stroke="none" d="M 285.285004 231.644989 C 285.487488 223.363495 291.363007 221.403015 291.404999 221.374481 C 291.448486 221.346008 297.752991 223.485016 297.732025 231.721497 L 285.285004 231.644989"/>
            <path id="path22" fill="#ffff00" stroke="#000000" stroke-width="0.75" d="M 280.214996 221.535004 L 279.192017 231.05249 L 285.402008 231.06601 C 285.462006 223.19101 291.364502 221.8815 291.506989 221.911499 C 291.641998 221.903992 297.490509 223.651489 297.646515 231.06601 L 303.873016 231.06601 L 302.748016 221.474976 L 280.214996 221.532013 L 280.214996 221.535004 Z M 278.775024 231.089996 L 304.194 231.089996 C 304.729492 231.089996 305.169006 231.619507 305.169006 232.265991 C 305.169006 232.911011 304.729492 233.4375 304.194 233.4375 L 278.775024 233.4375 C 278.239502 233.4375 277.799988 232.912476 277.799988 232.265991 C 277.799988 231.619507 278.239502 231.089996 278.775024 231.089996 Z"/>
            <path id="path23" fill="#ffff00" stroke="#000000" stroke-width="0.75" d="M 288.014984 231.044983 C 288.041992 226.0755 291.40802 224.669983 291.425995 224.673004 C 291.425995 224.673004 294.939026 226.122009 294.966003 231.044983 L 288.014984 231.044983 M 279.315002 217.575012 L 303.682495 217.575012 C 304.195496 217.575012 304.617004 218.052002 304.617004 218.632507 C 304.617004 219.212982 304.197021 219.688507 303.682495 219.688507 L 279.315002 219.688507 C 278.802002 219.688507 278.380524 219.216003 278.380524 218.632507 C 278.380524 218.052002 278.800507 217.575012 279.315002 217.575012 Z M 279.825012 219.704987 L 303.131989 219.704987 C 303.622498 219.704987 304.024506 220.180511 304.024506 220.760986 C 304.024506 221.342987 303.622498 221.817017 303.131989 221.817017 L 279.825012 221.817017 C 279.334503 221.817017 278.932495 221.342987 278.932495 220.760986 C 278.932495 220.180511 279.334503 219.704987 279.825012 219.704987 Z M 287.355011 203.820007 L 289.195496 203.823029 L 289.195496 205.129486 L 290.537994 205.129486 L 290.537994 203.794495 L 292.423523 203.800507 L 292.423523 205.130981 L 293.768982 205.130981 L 293.768982 203.796021 L 295.656006 203.796021 L 295.653015 206.810974 C 295.653015 207.286469 295.272003 207.592529 294.829498 207.592529 L 288.214508 207.592529 C 287.768982 207.592529 287.359497 207.23703 287.356506 206.803528 L 287.35199 203.821472 L 287.353516 203.821472 Z M 294.285004 207.855011 L 294.7005 217.531494 L 288.246002 217.509003 L 288.673523 207.829468 L 294.285004 207.855011"/>
            <path id="a" fill="#ffff00" stroke="#000000" stroke-width="0.75" d="M 286.410004 212.339996 L 286.606506 217.557007 L 280.419006 217.558502 L 280.592987 212.339996 L 286.411499 212.339996 L 286.410004 212.339996 Z"/>
            <g id="g1">
                <path id="path24" fill="#ffff00" stroke="#000000" stroke-width="0.75" d="M 302.323486 212.339996 L 302.519989 217.557007 L 296.332489 217.558502 L 296.50647 212.339996 L 302.324982 212.339996 L 302.323486 212.339996 Z"/>
            </g>
            <path id="b" fill="#ffff00" stroke="#000000" stroke-width="0.75" d="M 279.450012 208.559967 L 281.25 208.564484 L 281.25 209.872467 L 282.565491 209.872467 L 282.565491 208.534515 L 284.410492 208.540466 L 284.410492 209.874023 L 285.728973 209.874023 L 285.728973 208.534515 L 287.574005 208.537476 L 287.571014 211.555481 C 287.571014 212.02652 287.197479 212.332489 286.766998 212.332489 L 280.291473 212.332489 C 279.856506 212.332489 279.453003 211.980011 279.451477 211.544983 L 279.448486 208.561523 L 279.448486 208.561523 Z"/>
            <g id="g2">
                <path id="path25" fill="#ffff00" stroke="#000000" stroke-width="0.75" d="M 295.363495 208.559967 L 297.163483 208.564484 L 297.163483 209.872467 L 298.479004 209.872467 L 298.479004 208.534515 L 300.323975 208.540466 L 300.323975 209.874023 L 301.642487 209.874023 L 301.642487 208.534515 L 303.487488 208.537476 L 303.484497 211.555481 C 303.484497 212.02652 303.110992 212.332489 302.680481 212.332489 L 296.204987 212.332489 C 295.769989 212.332489 295.366486 211.980011 295.36499 211.544983 L 295.362 208.561523 L 295.362 208.561523 Z"/>
            </g>
            <path id="path26" fill="#000000" stroke="none" d="M 290.849976 210.914978 C 290.810974 209.974487 292.165497 209.96402 292.149017 210.914978 L 292.149017 213.218994 L 290.849976 213.218994 L 290.849976 210.914978"/>
            <path id="c" fill="#000000" stroke="none" d="M 282.855011 214.259979 C 282.850494 213.351013 284.110504 213.332977 284.093994 214.259979 L 284.093994 216.040497 L 282.855011 216.040497 L 282.855011 214.259979"/>
            <g id="g3">
                <path id="path27" fill="#000000" stroke="none" d="M 298.816528 214.259979 C 298.812012 213.351013 300.071991 213.332977 300.055511 214.259979 L 300.055511 216.040497 L 298.816528 216.040497 L 298.816528 214.259979"/>
            </g>
        </g>
        <g id="g4">
            <g id="g5">
                <path id="path28" fill="#ffff00" stroke="none" d="M 285.285004 301.125 C 285.487488 292.843506 291.363007 290.883026 291.404999 290.854492 C 291.448486 290.825989 297.752991 292.965027 297.732025 301.201508 L 285.285004 301.125"/>
                <path id="path29" fill="#ffff00" stroke="#000000" stroke-width="0.75" d="M 280.214996 291.015015 L 279.192017 300.532532 L 285.402008 300.546021 C 285.462006 292.671021 291.364502 291.361511 291.506989 291.39151 C 291.641998 291.384033 297.490509 293.1315 297.646515 300.546021 L 303.873016 300.546021 L 302.748016 290.955017 L 280.214996 291.012024 L 280.214996 291.015015 Z M 278.775024 300.570007 L 304.194 300.570007 C 304.729492 300.570007 305.169006 301.099518 305.169006 301.746002 C 305.169006 302.391022 304.729492 302.917511 304.194 302.917511 L 278.775024 302.917511 C 278.239502 302.917511 277.799988 302.392517 277.799988 301.746002 C 277.799988 301.099518 278.239502 300.570007 278.775024 300.570007 Z"/>
                <path id="path30" fill="#ffff00" stroke="#000000" stroke-width="0.75" d="M 288.014984 300.525024 C 288.041992 295.555511 291.40802 294.150024 291.425995 294.153015 C 291.425995 294.153015 294.939026 295.60202 294.966003 300.525024 L 288.014984 300.525024 M 279.315002 287.055023 L 303.682495 287.055023 C 304.195496 287.055023 304.617004 287.532013 304.617004 288.112518 C 304.617004 288.693024 304.197021 289.168518 303.682495 289.168518 L 279.315002 289.168518 C 278.802002 289.168518 278.380524 288.696014 278.380524 288.112518 C 278.380524 287.532013 278.800507 287.055023 279.315002 287.055023 Z M 279.825012 289.185028 L 303.131989 289.185028 C 303.622498 289.185028 304.024506 289.660522 304.024506 290.240997 C 304.024506 290.822998 303.622498 291.297028 303.131989 291.297028 L 279.825012 291.297028 C 279.334503 291.297028 278.932495 290.822998 278.932495 290.240997 C 278.932495 289.660522 279.334503 289.185028 279.825012 289.185028 Z M 287.355011 273.300018 L 289.195496 273.303009 L 289.195496 274.609528 L 290.537994 274.609528 L 290.537994 273.274536 L 292.423523 273.280518 L 292.423523 274.611023 L 293.768982 274.611023 L 293.768982 273.276001 L 295.656006 273.276001 L 295.653015 276.291016 C 295.653015 276.76651 295.272003 277.07251 294.829498 277.07251 L 288.214508 277.07251 C 287.768982 277.07251 287.359497 276.71701 287.356506 276.283508 L 287.35199 273.301514 L 287.353516 273.301514 Z M 294.285004 277.335022 L 294.7005 287.011505 L 288.246002 286.989014 L 288.673523 277.309509 L 294.285004 277.335022"/>
                <path id="path31" fill="#ffff00" stroke="#000000" stroke-width="0.75" d="M 286.410004 281.820007 L 286.606506 287.037018 L 280.419006 287.038513 L 280.592987 281.820007 L 286.411499 281.820007 L 286.410004 281.820007 Z"/>
                <g id="g6">
                    <path id="path32" fill="#ffff00" stroke="#000000" stroke-width="0.75" d="M 302.323486 281.820007 L 302.519989 287.037018 L 296.332489 287.038513 L 296.50647 281.820007 L 302.324982 281.820007 L 302.323486 281.820007 Z"/>
                </g>
                <path id="path33" fill="#ffff00" stroke="#000000" stroke-width="0.75" d="M 279.450012 278.040009 L 281.25 278.044495 L 281.25 279.352509 L 282.565491 279.352509 L 282.565491 278.014496 L 284.410492 278.020508 L 284.410492 279.354004 L 285.728973 279.354004 L 285.728973 278.014496 L 287.574005 278.017487 L 287.571014 281.035522 C 287.571014 281.5065 287.197479 281.8125 286.766998 281.8125 L 280.291473 281.8125 C 279.856506 281.8125 279.453003 281.460022 279.451477 281.024994 L 279.448486 278.041504 L 279.448486 278.041504 Z"/>
                <g id="g7">
                    <path id="path34" fill="#ffff00" stroke="#000000" stroke-width="0.75" d="M 295.363495 278.040009 L 297.163483 278.044495 L 297.163483 279.352509 L 298.479004 279.352509 L 298.479004 278.014496 L 300.323975 278.020508 L 300.323975 279.354004 L 301.642487 279.354004 L 301.642487 278.014496 L 303.487488 278.017487 L 303.484497 281.035522 C 303.484497 281.5065 303.110992 281.8125 302.680481 281.8125 L 296.204987 281.8125 C 295.769989 281.8125 295.366486 281.460022 295.36499 281.024994 L 295.362 278.041504 L 295.362 278.041504 Z"/>
                </g>
                <path id="path35" fill="#000000" stroke="none" d="M 290.849976 280.39502 C 290.810974 279.454498 292.165497 279.444 292.149017 280.39502 L 292.149017 282.699005 L 290.849976 282.699005 L 290.849976 280.39502"/>
                <path id="path36" fill="#000000" stroke="none" d="M 282.855011 283.740021 C 282.850494 282.830994 284.110504 282.813019 284.093994 283.740021 L 284.093994 285.520508 L 282.855011 285.520508 L 282.855011 283.740021"/>
                <g id="g8">
                    <path id="path37" fill="#000000" stroke="none" d="M 298.816528 283.740021 C 298.812012 282.830994 300.071991 282.813019 300.055511 283.740021 L 300.055511 285.520508 L 298.816528 285.520508 L 298.816528 283.740021"/>
                </g>
            </g>
        </g>
        <g id="g9">
            <g id="g10">
                <path id="path38" fill="#ffff00" stroke="none" d="M 312.375885 373.445496 C 306.642059 367.466614 309.390869 361.915985 309.400208 361.866089 C 309.410645 361.815125 315.370667 358.848694 321.20047 364.667084 L 312.375885 373.445496"/>
                <path id="path39" fill="#ffff00" stroke="#000000" stroke-width="0.75" d="M 301.629517 369.919556 L 307.662292 377.351593 L 312.047485 372.954529 C 306.501709 367.363159 309.731445 362.252075 309.853149 362.172089 C 309.942932 362.071045 315.303864 359.152222 320.675079 364.2659 L 325.062347 359.847595 L 317.463928 353.887939 L 301.627411 369.91745 L 301.629517 369.919556 Z M 307.395081 377.673889 L 325.305542 359.636719 C 325.682861 359.256714 326.368256 359.317932 326.827026 359.773468 C 327.284698 360.227966 327.348633 360.910767 326.971313 361.290771 L 309.060852 379.328003 C 308.683533 379.707977 308.001312 379.649902 307.542542 379.194397 C 307.083801 378.738831 307.017761 378.053894 307.395081 377.673889 Z"/>
                <path id="path40" fill="#ffff00" stroke="#000000" stroke-width="0.75" d="M 313.873718 371.085541 C 310.366425 367.564819 311.740784 364.185974 311.755615 364.175354 C 311.755615 364.175354 315.259125 362.703491 318.771484 366.153168 L 313.873718 371.085541 M 298.185394 367.767944 L 315.35495 350.476868 C 315.716431 350.112854 316.351898 350.149841 316.763824 350.558899 C 317.17572 350.967896 317.217194 351.600952 316.854675 351.966064 L 299.68512 369.257141 C 299.323639 369.621155 298.691376 369.587311 298.277313 369.176208 C 297.865417 368.767151 297.822876 368.132996 298.185394 367.767944 Z M 300.056183 368.90686 L 316.478516 352.368317 C 316.824097 352.020264 317.444794 352.070068 317.856689 352.479065 C 318.269684 352.88916 318.322784 353.508423 317.977173 353.856445 L 301.55484 370.39502 C 301.209229 370.743042 300.58963 370.694336 300.176636 370.284241 C 299.764709 369.875214 299.710571 369.254944 300.056183 368.90686 Z M 294.089966 352.37088 L 295.388916 351.066986 L 296.31601 351.987579 L 297.261963 351.034943 L 296.314636 350.094299 L 297.64743 348.760559 L 298.591553 349.698059 L 299.539581 348.743286 L 298.592285 347.802612 L 299.921875 346.463623 L 302.059204 348.590149 C 302.396637 348.925171 302.345306 349.411163 302.033508 349.725159 L 297.372528 354.419128 C 297.058624 354.735291 296.517822 354.77536 296.208099 354.472046 L 294.088898 352.374084 L 294.089966 352.373016 Z M 301.836151 350.296509 L 308.99527 356.819824 L 304.431396 361.384033 L 297.864105 354.260437 L 301.836151 350.296509"/>
                <path id="path41" fill="#ffff00" stroke="#000000" stroke-width="0.75" d="M 299.469849 359.044739 L 303.310242 362.581238 L 298.951569 366.972931 L 295.371155 363.172424 L 299.470886 359.043671 L 299.469849 359.044739 Z"/>
                <g id="g11">
                    <path id="path42" fill="#ffff00" stroke="#000000" stroke-width="0.75" d="M 310.682648 347.752563 L 314.523071 351.289124 L 310.164368 355.680786 L 306.583923 351.88031 L 310.683716 347.751526 L 310.682648 347.752563 Z"/>
                </g>
                <path id="path43" fill="#ffff00" stroke="#000000" stroke-width="0.75" d="M 291.883484 361.320068 L 293.154999 360.045959 L 294.08313 360.967621 L 295.010071 360.034149 L 294.060608 359.09137 L 295.364868 357.786407 L 296.311127 358.726013 L 297.240143 357.790405 L 296.289642 356.846558 L 297.591766 355.53949 L 299.731232 357.668121 C 300.06543 358 300.019379 358.480652 299.716064 358.786133 L 295.153351 363.381104 C 294.846863 363.689758 294.312439 363.727722 294.002716 363.422302 L 291.883514 361.322205 L 291.883514 361.322205 Z"/>
                <g id="g12">
                    <path id="path44" fill="#ffff00" stroke="#000000" stroke-width="0.75" d="M 303.096283 350.027954 L 304.367798 348.753845 L 305.295929 349.675476 L 306.222839 348.742004 L 305.273407 347.799225 L 306.577667 346.494263 L 307.523926 347.433868 L 308.452942 346.49826 L 307.502411 345.554443 L 308.804565 344.247314 L 310.944031 346.375977 C 311.278229 346.707855 311.232178 347.188507 310.928864 347.493988 L 306.36615 352.088989 C 306.059662 352.397644 305.525238 352.435608 305.215485 352.130157 L 303.096313 350.03009 L 303.096313 350.03009 Z"/>
                </g>
                <path id="path45" fill="#000000" stroke="none" d="M 301.587128 354.890076 C 300.892273 354.255066 301.839233 353.286499 302.502441 353.968323 L 304.137329 355.591736 L 303.222046 356.513489 L 301.587128 354.890076"/>
                <path id="path46" fill="#000000" stroke="none" d="M 298.327393 362.920166 C 297.679169 362.282898 298.55423 361.376129 299.200409 362.041016 L 300.463837 363.295532 L 299.59082 364.174744 L 298.327393 362.920166"/>
                <g id="g13">
                    <path id="path47" fill="#000000" stroke="none" d="M 309.574005 351.593994 C 308.925812 350.956665 309.800873 350.049927 310.447021 350.714783 L 311.710449 351.96936 L 310.837433 352.848541 L 309.574005 351.593994"/>
                </g>
            </g>
        </g>
    </g>
    <g id="g14">
        <g id="g15">
            <path id="path48" fill="#ffff00" stroke="none" d="M 353.856018 231.644989 C 354.058502 223.363495 359.934021 221.403015 359.976013 221.374481 C 360.019501 221.346008 366.324005 223.485016 366.303009 231.721497 L 353.856018 231.644989"/>
            <path id="path49" fill="#ffff00" stroke="#000000" stroke-width="0.75" d="M 348.786011 221.535004 L 347.763031 231.05249 L 353.973022 231.06601 C 354.03302 223.19101 359.935516 221.8815 360.078003 221.911499 C 360.213013 221.903992 366.061493 223.651489 366.217499 231.06601 L 372.444 231.06601 L 371.319 221.474976 L 348.786011 221.532013 L 348.786011 221.535004 Z M 347.346008 231.089996 L 372.765015 231.089996 C 373.300507 231.089996 373.740021 231.619507 373.740021 232.265991 C 373.740021 232.911011 373.300507 233.4375 372.765015 233.4375 L 347.346008 233.4375 C 346.810516 233.4375 346.371002 232.912476 346.371002 232.265991 C 346.371002 231.619507 346.810516 231.089996 347.346008 231.089996 Z"/>
            <path id="path50" fill="#ffff00" stroke="#000000" stroke-width="0.75" d="M 356.585999 231.044983 C 356.613007 226.0755 359.979004 224.669983 359.997009 224.673004 C 359.997009 224.673004 363.51001 226.122009 363.536987 231.044983 L 356.585999 231.044983 M 347.886017 217.575012 L 372.25351 217.575012 C 372.76651 217.575012 373.188019 218.052002 373.188019 218.632507 C 373.188019 219.212982 372.768005 219.688507 372.25351 219.688507 L 347.886017 219.688507 C 347.372986 219.688507 346.951508 219.216003 346.951508 218.632507 C 346.951508 218.052002 347.371521 217.575012 347.886017 217.575012 Z M 348.395996 219.704987 L 371.703003 219.704987 C 372.193481 219.704987 372.59549 220.180511 372.59549 220.760986 C 372.59549 221.342987 372.193481 221.817017 371.703003 221.817017 L 348.395996 221.817017 C 347.905518 221.817017 347.50351 221.342987 347.50351 220.760986 C 347.50351 220.180511 347.905518 219.704987 348.395996 219.704987 Z M 355.926025 203.820007 L 357.76651 203.823029 L 357.76651 205.129486 L 359.109009 205.129486 L 359.109009 203.794495 L 360.994507 203.800507 L 360.994507 205.130981 L 362.339996 205.130981 L 362.339996 203.796021 L 364.22702 203.796021 L 364.223999 206.810974 C 364.223999 207.286469 363.843018 207.592529 363.400482 207.592529 L 356.785522 207.592529 C 356.339996 207.592529 355.930511 207.23703 355.92749 206.803528 L 355.923004 203.821472 L 355.9245 203.821472 Z M 362.856018 207.855011 L 363.271484 217.531494 L 356.817017 217.509003 L 357.244507 207.829468 L 362.856018 207.855011"/>
            <path id="path51" fill="#ffff00" stroke="#000000" stroke-width="0.75" d="M 354.981018 212.339996 L 355.177521 217.557007 L 348.990021 217.558502 L 349.164001 212.339996 L 354.982513 212.339996 L 354.981018 212.339996 Z"/>
            <g id="g16">
                <path id="path52" fill="#ffff00" stroke="#000000" stroke-width="0.75" d="M 370.894501 212.339996 L 371.091003 217.557007 L 364.903503 217.558502 L 365.077484 212.339996 L 370.895996 212.339996 L 370.894501 212.339996 Z"/>
            </g>
            <path id="path53" fill="#ffff00" stroke="#000000" stroke-width="0.75" d="M 348.021027 208.559967 L 349.821014 208.564484 L 349.821014 209.872467 L 351.136505 209.872467 L 351.136505 208.534515 L 352.981506 208.540466 L 352.981506 209.874023 L 354.299988 209.874023 L 354.299988 208.534515 L 356.14502 208.537476 L 356.142029 211.555481 C 356.142029 212.02652 355.768494 212.332489 355.338013 212.332489 L 348.862488 212.332489 C 348.427521 212.332489 348.024017 211.980011 348.022491 211.544983 L 348.019501 208.561523 L 348.019501 208.561523 Z"/>
            <g id="g17">
                <path id="path54" fill="#ffff00" stroke="#000000" stroke-width="0.75" d="M 363.934509 208.559967 L 365.734497 208.564484 L 365.734497 209.872467 L 367.049988 209.872467 L 367.049988 208.534515 L 368.894989 208.540466 L 368.894989 209.874023 L 370.213501 209.874023 L 370.213501 208.534515 L 372.058502 208.537476 L 372.055511 211.555481 C 372.055511 212.02652 371.682007 212.332489 371.251495 212.332489 L 364.776001 212.332489 C 364.341003 212.332489 363.9375 211.980011 363.936005 211.544983 L 363.932983 208.561523 L 363.932983 208.561523 Z"/>
            </g>
            <path id="path55" fill="#000000" stroke="none" d="M 359.42099 210.914978 C 359.381989 209.974487 360.736481 209.96402 360.720001 210.914978 L 360.720001 213.218994 L 359.42099 213.218994 L 359.42099 210.914978"/>
            <path id="path56" fill="#000000" stroke="none" d="M 351.426025 214.259979 C 351.421509 213.351013 352.681519 213.332977 352.665009 214.259979 L 352.665009 216.040497 L 351.426025 216.040497 L 351.426025 214.259979"/>
            <g id="g18">
                <path id="path57" fill="#000000" stroke="none" d="M 367.387512 214.259979 C 367.382996 213.351013 368.642975 213.332977 368.626495 214.259979 L 368.626495 216.040497 L 367.387512 216.040497 L 367.387512 214.259979"/>
            </g>
        </g>
    </g>
    <g id="g19">
        <g id="g20">
            <g id="g21">
                <path id="path58" fill="#ffff00" stroke="none" d="M 434.402985 231.644989 C 434.200531 223.363495 428.324982 221.403015 428.28302 221.374481 C 428.239532 221.346008 421.935028 223.485016 421.955994 231.721497 L 434.402985 231.644989"/>
                <path id="path59" fill="#ffff00" stroke="#000000" stroke-width="0.75" d="M 439.472992 221.535004 L 440.496002 231.05249 L 434.28598 231.06601 C 434.226013 223.19101 428.323517 221.8815 428.181 221.911499 C 428.046021 221.903992 422.197479 223.651489 422.041473 231.06601 L 415.814972 231.06601 L 416.939972 221.474976 L 439.472992 221.532013 L 439.472992 221.535004 Z M 440.912964 231.089996 L 415.493988 231.089996 C 414.958496 231.089996 414.519012 231.619507 414.519012 232.265991 C 414.519012 232.911011 414.958496 233.4375 415.493988 233.4375 L 440.912964 233.4375 C 441.448517 233.4375 441.888 232.912476 441.888 232.265991 C 441.888 231.619507 441.448517 231.089996 440.912964 231.089996 Z"/>
                <path id="path60" fill="#ffff00" stroke="#000000" stroke-width="0.75" d="M 431.673035 231.044983 C 431.646027 226.0755 428.279999 224.669983 428.261993 224.673004 C 428.261993 224.673004 424.748993 226.122009 424.722015 231.044983 L 431.673035 231.044983 M 440.373016 217.575012 L 416.005524 217.575012 C 415.492493 217.575012 415.070984 218.052002 415.070984 218.632507 C 415.070984 219.212982 415.490997 219.688507 416.005524 219.688507 L 440.373016 219.688507 C 440.886017 219.688507 441.307495 219.216003 441.307495 218.632507 C 441.307495 218.052002 440.887482 217.575012 440.373016 217.575012 Z M 439.863007 219.704987 L 416.55603 219.704987 C 416.065521 219.704987 415.663513 220.180511 415.663513 220.760986 C 415.663513 221.342987 416.065521 221.817017 416.55603 221.817017 L 439.863007 221.817017 C 440.353516 221.817017 440.755524 221.342987 440.755524 220.760986 C 440.755524 220.180511 440.353516 219.704987 439.863007 219.704987 Z M 432.332977 203.820007 L 430.492493 203.823029 L 430.492493 205.129486 L 429.150024 205.129486 L 429.150024 203.794495 L 427.264496 203.800507 L 427.264496 205.130981 L 425.919037 205.130981 L 425.919037 203.796021 L 424.031982 203.796021 L 424.035004 206.810974 C 424.035004 207.286469 424.416016 207.592529 424.858521 207.592529 L 431.47348 207.592529 C 431.919037 207.592529 432.328491 207.23703 432.331512 206.803528 L 432.335999 203.821472 L 432.334503 203.821472 Z M 425.402985 207.855011 L 424.987518 217.531494 L 431.441986 217.509003 L 431.014496 207.829468 L 425.402985 207.855011"/>
                <path id="path61" fill="#ffff00" stroke="#000000" stroke-width="0.75" d="M 433.277985 212.339996 L 433.081512 217.557007 L 439.269012 217.558502 L 439.095001 212.339996 L 433.27652 212.339996 L 433.277985 212.339996 Z"/>
                <g id="g22">
                    <path id="path62" fill="#ffff00" stroke="#000000" stroke-width="0.75" d="M 417.364532 212.339996 L 417.167999 217.557007 L 423.355499 217.558502 L 423.181519 212.339996 L 417.363007 212.339996 L 417.364532 212.339996 Z"/>
                </g>
                <path id="path63" fill="#ffff00" stroke="#000000" stroke-width="0.75" d="M 440.238007 208.559967 L 438.437988 208.564484 L 438.437988 209.872467 L 437.122528 209.872467 L 437.122528 208.534515 L 435.277496 208.540466 L 435.277496 209.874023 L 433.959015 209.874023 L 433.959015 208.534515 L 432.113983 208.537476 L 432.117004 211.555481 C 432.117004 212.02652 432.490509 212.332489 432.921021 212.332489 L 439.396515 212.332489 C 439.831512 212.332489 440.234985 211.980011 440.236511 211.544983 L 440.239532 208.561523 L 440.239532 208.561523 Z"/>
                <g id="g23">
                    <path id="path64" fill="#ffff00" stroke="#000000" stroke-width="0.75" d="M 424.324493 208.559967 L 422.524536 208.564484 L 422.524536 209.872467 L 421.209015 209.872467 L 421.209015 208.534515 L 419.364044 208.540466 L 419.364044 209.874023 L 418.045532 209.874023 L 418.045532 208.534515 L 416.200531 208.537476 L 416.203491 211.555481 C 416.203491 212.02652 416.577026 212.332489 417.007507 212.332489 L 423.483032 212.332489 C 423.917999 212.332489 424.321533 211.980011 424.323029 211.544983 L 424.326019 208.561523 L 424.326019 208.561523 Z"/>
                </g>
                <path id="path65" fill="#000000" stroke="none" d="M 428.838013 210.914978 C 428.877014 209.974487 427.522522 209.96402 427.539001 210.914978 L 427.539001 213.218994 L 428.838013 213.218994 L 428.838013 210.914978"/>
                <path id="path66" fill="#000000" stroke="none" d="M 436.832977 214.259979 C 436.837524 213.351013 435.577515 213.332977 435.593994 214.259979 L 435.593994 216.040497 L 436.832977 216.040497 L 436.832977 214.259979"/>
                <g id="g24">
                    <path id="path67" fill="#000000" stroke="none" d="M 420.87149 214.259979 C 420.875977 213.351013 419.615997 213.332977 419.632507 214.259979 L 419.632507 216.040497 L 420.87149 216.040497 L 420.87149 214.259979"/>
                </g>
            </g>
            <g id="g25">
                <g id="g26">
                    <path id="path68" fill="#ffff00" stroke="none" d="M 434.402985 301.125 C 434.200531 292.843506 428.324982 290.883026 428.28302 290.854492 C 428.239532 290.825989 421.935028 292.965027 421.955994 301.201508 L 434.402985 301.125"/>
                    <path id="path69" fill="#ffff00" stroke="#000000" stroke-width="0.75" d="M 439.472992 291.015015 L 440.496002 300.532532 L 434.28598 300.546021 C 434.226013 292.671021 428.323517 291.361511 428.181 291.39151 C 428.046021 291.384033 422.197479 293.1315 422.041473 300.546021 L 415.814972 300.546021 L 416.939972 290.955017 L 439.472992 291.012024 L 439.472992 291.015015 Z M 440.912964 300.570007 L 415.493988 300.570007 C 414.958496 300.570007 414.519012 301.099518 414.519012 301.746002 C 414.519012 302.391022 414.958496 302.917511 415.493988 302.917511 L 440.912964 302.917511 C 441.448517 302.917511 441.888 302.392517 441.888 301.746002 C 441.888 301.099518 441.448517 300.570007 440.912964 300.570007 Z"/>
                    <path id="path70" fill="#ffff00" stroke="#000000" stroke-width="0.75" d="M 431.673035 300.525024 C 431.646027 295.555511 428.279999 294.150024 428.261993 294.153015 C 428.261993 294.153015 424.748993 295.60202 424.722015 300.525024 L 431.673035 300.525024 M 440.373016 287.055023 L 416.005524 287.055023 C 415.492493 287.055023 415.070984 287.532013 415.070984 288.112518 C 415.070984 288.693024 415.490997 289.168518 416.005524 289.168518 L 440.373016 289.168518 C 440.886017 289.168518 441.307495 288.696014 441.307495 288.112518 C 441.307495 287.532013 440.887482 287.055023 440.373016 287.055023 Z M 439.863007 289.185028 L 416.55603 289.185028 C 416.065521 289.185028 415.663513 289.660522 415.663513 290.240997 C 415.663513 290.822998 416.065521 291.297028 416.55603 291.297028 L 439.863007 291.297028 C 440.353516 291.297028 440.755524 290.822998 440.755524 290.240997 C 440.755524 289.660522 440.353516 289.185028 439.863007 289.185028 Z M 432.332977 273.300018 L 430.492493 273.303009 L 430.492493 274.609528 L 429.150024 274.609528 L 429.150024 273.274536 L 427.264496 273.280518 L 427.264496 274.611023 L 425.919037 274.611023 L 425.919037 273.276001 L 424.031982 273.276001 L 424.035004 276.291016 C 424.035004 276.76651 424.416016 277.07251 424.858521 277.07251 L 431.47348 277.07251 C 431.919037 277.07251 432.328491 276.71701 432.331512 276.283508 L 432.335999 273.301514 L 432.334503 273.301514 Z M 425.402985 277.335022 L 424.987518 287.011505 L 431.441986 286.989014 L 431.014496 277.309509 L 425.402985 277.335022"/>
                    <path id="path71" fill="#ffff00" stroke="#000000" stroke-width="0.75" d="M 433.277985 281.820007 L 433.081512 287.037018 L 439.269012 287.038513 L 439.095001 281.820007 L 433.27652 281.820007 L 433.277985 281.820007 Z"/>
                    <g id="g27">
                        <path id="path72" fill="#ffff00" stroke="#000000" stroke-width="0.75" d="M 417.364532 281.820007 L 417.167999 287.037018 L 423.355499 287.038513 L 423.181519 281.820007 L 417.363007 281.820007 L 417.364532 281.820007 Z"/>
                    </g>
                    <path id="path73" fill="#ffff00" stroke="#000000" stroke-width="0.75" d="M 440.238007 278.040009 L 438.437988 278.044495 L 438.437988 279.352509 L 437.122528 279.352509 L 437.122528 278.014496 L 435.277496 278.020508 L 435.277496 279.354004 L 433.959015 279.354004 L 433.959015 278.014496 L 432.113983 278.017487 L 432.117004 281.035522 C 432.117004 281.5065 432.490509 281.8125 432.921021 281.8125 L 439.396515 281.8125 C 439.831512 281.8125 440.234985 281.460022 440.236511 281.024994 L 440.239532 278.041504 L 440.239532 278.041504 Z"/>
                    <g id="g28">
                        <path id="path74" fill="#ffff00" stroke="#000000" stroke-width="0.75" d="M 424.324493 278.040009 L 422.524536 278.044495 L 422.524536 279.352509 L 421.209015 279.352509 L 421.209015 278.014496 L 419.364044 278.020508 L 419.364044 279.354004 L 418.045532 279.354004 L 418.045532 278.014496 L 416.200531 278.017487 L 416.203491 281.035522 C 416.203491 281.5065 416.577026 281.8125 417.007507 281.8125 L 423.483032 281.8125 C 423.917999 281.8125 424.321533 281.460022 424.323029 281.024994 L 424.326019 278.041504 L 424.326019 278.041504 Z"/>
                    </g>
                    <path id="path75" fill="#000000" stroke="none" d="M 428.838013 280.39502 C 428.877014 279.454498 427.522522 279.444 427.539001 280.39502 L 427.539001 282.699005 L 428.838013 282.699005 L 428.838013 280.39502"/>
                    <path id="path76" fill="#000000" stroke="none" d="M 436.832977 283.740021 C 436.837524 282.830994 435.577515 282.813019 435.593994 283.740021 L 435.593994 285.520508 L 436.832977 285.520508 L 436.832977 283.740021"/>
                    <g id="g29">
                        <path id="path77" fill="#000000" stroke="none" d="M 420.87149 283.740021 C 420.875977 282.830994 419.615997 282.813019 419.632507 283.740021 L 419.632507 285.520508 L 420.87149 285.520508 L 420.87149 283.740021"/>
                    </g>
                </g>
            </g>
            <g id="g30">
                <g id="g31">
                    <path id="path78" fill="#ffff00" stroke="none" d="M 407.312134 373.445496 C 413.045929 367.466614 410.29715 361.915985 410.287811 361.866089 C 410.277374 361.815125 404.317352 358.848694 398.487549 364.667084 L 407.312134 373.445496"/>
                    <path id="path79" fill="#ffff00" stroke="#000000" stroke-width="0.75" d="M 418.058472 369.919556 L 412.025696 377.351593 L 407.640503 372.954529 C 413.186279 367.363159 409.956573 362.252075 409.834839 362.172089 C 409.745087 362.071045 404.384125 359.152222 399.012909 364.2659 L 394.625641 359.847595 L 402.22406 353.887939 L 418.060577 369.91745 L 418.058472 369.919556 Z M 412.292908 377.673889 L 394.382446 359.636719 C 394.005157 359.256714 393.319733 359.317932 392.860962 359.773468 C 392.40329 360.227966 392.339355 360.910767 392.716675 361.290771 L 410.627136 379.328003 C 411.004486 379.707977 411.686676 379.649902 412.145447 379.194397 C 412.604187 378.738831 412.670227 378.053894 412.292908 377.673889 Z"/>
                    <path id="path80" fill="#ffff00" stroke="#000000" stroke-width="0.75" d="M 405.81427 371.085541 C 409.321564 367.564819 407.947235 364.185974 407.932404 364.175354 C 407.932404 364.175354 404.428894 362.703491 400.916534 366.153168 L 405.81427 371.085541 M 421.502625 367.767944 L 404.333038 350.476868 C 403.971588 350.112854 403.336121 350.149841 402.924194 350.558899 C 402.512299 350.967896 402.470825 351.600952 402.833313 351.966064 L 420.002899 369.257141 C 420.36438 369.621155 420.996643 369.587311 421.410706 369.176208 C 421.822601 368.767151 421.865112 368.132996 421.502625 367.767944 Z M 419.631836 368.90686 L 403.209503 352.368317 C 402.863892 352.020264 402.243225 352.070068 401.831329 352.479065 C 401.418335 352.88916 401.365234 353.508423 401.710846 353.856445 L 418.133148 370.39502 C 418.47876 370.743042 419.098389 370.694336 419.511383 370.284241 C 419.923279 369.875214 419.977448 369.254944 419.631836 368.90686 Z M 425.598053 352.37088 L 424.299103 351.066986 L 423.371979 351.987579 L 422.426056 351.034943 L 423.373352 350.094299 L 422.040588 348.760559 L 421.096436 349.698059 L 420.148407 348.743286 L 421.095703 347.802612 L 419.766144 346.463623 L 417.628784 348.590149 C 417.291382 348.925171 417.342682 349.411163 417.65451 349.725159 L 422.31546 354.419128 C 422.629395 354.735291 423.170197 354.77536 423.479919 354.472046 L 425.599091 352.374084 L 425.598053 352.373016 Z M 417.851868 350.296509 L 410.692749 356.819824 L 415.256622 361.384033 L 421.823914 354.260437 L 417.851868 350.296509"/>
                    <path id="path81" fill="#ffff00" stroke="#000000" stroke-width="0.75" d="M 420.21817 359.044739 L 416.377747 362.581238 L 420.73645 366.972931 L 424.316833 363.172424 L 420.217102 359.043671 L 420.21817 359.044739 Z"/>
                    <g id="g32">
                        <path id="path82" fill="#ffff00" stroke="#000000" stroke-width="0.75" d="M 409.005341 347.752563 L 405.164948 351.289124 L 409.523621 355.680786 L 413.104065 351.88031 L 409.004303 347.751526 L 409.005341 347.752563 Z"/>
                    </g>
                    <path id="path83" fill="#ffff00" stroke="#000000" stroke-width="0.75" d="M 427.804504 361.320068 L 426.53302 360.045959 L 425.604858 360.967621 L 424.677917 360.034149 L 425.62738 359.09137 L 424.32312 357.786407 L 423.376862 358.726013 L 422.447845 357.790405 L 423.398346 356.846558 L 422.096222 355.53949 L 419.956787 357.668121 C 419.622559 358 419.66861 358.480652 419.971924 358.786133 L 424.534637 363.381104 C 424.841125 363.689758 425.375549 363.727722 425.685272 363.422302 L 427.804504 361.322205 L 427.804504 361.322205 Z"/>
                    <g id="g33">
                        <path id="path84" fill="#ffff00" stroke="#000000" stroke-width="0.75" d="M 416.591736 350.027954 L 415.32019 348.753845 L 414.39209 349.675476 L 413.465149 348.742004 L 414.414612 347.799225 L 413.110352 346.494263 L 412.164093 347.433868 L 411.235077 346.49826 L 412.185577 345.554443 L 410.883423 344.247314 L 408.743958 346.375977 C 408.40976 346.707855 408.455811 347.188507 408.759155 347.493988 L 413.321838 352.088989 C 413.628357 352.397644 414.162781 352.435608 414.472504 352.130157 L 416.591675 350.03009 L 416.591675 350.03009 Z"/>
                    </g>
                    <path id="path85" fill="#000000" stroke="none" d="M 418.100891 354.890076 C 418.795715 354.255066 417.848785 353.286499 417.185577 353.968323 L 415.55069 355.591736 L 416.465973 356.513489 L 418.100891 354.890076"/>
                    <path id="path86" fill="#000000" stroke="none" d="M 421.360596 362.920166 C 422.008789 362.282898 421.133789 361.376129 420.48761 362.041016 L 419.224182 363.295532 L 420.097168 364.174744 L 421.360596 362.920166"/>
                    <g id="g34">
                        <path id="path87" fill="#000000" stroke="none" d="M 410.114014 351.593994 C 410.762207 350.956665 409.887146 350.049927 409.240997 350.714783 L 407.97757 351.96936 L 408.850586 352.848541 L 410.114014 351.593994"/>
                    </g>
                </g>
            </g>
        </g>
    </g>
    <g id="f">
        <path id="path88" fill="#003399" stroke="none" d="M 348.95401 303.609009 L 348.95401 303.616486 C 348.95401 306.934509 350.229004 309.957001 352.272003 312.151489 C 354.319489 314.350494 357.139496 315.71701 360.225006 315.71701 C 363.3255 315.71701 366.140991 314.359497 368.179504 312.169525 C 370.216522 309.981018 371.482513 306.961517 371.482513 303.630005 L 371.482513 287.477997 L 348.994507 287.458527 L 348.952484 303.607513"/>
        <path id="path89" fill="#ffffff" stroke="none" d="M 356.339996 293.602509 C 356.339996 294.833557 355.342041 295.831482 354.111023 295.831482 C 352.879974 295.831482 351.881989 294.833557 351.881989 293.602509 C 351.881989 292.37146 352.879974 291.373505 354.111023 291.373505 C 355.342041 291.373505 356.339996 292.37146 356.339996 293.602509 Z"/>
        <path id="path90" fill="#ffffff" stroke="none" d="M 368.817017 293.613007 C 368.817017 294.844055 367.819031 295.84201 366.588013 295.84201 C 365.356964 295.84201 364.359009 294.844055 364.359009 293.613007 C 364.359009 292.381958 365.356964 291.384003 366.588013 291.384003 C 367.819031 291.384003 368.817017 292.381958 368.817017 293.613007 Z"/>
        <path id="path91" fill="#ffffff" stroke="none" d="M 362.566498 299.602509 C 362.566498 300.833557 361.568542 301.831482 360.337494 301.831482 C 359.106476 301.831482 358.10849 300.833557 358.10849 299.602509 C 358.10849 298.37146 359.106476 297.373505 360.337494 297.373505 C 361.568542 297.373505 362.566498 298.37146 362.566498 299.602509 Z"/>
        <path id="path92" fill="#ffffff" stroke="none" d="M 356.339996 305.873993 C 356.339996 307.105042 355.342041 308.102997 354.111023 308.102997 C 352.879974 308.102997 351.881989 307.105042 351.881989 305.873993 C 351.881989 304.642975 352.879974 303.644989 354.111023 303.644989 C 355.342041 303.644989 356.339996 304.642975 356.339996 305.873993 Z"/>
        <path id="path93" fill="#ffffff" stroke="none" d="M 368.803497 305.857483 C 368.803497 307.088531 367.805542 308.086517 366.574493 308.086517 C 365.343445 308.086517 364.34549 307.088531 364.34549 305.857483 C 364.34549 304.626465 365.343445 303.62851 366.574493 303.62851 C 367.805542 303.62851 368.803497 304.626465 368.803497 305.857483 Z"/>
    </g>
    <g id="g35">
        <g id="g36">
            <path id="path94" fill="#003399" stroke="none" d="M 348.95401 264.584991 L 348.95401 264.592468 C 348.95401 267.910492 350.229004 270.932983 352.272003 273.127472 C 354.319489 275.326477 357.139496 276.692993 360.225006 276.692993 C 363.3255 276.692993 366.140991 275.33548 368.179504 273.145508 C 370.216522 270.957001 371.482513 267.9375 371.482513 264.605988 L 371.482513 248.453979 L 348.994507 248.434509 L 348.952484 264.583496"/>
            <path id="path95" fill="#ffffff" stroke="none" d="M 356.339996 254.578491 C 356.339996 255.80954 355.342041 256.807495 354.111023 256.807495 C 352.879974 256.807495 351.881989 255.80954 351.881989 254.578491 C 351.881989 253.347443 352.879974 252.349487 354.111023 252.349487 C 355.342041 252.349487 356.339996 253.347443 356.339996 254.578491 Z"/>
            <path id="path96" fill="#ffffff" stroke="none" d="M 368.817017 254.588989 C 368.817017 255.820038 367.819031 256.817993 366.588013 256.817993 C 365.356964 256.817993 364.359009 255.820038 364.359009 254.588989 C 364.359009 253.357941 365.356964 252.359985 366.588013 252.359985 C 367.819031 252.359985 368.817017 253.357941 368.817017 254.588989 Z"/>
            <path id="path97" fill="#ffffff" stroke="none" d="M 362.566498 260.578491 C 362.566498 261.80954 361.568542 262.807495 360.337494 262.807495 C 359.106476 262.807495 358.10849 261.80954 358.10849 260.578491 C 358.10849 259.347443 359.106476 258.349487 360.337494 258.349487 C 361.568542 258.349487 362.566498 259.347443 362.566498 260.578491 Z"/>
            <path id="path98" fill="#ffffff" stroke="none" d="M 356.339996 266.849976 C 356.339996 268.081024 355.342041 269.078979 354.111023 269.078979 C 352.879974 269.078979 351.881989 268.081024 351.881989 266.849976 C 351.881989 265.618958 352.879974 264.620972 354.111023 264.620972 C 355.342041 264.620972 356.339996 265.618958 356.339996 266.849976 Z"/>
            <path id="path99" fill="#ffffff" stroke="none" d="M 368.803497 266.833496 C 368.803497 268.064514 367.805542 269.0625 366.574493 269.0625 C 365.343445 269.0625 364.34549 268.064514 364.34549 266.833496 C 364.34549 265.602448 365.343445 264.604492 366.574493 264.604492 C 367.805542 264.604492 368.803497 265.602448 368.803497 266.833496 Z"/>
        </g>
    </g>
    <g id="g37">
        <g id="g38">
            <path id="path100" fill="#003399" stroke="none" d="M 317.755524 303.609009 L 317.755524 303.616486 C 317.755524 306.934509 319.030487 309.957001 321.073517 312.151489 C 323.121002 314.350494 325.94101 315.71701 329.026489 315.71701 C 332.127014 315.71701 334.942505 314.359497 336.981018 312.169525 C 339.018005 309.981018 340.283997 306.961517 340.283997 303.630005 L 340.283997 287.477997 L 317.79599 287.458527 L 317.753998 303.607513"/>
            <path id="path101" fill="#ffffff" stroke="none" d="M 325.14151 293.602509 C 325.14151 294.833557 324.143555 295.831482 322.912506 295.831482 C 321.681488 295.831482 320.683502 294.833557 320.683502 293.602509 C 320.683502 292.37146 321.681488 291.373505 322.912506 291.373505 C 324.143555 291.373505 325.14151 292.37146 325.14151 293.602509 Z"/>
            <path id="path102" fill="#ffffff" stroke="none" d="M 337.61853 293.613007 C 337.61853 294.844055 336.620544 295.84201 335.389496 295.84201 C 334.158478 295.84201 333.160522 294.844055 333.160522 293.613007 C 333.160522 292.381958 334.158478 291.384003 335.389496 291.384003 C 336.620544 291.384003 337.61853 292.381958 337.61853 293.613007 Z"/>
            <path id="path103" fill="#ffffff" stroke="none" d="M 331.368011 299.602509 C 331.368011 300.833557 330.370056 301.831482 329.139008 301.831482 C 327.907959 301.831482 326.910004 300.833557 326.910004 299.602509 C 326.910004 298.37146 327.907959 297.373505 329.139008 297.373505 C 330.370056 297.373505 331.368011 298.37146 331.368011 299.602509 Z"/>
            <path id="path104" fill="#ffffff" stroke="none" d="M 325.14151 305.873993 C 325.14151 307.105042 324.143555 308.102997 322.912506 308.102997 C 321.681488 308.102997 320.683502 307.105042 320.683502 305.873993 C 320.683502 304.642975 321.681488 303.644989 322.912506 303.644989 C 324.143555 303.644989 325.14151 304.642975 325.14151 305.873993 Z"/>
            <path id="path105" fill="#ffffff" stroke="none" d="M 337.605011 305.857483 C 337.605011 307.088531 336.607025 308.086517 335.376007 308.086517 C 334.144958 308.086517 333.147003 307.088531 333.147003 305.857483 C 333.147003 304.626465 334.144958 303.62851 335.376007 303.62851 C 336.607025 303.62851 337.605011 304.626465 337.605011 305.857483 Z"/>
        </g>
    </g>
    <g id="g39">
        <g id="g40">
            <path id="path106" fill="#003399" stroke="none" d="M 380.071503 303.609009 L 380.071503 303.616486 C 380.071503 306.934509 381.346466 309.957001 383.389496 312.151489 C 385.437012 314.350494 388.257019 315.71701 391.342468 315.71701 C 394.442993 315.71701 397.258484 314.359497 399.296997 312.169525 C 401.333984 309.981018 402.599976 306.961517 402.599976 303.630005 L 402.599976 287.477997 L 380.111969 287.458527 L 380.069977 303.607513"/>
            <path id="path107" fill="#ffffff" stroke="none" d="M 387.457489 293.602509 C 387.457489 294.833557 386.459564 295.831482 385.228516 295.831482 C 383.997467 295.831482 382.999481 294.833557 382.999481 293.602509 C 382.999481 292.37146 383.997467 291.373505 385.228516 291.373505 C 386.459564 291.373505 387.457489 292.37146 387.457489 293.602509 Z"/>
            <path id="path108" fill="#ffffff" stroke="none" d="M 399.93454 293.613007 C 399.93454 294.844055 398.936554 295.84201 397.705505 295.84201 C 396.474487 295.84201 395.476501 294.844055 395.476501 293.613007 C 395.476501 292.381958 396.474487 291.384003 397.705505 291.384003 C 398.936554 291.384003 399.93454 292.381958 399.93454 293.613007 Z"/>
            <path id="path109" fill="#ffffff" stroke="none" d="M 393.68399 299.602509 C 393.68399 300.833557 392.686066 301.831482 391.454987 301.831482 C 390.223969 301.831482 389.226013 300.833557 389.226013 299.602509 C 389.226013 298.37146 390.223969 297.373505 391.454987 297.373505 C 392.686066 297.373505 393.68399 298.37146 393.68399 299.602509 Z"/>
            <path id="path110" fill="#ffffff" stroke="none" d="M 387.457489 305.873993 C 387.457489 307.105042 386.459564 308.102997 385.228516 308.102997 C 383.997467 308.102997 382.999481 307.105042 382.999481 305.873993 C 382.999481 304.642975 383.997467 303.644989 385.228516 303.644989 C 386.459564 303.644989 387.457489 304.642975 387.457489 305.873993 Z"/>
            <path id="path111" fill="#ffffff" stroke="none" d="M 399.921021 305.857483 C 399.921021 307.088531 398.923065 308.086517 397.691986 308.086517 C 396.460968 308.086517 395.463013 307.088531 395.463013 305.857483 C 395.463013 304.626465 396.460968 303.62851 397.691986 303.62851 C 398.923065 303.62851 399.921021 304.626465 399.921021 305.857483 Z"/>
        </g>
    </g>
    <g id="g41">
        <g id="g42">
            <path id="path112" fill="#003399" stroke="none" d="M 348.95401 342.285004 L 348.95401 342.29248 C 348.95401 345.610504 350.229004 348.632996 352.272003 350.827515 C 354.319489 353.026489 357.139496 354.393005 360.225006 354.393005 C 363.3255 354.393005 366.140991 353.035492 368.179504 350.84552 C 370.216522 348.657013 371.482513 345.637512 371.482513 342.306 L 371.482513 326.153992 L 348.994507 326.134521 L 348.952484 342.283508"/>
            <path id="path113" fill="#ffffff" stroke="none" d="M 356.339996 332.278503 C 356.339996 333.509521 355.342041 334.507477 354.111023 334.507477 C 352.879974 334.507477 351.881989 333.509521 351.881989 332.278503 C 351.881989 331.047455 352.879974 330.049469 354.111023 330.049469 C 355.342041 330.049469 356.339996 331.047455 356.339996 332.278503 Z"/>
            <path id="path114" fill="#ffffff" stroke="none" d="M 368.817017 332.289001 C 368.817017 333.52005 367.819031 334.517975 366.588013 334.517975 C 365.356964 334.517975 364.359009 333.52005 364.359009 332.289001 C 364.359009 331.057953 365.356964 330.059998 366.588013 330.059998 C 367.819031 330.059998 368.817017 331.057953 368.817017 332.289001 Z"/>
            <path id="path115" fill="#ffffff" stroke="none" d="M 362.566498 338.278503 C 362.566498 339.509521 361.568542 340.507477 360.337494 340.507477 C 359.106476 340.507477 358.10849 339.509521 358.10849 338.278503 C 358.10849 337.047455 359.106476 336.049469 360.337494 336.049469 C 361.568542 336.049469 362.566498 337.047455 362.566498 338.278503 Z"/>
            <path id="path116" fill="#ffffff" stroke="none" d="M 356.339996 344.549988 C 356.339996 345.781036 355.342041 346.778992 354.111023 346.778992 C 352.879974 346.778992 351.881989 345.781036 351.881989 344.549988 C 351.881989 343.318939 352.879974 342.320984 354.111023 342.320984 C 355.342041 342.320984 356.339996 343.318939 356.339996 344.549988 Z"/>
            <path id="path117" fill="#ffffff" stroke="none" d="M 368.803497 344.533508 C 368.803497 345.764526 367.805542 346.762512 366.574493 346.762512 C 365.343445 346.762512 364.34549 345.764526 364.34549 344.533508 C 364.34549 343.30246 365.343445 342.304504 366.574493 342.304504 C 367.805542 342.304504 368.803497 343.30246 368.803497 344.533508 Z"/>
        </g>
    </g>
</svg>
