<?xml version="1.0" encoding="UTF-8"?>
<!-- Generated by Pixelmator Pro 3.5.7 -->
<svg width="900" height="600" viewBox="0 0 900 600" xmlns="http://www.w3.org/2000/svg">
    <path id="Path" fill="#e30a17" stroke="none" d="M 0 0 L 900 0 L 900 600 L 0 600 Z"/>
    <path id="path1" fill="#ffffff" stroke="none" d="M 468.75 300 C 468.75 382.842712 401.592712 450 318.75 450 C 235.907288 450 168.75 382.842712 168.75 300 C 168.75 217.157288 235.907288 150 318.75 150 C 401.592712 150 468.75 217.157288 468.75 300 Z"/>
    <path id="path2" fill="#e30a17" stroke="none" d="M 476.25 300 C 476.25 366.27417 422.52417 420 356.25 420 C 289.97583 420 236.25 366.27417 236.25 300 C 236.25 233.72583 289.97583 180 356.25 180 C 422.52417 180 476.25 233.72583 476.25 300 Z"/>
    <path id="path3" fill="#ffffff" stroke="none" d="M 437.500488 300 L 573.17627 344.084229 L 489.323273 228.670502 L 489.323273 371.329498 L 573.17627 255.915771 Z"/>
</svg>
