<?xml version="1.0" encoding="UTF-8"?>
<!-- Generated by Pixelmator Pro 3.5.7 -->
<svg width="1140" height="600" viewBox="0 0 1140 600" xmlns="http://www.w3.org/2000/svg">
    <path id="Path" fill="#b22234" stroke="none" d="M -0 0 L 1140 0 L 1140 600 L -0 600 Z"/>
    <path id="path1" fill="#000000" stroke="#ffffff" stroke-width="46.153847" d="M -0 69.230774 L 1140 69.230774 M 1140 161.538452 L -0 161.538452 M -0 253.846161 L 1140 253.846161 M 1140 346.153839 L -0 346.153839 M -0 438.461548 L 1140 438.461548 M 1140 530.769226 L -0 530.769226"/>
    <path id="path2" fill="#3c3b6e" stroke="none" d="M -0 0 L 456 0 L 456 323.076935 L -0 323.076935 Z"/>
    <g id="Group">
        <g id="d">
            <g id="c">
                <g id="e">
                    <g id="b">
                        <path id="a" fill="#ffffff" stroke="none" d="M 38 13.84613 L 48.851383 47.243408 L 20.442154 26.602722 L 55.558002 26.602722 L 27.148617 47.243408 Z"/>
                        <g id="g1">
                            <path id="path3" fill="#ffffff" stroke="none" d="M 38 78.461548 L 48.851383 111.858795 L 20.442154 91.21814 L 55.558002 91.21814 L 27.148617 111.858795 Z"/>
                        </g>
                        <g id="g2">
                            <path id="path4" fill="#ffffff" stroke="none" d="M 38 143.076935 L 48.851383 176.474152 L 20.442154 155.833557 L 55.558002 155.833557 L 27.148617 176.474152 Z"/>
                        </g>
                        <g id="g3">
                            <path id="path5" fill="#ffffff" stroke="none" d="M 38 207.692322 L 48.851383 241.089539 L 20.442154 220.448914 L 55.558002 220.448914 L 27.148617 241.089539 Z"/>
                        </g>
                    </g>
                    <g id="g4">
                        <path id="path6" fill="#ffffff" stroke="none" d="M 38 272.307678 L 48.851383 305.704926 L 20.442154 285.064301 L 55.558002 285.064301 L 27.148617 305.704926 Z"/>
                    </g>
                </g>
                <g id="g5">
                    <g id="g6">
                        <path id="path7" fill="#ffffff" stroke="none" d="M 76 46.15387 L 86.851379 79.551086 L 58.442154 58.910461 L 93.557999 58.910461 L 65.148613 79.551086 Z"/>
                        <g id="g7">
                            <path id="path8" fill="#ffffff" stroke="none" d="M 76 110.769226 L 86.851379 144.166443 L 58.442154 123.525818 L 93.557999 123.525818 L 65.148613 144.166443 Z"/>
                        </g>
                        <g id="g8">
                            <path id="path9" fill="#ffffff" stroke="none" d="M 76 175.384613 L 86.851379 208.78183 L 58.442154 188.141235 L 93.557999 188.141235 L 65.148613 208.78183 Z"/>
                        </g>
                        <g id="g9">
                            <path id="path10" fill="#ffffff" stroke="none" d="M 76 240 L 86.851379 273.397217 L 58.442154 252.756622 L 93.557999 252.756622 L 65.148613 273.397217 Z"/>
                        </g>
                    </g>
                </g>
            </g>
            <g id="g10">
                <g id="g11">
                    <g id="g12">
                        <g id="g13">
                            <path id="path11" fill="#ffffff" stroke="none" d="M 114 13.84613 L 124.851379 47.243408 L 96.442154 26.602722 L 131.557999 26.602722 L 103.148613 47.243408 Z"/>
                            <g id="g14">
                                <path id="path12" fill="#ffffff" stroke="none" d="M 114 78.461548 L 124.851379 111.858795 L 96.442154 91.21814 L 131.557999 91.21814 L 103.148613 111.858795 Z"/>
                            </g>
                            <g id="g15">
                                <path id="path13" fill="#ffffff" stroke="none" d="M 114 143.076935 L 124.851379 176.474152 L 96.442154 155.833557 L 131.557999 155.833557 L 103.148613 176.474152 Z"/>
                            </g>
                            <g id="g16">
                                <path id="path14" fill="#ffffff" stroke="none" d="M 114 207.692322 L 124.851379 241.089539 L 96.442154 220.448914 L 131.557999 220.448914 L 103.148613 241.089539 Z"/>
                            </g>
                        </g>
                        <g id="g17">
                            <path id="path15" fill="#ffffff" stroke="none" d="M 114 272.307678 L 124.851379 305.704926 L 96.442154 285.064301 L 131.557999 285.064301 L 103.148613 305.704926 Z"/>
                        </g>
                    </g>
                    <g id="g18">
                        <g id="g19">
                            <path id="path16" fill="#ffffff" stroke="none" d="M 152 46.15387 L 162.851379 79.551086 L 134.442154 58.910461 L 169.557999 58.910461 L 141.148605 79.551086 Z"/>
                            <g id="g20">
                                <path id="path17" fill="#ffffff" stroke="none" d="M 152 110.769226 L 162.851379 144.166443 L 134.442154 123.525818 L 169.557999 123.525818 L 141.148605 144.166443 Z"/>
                            </g>
                            <g id="g21">
                                <path id="path18" fill="#ffffff" stroke="none" d="M 152 175.384613 L 162.851379 208.78183 L 134.442154 188.141235 L 169.557999 188.141235 L 141.148605 208.78183 Z"/>
                            </g>
                            <g id="g22">
                                <path id="path19" fill="#ffffff" stroke="none" d="M 152 240 L 162.851379 273.397217 L 134.442154 252.756622 L 169.557999 252.756622 L 141.148605 273.397217 Z"/>
                            </g>
                        </g>
                    </g>
                </g>
            </g>
        </g>
        <g id="g23">
            <g id="g24">
                <g id="g25">
                    <g id="g26">
                        <g id="g27">
                            <path id="path20" fill="#ffffff" stroke="none" d="M 190 13.84613 L 200.851395 47.243408 L 172.442154 26.602722 L 207.558014 26.602722 L 179.148621 47.243408 Z"/>
                            <g id="g28">
                                <path id="path21" fill="#ffffff" stroke="none" d="M 190 78.461548 L 200.851395 111.858795 L 172.442154 91.21814 L 207.558014 91.21814 L 179.148621 111.858795 Z"/>
                            </g>
                            <g id="g29">
                                <path id="path22" fill="#ffffff" stroke="none" d="M 190 143.076935 L 200.851395 176.474152 L 172.442154 155.833557 L 207.558014 155.833557 L 179.148621 176.474152 Z"/>
                            </g>
                            <g id="g30">
                                <path id="path23" fill="#ffffff" stroke="none" d="M 190 207.692322 L 200.851395 241.089539 L 172.442154 220.448914 L 207.558014 220.448914 L 179.148621 241.089539 Z"/>
                            </g>
                        </g>
                        <g id="g31">
                            <path id="path24" fill="#ffffff" stroke="none" d="M 190 272.307678 L 200.851395 305.704926 L 172.442154 285.064301 L 207.558014 285.064301 L 179.148621 305.704926 Z"/>
                        </g>
                    </g>
                    <g id="g32">
                        <g id="g33">
                            <path id="path25" fill="#ffffff" stroke="none" d="M 228 46.15387 L 238.851395 79.551086 L 210.442154 58.910461 L 245.558014 58.910461 L 217.148621 79.551086 Z"/>
                            <g id="g34">
                                <path id="path26" fill="#ffffff" stroke="none" d="M 228 110.769226 L 238.851395 144.166443 L 210.442154 123.525818 L 245.558014 123.525818 L 217.148621 144.166443 Z"/>
                            </g>
                            <g id="g35">
                                <path id="path27" fill="#ffffff" stroke="none" d="M 228 175.384613 L 238.851395 208.78183 L 210.442154 188.141235 L 245.558014 188.141235 L 217.148621 208.78183 Z"/>
                            </g>
                            <g id="g36">
                                <path id="path28" fill="#ffffff" stroke="none" d="M 228 240 L 238.851395 273.397217 L 210.442154 252.756622 L 245.558014 252.756622 L 217.148621 273.397217 Z"/>
                            </g>
                        </g>
                    </g>
                </g>
                <g id="g37">
                    <g id="g38">
                        <g id="g39">
                            <g id="g40">
                                <path id="path29" fill="#ffffff" stroke="none" d="M 266 13.84613 L 276.851379 47.243408 L 248.442154 26.602722 L 283.558014 26.602722 L 255.148621 47.243408 Z"/>
                                <g id="g41">
                                    <path id="path30" fill="#ffffff" stroke="none" d="M 266 78.461548 L 276.851379 111.858795 L 248.442154 91.21814 L 283.558014 91.21814 L 255.148621 111.858795 Z"/>
                                </g>
                                <g id="g42">
                                    <path id="path31" fill="#ffffff" stroke="none" d="M 266 143.076935 L 276.851379 176.474152 L 248.442154 155.833557 L 283.558014 155.833557 L 255.148621 176.474152 Z"/>
                                </g>
                                <g id="g43">
                                    <path id="path32" fill="#ffffff" stroke="none" d="M 266 207.692322 L 276.851379 241.089539 L 248.442154 220.448914 L 283.558014 220.448914 L 255.148621 241.089539 Z"/>
                                </g>
                            </g>
                            <g id="g44">
                                <path id="path33" fill="#ffffff" stroke="none" d="M 266 272.307678 L 276.851379 305.704926 L 248.442154 285.064301 L 283.558014 285.064301 L 255.148621 305.704926 Z"/>
                            </g>
                        </g>
                        <g id="g45">
                            <g id="g46">
                                <path id="path34" fill="#ffffff" stroke="none" d="M 304 46.15387 L 314.851379 79.551086 L 286.442139 58.910461 L 321.557983 58.910461 L 293.148621 79.551086 Z"/>
                                <g id="g47">
                                    <path id="path35" fill="#ffffff" stroke="none" d="M 304 110.769226 L 314.851379 144.166443 L 286.442139 123.525818 L 321.557983 123.525818 L 293.148621 144.166443 Z"/>
                                </g>
                                <g id="g48">
                                    <path id="path36" fill="#ffffff" stroke="none" d="M 304 175.384613 L 314.851379 208.78183 L 286.442139 188.141235 L 321.557983 188.141235 L 293.148621 208.78183 Z"/>
                                </g>
                                <g id="g49">
                                    <path id="path37" fill="#ffffff" stroke="none" d="M 304 240 L 314.851379 273.397217 L 286.442139 252.756622 L 321.557983 252.756622 L 293.148621 273.397217 Z"/>
                                </g>
                            </g>
                        </g>
                    </g>
                </g>
            </g>
        </g>
        <g id="g50">
            <g id="g51">
                <g id="g52">
                    <g id="g53">
                        <path id="path38" fill="#ffffff" stroke="none" d="M 342 13.84613 L 352.851379 47.243408 L 324.442169 26.602722 L 359.558014 26.602722 L 331.148621 47.243408 Z"/>
                        <g id="g54">
                            <path id="path39" fill="#ffffff" stroke="none" d="M 342 78.461548 L 352.851379 111.858795 L 324.442169 91.21814 L 359.558014 91.21814 L 331.148621 111.858795 Z"/>
                        </g>
                        <g id="g55">
                            <path id="path40" fill="#ffffff" stroke="none" d="M 342 143.076935 L 352.851379 176.474152 L 324.442169 155.833557 L 359.558014 155.833557 L 331.148621 176.474152 Z"/>
                        </g>
                        <g id="g56">
                            <path id="path41" fill="#ffffff" stroke="none" d="M 342 207.692322 L 352.851379 241.089539 L 324.442169 220.448914 L 359.558014 220.448914 L 331.148621 241.089539 Z"/>
                        </g>
                    </g>
                    <g id="g57">
                        <path id="path42" fill="#ffffff" stroke="none" d="M 342 272.307678 L 352.851379 305.704926 L 324.442169 285.064301 L 359.558014 285.064301 L 331.148621 305.704926 Z"/>
                    </g>
                </g>
                <g id="g58">
                    <g id="g59">
                        <path id="path43" fill="#ffffff" stroke="none" d="M 380 46.15387 L 390.851379 79.551086 L 362.442139 58.910461 L 397.558014 58.910461 L 369.148621 79.551086 Z"/>
                        <g id="g60">
                            <path id="path44" fill="#ffffff" stroke="none" d="M 380 110.769226 L 390.851379 144.166443 L 362.442139 123.525818 L 397.558014 123.525818 L 369.148621 144.166443 Z"/>
                        </g>
                        <g id="g61">
                            <path id="path45" fill="#ffffff" stroke="none" d="M 380 175.384613 L 390.851379 208.78183 L 362.442139 188.141235 L 397.558014 188.141235 L 369.148621 208.78183 Z"/>
                        </g>
                        <g id="g62">
                            <path id="path46" fill="#ffffff" stroke="none" d="M 380 240 L 390.851379 273.397217 L 362.442139 252.756622 L 397.558014 252.756622 L 369.148621 273.397217 Z"/>
                        </g>
                    </g>
                </g>
            </g>
        </g>
        <g id="g63">
            <g id="g64">
                <g id="g65">
                    <path id="path47" fill="#ffffff" stroke="none" d="M 418 13.84613 L 428.851379 47.243408 L 400.442139 26.602722 L 435.557983 26.602722 L 407.148621 47.243408 Z"/>
                    <g id="g66">
                        <path id="path48" fill="#ffffff" stroke="none" d="M 418 78.461548 L 428.851379 111.858795 L 400.442139 91.21814 L 435.557983 91.21814 L 407.148621 111.858795 Z"/>
                    </g>
                    <g id="g67">
                        <path id="path49" fill="#ffffff" stroke="none" d="M 418 143.076935 L 428.851379 176.474152 L 400.442139 155.833557 L 435.557983 155.833557 L 407.148621 176.474152 Z"/>
                    </g>
                    <g id="g68">
                        <path id="path50" fill="#ffffff" stroke="none" d="M 418 207.692322 L 428.851379 241.089539 L 400.442139 220.448914 L 435.557983 220.448914 L 407.148621 241.089539 Z"/>
                    </g>
                </g>
                <g id="g69">
                    <path id="path51" fill="#ffffff" stroke="none" d="M 418 272.307678 L 428.851379 305.704926 L 400.442139 285.064301 L 435.557983 285.064301 L 407.148621 305.704926 Z"/>
                </g>
            </g>
        </g>
    </g>
</svg>
