<svg xmlns="http://www.w3.org/2000/svg" version="1.1" viewBox="0 0 3000 3000" width="3000" height="3000">
<defs/><!--ITEM: Illustration component 1--><g transform="translate(2232.0 280.0) rotate(-7.981083353257499 456.0 605.0) translate(0.0 355.3768798965712) scale(1.9317941114170725 1.932598626417505)"><svg width="150.11951754385964" height="343.5788429752066" viewBox="0.0 183.88550785392002 150.11951754385964 343.5788429752066"><path d="m2 2h470.1v279.6h-470.1z" fill="rgb(176,255,92)"/><path d="m2 626.1a2 2 0 0 1 -2-2v-622.1a2 2 0 0 1 4 0v622.1a2 2 0 0 1 -2 2z" fill="#231e40"/></svg></g><!--ITEM: Illustration component 2--><g transform="translate(1390.0 1248.0) rotate(-140.939842283697 461.0 612.0) translate(0.0 421.4285714285733) scale(1.9529760643931369 1.9549592716818398)"><svg width="91.14295010845989" height="312.0269607843138" viewBox="0.0 215.56897759103742 91.14295010845989 312.0269607843138"><path d="m2 2h470.1v279.6h-470.1z" fill="#fff23d"/><path d="m2 626.1a2 2 0 0 1 -2-2v-622.1a2 2 0 0 1 4 0v622.1a2 2 0 0 1 -2 2z" fill="#231e40"/></svg></g><!--ITEM: Illustration component 3--><g transform="translate(2632.0 758.0) rotate(16.77313516457464 461.0 612.0) translate(0.0 378.57142857142867) scale(1.9529760643931369 1.9549592716818398)"><svg width="118.79305856832973" height="334.53382352941185" viewBox="0.0 193.64670868347346 118.79305856832973 334.53382352941185"><path d="m2 2h470.1v279.6h-470.1z" fill="rgb(253,124,232)"/><path d="m2 626.1a2 2 0 0 1 -2-2v-622.1a2 2 0 0 1 4 0v622.1a2 2 0 0 1 -2 2z" fill="#231e40"/></svg></g><!--ITEM: Illustration component 4--><g transform="translate(2024.0 140.0) rotate(0.0 410.0 1314.0) translate(0.0 1732.0) scale(1.7528858486532706 1.7539878528999533)"><svg width="466.6590243902439" height="510.8359208523592" viewBox="0.0 987.4640791476407 466.6590243902439 510.8359208523592"><g fill="#231e40"><path d="m127.9 1498.2c-.1 0-.2 0-.3 0-1.1-.2-1.9-1.2-1.7-2.3l106-733.8v-405.1c0-1.1.9-2 2-2s2 .9 2 2v405.4.1l-106 734c-.2 1-1 1.7-2 1.7z"/><path d="m364.2 1498.2c-1 0-1.8-.7-2-1.7l-130.3-734c-.2-1.1.5-2.1 1.6-2.3s2.1.5 2.3 1.6l130.3 734c.2 1.1-.5 2.1-1.6 2.3-.1.1-.2.1-.3.1z"/><path d="m337 1344.9h-187c-1.1 0-2-.9-2-2s.9-2 2-2h187c1.1 0 2 .9 2 2s-.9 2-2 2z"/></g><path d="m378 0h-288.2l-89.8 357h90 287.8 90z" fill="#7b60c4"/><path d="m457.3 317.3h-446.8c-1.1 0-2-.9-2-2s.9-2 2-2h446.8c1.1 0 2 .9 2 2s-.9 2-2 2z" fill="#fff"/></svg></g><!--ITEM: Illustration component 5--><g transform="translate(2338.0 476.0) rotate(0.0 -1140.0 1146.0)  scale(-1.7210144927536233 1.721324218025389)"><svg width="1324.8" height="1331.533" viewBox="0.0 0.0 1324.8 1331.533"><path d="m485.2 231.433-192 121.3-88.9-69.3c-.1-.1-.2-.1-.3-.2a115.37 115.37 0 0 0 -30-17.3c-9.1-3.5-44.6-9.3-72.8-9.3h-81.9a19.248 19.248 0 0 0 -19.3 19.3 19.248 19.248 0 0 0 19.3 19.3 19.248 19.248 0 0 0 -19.3 19.3 19.248 19.248 0 0 0 19.3 19.3 19.248 19.248 0 0 0 -19.3 19.3 19.248 19.248 0 0 0 19.3 19.3 19.3 19.3 0 0 0 0 38.6h61.6l130.6 102a127.325 127.325 0 0 0 146.7 7.5l174.8-110.4z" fill="#fff6cc"/><path d="m332.6 385.633a2 2 0 0 1 -1.236-.428l-39.4-31a2 2 0 0 1 2.474-3.144l39.4 31a2 2 0 0 1 -1.238 3.572z" fill="#231e40"/><path d="m100.4 269.334a2 2 0 0 1 -1.809-1.145 16.9 16.9 0 0 0 -3.306-4.642 17.458 17.458 0 0 0 -12.185-5.014h-66.8a2 2 0 1 1 0-4h66.8a21.447 21.447 0 0 1 14.993 6.167 20.987 20.987 0 0 1 4.115 5.779 2 2 0 0 1 -1.807 2.857z" fill="#231e40"/><path d="m76 297.133h-59.7a2 2 0 0 1 0-4h59.7a2 2 0 0 1 0 4z" fill="#231e40"/><path d="m57.8 335.633h-41.5a2 2 0 0 1 0-4h41.5a2 2 0 1 1 0 4z" fill="#231e40"/><path d="m83 374.233h-66.8a2 2 0 1 1 0-4h66.8a17.32 17.32 0 0 0 17.3-17.3 17.109 17.109 0 0 0 -5.014-12.186 19.875 19.875 0 0 0 -2.086-1.814 2 2 0 1 1 2.4-3.2 23.878 23.878 0 0 1 2.514 2.186 21.078 21.078 0 0 1 6.186 15.014 21.324 21.324 0 0 1 -21.3 21.3z" fill="#231e40"/><path d="m83.1 412.833h-56.2a2 2 0 1 1 0-4h56.2a17.3 17.3 0 1 0 0-34.6h-63.8a2 2 0 0 1 0-4h63.8a21.3 21.3 0 1 1 0 42.6z" fill="#231e40"/><path d="m76 297.133h-56.7a2 2 0 0 1 0-4h56.7a2 2 0 0 1 0 4z" fill="#231e40"/><path d="m76.415 351.183a20.9 20.9 0 0 1 -17.6-32.124l25.1-39.5a40.019 40.019 0 0 1 33.785-18.526h6.6a2 2 0 1 1 0 4h-6.6a36.033 36.033 0 0 0 -30.417 16.68l-25.095 39.493a16.905 16.905 0 1 0 28.524 18.153l17-26.991a2 2 0 1 1 3.384 2.131l-17 27a20.919 20.919 0 0 1 -17.681 9.684z" fill="#231e40"/><path d="m136.093 329.006a35.025 35.025 0 0 1 -28.31-14.4 2 2 0 0 1 3.234-2.354 31.029 31.029 0 0 0 31.754 12.023 30.505 30.505 0 0 0 14.468-7.612 2 2 0 0 1 2.722 2.932 34.951 34.951 0 0 1 -23.868 9.407z" fill="#231e40"/><path d="m1246.4 106.933a21.324 21.324 0 0 0 -3.8-29.9l-1-.7a21.324 21.324 0 0 0 -29.9 3.8l-42.1 54.2 37.1-59.1a21.267 21.267 0 0 0 -6.7-29.4l-1-.6a21.267 21.267 0 0 0 -29.4 6.7l-36.2 57.7 26.9-61.6a21.346 21.346 0 0 0 -11-28.1l-1.1-.5a21.346 21.346 0 0 0 -28.1 11l-26.4 59.6 19.9-61.7a21.393 21.393 0 0 0 -13.8-26.9l-1.1-.4a21.393 21.393 0 0 0 -26.9 13.8l-18.8 58.2-1.7 3.2-5.2-26.8a21.411 21.411 0 0 0 -25-16.9l-1.2.2a21.411 21.411 0 0 0 -16.9 25l9.9 51c2.2 15.3-1.7 42.2-12 62.9l-29.9 56.6-185.9-26.9-9.8 176.8 204.6 29.6a127.319 127.319 0 0 0 130.9-66.6l85.2-161.3c7.7-14.5 16.6-29.5 26-41.6z" fill="#fff6cc"/><path d="m941.9 285.233a2 2 0 0 1 -1.766-2.935l29.2-55.2a2 2 0 1 1 3.536 1.87l-29.2 55.2a2 2 0 0 1 -1.77 1.065z" fill="#231e40"/><path d="m1055.9 101.434a2 2 0 0 1 -1.961-1.62l-8.5-43.8a2 2 0 1 1 3.926-.762l8.5 43.8a2 2 0 0 1 -1.582 2.345 2.1 2.1 0 0 1 -.383.037z" fill="#231e40"/><path d="m1092 146.433a2 2 0 0 1 -2-2 43.724 43.724 0 0 0 -34.418-42.544 2 2 0 0 1 .836-3.912 47.744 47.744 0 0 1 37.582 46.456 2 2 0 0 1 -2 2z" fill="#231e40"/><path d="m1183.6 142.033a1.992 1.992 0 0 1 -.973-.254l-103.5-57.8a2 2 0 1 1 1.95-3.492l103.5 57.8a2 2 0 0 1 -.977 3.746z" fill="#231e40"/><path d="m149.7 1314.033h341.5a11.368 11.368 0 0 0 11.2-9.3l14.8-78.4h-260.6s-72.7 38.1-107.2 74.6c-6.4 6.8-5.8 13.1.3 13.1z" fill="#231e40"/><path d="m263.5 1270.833a2 2 0 0 1 -1.626-.832l-23.8-33.1a2 2 0 0 1 3.248-2.335l23.8 33.1a2 2 0 0 1 -1.622 3.167z" fill="#fff"/><path d="m245.1 1284.033a2 2 0 0 1 -1.626-.833l-24.8-34.5a2 2 0 0 1 3.248-2.335l24.8 34.5a2 2 0 0 1 -1.622 3.168z" fill="#fff"/><path d="m497.2 1331.533h-352.4a2 2 0 1 1 0-4h352.4a2 2 0 1 1 0 4z" fill="#231e40"/><path d="m256.6 1226.333h260.7l22-116.2h-260.7z" fill="#fff6cc"/><path d="m1186.6 1184.233 119.8-336.8a8.62 8.62 0 0 0 -5-10.8l-74.2-28.1-87.4 245.6s11.5 81.3 34.3 126c4.3 8.3 10.5 9.9 12.5 4.1z" fill="#231e40"/><path d="m1143.1 1075.133a2 2 0 0 1 -.554-3.922l39.1-11.3a2 2 0 1 1 1.11 3.842l-39.1 11.3a1.986 1.986 0 0 1 -.556.08z" fill="#fff"/><path d="m1147.6 1097.434a2 2 0 0 1 -.553-3.922l40.9-11.8a2 2 0 0 1 1.108 3.843l-40.9 11.8a2.017 2.017 0 0 1 -.555.079z" fill="#fff"/><path d="m1199.6 1196.033a2 2 0 0 1 -1.885-2.671l123.2-346.2a2 2 0 0 1 3.768 1.34l-123.2 346.2a2 2 0 0 1 -1.883 1.331z" fill="#231e40"/><path d="m1139.8 1054.133 87.4-245.6-102.2-38.9-87.3 245.6z" fill="#fff6cc"/><path d="m919 698.433-69.7-270h-455.7l-145.7 708.2 340-2 29.5-422.2 10.4 69.4a200.646 200.646 0 0 0 128.1 158.2l292.1 109.3 105-297.2z" fill="#7b60c4"/><path d="m618.7 736.233a2 2 0 0 1 -1.975-1.7l-45.8-305.8a2 2 0 1 1 3.956-.593l45.8 305.8a2 2 0 0 1 -1.981 2.3z" fill="#fff"/><path d="m856 455.933h-467.6a2 2 0 0 1 0-4h467.6a2 2 0 0 1 0 4z" fill="#fff"/><path d="m827.2 745.434a2 2 0 0 1 -.882-3.8l91.8-45a2 2 0 1 1 1.76 3.592l-91.8 45a1.989 1.989 0 0 1 -.878.208z" fill="#fff"/><path d="m253.4 1112.133a2 2 0 0 1 0-4l336.3-.2a2 2 0 0 1 0 4z" fill="#fff"/><path d="m1024.1 1042.334a2.022 2.022 0 0 1 -.667-.115 2 2 0 0 1 -1.219-2.552l103.9-293.9a2 2 0 1 1 3.772 1.333l-103.9 293.9a2 2 0 0 1 -1.886 1.334z" fill="#fff"/><path d="m585.9 516.233h-11.7a23.831 23.831 0 0 1 -23.779-20.407l-10.1-67.1a2 2 0 0 1 3.955-.6l10.1 67.1a19.857 19.857 0 0 0 19.822 17h11.7a2 2 0 0 1 0 4z" fill="#fff"/><path d="m871.6 516.233h-33.9a53.034 53.034 0 0 1 -51.437-39.8l-12.3-47.495a2 2 0 1 1 3.872-1l12.3 47.5a49.036 49.036 0 0 0 47.564 36.8h33.9a2 2 0 1 1 0 4z" fill="#fff"/><path d="m849.4 428.433h-455.8s11.6-71.3 25.2-109.5c26.8-75.2 83.5-112 167.9-118 64.4-4.6 142.8-3.3 198.6.2-.89 33.23-4.96 82.89 13.4 136.46a2.413 2.413 0 0 0 .08.25c.45 1.3.92 2.61 1.4 3.93q2.82 7.785 6.32 15.66c6.82 15.34 19.64 23.74 26.63 27.39 2.1 1.08 3.68 1.74 4.41 2.03.3.12.46.18.46.18l.11.39 1.57 5.71.54 1.95z" fill="#fd7ce8"/><g fill="#fff"><path d="m474 400.233a1.992 1.992 0 0 1 -1.408-.58l-11.9-11.8a2 2 0 1 1 2.816-2.84l11.9 11.8a2 2 0 0 1 -1.408 3.42z"/><path d="m617.9 400.233a1.99 1.99 0 0 1 -1.414-.586l-11.8-11.8a2 2 0 0 1 2.828-2.828l11.8 11.8a2 2 0 0 1 -1.414 3.414z"/><path d="m541.9 400.233a1.992 1.992 0 0 1 -1.408-.58l-11.9-11.8a2 2 0 0 1 2.816-2.84l11.9 11.8a2 2 0 0 1 -1.408 3.421z"/><path d="m694 400.233a1.99 1.99 0 0 1 -1.414-.586l-11.8-11.8a2 2 0 0 1 2.828-2.828l11.8 11.8a2 2 0 0 1 -1.414 3.414z"/><path d="m770.1 400.233a1.992 1.992 0 0 1 -1.408-.58l-11.9-11.8a2 2 0 1 1 2.816-2.84l11.9 11.8a2 2 0 0 1 -1.408 3.421z"/><path d="m840.22 395.083-7.33-7.24a1.992 1.992 0 0 1 0-2.82 2.118 2.118 0 0 1 .24-.2c2.1 1.08 3.68 1.74 4.41 2.03.3.12.46.18.46.18l.11.39 1.57 5.71z"/><path d="m424.1 344.833a2 2 0 0 1 -1.408-3.42l11.9-11.8a2 2 0 1 1 2.816 2.841l-11.9 11.8a1.992 1.992 0 0 1 -1.408.579z"/><path d="m492 344.833a2 2 0 0 1 -1.414-3.414l11.8-11.8a2 2 0 0 1 2.828 2.828l-11.8 11.8a1.99 1.99 0 0 1 -1.414.586z"/><path d="m644.1 344.833a2 2 0 0 1 -1.408-3.42l11.9-11.8a2 2 0 1 1 2.817 2.84l-11.9 11.8a1.991 1.991 0 0 1 -1.409.58z"/><path d="m568.1 344.833a2 2 0 0 1 -1.414-3.414l11.8-11.8a2 2 0 0 1 2.828 2.828l-11.8 11.8a1.99 1.99 0 0 1 -1.414.586z"/><path d="m720.2 344.833a2 2 0 0 1 -1.414-3.414l11.8-11.8a2 2 0 0 1 2.828 2.828l-11.8 11.8a1.992 1.992 0 0 1 -1.414.586z"/><path d="m800.18 341.773-2.47 2.47a1.994 1.994 0 1 1 -2.82-2.82l3.81-3.83a2.413 2.413 0 0 0 .08.25c.45 1.3.92 2.61 1.4 3.93z"/><path d="m474 296.233a1.99 1.99 0 0 1 -1.414-.586l-11.9-11.9a2 2 0 0 1 2.828-2.828l11.9 11.9a2 2 0 0 1 -1.414 3.414z"/><path d="m617.9 296.233a1.99 1.99 0 0 1 -1.42-.592l-11.8-11.9a2 2 0 0 1 2.841-2.816l11.8 11.9a2 2 0 0 1 -1.42 3.408z"/><path d="m541.9 296.233a1.99 1.99 0 0 1 -1.414-.586l-11.9-11.9a2 2 0 1 1 2.828-2.828l11.9 11.9a2 2 0 0 1 -1.414 3.414z"/><path d="m694 296.233a1.989 1.989 0 0 1 -1.42-.592l-11.8-11.9a2 2 0 1 1 2.84-2.816l11.8 11.9a2 2 0 0 1 -1.42 3.408z"/><path d="m770.1 296.233a1.992 1.992 0 0 1 -1.414-.586l-11.9-11.9a2 2 0 0 1 2.828-2.828l11.9 11.9a2 2 0 0 1 -1.414 3.414z"/><path d="m492 240.733a2 2 0 0 1 -1.414-3.414l11.8-11.8a2 2 0 1 1 2.828 2.828l-11.8 11.8a1.99 1.99 0 0 1 -1.414.586z"/><path d="m644.1 240.733a2 2 0 0 1 -1.408-3.42l11.9-11.8a2 2 0 1 1 2.817 2.84l-11.9 11.8a1.991 1.991 0 0 1 -1.409.58z"/><path d="m568.1 240.733a2 2 0 0 1 -1.414-3.414l11.8-11.8a2 2 0 1 1 2.828 2.828l-11.8 11.8a1.99 1.99 0 0 1 -1.414.586z"/><path d="m720.2 240.733a2 2 0 0 1 -1.414-3.414l11.8-11.8a2 2 0 1 1 2.828 2.828l-11.8 11.8a1.992 1.992 0 0 1 -1.414.586z"/></g></svg></g><!--ITEM: Illustration component 6--><g transform="translate(1990.0 1244.0) rotate(25.49232520163719 457.0 460.0)  scale(4.916621839698762 4.946236559139785)"><svg width="185.9" height="186.0" viewBox="0.0 0.0 185.9 186.0"><path d="m185.9 92.8c0 3.4-.2 6.8-.5 10.1-.1.7-.2 1.5-.3 2.2-.02.12-.03.24-.06.37-.07.58-.16 1.17-.24 1.83-.3 1.9-.7 3.8-1.1 5.7-2.4 10.7-6.6 20.7-12.3 29.7-.3.5-.7 1.1-1 1.6l-3.6 5.1c-.19.25-.39.5-.6.75-2.12 2.72-4.42 5.28-6.8 7.75-3.5 3.5-7.2 6.8-11.2 9.8-.7.5-1.4 1-2.2 1.6-.2.2-.4.3-.7.5-2.36 1.63-4.81 3.15-7.33 4.55-2.39 1.33-4.85 2.56-7.38 3.67-3.02 1.34-6.12 2.52-9.3 3.53-.23.07-.47.15-.7.22-.64.2-1.28.39-1.93.57-2.35.68-4.74 1.27-7.16 1.76-2.4.5-4.8.9-7.3 1.2-1.34.16-2.62.32-3.94.42-.35.03-.7.06-1.06.08-2.1.1-4.2.2-6.3.2h-1.3c-2.93-.04-5.83-.21-8.69-.52-20.86-2.21-39.69-11.36-54.11-25.08-2.1-2-4.1-4.1-6-6.3-4.4-5-8.3-10.6-11.5-16.5-1.9-3.5-3.6-7.1-5-10.8-2.2-5.7-3.9-11.6-4.9-17.7-.07-.33-.13-.67-.18-1.01-.29-1.69-.47-3.44-.72-5.19-.3-3.3-.5-6.6-.5-9.9v-1.9c.13-7.76 1.23-15.29 3.2-22.46 1.01-3.71 2.26-7.32 3.71-10.82.22-.54.45-1.08.69-1.62.46-1.08.94-2.16 1.45-3.22 1.26-2.67 2.68-5.28 4.25-7.78.8-1.3 1.6-2.7 2.5-4 .98-1.44 1.99-2.86 3.05-4.24 2.41-3.17 5-6.18 7.77-9.02 1.69-1.75 3.46-3.42 5.28-5.04.6-.5 1.3-1.1 1.9-1.6.12-.09.24-.19.35-.28.38-.31.74-.61 1.05-.92.3-.2.6-.5.9-.7.6-.5 1.2-.9 1.8-1.4.6-.4 1.2-.9 1.9-1.3.05-.04.11-.07.17-.11 6.12-4.3 12.75-7.84 19.81-10.55 2.67-1.02 5.4-1.93 8.19-2.7 1.95-.54 3.92-1.02 5.93-1.44 2.9-.6 5.8-1.1 8.8-1.4 1.3-.1 2.5-.3 3.8-.3h.4c.4 0 .8-.1 1.2-.1.6 0 1.1-.1 1.6-.1h3.2c2.9 0 5.8.1 8.7.4 6.5.6 12.7 1.9 18.7 3.7 10.9 3.4 20.9 8.7 29.7 15.5.1 0 .1.1.2.1 1.2.9 2.4 1.9 3.6 2.9 1.8 1.5 3.5 3.2 5.2 4.9.5.5.9.9 1.3 1.4 1.8 1.8 3.4 3.8 5 5.7 1.7 2.1 3.2 4.2 4.7 6.4.6 1 1.3 1.9 1.9 2.9.2.3.3.5.5.8.9 1.5 1.8 3.1 2.6 4.6 0 .1.1.2.1.2.9 1.6 1.7 3.3 2.4 5 .4.9.8 1.8 1.2 2.7.5 1.1.9 2.2 1.3 3.3.9 2.4 1.7 4.9 2.4 7.5.5 1.9 1 3.7 1.4 5.6.2.8.3 1.6.5 2.3.1.8.3 1.6.4 2.4.1.6.2 1.2.3 1.9 0 .2.1.5.1.7.1.7.2 1.5.3 2.2s.2 1.5.2 2.2v.5c0 .5.1 1 .1 1.6v1.2c0 .6.1 1.2.1 1.8v.2 1.6c.1.2.1.4.1.6z" fill="rgb(227,217,252)"/><path d="m160.3 131.158-13.988 17.934-12.553 11.597-3.168 17.331c-3.02 1.34-6.12 2.52-9.3 3.53-.23.07-.47.15-.7.22-.64.2-1.28.39-1.93.57l-7.82-29.35-25.32-23.7 19.52-37.88 7.98-1.47 19.64 18.05 26.201 9.251z" fill="rgb(123,96,196)"/><path d="m97.259 55.03-27.36 30.4 10.68 24.01-4.19 4.02-40.26-17.94-27.08-42.54c1.26-2.67 2.68-5.28 4.25-7.78.8-1.3 1.6-2.7 2.5-4 .98-1.44 1.99-2.86 3.05-4.24 2.41-3.17 5-6.18 7.77-9.02 1.69-1.75 3.46-3.42 5.28-5.04.6-.5 1.3-1.1 1.9-1.6.12-.09.24-.19.35-.28.38-.31.74-.61 1.05-.92.3-.2.6-.5.9-.7.6-.5 1.2-.9 1.8-1.4.6-.4 1.2-.9 1.9-1.3.05-.04.11-.07.17-.11 7.12-3.73 69.92 24.48 69.92 24.48z" fill="rgb(123,96,196)"/><path d="m91.555 118.847-2.188 6.121-19.571-14.446 7.564-8.318z" fill="rgb(123,96,196)"/><path d="m99.241 36.409-27.321 2.939-6.992-18.744 27.715-7.761z" fill="rgb(227,217,252)"/><g fill="rgb(123,96,196)"><path d="m109.889 41.07-25.446-.517-3.261-12.733 24.403-2.405z"/><path d="m68.031 17.763-6.247 13.493-18.94-14.964 19.973-4.464z"/><path d="m110.837 152.986-24.067-16.727-1.254-6.965 4.458-6.415 28.177 19.582z"/><path d="m84.247 83.212-2.682 9.678-16.296-15.434 11.934-12.601z"/></g></svg></g><!--ITEM: Illustration component 7--><g transform="translate(1346.0 636.0) rotate(0.0 -74.0 74.0)  scale(-1.549738219895288 1.5481171548117156)"><svg width="95.5" height="95.6" viewBox="0.0 0.0 95.5 95.6"><path d="m0 47.8a47.779 47.779 0 1 0 18.4-37.7 47.8 47.8 0 0 0 -18.4 37.7z" fill="#fff6cc"/><path d="m18.4 10.2a84.125 84.125 0 0 0 75.3 50.8 47.893 47.893 0 0 0 -46-60.9 47.067 47.067 0 0 0 -29.3 10.1z" fill="#231e40"/></svg></g><!--ITEM: Illustration component 8--><g transform="translate(1204.0 380.0) rotate(-14.265926484911676 -178.0 156.0)  scale(-1.6774412424373786 1.6862312731046112)"><svg width="212.228" height="185.028" viewBox="0.0 0.0 212.228 185.028"><g fill="#231e40"><path d="m205.763 137.336c-14.6 19.7-50.2 18.9-85.2.2 1.5 8 .4 15.4-3.8 21-9.6 12.9-32.4 13-55.6 1.7a20.354 20.354 0 0 1 -2.3 14.1c-6.8 11.7-24.5 14.2-39.6 5.5s-21.8-25.3-15-37c4.1-7.1 12.1-10.8 21.1-10.7-14.5-17.8-19.4-37.3-10.6-49.2 8.2-11 25.9-12.7 45.4-6-8.3-18.1-9-35.5-.1-47.6 17.3-23.3 63.8-18 104 11.8 40.4 29.9 59 72.9 41.7 96.2z"/><path d="m36.461 144.436a2 2 0 0 1 -1.192-.4c-13.858-10.307-24.74-22.949-30.643-35.6-6.1-13.057-6.19-24.636-.268-32.6s17.042-11.243 31.286-9.218c13.832 1.967 29.072 8.719 42.912 19.013a2 2 0 1 1 -2.387 3.21c-13.314-9.9-27.906-16.388-41.088-18.262-12.728-1.81-22.5.907-27.513 7.65-10.618 14.282 2.88 42.365 30.088 62.6a2 2 0 0 1 -1.2 3.605z"/><path d="m94.661 116.236a1.992 1.992 0 0 1 -1.189-.393c-19.726-14.623-34.982-32.843-42.958-51.301-8.136-18.831-7.765-35.735 1.043-47.6 15.218-20.608 57.367-22.615 92.037-4.378a2 2 0 1 1 -1.862 3.54c-33.022-17.368-72.845-15.894-86.96 3.22-7.925 10.676-8.132 26.166-.586 43.631 7.7 17.823 22.5 35.464 41.668 49.674a2 2 0 0 1 -1.193 3.607z"/></g></svg></g></svg>