<svg xmlns="http://www.w3.org/2000/svg" viewBox="0 0 64 64"><g id="_02-Next" data-name="02-Next"><polygon points="43 1 63 32 43 63 28 63 48 32 28 1 43 1" style="fill:#2483c6"/><polygon points="28 1 48 32 28 63 28 56 43 32 28 8 28 1" style="fill:#1c69a1"/><polygon points="19 1 39 32 19 63 5 63 5 1 19 1" style="fill:#ffdb02"/><polygon points="5 1 5 63 1 59 1 5 5 1" style="fill:#fa5f07"/><polygon points="28 1 48 32 63 32 43 1 28 1" style="fill:#6bdcff"/><polygon points="28 1 28 8 43 32 48 32 28 1" style="fill:#2a84c9"/><path d="M1.8,43.6A2,2,0,0,1,1,42V59l4,4V42A2,2,0,0,1,1.8,43.6Z" style="fill:#e05506"/><path d="M19.768,48A9.768,9.768,0,0,1,10,38.232V1H5V63H19L39,32,26.894,44.913A9.769,9.769,0,0,1,19.768,48Z" style="fill:#fd9c04"/></g></svg>