<?xml version="1.0" encoding="UTF-8"?>
<svg id="Layer_2" data-name="Layer 2" xmlns="http://www.w3.org/2000/svg" viewBox="0 0 62 62">
  <defs>
    <style>
      .cls-1 {
        fill: #e05506;
      }

      .cls-1, .cls-2, .cls-3, .cls-4, .cls-5, .cls-6, .cls-7, .cls-8 {
        stroke-width: 0px;
      }

      .cls-2 {
        fill: #2a84c9;
      }

      .cls-3 {
        fill: #1c69a1;
      }

      .cls-4 {
        fill: #ffdb02;
      }

      .cls-5 {
        fill: #fa5f07;
      }

      .cls-6 {
        fill: #2483c6;
      }

      .cls-7 {
        fill: #6bdcff;
      }

      .cls-8 {
        fill: #fd9c04;
      }
    </style>
  </defs>
  <g id="_02-Next" data-name="02-Next">
    <g>
      <polygon class="cls-6" points="20 62 0 31 20 0 35 0 15 31 35 62 20 62"/>
      <polygon class="cls-3" points="35 62 15 31 35 0 35 7 20 31 35 55 35 62"/>
      <polygon class="cls-4" points="44 62 24 31 44 0 58 0 58 62 44 62"/>
      <polygon class="cls-5" points="58 62 58 0 62 4 62 58 58 62"/>
      <g>
        <polygon class="cls-7" points="35 62 15 31 0 31 20 62 35 62"/>
        <polygon class="cls-2" points="35 62 35 55 20 31 15 31 35 62"/>
      </g>
      <path class="cls-1" d="M61.2,19.4c.5.38.8.97.8,1.6V4S58,0,58,0v21c0-1.65,1.88-2.59,3.2-1.6Z"/>
      <path class="cls-8" d="M43.23,15c5.39,0,9.77,4.37,9.77,9.77v37.23s5,0,5,0V0s-14,0-14,0l-20,31,12.11-12.91c1.85-1.97,4.43-3.09,7.13-3.09Z"/>
    </g>
  </g>
</svg>